<svg width="255" height="53" viewBox="0 0 255 53" fill="none" xmlns="http://www.w3.org/2000/svg">
<g id="logo_liqpay copy 7">
<g id="Group 2">
<g id="Group">
<path id="Path" fill-rule="evenodd" clip-rule="evenodd" d="M214.342 40.9144L213.757 40.4134C212.338 39.2026 212.087 36.9899 213.382 35.5704L228.578 18.2026C229.789 16.7832 232.002 16.5327 233.421 17.8269L234.006 18.3279C235.425 19.5386 235.676 21.7513 234.382 23.1708L219.185 40.5386C217.974 41.9581 215.845 42.1251 214.342 40.9144Z" fill="url(#paint0_linear)"/>
<path id="Path_2" opacity="0.4" fill-rule="evenodd" clip-rule="evenodd" d="M226.533 21.2086L226.24 20.8746L223.902 23.5466L224.153 23.8388C228.161 27.8468 226.449 31.8965 225.531 33.316L225.865 32.9402C226.407 32.314 227.242 31.3538 228.119 30.31C229.038 28.7235 230.332 24.9661 226.533 21.2086Z" fill="url(#paint1_linear)"/>
<path id="Path_3" opacity="0.4" fill-rule="evenodd" clip-rule="evenodd" d="M231.543 26.4273L232.169 25.7175C232.211 25.634 232.294 25.5505 232.336 25.467C231.668 26.2185 230.958 27.0118 230.29 27.805C230.791 27.2623 231.209 26.803 231.543 26.4273Z" fill="url(#paint2_radial)"/>
<path id="Path_4" fill-rule="evenodd" clip-rule="evenodd" d="M234.465 18.7454L219.268 1.37762C218.058 -0.0418585 215.845 -0.292355 214.425 1.00188L213.841 1.50287C212.421 2.71361 212.171 4.92633 213.465 6.34581L226.282 20.8746L226.574 21.2086C230.374 25.0078 229.079 28.7653 228.119 30.3518C228.871 29.475 229.622 28.5983 230.332 27.805C231 27.0118 231.71 26.2186 232.378 25.4671C233.046 24.7156 233.672 24.0058 234.089 23.5466C235.551 22.1271 235.759 20.1649 234.465 18.7454Z" fill="url(#paint3_linear)"/>
</g>
<g id="Group_2">
<path id="Path_5" fill-rule="evenodd" clip-rule="evenodd" d="M233.63 40.9144L233.046 40.4134C231.626 39.2026 231.376 36.9899 232.67 35.5704L247.867 18.2026C249.077 16.7832 251.29 16.5327 252.71 17.8269L253.294 18.3279C254.714 19.5386 254.964 21.7513 253.67 23.1708L238.473 40.5386C237.262 41.9581 235.133 42.1251 233.63 40.9144Z" fill="url(#paint4_linear)"/>
<path id="Path_6" opacity="0.4" fill-rule="evenodd" clip-rule="evenodd" d="M245.988 21.0415L245.696 20.7075L243.358 23.3795L243.608 23.6717C247.616 27.6797 245.904 31.7294 244.986 33.1489L245.32 32.7731C245.863 32.1469 246.698 31.1866 247.574 30.1429C248.493 28.5564 249.787 24.799 245.988 21.0415Z" fill="url(#paint5_linear)"/>
<path id="Path_7" opacity="0.4" fill-rule="evenodd" clip-rule="evenodd" d="M250.789 26.4273L251.415 25.7175C251.457 25.634 251.541 25.5505 251.582 25.467C250.914 26.2185 250.205 27.0118 249.537 27.805C250.038 27.2623 250.497 26.803 250.789 26.4273Z" fill="url(#paint6_radial)"/>
<path id="Path_8" fill-rule="evenodd" clip-rule="evenodd" d="M253.712 18.7454L238.516 1.37762C237.305 -0.0418585 235.092 -0.292355 233.673 1.00188L233.088 1.50287C231.669 2.71361 231.418 4.92633 232.712 6.34581L245.529 20.8746L245.822 21.2086C249.621 25.0078 248.327 28.7653 247.366 30.3518C248.118 29.475 248.869 28.5983 249.579 27.805C250.247 27.0118 250.957 26.2186 251.625 25.4671C252.293 24.7156 252.919 24.0058 253.337 23.5466C254.798 22.1271 255.007 20.1649 253.712 18.7454Z" fill="url(#paint7_linear)"/>
</g>
</g>
<g id="Group_3">
<path id="Path_9" fill-rule="evenodd" clip-rule="evenodd" d="M0.918488 40.7485C0.333996 40.164 0 39.2872 0 38.2017V3.84192C0 2.71469 0.333996 1.83795 1.04374 1.12821C1.75348 0.418468 2.63022 0.0844727 3.75745 0.0844727C4.88469 0.0844727 5.88668 0.418468 6.55467 1.12821C7.26441 1.83795 7.5984 2.71469 7.5984 3.84192V35.5298H24.0059C26.3439 35.5298 27.5546 36.5735 27.5546 38.6192C27.5546 40.665 26.3439 41.7087 24.0059 41.7087H3.54871C2.42147 41.7087 1.54473 41.3747 0.918488 40.7485Z" fill="white"/>
<path id="Path_10" fill-rule="evenodd" clip-rule="evenodd" d="M33.4828 40.998C32.7731 40.2882 32.4391 39.3698 32.4391 38.2008V3.7992C32.4391 2.67196 32.7731 1.79523 33.4828 1.08548C34.1926 0.375744 35.0693 0.041748 36.1965 0.041748C37.3238 0.041748 38.3258 0.375744 38.9938 1.08548C39.7035 1.79523 40.0375 2.67196 40.0375 3.7992V38.2008C40.0375 39.328 39.7035 40.2882 38.9938 40.998C38.284 41.7077 37.3655 42.0417 36.1965 42.0417C35.1111 42.0417 34.1926 41.7077 33.4828 40.998Z" fill="white"/>
<path id="Shape" fill-rule="evenodd" clip-rule="evenodd" d="M83.457 49.5149C83.457 48.8051 83.2065 48.1371 82.789 47.4274L80.7016 44.2962C79.4908 42.334 78.0296 40.998 76.2344 40.4135C79.6996 38.8688 82.3715 36.4473 84.2085 33.1073C86.0872 29.8091 87.0057 25.7594 87.0057 21.1252C87.0057 16.825 86.2125 13.0676 84.626 9.89463C83.0395 6.76341 80.7851 4.3002 77.8209 2.54672C74.8984 0.876739 71.3914 0 67.4252 0C63.3755 0 59.9103 0.79324 56.9461 2.54672C54.0237 4.3002 51.7274 6.72167 50.141 9.89463C48.5962 13.1093 47.7612 16.825 47.7612 21.1252C47.7612 25.3837 48.5545 29.1411 50.141 32.3558C51.7274 35.4871 53.9819 37.9503 56.9461 39.7038C59.9103 41.3737 63.3755 42.2505 67.4252 42.2505C68.8447 42.2505 69.972 42.501 70.8487 42.9185C71.7254 43.336 72.4352 44.0039 72.9779 44.9224L76.4014 50.6004C76.8189 51.2266 77.3616 51.7276 77.9461 52.0616C78.5723 52.3956 79.2403 52.5626 79.9501 52.5626C80.8686 52.5626 81.7036 52.2286 82.4133 51.6858C83.123 51.1431 83.457 50.3916 83.457 49.5149ZM79.4492 21.0417C79.4492 25.8847 78.3637 29.6421 76.2344 32.2723C74.1052 34.9025 71.141 36.1968 67.3418 36.1968C63.5426 36.1968 60.5366 34.9025 58.4074 32.2723C56.2782 29.6421 55.1927 25.9682 55.1927 21.0417C55.1927 16.1153 56.2782 12.4413 58.4074 9.81111C60.5366 7.22265 63.5009 5.92841 67.3418 5.92841C71.1828 5.92841 74.1052 7.1809 76.2344 9.81111C78.3637 12.4413 79.4492 16.1153 79.4492 21.0417Z" fill="white"/>
<path id="Shape_2" fill-rule="evenodd" clip-rule="evenodd" d="M95.1471 38.2008C95.1471 39.3698 95.4811 40.2883 96.1908 40.998C96.8171 41.7078 97.7773 42.0418 98.9045 42.0835C100.074 42.0835 100.992 41.7495 101.702 41.0398C102.412 40.3718 102.746 39.4533 102.746 38.2426V25.6342H113.225C117.65 25.6342 121.074 24.5487 123.537 22.2943C126 20.0815 127.252 16.9503 127.252 12.9841C127.252 9.01793 126 5.88672 123.537 3.71575C121.074 1.46128 117.65 0.375793 113.225 0.375793H98.821C97.6938 0.375793 96.8171 0.709789 96.1491 1.29428C95.4811 1.92052 95.1471 2.79726 95.1471 3.9245V38.2008ZM120.072 13.0675C120.072 17.5765 117.441 19.8727 112.264 19.8727L102.746 19.8309V6.26237H112.264C117.441 6.26237 120.072 8.55859 120.072 13.0675Z" fill="white"/>
<path id="Shape_3" fill-rule="evenodd" clip-rule="evenodd" d="M166.121 40.998C166.831 40.33 167.207 39.5785 167.207 38.7018C167.207 38.159 167.081 37.6998 166.914 37.157L150.674 2.37972C150.298 1.58648 149.755 1.00199 149.046 0.584493C148.336 0.208747 147.584 0 146.749 0C145.914 0 145.163 0.166998 144.453 0.584493C143.702 1.00199 143.159 1.62823 142.825 2.37972L126.626 37.157C126.417 37.658 126.292 38.2008 126.292 38.7018C126.292 39.6202 126.626 40.4135 127.378 40.998C128.087 41.5825 128.964 41.9165 129.841 41.9165C130.509 41.9165 131.093 41.7495 131.636 41.4155C132.179 41.0815 132.596 40.5805 132.93 39.8707L136.479 32.0218H157.02L160.568 39.8707C160.861 40.5387 161.32 41.0815 161.863 41.4155C162.405 41.7495 163.032 41.9165 163.616 41.9165C164.576 41.9165 165.411 41.5825 166.121 40.998ZM154.515 26.1769H139.026L146.749 8.80915L154.515 26.1769Z" fill="white"/>
<path id="Path_11" fill-rule="evenodd" clip-rule="evenodd" d="M196.431 0.0834975C197.308 0.0834975 198.101 0.417493 198.811 1.12723C199.521 1.83698 199.855 2.58847 199.855 3.59045C199.855 4.34194 199.562 5.13518 198.978 5.84492L185.66 22.0855V38.326C185.66 39.5368 185.326 40.4552 184.616 41.165C183.906 41.8747 183.03 42.167 181.944 42.167C180.817 42.167 179.857 41.833 179.147 41.165C178.437 40.497 178.103 39.5785 178.103 38.326V22.0855L164.869 5.80318C164.284 5.09343 163.992 4.34194 163.992 3.5487C163.992 2.63022 164.326 1.79523 165.036 1.08548C165.745 0.375744 166.58 0.041748 167.415 0.041748C168.417 0.041748 169.211 0.459243 169.92 1.33598L181.902 16.1988L193.843 1.33598C194.553 0.500992 195.429 0.0834975 196.431 0.0834975Z" fill="white"/>
</g>
</g>
<defs>
<linearGradient id="paint0_linear" x1="219.088" y1="46.3352" x2="240.179" y2="36.1096" gradientUnits="userSpaceOnUse">
<stop stop-color="#1FADC3"/>
<stop offset="0.7072" stop-color="#36B98F"/>
</linearGradient>
<linearGradient id="paint1_linear" x1="226.494" y1="29.9114" x2="230.436" y2="29.3373" gradientUnits="userSpaceOnUse">
<stop stop-color="#123F06" stop-opacity="0.01"/>
<stop offset="1" stop-color="#123F06"/>
</linearGradient>
<radialGradient id="paint2_radial" cx="0" cy="0" r="1" gradientUnits="userSpaceOnUse" gradientTransform="translate(223.168 28.5978) scale(10.1793 11.6335)">
<stop offset="0.4185" stop-color="#123F06" stop-opacity="0.01"/>
<stop offset="1" stop-color="#123F06"/>
</radialGradient>
<linearGradient id="paint3_linear" x1="204.664" y1="23.1727" x2="230.242" y2="32.0116" gradientUnits="userSpaceOnUse">
<stop stop-color="#9FDB57"/>
<stop offset="1" stop-color="#71CA5E"/>
</linearGradient>
<linearGradient id="paint4_linear" x1="238.358" y1="46.3458" x2="259.449" y2="36.1201" gradientUnits="userSpaceOnUse">
<stop stop-color="#1FADC3"/>
<stop offset="0.7072" stop-color="#36B98F"/>
</linearGradient>
<linearGradient id="paint5_linear" x1="245.949" y1="29.7443" x2="249.892" y2="29.1702" gradientUnits="userSpaceOnUse">
<stop stop-color="#123F06" stop-opacity="0.01"/>
<stop offset="1" stop-color="#123F06"/>
</linearGradient>
<radialGradient id="paint6_radial" cx="0" cy="0" r="1" gradientUnits="userSpaceOnUse" gradientTransform="translate(242.432 28.5978) scale(10.1793 11.6335)">
<stop offset="0.4185" stop-color="#123F06" stop-opacity="0.01"/>
<stop offset="1" stop-color="#123F06"/>
</radialGradient>
<linearGradient id="paint7_linear" x1="223.924" y1="23.1803" x2="249.502" y2="32.0192" gradientUnits="userSpaceOnUse">
<stop stop-color="#9FDB57"/>
<stop offset="1" stop-color="#71CA5E"/>
</linearGradient>
</defs>
</svg>
