<svg width="45" height="28" viewBox="0 0 45 28" fill="none" xmlns="http://www.w3.org/2000/svg">
<path d="M28.5051 2.99329H16.3707V25.0069H28.5051V2.99329Z" fill="#FF5F00"/>
<path d="M17.1411 14C17.1392 11.8799 17.6151 9.7872 18.5327 7.88026C19.4504 5.97331 20.7858 4.30212 22.4378 2.9932C20.392 1.36984 17.9351 0.360297 15.3478 0.0799578C12.7605 -0.200381 10.1473 0.259786 7.80689 1.40789C5.46644 2.55598 3.49318 4.34569 2.11265 6.57242C0.73211 8.79915 0 11.3731 0 14C0 16.6269 0.73211 19.2008 2.11265 21.4276C3.49318 23.6543 5.46644 25.444 7.80689 26.5921C10.1473 27.7402 12.7605 28.2004 15.3478 27.92C17.9351 27.6397 20.392 26.6301 22.4378 25.0068C20.7858 23.6979 19.4504 22.0267 18.5327 20.1197C17.6151 18.2128 17.1392 16.1201 17.1411 14Z" fill="#EB001B"/>
<path d="M44.8747 14C44.8748 16.6269 44.1428 19.2008 42.7623 21.4275C41.3819 23.6543 39.4087 25.444 37.0683 26.5921C34.7279 27.7402 32.1147 28.2004 29.5275 27.92C26.9403 27.6397 24.4834 26.6302 22.4376 25.0068C24.0882 23.6965 25.4225 22.0251 26.34 20.1184C27.2576 18.2118 27.7343 16.1197 27.7343 14C27.7343 11.8803 27.2576 9.7882 26.34 7.88156C25.4225 5.97491 24.0882 4.30345 22.4376 2.99321C24.4834 1.36985 26.9403 0.360291 29.5275 0.0799544C32.1147 -0.200382 34.7279 0.259806 37.0683 1.40792C39.4087 2.55603 41.3819 4.34574 42.7623 6.57248C44.1428 8.79921 44.8748 11.3731 44.8747 14Z" fill="#F79E1B"/>
<path d="M43.5519 22.6752V22.2245H43.7319V22.1327H43.2734V22.2245H43.4535V22.6752H43.5519ZM44.4419 22.6752V22.1318H44.3014L44.1398 22.5056L43.9781 22.1318H43.8375V22.6752H43.9367V22.2653L44.0883 22.6187H44.1912L44.3428 22.2644V22.6752H44.4419Z" fill="#F79E1B"/>
</svg>
