<svg xmlns="http://www.w3.org/2000/svg" width="144" height="32" fill="none" viewBox="0 0 144 32">
	<path fill="#FFFFFF" d="M21.82 20.08V9.58c0-2.99-1.59-4.4-4.26-4.4a6.15 6.15 0 0 0-4.98 2.65c-.54-1.66-1.9-2.65-4.03-2.65a6.34 6.34 0 0 0-4.74 2.25v-1.9H0v14.55h3.81v-9.79c.57-.8 1.68-1.71 3-1.71 1.56 0 2.16.96 2.16 2.32v9.18h3.85v-9.82a3.85 3.85 0 0 1 3-1.68c1.56 0 2.16.96 2.16 2.32v9.18h3.84Zm10.46.36c4.8 0 7.69-3.5 7.69-7.65 0-4.12-2.88-7.61-7.69-7.61-4.77 0-7.65 3.49-7.65 7.61 0 4.16 2.88 7.65 7.65 7.65Zm0-3.4c-2.37 0-3.69-1.96-3.69-4.25 0-2.25 1.32-4.21 3.7-4.21 2.37 0 3.72 1.96 3.72 4.21 0 2.29-1.35 4.25-3.73 4.25Zm24.12 3.04V9.8c0-2.83-1.54-4.63-4.72-4.63a6.63 6.63 0 0 0-5.07 2.25v-1.9H42.8v14.55h3.8v-9.79a4.13 4.13 0 0 1 3.31-1.71c1.62 0 2.67.7 2.67 2.7v8.8h3.81Zm10.5.36c4.8 0 7.69-3.5 7.69-7.65 0-4.12-2.88-7.61-7.69-7.61-4.77 0-7.65 3.49-7.65 7.61 0 4.16 2.88 7.65 7.65 7.65Zm0-3.4c-2.37 0-3.69-1.96-3.69-4.25 0-2.25 1.32-4.21 3.7-4.21 2.36 0 3.71 1.96 3.71 4.21 0 2.29-1.35 4.25-3.72 4.25Zm14.33-1.63v-5.15a4.2 4.2 0 0 1 3.27-1.68c2.22 0 3.7 1.71 3.7 4.24 0 2.53-1.48 4.22-3.7 4.22-1.23 0-2.64-.7-3.27-1.63Zm0 4.67V18.2a5.62 5.62 0 0 0 4.47 2.23c3.66 0 6.42-2.77 6.42-7.62 0-4.75-2.73-7.64-6.42-7.64-1.71 0-3.33.75-4.47 2.22V0h-3.81v20.08h3.8Zm26.29 0v-9.4c0-4.18-3.03-5.5-6.33-5.5a9.5 9.5 0 0 0-6.34 2.28l1.44 2.56a6.1 6.1 0 0 1 4.24-1.71c1.92 0 3.18.96 3.18 2.44v1.95c-.96-1.14-2.67-1.77-4.6-1.77-2.3 0-5.04 1.3-5.04 4.7 0 3.24 2.73 4.8 5.04 4.8 1.9 0 3.6-.68 4.6-1.86v1.5h3.8Zm-6.87-2.23c-1.5 0-2.74-.78-2.74-2.14 0-1.41 1.23-2.2 2.74-2.2 1.23 0 2.43.43 3.06 1.27v1.8c-.63.85-1.83 1.27-3.06 1.27Zm24.25 2.23V9.8c0-2.83-1.53-4.63-4.72-4.63a6.63 6.63 0 0 0-5.07 2.25v-1.9h-3.81v14.55h3.81v-9.79a4.12 4.12 0 0 1 3.3-1.71c1.63 0 2.68.7 2.68 2.7v8.8h3.8Zm17.95 0-5.91-7.95 5.73-6.6H138l-5.5 6.48V0h-3.8v20.08h3.8v-3.74l1.75-1.86 3.84 5.6h4.77Z"></path>
	<path fill="#FFFFFF" fill-rule="evenodd" d="M140.56 26.66h.97v3.1h.05l1.25-1.5h.89l-1.37 1.63 1.65 2.03h-1.1l-1.36-1.9h-.01v1.9h-.97v-5.26Zm-45.74.24v2.88c0 .98.29 1.52 1.1 1.52.77 0 1.08-.65 1.08-1.46V26.9h.9V30c0 1.27-.82 1.99-2.01 1.99-1.37 0-2.09-.67-2.09-2.04V26.9h1.02Zm5.21 1.85c.33-.34.78-.5 1.23-.5.85 0 1.3.45 1.3 1.36v2.3h-.96v-2.2c0-.5-.23-.83-.72-.83-.47 0-.84.31-.84.9v2.13h-.96v-3.58h.95v.42Zm3.65 3.16h.96v-3.58h-.96v3.58Zm-.1-4.65c0-.28.24-.56.56-.56.33 0 .6.28.6.56 0 .3-.23.6-.58.6-.34 0-.57-.3-.57-.6Zm3.18 4.65-1.54-3.6h1.02c.31.83.63 1.6.94 2.6h.01c.33-1 .63-1.77.96-2.6h.9l-1.62 3.6h-.67Zm5.14-2.21c.04-.55-.15-.92-.63-.92-.55 0-.8.43-.78.91h1.41Zm-1.43.5c-.02.68.45 1.18 1.05 1.18.36 0 .73-.12.97-.28l.27.5c-.49.28-1 .4-1.41.4-1.09 0-1.9-.77-1.9-1.95 0-1.1.8-1.8 1.83-1.8 1.13 0 1.6.89 1.53 1.96h-2.34Zm4.22-1.24h.01l.2-.28c.1-.16.32-.43.62-.43.21 0 .44.11.65.32l-.37.66a.87.87 0 0 0-.45-.13c-.33 0-.66.27-.66 1.04v1.77h-.96v-3.58h.96v.63Zm4.03.04a1.09 1.09 0 0 0-.6-.22c-.23 0-.44.12-.44.36 0 .29.34.45.75.74.51.39.66.76.66 1.09 0 .5-.55 1.03-1.35 1.03a2 2 0 0 1-1.2-.4l.3-.5c.22.17.53.34.79.34.27 0 .52-.14.52-.44 0-.34-.38-.53-.72-.77-.42-.28-.7-.55-.7-1 0-.56.55-.98 1.26-.98.4 0 .78.1 1.05.33l-.32.42Zm2.73 1c-.46.16-.7.42-.7.83 0 .32.2.53.43.53.38 0 .88-.47.81-1.52l-.53.17Zm.3 1.57c-.25.21-.58.43-.91.43-.57 0-1.04-.43-1.04-1.09 0-.68.5-1.06 1.34-1.3l.85-.26a.65.65 0 0 0-.66-.53c-.4 0-.7.15-.95.36l-.3-.45c.44-.36.88-.48 1.38-.48.66 0 1.47.2 1.47 1.33v1.46c0 .29.04.62.16.87h-1.02a1.1 1.1 0 0 1-.1-.52l-.21.18Zm2.25.34h.97v-5.26H124v5.26Zm9.46-1.91c-.47.16-.7.42-.7.83 0 .32.2.53.43.53.38 0 .87-.47.8-1.52l-.53.17Zm.3 1.57c-.26.21-.6.43-.92.43-.56 0-1.03-.43-1.03-1.09 0-.68.5-1.06 1.33-1.3l.85-.26a.65.65 0 0 0-.66-.53c-.4 0-.7.15-.95.36l-.3-.45c.44-.36.88-.48 1.38-.48.66 0 1.47.2 1.47 1.33v1.46c0 .29.04.62.16.87h-1.02c-.07-.12-.1-.33-.1-.52l-.21.18Zm3.2-2.82c.33-.34.78-.5 1.23-.5.85 0 1.3.45 1.3 1.36v2.3h-.96v-2.2c0-.5-.23-.83-.73-.83-.46 0-.83.31-.83.9v2.13H136v-3.58h.95v.42Zm-8.49 2.56h.51c.57 0 1-.3 1-.85 0-.59-.45-.84-1-.84h-.51v1.69Zm0-2.3h.31c.59 0 .99-.38.99-.85 0-.44-.34-.63-.78-.63h-.53V29Zm-1.02 2.92V26.9h1.82c.85 0 1.45.39 1.45 1.07 0 .8-.65 1.13-1 1.22v.02c.62.03 1.32.46 1.32 1.22 0 .87-.73 1.49-1.92 1.49h-1.67Z" clip-rule="evenodd" opacity=".6"></path>
</svg>