<svg width="49" height="28" viewBox="0 0 49 28" fill="none" xmlns="http://www.w3.org/2000/svg">
<mask id="mask0" mask-type="alpha" maskUnits="userSpaceOnUse" x="0" y="0" width="49" height="28">
<path d="M0.644043 27.9255H48.1061V0.0744629H0.644043V27.9255Z" fill="white"/>
</mask>
<g mask="url(#mask0)">
<path fill-rule="evenodd" clip-rule="evenodd" d="M34.868 0.0744629L39.563 10.5075L39.543 10.5035C39.025 11.2185 37.493 13.3385 36.026 15.4515V8.74146H31.74V17.9895C31.144 17.5765 30.516 17.2845 29.911 17.1775V16.6445C29.911 16.6085 29.887 16.5965 29.855 16.6165C29.823 16.6365 29.395 16.9865 27.363 17.1825C27.013 17.2355 26.656 17.2355 26.305 17.1825C23.509 16.7145 23.298 14.7245 23.288 14.6085V13.6785C23.285 13.6355 23.285 13.5925 23.288 13.5505C23.288 13.5505 23.484 11.3005 26.305 11.0615H27.363C28.153 11.1795 28.913 11.4415 29.607 11.8355C29.639 11.8355 29.663 11.8355 29.663 11.8035V8.98846C29.661 8.94846 29.64 8.91346 29.607 8.89246C29.607 8.89246 29.046 8.52946 27.335 8.42646C26.668 8.37146 25.998 8.37146 25.331 8.42646C19.108 8.92446 18.88 13.4025 18.88 13.6095V14.6985C18.88 14.8335 18.88 19.4115 25.331 19.8185C25.961 19.8665 27.198 19.8185 27.335 19.8185H27.351C27.479 20.5825 27.855 21.4065 28.381 22.1655L10.126 27.9255L0.644043 2.02046L34.868 0.0744629ZM12.644 8.61546H7.23704C7.20204 8.61546 7.17304 8.64446 7.17304 8.67946V19.7755C7.17304 19.8105 7.20204 19.8395 7.23704 19.8395H11.412C11.447 19.8395 11.476 19.8105 11.476 19.7755V16.5165C11.476 16.4835 11.503 16.4565 11.536 16.4565H11.538C11.541 16.4565 18.204 16.9385 18.204 12.4675C18.204 8.94046 14.021 8.55146 12.644 8.61546ZM41.973 15.9125L42.743 17.6355L40.359 18.3885C40.829 17.5205 41.369 16.6925 41.973 15.9125ZM12.428 11.0515C12.428 11.0515 13.913 11.1195 14.033 12.1265C14.058 12.3265 14.058 12.5285 14.033 12.7285C13.841 13.9325 12.553 13.9765 12.553 13.9765L11.404 13.9885V11.0515H12.428ZM33.594 2.77446C32.284 2.85046 31.26 3.92746 31.262 5.22946C31.306 6.62346 32.478 7.71846 33.883 7.67846C35.249 7.59846 36.291 6.43646 36.211 5.08246C36.131 3.72846 34.96 2.69446 33.594 2.77446Z" fill="#005F64"/>
<path fill-rule="evenodd" clip-rule="evenodd" d="M34.0291 25.2254C34.3921 25.2484 34.7531 25.1814 35.0831 25.0294C36.6031 24.2294 41.7161 11.7734 47.1061 7.94337C47.1461 7.91637 47.1801 7.88437 47.2111 7.84737C47.2311 7.81737 47.2441 7.78037 47.2471 7.74337C47.2471 7.74337 47.2471 7.48737 46.4451 7.48737C41.6351 7.35537 36.6501 17.3974 34.0211 21.3714C33.9891 21.4154 33.8091 21.3714 33.8091 21.3714C33.8091 21.3714 32.0491 19.3014 30.5231 18.5054C30.3951 18.4584 30.2581 18.4384 30.1221 18.4494C29.6951 18.4954 29.2901 18.6664 28.9601 18.9414C28.6501 19.2354 28.5071 19.6644 28.5791 20.0844C28.5861 20.1854 28.6121 20.2844 28.6551 20.3764C29.6551 21.9264 30.8211 23.3644 32.1341 24.6624C32.3821 24.8144 32.7111 25.2254 34.0291 25.2254Z" fill="#00B656"/>
</g>
</svg>
