<svg width="101" height="40" viewBox="0 0 101 40" fill="none" xmlns="http://www.w3.org/2000/svg">
<path fill-rule="evenodd" clip-rule="evenodd" d="M1.12646 20C1.12646 8.95428 10.0806 0 21.1262 0C32.1723 0 41.1265 8.95428 41.1265 20C41.1265 31.0457 32.1723 40 21.1262 40C10.0806 40 1.12646 31.0457 1.12646 20Z" fill="#FFB5DE"/>
<path fill-rule="evenodd" clip-rule="evenodd" d="M21.1649 28.5C16.499 28.5 12.6264 24.6873 12.6264 20C12.6264 15.3132 16.6019 11.5 21.012 11.5V13.9608C18.0723 13.9608 15.0762 16.6701 15.0762 20C15.0762 23.3299 17.8116 26.0392 21.1266 26.0392C24.4412 26.0392 27.1575 23.3299 27.1575 20C27.1575 18.9748 26.9091 17.9758 26.4245 17.0914C24.791 18.8301 22.3119 21.5729 22.2805 21.6069L21.4677 22.5075L17.8689 19.2888L19.498 17.4511L21.2893 19.0526C22.5108 17.711 24.7626 15.2512 25.7092 14.3013L26.6274 13.3795L27.4902 14.3545C28.868 15.9107 29.6264 17.9157 29.6264 20C29.6264 24.6873 25.8307 28.5 21.1649 28.5Z" fill="#FFFFFF"/>
<path d="M97.3683 27.623V25.247L97.2143 24.741V20.583C97.2143 19.7763 96.9723 19.153 96.4883 18.713C96.0043 18.2583 95.271 18.031 94.2883 18.031C93.6283 18.031 92.9757 18.1337 92.3303 18.339C91.6997 18.5443 91.1643 18.8303 90.7243 19.197L89.6463 17.195C90.277 16.711 91.025 16.3517 91.8903 16.117C92.7703 15.8677 93.6796 15.743 94.6183 15.743C96.3196 15.743 97.6323 16.1537 98.5563 16.975C99.495 17.7817 99.9643 19.0357 99.9643 20.737V27.623H97.3683ZM93.6723 27.777C92.7923 27.777 92.0223 27.6303 91.3623 27.337C90.7023 27.029 90.189 26.611 89.8223 26.083C89.4703 25.5403 89.2943 24.9317 89.2943 24.257C89.2943 23.597 89.4483 23.003 89.7563 22.475C90.079 21.947 90.5996 21.529 91.3183 21.221C92.037 20.913 92.9903 20.759 94.1783 20.759H97.5883V22.585H94.3763C93.4376 22.585 92.807 22.739 92.4843 23.047C92.1616 23.3403 92.0003 23.707 92.0003 24.147C92.0003 24.6457 92.1983 25.0417 92.5943 25.335C92.9903 25.6283 93.5403 25.775 94.2443 25.775C94.919 25.775 95.5203 25.621 96.0483 25.313C96.591 25.005 96.9797 24.5503 97.2143 23.949L97.6763 25.599C97.4123 26.2883 96.9357 26.8237 96.2463 27.205C95.5717 27.5863 94.7137 27.777 93.6723 27.777Z" fill="#FFFFFF"/>
<path d="M82.8031 27.777C81.5711 27.777 80.4711 27.5203 79.5031 27.007C78.5498 26.479 77.8018 25.7603 77.2591 24.851C76.7165 23.9417 76.4451 22.9077 76.4451 21.749C76.4451 20.5757 76.7165 19.5417 77.2591 18.647C77.8018 17.7377 78.5498 17.0263 79.5031 16.513C80.4711 15.9997 81.5711 15.743 82.8031 15.743C83.9471 15.743 84.9518 15.9777 85.8171 16.447C86.6971 16.9017 87.3645 17.5763 87.8191 18.471L85.7071 19.703C85.3551 19.1457 84.9225 18.735 84.4091 18.471C83.9105 18.207 83.3678 18.075 82.7811 18.075C82.1065 18.075 81.4978 18.2217 80.9551 18.515C80.4125 18.8083 79.9871 19.2337 79.6791 19.791C79.3711 20.3337 79.2171 20.9863 79.2171 21.749C79.2171 22.5117 79.3711 23.1717 79.6791 23.729C79.9871 24.2717 80.4125 24.6897 80.9551 24.983C81.4978 25.2763 82.1065 25.423 82.7811 25.423C83.3678 25.423 83.9105 25.291 84.4091 25.027C84.9225 24.763 85.3551 24.3523 85.7071 23.795L87.8191 25.027C87.3645 25.907 86.6971 26.589 85.8171 27.073C84.9518 27.5423 83.9471 27.777 82.8031 27.777Z" fill="#FFFFFF"/>
<path d="M71.4582 27.623V25.247L71.3042 24.741V20.583C71.3042 19.7763 71.0622 19.153 70.5782 18.713C70.0942 18.2583 69.3608 18.031 68.3782 18.031C67.7182 18.031 67.0655 18.1337 66.4202 18.339C65.7895 18.5443 65.2542 18.8303 64.8142 19.197L63.7362 17.195C64.3668 16.711 65.1148 16.3517 65.9802 16.117C66.8602 15.8677 67.7695 15.743 68.7082 15.743C70.4095 15.743 71.7222 16.1537 72.6462 16.975C73.5848 17.7817 74.0542 19.0357 74.0542 20.737V27.623H71.4582ZM67.7622 27.777C66.8822 27.777 66.1122 27.6303 65.4522 27.337C64.7922 27.029 64.2788 26.611 63.9122 26.083C63.5602 25.5403 63.3842 24.9317 63.3842 24.257C63.3842 23.597 63.5382 23.003 63.8462 22.475C64.1688 21.947 64.6895 21.529 65.4082 21.221C66.1268 20.913 67.0802 20.759 68.2682 20.759H71.6782V22.585H68.4662C67.5275 22.585 66.8968 22.739 66.5742 23.047C66.2515 23.3403 66.0902 23.707 66.0902 24.147C66.0902 24.6457 66.2882 25.0417 66.6842 25.335C67.0802 25.6283 67.6302 25.775 68.3342 25.775C69.0088 25.775 69.6102 25.621 70.1382 25.313C70.6808 25.005 71.0695 24.5503 71.3042 23.949L71.7662 25.599C71.5022 26.2883 71.0255 26.8237 70.3362 27.205C69.6615 27.5863 68.8035 27.777 67.7622 27.777Z" fill="#FFFFFF"/>
<path d="M59.3125 27.623L54.0985 20.121L56.4085 18.691L62.5465 27.623H59.3125ZM49.1265 27.623V12.223H51.9425V27.623H49.1265ZM51.0845 21.133V18.669H56.2765V21.133H51.0845ZM56.6725 20.253L54.0545 19.901L59.3125 12.223H62.3485L56.6725 20.253Z" fill="#FFFFFF"/>
</svg>