<svg width="53" height="60" viewBox="0 0 53 60" fill="none" xmlns="http://www.w3.org/2000/svg">
<path d="M49.9297 0C51.3486 0 52.4998 1.17117 52.5 2.59626V44.9565C52.4896 46.3946 51.3361 47.5633 49.9199 47.5634H49.3022V50.194C49.3022 50.8769 48.7419 51.4399 48.0586 51.4399H24.0784C23.3989 51.4399 22.8454 50.8806 22.8454 50.194V47.5634H21.641C21.4798 47.5634 21.3173 47.5463 21.1555 47.5154L20.8172 47.4513L20.6579 47.7595C20.1897 48.6672 19.7711 49.5223 19.3742 50.3382C17.5848 54.0045 16.1991 56.8471 12.3949 59.6277L12.0196 59.8962L12.0166 59.8985C11.9231 59.9652 11.8109 60 11.6972 60C11.5362 59.9999 11.3853 59.9335 11.2804 59.8131L11.2381 59.7582L11.2366 59.7559L11.2064 59.7055C11.0696 59.4522 11.143 59.1246 11.3748 58.9632C15.2438 56.2609 16.5107 53.649 18.3654 49.8385L18.829 48.8894C19.9352 46.6371 21.2457 44.1058 23.3603 41.0045L23.3626 41.0007C23.448 40.8731 23.5162 40.7437 23.5733 40.6238L23.5884 40.591L23.5989 40.5567C23.6114 40.515 23.6279 40.4762 23.6473 40.4415L23.6654 40.4094L23.6782 40.3743C24.0763 39.2917 23.8146 38.0486 22.9669 37.2211L22.7895 37.0609L22.6725 36.9694C21.4914 36.0882 19.8147 36.2347 18.8049 37.3203L18.7067 37.4317L11.3665 46.1574C11.1877 46.3681 10.8927 46.4156 10.6635 46.2871L10.5699 46.2215C10.332 46.0153 10.3047 45.6563 10.5072 45.4173L10.5087 45.4158L13.9806 41.2899H10.9255C10.2152 41.2898 9.64117 40.7098 9.64111 39.9921V29.1432L3.28704 35.5641C2.21344 36.6488 1.6191 38.0871 1.61904 39.6251V58.98C1.62447 59.2844 1.37554 59.5422 1.06481 59.5422C0.755622 59.5422 0.500099 59.2842 0.5 58.9716V39.6251L0.508306 39.2818C0.591214 37.5715 1.29197 35.9746 2.49268 34.7615L9.64111 27.5388V10.9313L9.64791 10.7985C9.71354 10.1434 10.2596 9.63359 10.9255 9.63354H28.3251L28.4564 9.6404C29.1048 9.7068 29.6094 10.2585 29.6095 10.9313V40.002C29.6095 40.7076 29.037 41.2897 28.3251 41.2899H24.5096L24.3729 41.5096L24.2906 41.6385C23.536 42.7474 22.8843 43.7849 22.3077 44.7627L21.755 45.7217L21.3601 46.4221H49.9297C50.7341 46.4221 51.3704 45.7624 51.3704 44.9664V2.59626L51.3628 2.44596C51.288 1.70562 50.6678 1.14135 49.9297 1.14135H21.6508C20.8468 1.14162 20.2111 1.8007 20.2109 2.59626V7.30355L20.2078 7.36153C20.1785 7.64688 19.9362 7.8734 19.6461 7.87346C19.3365 7.87346 19.0814 7.61571 19.0812 7.30355V2.59626L19.085 2.46274C19.1545 1.0914 20.2845 0.000181846 21.6508 0H49.9297ZM23.9644 47.565V50.2993H48.1628V47.565H23.9644ZM47.6697 40.1485C47.979 40.1485 48.2345 40.4066 48.2345 40.7192L48.2315 40.7772C48.2022 41.063 47.9596 41.2899 47.6697 41.2899H41.9733C41.6641 41.2899 41.4086 41.0318 41.4085 40.7192L41.4115 40.6612C41.4407 40.3754 41.6833 40.1485 41.9733 40.1485H47.6697ZM38.3934 40.1485C38.7028 40.1485 38.9582 40.4066 38.9582 40.7192L38.9552 40.7772C38.926 41.063 38.6833 41.2899 38.3934 41.2899H32.697C32.3878 41.2899 32.1323 41.0318 32.1322 40.7192L32.1352 40.6612C32.1644 40.3754 32.407 40.1485 32.697 40.1485H38.3934ZM10.7707 10.7642V40.1485H14.9396L15.0785 39.9837L17.8504 36.6886L17.9773 36.5452C18.2801 36.2184 18.6272 35.9525 19.002 35.7487L19.2459 35.6159V26.2845C19.2459 25.972 19.5013 25.7139 19.8107 25.7139L19.868 25.7169C20.151 25.7464 20.3755 25.9916 20.3755 26.2845V35.2688L20.8497 35.2574C21.7886 35.2353 22.7353 35.5363 23.5068 36.1759C24.5712 37.0569 25.0813 38.3578 24.9838 39.6442L24.946 40.1485H28.4798V10.7642H10.7707ZM13.6265 25.7291C13.9094 25.7587 14.1339 26.0038 14.1339 26.2967V36.52C14.1339 36.8325 13.8785 37.0906 13.5691 37.0907C13.2597 37.0907 13.0043 36.8326 13.0043 36.52V26.2967C13.0043 25.9842 13.2597 25.7261 13.5691 25.7261L13.6265 25.7291ZM38.3934 33.8398C38.7028 33.8398 38.9582 34.0979 38.9582 34.4105L38.9552 34.4685C38.926 34.7544 38.6833 34.9812 38.3934 34.9812H32.697C32.3878 34.9812 32.1323 34.7231 32.1322 34.4105L32.1352 34.3525C32.1644 34.0667 32.407 33.8398 32.697 33.8398H38.3934ZM47.6697 33.8398C47.979 33.8398 48.2345 34.0979 48.2345 34.4105L48.2315 34.4685C48.2022 34.7544 47.9596 34.9812 47.6697 34.9812H41.9733C41.6641 34.9812 41.4086 34.7231 41.4085 34.4105L41.4115 34.3525C41.4407 34.0667 41.6833 33.8398 41.9733 33.8398H47.6697ZM47.6697 27.5235C47.979 27.5235 48.2345 27.7816 48.2345 28.0942L48.2315 28.1522C48.2022 28.438 47.9596 28.6649 47.6697 28.6649H41.9733C41.6641 28.6649 41.4086 28.4068 41.4085 28.0942L41.4115 28.0362C41.4407 27.7504 41.6833 27.5235 41.9733 27.5235H47.6697ZM38.3934 27.5235C38.7028 27.5235 38.9582 27.7816 38.9582 28.0942L38.9552 28.1522C38.926 28.438 38.6833 28.6649 38.3934 28.6649H32.697C32.3878 28.6649 32.1323 28.4068 32.1322 28.0942L32.1352 28.0362C32.1644 27.7504 32.407 27.5235 32.697 27.5235H38.3934ZM46.9788 3.79177C47.936 3.79177 48.7161 4.57964 48.7162 5.54651V22.5866L48.7072 22.7651C48.6181 23.6475 47.8773 24.3413 46.969 24.3413H32.2742C31.9648 24.3413 31.7094 24.0832 31.7094 23.7707L31.7124 23.7127C31.7416 23.4268 31.9842 23.2 32.2742 23.2H46.9697C47.3081 23.1995 47.5754 22.9277 47.5761 22.5874V5.54575C47.5756 5.22607 47.34 4.96739 47.0316 4.93617L46.9697 4.93312H24.5813C24.2649 4.93364 24.0093 5.17159 23.978 5.48243L23.975 5.54575V7.2921C23.975 7.60456 23.7195 7.86271 23.4102 7.86277C23.1008 7.86277 22.8454 7.60467 22.8454 7.2921V5.54651L22.8544 5.36722C22.9438 4.48411 23.685 3.79191 24.5821 3.79177H46.9788ZM20.9652 14.3591C21.2745 14.3591 21.53 14.6172 21.53 14.9298V22.4104C21.53 22.726 21.2818 22.981 20.9652 22.981H13.5615C13.2522 22.981 12.9967 22.7229 12.9967 22.4104V14.9298C12.9967 14.6172 13.2522 14.3591 13.5615 14.3591H20.9652ZM14.1362 15.5005V21.8397H20.411V15.5005H14.1362ZM17.42 17.1934C18.1577 17.2698 18.73 17.9054 18.7301 18.6705L18.7226 18.8215C18.6471 19.5664 18.0202 20.1559 17.2705 20.1559C16.4663 20.1558 15.8011 19.4906 15.8011 18.6705L15.8087 18.5186C15.8837 17.7688 16.5082 17.1859 17.2705 17.1858L17.42 17.1934ZM17.6111 18.6712C17.6108 18.8417 17.4789 19.0142 17.2705 19.0145C17.0645 19.0145 16.9311 18.8447 16.9307 18.6712V18.6697C16.931 18.5481 16.9863 18.4664 17.0274 18.4248C17.0686 18.3832 17.1505 18.3271 17.2713 18.3271C17.3922 18.3274 17.4737 18.3841 17.5152 18.4263C17.5566 18.4685 17.6101 18.5497 17.6103 18.6697L17.6111 18.6712ZM17.2705 18.5461C17.1987 18.5462 17.1476 18.6083 17.1475 18.6705C17.1475 18.7327 17.2089 18.7954 17.2705 18.7956C17.3322 18.7956 17.3944 18.7328 17.3944 18.6705C17.3943 18.6082 17.3424 18.5461 17.2705 18.5461ZM6.5747 14.6277C6.79459 14.4056 7.14926 14.4049 7.36905 14.6269C7.56149 14.8214 7.58522 15.1206 7.44078 15.341L7.36905 15.4303L5.11737 17.7054C5.01233 17.8115 4.86356 17.8694 4.72473 17.8694C4.58245 17.8693 4.44105 17.8153 4.32 17.7015C4.10336 17.4793 4.10426 17.1239 4.32302 16.9028L4.32226 16.902L6.57394 14.6269L6.5747 14.6277ZM31.9736 14.5506C32.1916 14.4049 32.4872 14.4294 32.6797 14.6231L34.9321 16.8989C35.1245 17.0934 35.1482 17.392 35.0038 17.6123L34.9321 17.7015C34.8269 17.8078 34.6787 17.8655 34.5402 17.8656C34.397 17.8656 34.2542 17.811 34.1324 17.6954L31.8845 15.4257C31.6654 15.2035 31.6657 14.845 31.8853 14.6231L31.9736 14.5506ZM35.4629 11.8865L35.5203 11.8895C35.8028 11.9192 36.027 12.164 36.027 12.4571L36.0156 12.5724C35.9639 12.8326 35.7395 13.0277 35.4629 13.0278H32.2749C31.9657 13.0278 31.7102 12.7697 31.7101 12.4571L31.7131 12.3992C31.7423 12.1133 31.9849 11.8865 32.2749 11.8865H35.4629ZM6.97867 11.885L7.03606 11.888C7.31856 11.9176 7.54272 12.1625 7.54272 12.4556L7.5397 12.5136C7.51051 12.7996 7.2682 13.0261 6.97867 13.0263H3.79068C3.48144 13.0263 3.22594 12.7682 3.22587 12.4556L3.22889 12.3976C3.25808 12.1118 3.50068 11.885 3.79068 11.885H6.97867ZM4.41061 6.83511C4.62854 6.68936 4.92416 6.71384 5.11662 6.90758L7.36905 9.18341C7.56145 9.37788 7.58514 9.67647 7.44078 9.89675L7.36905 9.98601C7.26389 10.0923 7.11567 10.15 6.97716 10.15C6.83392 10.15 6.6912 10.0955 6.56941 9.97991L4.32151 7.71019C4.10239 7.48798 4.10265 7.12948 4.32226 6.90758L4.41061 6.83511ZM34.1256 6.90835C34.3455 6.68629 34.7002 6.68559 34.92 6.90758C35.1124 7.10202 35.1362 7.40121 34.9917 7.62169L34.92 7.71095L32.6683 9.98601L32.6638 9.98983L32.6593 9.99441C32.5711 10.0884 32.4299 10.15 32.2757 10.15C32.1334 10.15 31.992 10.0959 31.871 9.9822C31.6543 9.75992 31.6552 9.40456 31.874 9.18341L31.8732 9.18265L34.1249 6.90758L34.1256 6.90835ZM17.858 18.6697C17.8575 18.3903 17.6491 18.1141 17.3347 18.0807L17.2705 18.0777C16.9186 18.0783 16.6844 18.3755 16.6838 18.6705C16.6838 18.8532 16.7691 18.997 16.8568 19.0863C16.9444 19.1755 17.088 19.2636 17.2705 19.264C17.453 19.264 17.5959 19.1764 17.6836 19.0878C17.7713 18.9992 17.858 18.8541 17.858 18.6697Z" fill="white"/>
</svg>
