<svg width="29" height="36" viewBox="0 0 29 36" fill="none" xmlns="http://www.w3.org/2000/svg">
<path fill-rule="evenodd" clip-rule="evenodd" d="M16.8136 0C18.4132 7.25522e-05 19.9215 0.624735 21.0636 1.75986L21.2719 1.97629C22.2827 3.08085 22.8367 4.49497 22.8367 5.98577L22.8377 9.8591C23.1162 9.95077 23.3188 10.2084 23.3189 10.5145V14.7343C23.3189 15.1969 23.1472 15.6352 22.8377 15.9861V16.4271L22.8244 16.6781C22.6955 17.9179 21.6236 18.884 20.33 18.884H18.6072C18.5879 18.8991 18.569 18.9148 18.5497 18.9297V20.1805L24.8991 22.424L25.131 22.5124C25.6953 22.7477 26.4057 23.2007 26.6219 24.2083L28.9563 33.8581L28.9891 34.0369C29.0323 34.395 28.946 34.7515 28.7469 35.0652L28.6382 35.2176C28.2593 35.6976 27.6225 35.9999 27.0026 36H1.99996C1.37961 36 0.742372 35.6976 0.361305 35.2156C0.0465516 34.8195 -0.0721139 34.3336 0.0432189 33.8561L2.35499 24.2042L2.35602 24.2032L2.41553 23.9959C2.7026 23.1352 3.34975 22.7293 3.87257 22.5114L4.10344 22.423L10.4518 20.1805V18.9439C10.4264 18.9242 10.401 18.9041 10.3759 18.884H8.67157C7.29203 18.8838 6.16511 17.7848 6.16485 16.4271V16.3417C5.69423 16.0284 5.36836 15.518 5.30806 14.9314L5.2978 14.7343V10.5145C5.29793 10.1324 5.61212 9.82185 5.99759 9.82151H6.14022V5.98577C6.14022 4.39357 6.77156 2.89102 7.91637 1.75783L8.13596 1.55055C9.25203 0.548452 10.6809 3.61167e-05 12.189 0H16.8136ZM4.57236 23.7287C4.28217 23.8311 4.09386 23.9415 3.968 24.063C3.87729 24.1506 3.80952 24.2533 3.76073 24.3841L3.71763 24.5253L1.40586 34.1771C1.39547 34.2216 1.39806 34.2749 1.46435 34.36C1.58235 34.5064 1.80465 34.613 1.99996 34.613H3.85205V30.7539C3.85205 30.3716 4.16706 30.06 4.55287 30.0599C4.93871 30.0599 5.25368 30.3716 5.25368 30.7539V34.613H10.4518V25.7802L7.7245 25.1848C7.5132 25.1387 7.33982 24.9993 7.24737 24.8129L7.21248 24.7296C7.1339 24.5002 7.18171 24.2459 7.33869 24.0599L7.33971 24.0589L8.9363 22.1873L4.57236 23.7287ZM11.8535 34.613H17.1481V27.3551C16.3221 27.6302 15.4489 27.7757 14.5736 27.7758C13.6487 27.7758 12.7261 27.6123 11.8535 27.3033V34.613ZM21.6362 24.064L21.6905 24.1372C21.7875 24.2877 21.8225 24.4696 21.787 24.6452L21.7634 24.7326C21.6851 24.9605 21.4922 25.1333 21.2504 25.1858L21.2514 25.1868L18.5497 25.7802V34.613H23.7489V30.7539C23.7489 30.3717 24.063 30.0602 24.4487 30.0599C24.8345 30.0599 25.1495 30.3716 25.1495 30.7539V34.613H27.0026C27.1987 34.6129 27.4217 34.5054 27.5392 34.358L27.5782 34.3001C27.6061 34.2478 27.6047 34.2113 27.5977 34.1842L27.5967 34.1802L25.2603 24.5253L25.2552 24.505L25.2182 24.3688C25.1746 24.2426 25.1117 24.1436 25.0253 24.0589C24.9349 23.9702 24.8084 23.8864 24.6282 23.8069L24.4302 23.7287L20.0375 22.1771L21.6362 24.064ZM17.1481 19.7609C16.3216 20.1227 15.4252 20.3146 14.5008 20.3146C13.5862 20.3146 12.6892 20.1264 11.8535 19.766V25.8127C12.7095 26.1901 13.6431 26.3888 14.5736 26.3888C15.4565 26.3888 16.3391 26.2101 17.1481 25.8737V19.7609ZM18.5497 24.3587L19.821 24.0782L18.5497 22.5775V24.3587ZM9.15794 24.0752L10.4518 24.3577V22.5592L9.15794 24.0752ZM17.4046 9.12752C17.0549 9.50048 16.5946 9.83478 16.0502 10.1131C15.1802 10.556 14.1541 10.8264 13.2961 10.8264C12.5624 10.8264 12.0566 10.7736 11.6462 10.673C11.2882 10.5852 11.014 10.4625 10.7402 10.3265C10.2608 10.5135 9.72545 10.643 9.15588 10.7075V13.4469C9.1559 14.5742 9.49891 15.6576 10.1142 16.5673H11.9048C12.1566 16.1001 12.6533 15.7809 13.2243 15.7809H14.7173C15.5415 15.7809 16.2133 16.4451 16.2133 17.2613C16.2131 18.0717 15.535 18.7174 14.7173 18.7174H13.2243C13.1312 18.7173 13.0401 18.707 12.9514 18.6909C13.4527 18.8462 13.9736 18.9277 14.5008 18.9277C15.7633 18.9277 16.9271 18.4739 17.8448 17.7175C17.8813 17.679 17.9214 17.6434 17.9659 17.6139C19.1138 16.6095 19.8467 15.1175 19.8467 13.4469V10.4037C18.8714 10.1819 18.0143 9.73598 17.4046 9.12752ZM11.5528 18.0254C11.841 18.2173 12.1446 18.3763 12.4568 18.508C12.228 18.3742 12.037 18.184 11.9089 17.9543H11.4574C11.4894 17.9776 11.5202 18.0027 11.5528 18.0254ZM21.3417 16.6669H20.4562C20.3048 16.9544 20.1322 17.2316 19.94 17.497H20.33C20.859 17.497 21.296 17.1366 21.4073 16.6628C21.3855 16.6636 21.3636 16.6669 21.3417 16.6669ZM13.2243 17.1678C13.2039 17.1679 13.1801 17.177 13.1597 17.1973C13.1392 17.2176 13.1299 17.2412 13.1299 17.2613L13.134 17.2806C13.1371 17.2878 13.1425 17.2954 13.1504 17.303C13.1666 17.318 13.1924 17.3304 13.2243 17.3304H14.7173L14.7604 17.3223C14.7726 17.3174 14.7831 17.3105 14.7911 17.303C14.8069 17.2882 14.8116 17.2734 14.8117 17.2613C14.8117 17.2413 14.8032 17.2175 14.7829 17.1973C14.7727 17.1872 14.7612 17.1796 14.7501 17.1749L14.7173 17.1678H13.2243ZM6.69841 14.7343C6.69849 14.9473 6.83547 15.1385 7.02265 15.2281C7.0559 15.2358 7.08891 15.2459 7.12116 15.2586C7.1369 15.2647 7.16067 15.2705 7.18375 15.2749L7.25044 15.283L7.97897 15.2809C7.98504 15.2808 7.99133 15.2799 7.99743 15.2799C7.99978 15.2799 8.00228 15.2799 8.00462 15.2799C7.84229 14.6888 7.75426 14.0734 7.75425 13.4469V11.2085H6.69841V14.7343ZM21.2473 13.4489C21.2473 14.0754 21.1622 14.6899 21.001 15.2799H21.3417L21.4576 15.2688C21.7201 15.2149 21.9172 14.9833 21.9173 14.7343V11.2085H21.2473V13.4489ZM14.5008 2.88874C10.6765 2.88895 7.56674 5.96712 7.56648 9.7514V9.82151H7.7994C7.89582 9.56308 8.14158 9.37576 8.4366 9.36833L8.72801 9.35411C9.39702 9.30711 9.99321 9.16045 10.4652 8.93649C10.6399 8.85274 10.8388 8.84674 11.0152 8.91211L11.089 8.94462L11.0931 8.94666L11.168 8.98628L11.5805 9.18848C11.7073 9.24406 11.8312 9.28916 11.9745 9.32566C12.2642 9.39939 12.6496 9.4425 13.2992 9.44251C13.9317 9.44245 14.7242 9.23157 15.3996 8.88874C16.0903 8.5381 16.5714 8.09431 16.7007 7.68671L16.7407 7.58815C16.8501 7.36876 17.0692 7.22088 17.3194 7.20203H17.3246L17.4302 7.20305C17.6734 7.22462 17.8952 7.37054 18.0018 7.60135C18.349 8.34079 19.3569 8.9751 20.6347 9.13666C20.9841 9.17991 21.2452 9.47323 21.2473 9.82151H21.4361V9.7514L21.4268 9.39881C21.2406 5.77766 18.2057 2.88874 14.5008 2.88874ZM11.9499 1.39306C9.80507 1.501 8.03963 3.0548 7.63112 5.08654C7.92066 4.67112 8.24877 4.2805 8.61514 3.91905L8.9086 3.64268C9.60608 3.01564 10.3987 2.51506 11.2655 2.15106L11.6534 1.99966C12.5652 1.66892 13.5219 1.50182 14.5008 1.50178C15.6194 1.50178 16.7093 1.71986 17.736 2.15106L18.1034 2.31566C18.9483 2.71861 19.7147 3.25645 20.3864 3.91905L20.6665 4.20864C20.9096 4.47235 21.1325 4.75087 21.3376 5.04081C20.9139 3.03072 19.1665 1.50014 17.0506 1.39306L16.8136 1.38696H12.189L11.9499 1.39306Z" fill="white"/>
</svg>
