<svg width="30" height="36" viewBox="0 0 30 36" fill="none" xmlns="http://www.w3.org/2000/svg">
<path fill-rule="evenodd" clip-rule="evenodd" d="M14.268 0.00288177L14.269 0.00192118L16.2281 0.0201724L16.4599 0.0336206C16.9983 0.0914596 17.5119 0.330728 17.8932 0.709875L17.9978 0.820343C18.2311 1.08382 18.4009 1.39801 18.492 1.73386L18.5423 1.97401C18.5674 2.13682 18.5737 2.30153 18.563 2.46487C20.4693 3.25348 22.1011 4.65502 23.1293 6.40809L23.3789 6.86149C23.8968 7.87246 24.2186 8.97513 24.3328 10.0987C24.5233 10.1644 24.7023 10.2658 24.8556 10.4003L24.9622 10.5031C25.1961 10.7538 25.3417 11.0808 25.3647 11.4224L25.3656 11.432V11.4598L25.3794 12.456V12.4819C25.3704 12.8909 25.1781 13.2828 24.8596 13.5481C24.817 13.5835 24.7719 13.6154 24.7274 13.6442L24.2184 15.0553V15.0601L24.2006 15.1081C24.0818 15.4332 23.9181 15.7427 23.7163 16.0274L23.7173 16.0284C23.5474 16.2691 23.3495 16.4924 23.1284 16.6912L23.1224 16.696L23.1067 16.7094L23.1017 16.7143L21.409 18.0937L21.264 18.5086L21.2531 18.5403L21.2492 18.5509L21.2452 18.5605C20.9217 19.292 20.4532 19.9601 19.8809 20.5268C19.8628 20.9686 19.8505 21.3714 19.8632 21.7276C19.8771 22.1158 19.9207 22.4258 20.0062 22.6565C20.151 23.0462 20.4479 23.279 20.9562 23.6257C22.3385 23.7759 23.6495 24.0511 24.8931 24.6237L25.2443 24.7947C26.9883 25.6869 28.5581 27.1645 29.2976 29.0146L29.3983 29.2826C29.8085 30.4552 29.893 31.7319 29.8629 32.9972L29.8412 33.5803C29.8033 34.3701 29.6708 34.9958 29.275 35.4131C28.9198 35.7872 28.4056 35.942 27.745 35.975L27.453 35.9818L2.91885 36C2.45367 36 1.87597 35.9148 1.39872 35.5668C0.969788 35.2539 0.65907 34.7569 0.558265 34.0212L0.528671 33.6907C0.45126 32.0957 0.496928 30.4488 1.0949 28.9839L1.25766 28.616C2.12709 26.8063 3.79548 25.3905 5.55367 24.5844L6.03112 24.3807C7.1259 23.9479 8.25978 23.7299 9.4482 23.6065C9.93039 23.2859 10.2119 23.0619 10.3538 22.693L10.412 22.5056C10.4632 22.3031 10.493 22.0552 10.5067 21.7621C10.5239 21.3932 10.5145 20.974 10.5007 20.5134C9.94073 19.9556 9.48222 19.3007 9.16311 18.5826L9.1493 18.5519L9.14338 18.5403L9.13944 18.5278L9.00331 18.1388L7.51869 16.9304C7.27239 16.7485 7.04846 16.5379 6.85382 16.305L6.66541 16.0601C6.51587 15.8479 6.38866 15.6189 6.28661 15.381L6.28266 15.3723L6.19783 15.1552L6.19586 15.1485L5.63358 13.5914C5.58578 13.557 5.53825 13.5209 5.49449 13.4809L5.4935 13.479C5.22421 13.2292 5.05287 12.886 5.01803 12.5261L5.01704 12.5155L5.01507 12.4819L5.01408 12.4684L5.00224 11.6308L5.00323 11.6299C4.97886 11.1966 5.1466 10.7641 5.46292 10.4579L5.54874 10.3811C5.6966 10.2582 5.867 10.1624 6.04887 10.0996C6.21241 8.53879 6.78667 7.01929 7.70612 5.72895L7.91031 5.45423C8.90991 4.15796 10.2616 3.12449 11.7891 2.48408C11.771 2.19345 11.8064 1.89889 11.8995 1.61955L11.9528 1.47739C12.0864 1.15055 12.2948 0.854095 12.5605 0.615738L12.5615 0.614777L12.7341 0.475492C13.151 0.169541 13.6675 0.000154275 14.1891 0L14.268 0.00288177ZM4.89176 32.6716L4.87697 32.6706H4.87401C4.72629 32.6707 4.57462 32.7165 4.44884 32.7955L4.33244 32.8848C4.203 33.0074 4.11911 33.1819 4.10358 33.3593V34.5485C8.77412 34.5454 18.5469 34.5394 26.2821 34.5341L26.2682 33.1V33.0673C26.2718 32.9624 26.2225 32.8449 26.141 32.7686L26.0808 32.7234C26.0168 32.6844 25.9419 32.6615 25.8717 32.66L4.89176 32.6716ZM5.25675 26.3989C4.11632 27.1125 3.13846 28.108 2.59332 29.2576L2.47791 29.5199C1.94943 30.8133 1.93644 32.3463 2.03992 34.0519V34.0692C2.03992 34.2095 2.07655 34.2911 2.11489 34.342C2.15511 34.3952 2.21682 34.4397 2.30429 34.4736C2.39949 34.5104 2.50782 34.5292 2.61601 34.5389L2.61502 33.3152L2.617 33.2863V33.2767L2.64067 33.076C2.71727 32.6124 2.94731 32.1761 3.2937 31.8474L3.45844 31.7062C3.85844 31.3953 4.36376 31.2231 4.87401 31.223H4.92037L5.25675 31.222V26.3989ZM25.1171 31.2124H25.9033L26.0759 31.224C26.4189 31.2624 26.7485 31.3925 27.0219 31.5976L27.1541 31.7062L27.1551 31.7071L27.2951 31.8493C27.5997 32.195 27.767 32.6469 27.7558 33.1038L27.7696 34.5313C27.8415 34.5302 27.9053 34.5282 27.963 34.5236C28.0896 34.5134 28.1507 34.494 28.183 34.4755C28.218 34.4554 28.3019 34.3905 28.3289 33.952L28.3615 33.3372C28.4158 32.025 28.3619 30.8282 28.0005 29.7792L27.9107 29.5391C27.4022 28.2678 26.3662 27.1686 25.122 26.4008L25.1171 31.2124ZM8.16482 25.2635C7.6725 25.3649 7.20059 25.493 6.74432 25.6631V31.2211H8.15002L8.16482 25.2635ZM14.2552 24.8495C13.392 24.8577 12.5398 24.8767 11.7358 24.9071L11.7348 24.9081L11.718 24.91H11.6993L11.6983 24.909C10.9711 24.9374 10.2931 24.9767 9.6524 25.0416L9.6376 31.2191L20.7461 31.2143L20.7303 25.0579C20.0739 24.9888 19.3796 24.946 18.638 24.9148C17.5209 24.8691 16.3194 24.8447 15.1233 24.8447L14.2552 24.8495ZM22.2327 31.2134H23.6295L23.6324 25.6823C23.1795 25.5165 22.7107 25.3862 22.2198 25.2846L22.2327 31.2134ZM12.0002 21.6315C11.9849 22.1818 11.9245 22.7367 11.7476 23.1992C11.7122 23.2912 11.6703 23.3785 11.6273 23.4614C11.641 23.4609 11.655 23.461 11.6687 23.4605H11.6717C12.7643 23.4195 13.9487 23.3971 15.1233 23.3971L16.0338 23.4009C16.9436 23.4099 17.8456 23.4326 18.7021 23.4672L18.7524 23.4691C18.6986 23.3685 18.6477 23.2621 18.6055 23.1483C18.4408 22.7012 18.3838 22.1716 18.3717 21.644C17.4267 22.1499 16.3555 22.4291 15.2762 22.4413H15.2012C14.086 22.4412 12.9742 22.1574 12.0002 21.6315ZM10.5353 18.0255C10.9321 18.9064 11.6 19.672 12.4293 20.1945L12.7439 20.3779C13.4919 20.778 14.3474 20.9936 15.2012 20.9937H15.2574C16.2353 20.9808 17.2118 20.6861 18.0264 20.158L18.3223 19.9505C18.9951 19.4397 19.5349 18.7593 19.8731 17.9957L21.3162 13.8892H9.0911L10.5353 18.0255ZM7.59958 14.6692L7.60747 14.6893V14.6941C7.67632 14.8857 7.77264 15.0693 7.89157 15.2397L8.00797 15.3906C8.02649 15.4127 8.04684 15.4335 8.06617 15.4549L7.52067 13.8892H7.31844L7.59958 14.6692ZM22.3658 15.3685C22.4099 15.3159 22.4538 15.2625 22.4931 15.2071C22.6202 15.0249 22.7245 14.8281 22.7989 14.623L23.0632 13.8901H22.8867L22.3658 15.3685ZM6.56972 11.4627C6.5585 11.4628 6.5458 11.4661 6.5352 11.4704L6.51053 11.4848C6.50352 11.4917 6.49629 11.5032 6.49179 11.5155L6.48587 11.552L6.48785 11.5636L6.48883 11.5991L6.48982 11.6116L6.49968 12.3974C6.50078 12.4014 6.50225 12.4061 6.50462 12.4108L6.51349 12.4243L6.51744 12.4271L6.55492 12.4416H23.8248L23.8376 12.4425L23.886 12.4464H23.8919L23.8781 11.5127C23.8764 11.5014 23.8682 11.4848 23.8603 11.4781L23.8554 11.4733C23.8473 11.4663 23.8296 11.4597 23.8149 11.4589L6.56972 11.4627ZM12.0416 3.96531C10.8859 4.51352 9.86292 5.33133 9.09406 6.33124L8.92932 6.5541C8.19929 7.57821 7.7276 8.77726 7.55914 10.0132H12.7252C12.5123 9.65278 12.3808 9.24678 12.3484 8.83166C12.3107 8.32241 12.4199 7.80575 12.6601 7.35235L12.0416 3.96531ZM17.694 7.32449C17.7115 7.35611 17.7308 7.38745 17.7472 7.42055L17.8508 7.65493C18.034 8.13312 18.078 8.65856 17.9781 9.16018L17.9159 9.40897C17.852 9.62032 17.7607 9.82225 17.6476 10.0113H22.8245C22.7089 9.13883 22.4458 8.28409 22.0423 7.49836L21.8381 7.12565C21.0314 5.74907 19.7767 4.62431 18.3076 3.93938L17.694 7.32449ZM15.0187 7.31489C14.8491 7.33595 14.6834 7.38834 14.5334 7.46858L14.5314 7.46954C14.3079 7.58816 14.1175 7.77508 13.9948 7.99594L13.9484 8.08432C13.8564 8.28317 13.8168 8.50597 13.833 8.72407L13.8606 8.90946C13.9026 9.0939 13.9862 9.27144 14.1023 9.42338C14.3012 9.6785 14.6054 9.86308 14.928 9.92481C15.0119 9.93908 15.0975 9.94783 15.1805 9.94786L15.3679 9.93537C15.5543 9.91056 15.7349 9.8486 15.8917 9.75478L15.9953 9.68658C16.2282 9.51705 16.4061 9.27097 16.4885 8.9988L16.5181 8.88161C16.5732 8.60502 16.5351 8.30694 16.4096 8.05166L16.3198 7.90085C16.221 7.75579 16.0936 7.6285 15.948 7.53198L15.7941 7.44457C15.6339 7.36714 15.4573 7.32056 15.2801 7.30912L15.2732 7.30816C15.2449 7.30567 15.2189 7.30433 15.1894 7.30432L15.0187 7.31489ZM14.1033 1.45337C13.9051 1.47212 13.7114 1.55517 13.5666 1.68391C13.4804 1.76148 13.4091 1.85599 13.3585 1.9596L13.3151 2.06623C13.2669 2.21113 13.2579 2.37037 13.2895 2.52155L13.2904 2.52635L13.2924 2.53403L13.2934 2.54076L13.9484 6.1324C14.334 5.95172 14.7611 5.85676 15.1894 5.85671L15.3798 5.86152L15.3827 5.86248L15.5692 5.88073C15.8573 5.91955 16.1387 6.0035 16.4017 6.12472L17.04 2.59935L17.0419 2.58783L17.0449 2.5763L17.0538 2.54268L17.0755 2.43413C17.0895 2.32469 17.0825 2.21141 17.0548 2.10561L17.0183 2.00091C16.9893 1.93296 16.9514 1.86787 16.9058 1.80879L16.8318 1.72522C16.6736 1.56747 16.4409 1.4704 16.2133 1.46778L14.2542 1.45049H14.2374L14.2217 1.44953H14.1891L14.1033 1.45337Z" fill="white"/>
</svg>
