<svg width="55" height="60" viewBox="0 0 55 60" fill="none" xmlns="http://www.w3.org/2000/svg">
<path d="M9.02176 42.9301C9.25173 42.744 9.59109 42.7575 9.8053 42.9704L9.91488 43.0843C10.4455 43.6652 10.736 44.4114 10.736 45.201C10.7359 46.8861 9.39818 48.2671 7.72169 48.3515L7.5586 48.3556C5.8066 48.3556 4.38132 46.9405 4.38123 45.201C4.38126 44.3586 4.71198 43.5656 5.31191 42.9699L5.35667 42.9301C5.58659 42.7442 5.92537 42.7575 6.13969 42.9699L6.18034 43.0143C6.3553 43.2275 6.35535 43.5353 6.18034 43.7483L6.14021 43.7923C5.76108 44.1687 5.55219 44.6688 5.55217 45.201L5.55474 45.3032C5.60859 46.3541 6.48698 47.1931 7.5586 47.1931C8.66471 47.193 9.56496 46.2993 9.56504 45.201C9.56502 44.7021 9.38168 44.2313 9.04645 43.8643L8.97751 43.7923C8.74893 43.5652 8.74887 43.1969 8.97751 42.9699L9.02176 42.9301Z" fill="white"/>
<path fill-rule="evenodd" clip-rule="evenodd" d="M20.9863 42.0985C21.2814 42.1283 21.5115 42.3758 21.5116 42.6767V46.0617C21.5115 46.3828 21.2495 46.643 20.9261 46.643H15.9115C15.5884 46.6428 15.3261 46.3827 15.3261 46.0617V42.6767C15.3261 42.3558 15.5885 42.0956 15.9115 42.0954H20.9261L20.9863 42.0985ZM16.497 45.4804H20.3406V43.258H16.497V45.4804Z" fill="white"/>
<path fill-rule="evenodd" clip-rule="evenodd" d="M31.7542 42.0985C32.0493 42.1284 32.2794 42.3759 32.2794 42.6767V46.0617C32.2794 46.3827 32.0173 46.6429 31.694 46.643H26.6794C26.3561 46.6429 26.094 46.3827 26.094 46.0617V42.6767C26.094 42.3558 26.3561 42.0955 26.6794 42.0954H31.694L31.7542 42.0985ZM27.2649 45.4804H31.1085V43.258H27.2649V45.4804Z" fill="white"/>
<path fill-rule="evenodd" clip-rule="evenodd" d="M39.1605 42.0954C40.4233 42.0955 41.4509 43.1157 41.4509 44.3694C41.4508 45.623 40.4232 46.6428 39.1605 46.643C37.8978 46.6428 36.8707 45.623 36.8706 44.3694C36.8706 43.1157 37.8977 42.0956 39.1605 42.0954ZM39.1605 43.258C38.5436 43.2581 38.0415 43.7569 38.0415 44.3694C38.0416 44.9818 38.5437 45.4803 39.1605 45.4804L39.2752 45.4748C39.8385 45.4176 40.2799 44.9435 40.28 44.3694C40.28 43.7952 39.8386 43.3209 39.2752 43.2636L39.1605 43.258Z" fill="white"/>
<path fill-rule="evenodd" clip-rule="evenodd" d="M48.3227 42.0954C49.5855 42.0955 50.6131 43.1156 50.6131 44.3694L50.61 44.4859C50.5487 45.6856 49.5461 46.6429 48.3227 46.643C47.0601 46.6429 46.0329 45.6231 46.0328 44.3694C46.0328 43.1156 47.06 42.0955 48.3227 42.0954ZM48.3227 43.258C47.7058 43.258 47.2037 43.7569 47.2037 44.3694C47.2038 44.9818 47.7058 45.4804 48.3227 45.4804L48.4369 45.4748C49.0004 45.4178 49.4421 44.9436 49.4422 44.3694L49.436 44.2561C49.3825 43.7337 48.963 43.3169 48.4369 43.2636L48.3227 43.258Z" fill="white"/>
<path d="M7.62548 40.3986C7.92053 40.4285 8.15059 40.6762 8.15076 40.9768V44.5007C8.15071 44.8014 7.92055 45.0491 7.62548 45.0789L7.56529 45.082C7.2421 45.0819 6.97987 44.8215 6.97982 44.5007V40.9768C6.97995 40.6561 7.24213 40.3957 7.56529 40.3955L7.62548 40.3986Z" fill="white"/>
<path fill-rule="evenodd" clip-rule="evenodd" d="M25.6212 7.45241C26.6558 6.4286 28.3314 6.41299 29.385 7.41665L29.4041 7.42942L29.4288 7.45394V7.45241C30.1165 8.12539 30.3831 9.11049 30.1284 10.0319C29.8738 10.9518 29.1362 11.6664 28.1997 11.9019L28.1981 32.298H50.6028L50.8287 32.3037C52.8744 32.407 54.5547 33.9051 54.9239 35.8567C54.9258 35.866 54.927 35.8754 54.9285 35.8848C54.9747 36.138 55 36.3986 55 36.6648V52.3541C54.9998 54.6864 53.1489 56.5975 50.8287 56.7146L50.6028 56.7202H49.1052V59.4187C49.105 59.7395 48.843 59.9999 48.5197 60H41.8908C41.5677 59.9999 41.3054 59.7396 41.3053 59.4187V56.7202H13.689V59.4187C13.6889 59.7395 13.4268 59.9999 13.1036 60H6.47461C6.1514 59.9999 5.88926 59.7396 5.88915 59.4187V56.7202H4.3977C1.97274 56.7202 5.77622e-05 54.7612 0 52.3535V36.6642C0.000108674 34.2567 1.97278 32.298 4.3977 32.298H26.8502V11.9019C25.908 11.6737 25.1648 10.959 24.9086 10.0349C24.654 9.11067 24.9261 8.1225 25.6212 7.45241ZM7.06008 58.8375H12.5181V56.7202H7.06008V58.8375ZM42.4762 58.8375H47.9348V56.7202H42.4762V58.8375ZM1.28515 52.9731C1.57599 54.415 2.86123 55.5051 4.3977 55.5051H6.13043C6.22711 55.4351 6.34584 55.3932 6.47461 55.3932L6.53481 55.3963C6.64062 55.407 6.73783 55.446 6.81931 55.5051H12.7594C12.8561 55.4351 12.9748 55.3932 13.1036 55.3932L13.1638 55.3963C13.2696 55.407 13.3668 55.446 13.4483 55.5051H41.5466C41.6433 55.4351 41.762 55.3933 41.8908 55.3932L41.951 55.3963C42.0568 55.407 42.154 55.446 42.2355 55.5051H48.1755C48.2721 55.435 48.3909 55.3933 48.5197 55.3932L48.5799 55.3963C48.6857 55.407 48.783 55.446 48.8644 55.5051H50.6028L50.7659 55.501C52.236 55.4267 53.4446 54.354 53.7179 52.9542L1.28515 52.9731ZM1.22341 36.6642V51.8111L53.7766 51.7912V36.6642C53.7766 36.6282 53.7752 36.5922 53.774 36.5565H1.22598C1.22477 36.5922 1.22341 36.6282 1.22341 36.6642ZM4.3977 33.5132C3.10283 33.5132 1.98721 34.2875 1.49402 35.3939H53.5065C53.0343 34.3342 51.9908 33.5792 50.7659 33.5173L50.6028 33.5132H4.3977ZM28.4425 8.35803C27.9098 7.87567 27.0859 7.89003 26.5693 8.3897C26.1859 8.76373 26.0658 9.32865 26.2663 9.82399C26.4668 10.3193 26.9472 10.647 27.4871 10.6571V10.6555H27.5617L27.5633 10.6571C28.1017 10.6483 28.5816 10.3204 28.7821 9.82654C28.981 9.33125 28.8597 8.76787 28.4749 8.39532L28.4497 8.3708L28.4441 8.35803H28.4425Z" fill="white"/>
<path d="M35.9234 0.195675C36.1693 -0.0468818 36.5601 -0.0658606 36.8279 0.150726C38.6761 1.96164 39.9343 4.27528 40.4436 6.79401C40.9528 9.31401 40.6896 11.9268 39.6873 14.2995L39.6683 14.3373L39.6698 14.3358C39.0084 15.8984 38.0424 17.3181 36.8279 18.514C36.5615 18.7479 36.1545 18.7362 35.9013 18.4849C35.6497 18.235 35.6397 17.8334 35.8797 17.5706C36.9596 16.5106 37.8331 15.2296 38.433 13.8245L38.4464 13.7872H38.4449C39.6448 10.9364 39.6448 7.72983 38.4449 4.87754C37.8507 3.45945 36.9786 2.17255 35.8797 1.08802C35.6587 0.823736 35.679 0.436873 35.9234 0.195675Z" fill="white"/>
<path d="M18.222 0.150726C18.4898 -0.0658479 18.8806 -0.0472887 19.1265 0.195165C19.3709 0.436338 19.3917 0.823714 19.1707 1.08802C18.0907 2.15381 17.2169 3.42893 16.6169 4.83974L16.6035 4.87703H16.6051C15.4051 7.72925 15.4051 10.9358 16.6051 13.7867C17.2051 15.2163 18.085 16.4972 19.1723 17.5701L19.1707 17.5706C19.4105 17.8334 19.4001 18.2346 19.1486 18.4844C18.8954 18.7356 18.4884 18.7474 18.222 18.5135C16.3753 16.7025 15.1186 14.3889 14.6094 11.8687C14.1002 9.35006 14.3617 6.73752 15.3626 4.36624L15.3816 4.32844C16.0504 2.75154 17.0178 1.33351 18.222 0.150726Z" fill="white"/>
<path d="M33.8846 2.3895C34.0631 2.3895 34.2362 2.46002 34.362 2.58564C35.7171 3.91718 36.6404 5.61728 37.0136 7.46722C37.3867 9.3186 37.1951 11.238 36.4605 12.9796C35.9732 14.1435 35.2487 15.1977 34.362 16.0786V16.0801C34.0957 16.3155 33.6886 16.3069 33.4354 16.0571C33.1808 15.8087 33.1691 15.4071 33.4061 15.1428C34.5695 13.9947 35.3612 12.5319 35.6832 10.9406C36.0066 9.34772 35.8443 7.69683 35.2181 6.19639V6.18311C34.7966 5.1852 34.1817 4.2783 33.4061 3.51578V3.5214C33.1459 3.26288 33.1457 2.84407 33.4061 2.58564C33.5334 2.46006 33.7047 2.38956 33.8846 2.3895Z" fill="white"/>
<path d="M20.6879 2.58564C20.9513 2.32863 21.3742 2.32873 21.6376 2.58564C21.8966 2.84415 21.8966 3.2629 21.6376 3.5214C20.8884 4.27383 20.2637 5.16659 19.8452 6.15297L19.8318 6.19026C18.9933 8.18604 18.9876 10.4305 19.8143 12.4321L19.8334 12.4699C20.2519 13.4735 20.877 14.3804 21.6438 15.1443L21.6376 15.1428C21.8571 15.4071 21.8382 15.7939 21.5923 16.0351C21.3479 16.2778 20.9557 16.2967 20.6879 16.0801C19.7909 15.192 19.0767 14.1392 18.5894 12.9796L18.5703 12.9362L18.5719 12.9377C17.609 10.6112 17.6163 8.0057 18.5894 5.68509L18.6027 5.64167C19.0915 4.49935 19.7996 3.46226 20.6879 2.58564Z" fill="white"/>
<path d="M30.9624 5.04814C31.2155 4.79686 31.6226 4.78366 31.8889 5.01903C33.0465 6.16427 33.696 7.71565 33.7004 9.33312C33.7033 10.9505 33.0507 12.5029 31.8889 13.6452C31.6226 13.8806 31.2156 13.8674 30.9624 13.6176C30.7108 13.3663 30.7008 12.9651 30.9408 12.7023C32.3192 11.3376 32.7316 9.29117 31.9898 7.50911C31.7454 6.93008 31.3885 6.40576 30.9408 5.96245C30.7008 5.69962 30.7107 5.29799 30.9624 5.04814Z" fill="white"/>
<path d="M23.161 5.02515C23.4302 4.82156 23.8109 4.84572 24.0494 5.08389C24.2894 5.32071 24.3112 5.69767 24.1035 5.96194C22.7279 7.32523 22.314 9.37037 23.0545 11.1495C23.3047 11.7344 23.6662 12.2589 24.1096 12.7023C24.3479 12.9665 24.3348 13.3678 24.0819 13.6176C23.8272 13.866 23.4201 13.8764 23.1538 13.6396C22.2933 12.7861 21.7064 11.6999 21.4678 10.5187C21.2293 9.33593 21.3496 8.11123 21.812 6.99781C22.1266 6.2585 22.5845 5.58832 23.161 5.02515Z" fill="white"/>
</svg>
