<svg width="34" height="42" viewBox="0 0 34 42" fill="none" xmlns="http://www.w3.org/2000/svg">
<path d="M32.1724 1H1.82759C1.64469 1 1.46927 1.07266 1.33993 1.202C1.2106 1.33133 1.13794 1.50675 1.13794 1.68966V40.3103C1.13794 40.4933 1.2106 40.6687 1.33993 40.798C1.46927 40.9273 1.64469 41 1.82759 41H32.1724C32.3553 41 32.5307 40.9273 32.6601 40.798C32.7894 40.6687 32.8621 40.4933 32.8621 40.3103V1.68966C32.8621 1.50675 32.7894 1.33133 32.6601 1.202C32.5307 1.07266 32.3553 1 32.1724 1ZM2.51725 2.37931H21.1379V39.6207H2.51725V2.37931ZM31.4828 39.6207H22.5172V2.37931H31.4828V39.6207Z" fill="white" stroke="white" stroke-width="0.4"/>
<path d="M16.9999 26.5172H6.65511C6.4722 26.5172 6.29678 26.5899 6.16745 26.7192C6.03811 26.8485 5.96545 27.024 5.96545 27.2069V32.7241C5.96545 32.907 6.03811 33.0824 6.16745 33.2118C6.29678 33.3411 6.4722 33.4138 6.65511 33.4138H16.9999C17.1828 33.4138 17.3583 33.3411 17.4876 33.2118C17.6169 33.0824 17.6896 32.907 17.6896 32.7241V27.2069C17.6896 27.024 17.6169 26.8485 17.4876 26.7192C17.3583 26.5899 17.1828 26.5172 16.9999 26.5172ZM16.3103 32.0345H7.34476V27.8965H16.3103V32.0345Z" fill="white" stroke="white" stroke-width="0.4"/>
<path d="M9.41378 31.3448H14.2414C14.4243 31.3448 14.5997 31.2721 14.729 31.1428C14.8584 31.0134 14.931 30.838 14.931 30.6551C14.931 30.4722 14.8584 30.2968 14.729 30.1674C14.5997 30.0381 14.4243 29.9655 14.2414 29.9655H9.41378C9.23087 29.9655 9.05545 30.0381 8.92612 30.1674C8.79678 30.2968 8.72412 30.4722 8.72412 30.6551C8.72412 30.838 8.79678 31.0134 8.92612 31.1428C9.05545 31.2721 9.23087 31.3448 9.41378 31.3448Z" fill="white" stroke="white" stroke-width="0.4"/>
<path d="M23.2621 30.9241C23.4053 31.8123 23.8601 32.6205 24.5451 33.2039C25.23 33.7872 26.1003 34.1076 27 34.1076C27.8997 34.1076 28.77 33.7872 29.455 33.2039C30.1399 32.6205 30.5947 31.8123 30.7379 30.9241C30.7742 30.839 30.7929 30.7476 30.7931 30.6551V28.5861C30.7931 28.4032 30.7205 28.2278 30.5911 28.0985C30.4618 27.9691 30.2864 27.8965 30.1035 27.8965C29.9206 27.8965 29.7451 27.9691 29.6158 28.0985C29.4865 28.2278 29.4138 28.4032 29.4138 28.5861V29.9654H24.5862V28.5861C24.5862 28.4032 24.5136 28.2278 24.3842 28.0985C24.2549 27.9691 24.0795 27.8965 23.8966 27.8965C23.7137 27.8965 23.5382 27.9691 23.4089 28.0985C23.2796 28.2278 23.2069 28.4032 23.2069 28.5861V30.6551C23.2071 30.7476 23.2259 30.839 23.2621 30.9241ZM27 32.7241C26.5447 32.7225 26.0991 32.5921 25.7147 32.348C25.3303 32.104 25.0227 31.7562 24.8276 31.3448H29.1724C28.9773 31.7562 28.6698 32.104 28.2853 32.348C27.9009 32.5921 27.4553 32.7225 27 32.7241Z" fill="white" stroke="white" stroke-width="0.4"/>
<path d="M23.8966 15.4829C24.0795 15.4829 24.2549 15.4102 24.3842 15.2809C24.5136 15.1515 24.5862 14.9761 24.5862 14.7932V13.4139H29.4138V14.7932C29.4138 14.9761 29.4865 15.1515 29.6158 15.2809C29.7451 15.4102 29.9206 15.4829 30.1035 15.4829C30.2864 15.4829 30.4618 15.4102 30.5911 15.2809C30.7205 15.1515 30.7931 14.9761 30.7931 14.7932V12.7242C30.789 12.6655 30.7774 12.6076 30.7586 12.5518C30.7774 12.4961 30.789 12.4381 30.7931 12.3794C30.7931 11.3734 30.3935 10.4086 29.6821 9.69728C28.9708 8.98593 28.006 8.5863 27 8.5863C25.994 8.5863 25.0292 8.98593 24.3179 9.69728C23.6065 10.4086 23.2069 11.3734 23.2069 12.3794C23.211 12.4381 23.2226 12.4961 23.2414 12.5518C23.2226 12.6076 23.211 12.6655 23.2069 12.7242V14.7932C23.2069 14.9761 23.2796 15.1515 23.4089 15.2809C23.5382 15.4102 23.7137 15.4829 23.8966 15.4829ZM27 9.96561C27.5792 9.96652 28.1386 10.1762 28.5756 10.5563C29.0127 10.9363 29.298 11.4612 29.3793 12.0346H24.6207C24.702 11.4612 24.9874 10.9363 25.4244 10.5563C25.8614 10.1762 26.4209 9.96652 27 9.96561Z" fill="white" stroke="white" stroke-width="0.4"/>
<path d="M23.8966 18.2412H25.2759C25.4588 18.2412 25.6342 18.1686 25.7635 18.0393C25.8929 17.9099 25.9655 17.7345 25.9655 17.5516C25.9655 17.3687 25.8929 17.1933 25.7635 17.0639C25.6342 16.9346 25.4588 16.8619 25.2759 16.8619H23.8966C23.7137 16.8619 23.5382 16.9346 23.4089 17.0639C23.2796 17.1933 23.2069 17.3687 23.2069 17.5516C23.2069 17.7345 23.2796 17.9099 23.4089 18.0393C23.5382 18.1686 23.7137 18.2412 23.8966 18.2412Z" fill="white" stroke="white" stroke-width="0.4"/>
<path d="M30.1035 16.8619H28.7242C28.5413 16.8619 28.3659 16.9346 28.2365 17.0639C28.1072 17.1933 28.0345 17.3687 28.0345 17.5516C28.0345 17.7345 28.1072 17.9099 28.2365 18.0393C28.3659 18.1686 28.5413 18.2412 28.7242 18.2412H30.1035C30.2864 18.2412 30.4618 18.1686 30.5912 18.0393C30.7205 17.9099 30.7932 17.7345 30.7932 17.5516C30.7932 17.3687 30.7205 17.1933 30.5912 17.0639C30.4618 16.9346 30.2864 16.8619 30.1035 16.8619Z" fill="white" stroke="white" stroke-width="0.4"/>
<path d="M23.8966 20.9998H25.2759C25.4588 20.9998 25.6342 20.9271 25.7635 20.7978C25.8929 20.6685 25.9655 20.493 25.9655 20.3101C25.9655 20.1272 25.8929 19.9518 25.7635 19.8225C25.6342 19.6931 25.4588 19.6205 25.2759 19.6205H23.8966C23.7137 19.6205 23.5382 19.6931 23.4089 19.8225C23.2796 19.9518 23.2069 20.1272 23.2069 20.3101C23.2069 20.493 23.2796 20.6685 23.4089 20.7978C23.5382 20.9271 23.7137 20.9998 23.8966 20.9998Z" fill="white" stroke="white" stroke-width="0.4"/>
<path d="M30.1035 19.6205H28.7242C28.5413 19.6205 28.3659 19.6931 28.2365 19.8225C28.1072 19.9518 28.0345 20.1272 28.0345 20.3101C28.0345 20.493 28.1072 20.6685 28.2365 20.7978C28.3659 20.9271 28.5413 20.9998 28.7242 20.9998H30.1035C30.2864 20.9998 30.4618 20.9271 30.5912 20.7978C30.7205 20.6685 30.7932 20.493 30.7932 20.3101C30.7932 20.1272 30.7205 19.9518 30.5912 19.8225C30.4618 19.6931 30.2864 19.6205 30.1035 19.6205Z" fill="white" stroke="white" stroke-width="0.4"/>
<path d="M23.8966 23.7586H25.2759C25.4588 23.7586 25.6342 23.6859 25.7635 23.5566C25.8929 23.4273 25.9655 23.2518 25.9655 23.0689C25.9655 22.886 25.8929 22.7106 25.7635 22.5813C25.6342 22.4519 25.4588 22.3793 25.2759 22.3793H23.8966C23.7137 22.3793 23.5382 22.4519 23.4089 22.5813C23.2796 22.7106 23.2069 22.886 23.2069 23.0689C23.2069 23.2518 23.2796 23.4273 23.4089 23.5566C23.5382 23.6859 23.7137 23.7586 23.8966 23.7586Z" fill="white" stroke="white" stroke-width="0.4"/>
<path d="M30.1035 22.3793H28.7242C28.5413 22.3793 28.3659 22.4519 28.2365 22.5813C28.1072 22.7106 28.0345 22.886 28.0345 23.0689C28.0345 23.2518 28.1072 23.4273 28.2365 23.5566C28.3659 23.6859 28.5413 23.7586 28.7242 23.7586H30.1035C30.2864 23.7586 30.4618 23.6859 30.5912 23.5566C30.7205 23.4273 30.7932 23.2518 30.7932 23.0689C30.7932 22.886 30.7205 22.7106 30.5912 22.5813C30.4618 22.4519 30.2864 22.3793 30.1035 22.3793Z" fill="white" stroke="white" stroke-width="0.4"/>
<path d="M23.8966 26.5174H25.2759C25.4588 26.5174 25.6342 26.4447 25.7635 26.3154C25.8929 26.186 25.9655 26.0106 25.9655 25.8277C25.9655 25.6448 25.8929 25.4694 25.7635 25.3401C25.6342 25.2107 25.4588 25.1381 25.2759 25.1381H23.8966C23.7137 25.1381 23.5382 25.2107 23.4089 25.3401C23.2796 25.4694 23.2069 25.6448 23.2069 25.8277C23.2069 26.0106 23.2796 26.186 23.4089 26.3154C23.5382 26.4447 23.7137 26.5174 23.8966 26.5174Z" fill="white" stroke="white" stroke-width="0.4"/>
<path d="M30.1035 25.1381H28.7242C28.5413 25.1381 28.3659 25.2107 28.2365 25.3401C28.1072 25.4694 28.0345 25.6448 28.0345 25.8277C28.0345 26.0106 28.1072 26.186 28.2365 26.3154C28.3659 26.4447 28.5413 26.5174 28.7242 26.5174H30.1035C30.2864 26.5174 30.4618 26.4447 30.5912 26.3154C30.7205 26.186 30.7932 26.0106 30.7932 25.8277C30.7932 25.6448 30.7205 25.4694 30.5912 25.3401C30.4618 25.2107 30.2864 25.1381 30.1035 25.1381Z" fill="white" stroke="white" stroke-width="0.4"/>
<path d="M11.138 16.1723C12.1434 16.1705 13.1071 15.7703 13.8181 15.0593C14.529 14.3484 14.9292 13.3846 14.9311 12.3792V11.2689C15.1263 11.2873 15.3121 11.3613 15.4666 11.4819C15.6212 11.6026 15.738 11.765 15.8032 11.9499C15.8685 12.1348 15.8795 12.3345 15.8349 12.5254C15.7904 12.7164 15.6921 12.8906 15.5517 13.0275C15.4865 13.0904 15.4344 13.1656 15.3982 13.2487C15.3621 13.3318 15.3426 13.4212 15.341 13.5118C15.3394 13.6025 15.3557 13.6925 15.3889 13.7768C15.4221 13.8612 15.4716 13.9381 15.5345 14.0033C15.5974 14.0685 15.6726 14.1207 15.7557 14.1569C15.8388 14.193 15.9282 14.2125 16.0189 14.2141C16.1095 14.2157 16.1995 14.1994 16.2839 14.1662C16.3682 14.133 16.4452 14.0835 16.5104 14.0206C16.7377 13.7996 16.9193 13.536 17.0448 13.2449C17.1703 12.9537 17.2372 12.6407 17.2417 12.3237C17.2462 12.0067 17.1881 11.6919 17.0709 11.3973C16.9538 11.1027 16.7797 10.8341 16.5586 10.6068C16.2584 10.3014 15.8826 10.0812 15.4694 9.96847C15.0563 9.8558 14.6206 9.85474 14.2069 9.9654H8.0345C7.8516 9.9654 7.67618 10.0381 7.54684 10.1674C7.41751 10.2967 7.34485 10.4722 7.34485 10.6551V12.3792C7.34667 13.3846 7.74689 14.3484 8.45784 15.0593C9.16879 15.7703 10.1325 16.1705 11.138 16.1723ZM8.72416 11.3447H13.5517V12.3792C13.5517 13.0194 13.2974 13.6333 12.8448 14.086C12.3921 14.5387 11.7781 14.793 11.138 14.793C10.4978 14.793 9.88382 14.5387 9.43114 14.086C8.97847 13.6333 8.72416 13.0194 8.72416 12.3792V11.3447Z" fill="white" stroke="white" stroke-width="0.4"/>
<path d="M9.75862 9.27579C9.94153 9.27579 10.1169 9.20313 10.2463 9.0738C10.3756 8.94446 10.4483 8.76904 10.4483 8.58614V6.51717C10.4483 6.33426 10.3756 6.15885 10.2463 6.02951C10.1169 5.90017 9.94153 5.82751 9.75862 5.82751C9.57572 5.82751 9.4003 5.90017 9.27096 6.02951C9.14163 6.15885 9.06897 6.33426 9.06897 6.51717V8.58614C9.06897 8.76904 9.14163 8.94446 9.27096 9.0738C9.4003 9.20313 9.57572 9.27579 9.75862 9.27579Z" fill="white" stroke="white" stroke-width="0.4"/>
<path d="M12.5173 9.27579C12.7002 9.27579 12.8756 9.20313 13.005 9.0738C13.1343 8.94446 13.2069 8.76904 13.2069 8.58614V6.51717C13.2069 6.33426 13.1343 6.15885 13.005 6.02951C12.8756 5.90017 12.7002 5.82751 12.5173 5.82751C12.3344 5.82751 12.159 5.90017 12.0296 6.02951C11.9003 6.15885 11.8276 6.33426 11.8276 6.51717V8.58614C11.8276 8.76904 11.9003 8.94446 12.0296 9.0738C12.159 9.20313 12.3344 9.27579 12.5173 9.27579Z" fill="white" stroke="white" stroke-width="0.4"/>
</svg>
