<svg width="27" height="42" viewBox="0 0 27 42" fill="none" xmlns="http://www.w3.org/2000/svg">
<path d="M25.5635 41H1.43644C1.08564 41 0.801514 40.7159 0.801514 40.3651V1.63492C0.801514 1.28413 1.08564 1 1.43644 1H25.5635C25.9143 1 26.1985 1.28413 26.1985 1.63492V40.3651C26.1985 40.7159 25.9143 41 25.5635 41ZM2.07156 39.7301H24.9288V2.26944H2.07156V39.7301Z" fill="white" stroke="white" stroke-width="0.4"/>
<path d="M20.1664 37.8251H6.83317C6.48237 37.8251 6.19824 37.541 6.19824 37.1902V33.3807C6.19824 33.0299 6.48237 32.7457 6.83317 32.7457H20.1664C20.5172 32.7457 20.8013 33.0299 20.8013 33.3807V37.1902C20.8013 37.541 20.5172 37.8251 20.1664 37.8251ZM7.46789 36.5553H19.5316V34.0156H7.46789V36.5553Z" fill="white" stroke="white" stroke-width="0.4"/>
<path d="M18.8965 27.9841H3.65836C3.30757 27.9841 3.02344 27.7 3.02344 27.3492V3.85721C3.02344 3.50642 3.30757 3.22229 3.65836 3.22229H18.8965C19.2473 3.22229 19.5315 3.50642 19.5315 3.85721V27.3492C19.5315 27.7 19.2473 27.9841 18.8965 27.9841ZM4.29308 26.7143H18.2614V4.49173H4.29308V26.7143Z" fill="white" stroke="white" stroke-width="0.4"/>
<path d="M22.0713 23.8571H23.3412C23.692 23.8571 23.9761 24.2079 23.9761 24.492V25.4444C23.9761 25.7952 23.692 26.0793 23.3412 26.0793H22.0713C21.7205 26.0793 21.4364 25.7285 21.4364 25.4444V24.492C21.4364 24.1412 21.7205 23.8571 22.0713 23.8571Z" fill="white" stroke="white" stroke-width="0.4"/>
<path d="M23.3412 18.7773H22.0713C21.7205 18.7773 21.4364 18.4932 21.4364 18.1424C21.4364 17.7916 21.7205 17.5074 22.0713 17.5074H23.3412C23.692 17.5074 23.9761 17.7916 23.9761 18.1424C23.9761 18.4932 23.692 18.7773 23.3412 18.7773Z" fill="white" stroke="white" stroke-width="0.4"/>
<path d="M23.3412 15.6032H22.0713C21.7205 15.6032 21.4364 15.3191 21.4364 14.9683C21.4364 14.6175 21.7205 14.3334 22.0713 14.3334H23.3412C23.692 14.3334 23.9761 14.6175 23.9761 14.9683C23.9761 15.3191 23.692 15.6032 23.3412 15.6032Z" fill="white" stroke="white" stroke-width="0.4"/>
<path d="M23.3412 12.4284H22.0713C21.7205 12.4284 21.4364 12.1443 21.4364 11.7935C21.4364 11.4427 21.7205 11.1586 22.0713 11.1586H23.3412C23.692 11.1586 23.9761 11.4427 23.9761 11.7935C23.9761 12.1443 23.692 12.4284 23.3412 12.4284Z" fill="white" stroke="white" stroke-width="0.4"/>
<path d="M23.3412 9.25386H22.0713C21.7205 9.25386 21.4364 8.96973 21.4364 8.61893C21.4364 8.26814 21.7205 7.98401 22.0713 7.98401H23.3412C23.692 7.98401 23.9761 8.26814 23.9761 8.61893C23.9761 8.96973 23.692 9.25386 23.3412 9.25386Z" fill="white" stroke="white" stroke-width="0.4"/>
<path d="M23.3412 6.07881H22.0713C21.7205 6.07881 21.4364 5.79468 21.4364 5.44388C21.4364 5.09309 21.7205 4.80896 22.0713 4.80896H23.3412C23.692 4.80896 23.9761 5.09309 23.9761 5.44388C23.9761 5.79468 23.692 6.07881 23.3412 6.07881Z" fill="white" stroke="white" stroke-width="0.4"/>
</svg>
