<svg width="30" height="42" viewBox="0 0 30 42" fill="none" xmlns="http://www.w3.org/2000/svg">
<path d="M15.6666 29H4.99992C4.59992 29 4.33325 29.2667 4.33325 29.6667V33.6667C4.33325 35.5333 5.79992 37 7.66658 37H12.9999C14.8666 37 16.3333 35.5333 16.3333 33.6667V29.6667C16.3333 29.2667 16.0666 29 15.6666 29ZM14.9999 33.6667C14.9999 34.7333 14.0666 35.6667 12.9999 35.6667H7.66658C6.59992 35.6667 5.66659 34.7333 5.66659 33.6667V30.3333H14.9999V33.6667Z" fill="white" stroke="white" stroke-width="0.2"/>
<path d="M28.9999 1H19.6666H0.999919C0.599919 1 0.333252 1.26667 0.333252 1.66667V9.66667V17.6667V25.6667V40.3333C0.333252 40.7333 0.599919 41 0.999919 41H19.6666H28.9999C29.3999 41 29.6666 40.7333 29.6666 40.3333V1.66667C29.6666 1.26667 29.3999 1 28.9999 1ZM16.3333 25H14.9999V21H16.3333V25ZM16.9999 19.6667H14.3333C13.9333 19.6667 13.6666 19.9333 13.6666 20.3333V25H12.3333V20.3333C12.3333 19.9333 12.0666 19.6667 11.6666 19.6667H8.99992C8.59992 19.6667 8.33325 19.9333 8.33325 20.3333V25H6.99992V20.3333C6.99992 19.9333 6.73325 19.6667 6.33325 19.6667H3.66658C3.26659 19.6667 2.99992 19.9333 2.99992 20.3333V25H1.66659V18.3333H18.9999V25H17.6666V20.3333C17.6666 19.9333 17.3999 19.6667 16.9999 19.6667ZM10.9999 25H9.66658V21H10.9999V25ZM5.66658 25H4.33325V21H5.66658V25ZM18.9999 10.3333V17H17.6666V12.3333C17.6666 11.9333 17.3999 11.6667 16.9999 11.6667C16.5999 11.6667 16.3333 11.9333 16.3333 12.3333V17H14.9999V12.3333C14.9999 11.9333 14.7333 11.6667 14.3333 11.6667C13.9333 11.6667 13.6666 11.9333 13.6666 12.3333V17H12.3333V12.3333C12.3333 11.9333 12.0666 11.6667 11.6666 11.6667C11.2666 11.6667 10.9999 11.9333 10.9999 12.3333V17H9.66658V12.3333C9.66658 11.9333 9.39992 11.6667 8.99992 11.6667C8.59992 11.6667 8.33325 11.9333 8.33325 12.3333V17H6.99992V12.3333C6.99992 11.9333 6.73325 11.6667 6.33325 11.6667C5.93325 11.6667 5.66658 11.9333 5.66658 12.3333V17H4.33325V12.3333C4.33325 11.9333 4.06659 11.6667 3.66658 11.6667C3.26659 11.6667 2.99992 11.9333 2.99992 12.3333V17H1.66659V10.3333H18.9999ZM1.66659 2.33333H18.9999V9H17.6666V4.33333C17.6666 3.93333 17.3999 3.66667 16.9999 3.66667C16.5999 3.66667 16.3333 3.93333 16.3333 4.33333V9H14.9999V4.33333C14.9999 3.93333 14.7333 3.66667 14.3333 3.66667C13.9333 3.66667 13.6666 3.93333 13.6666 4.33333V9H12.3333V4.33333C12.3333 3.93333 12.0666 3.66667 11.6666 3.66667C11.2666 3.66667 10.9999 3.93333 10.9999 4.33333V9H9.66658V4.33333C9.66658 3.93333 9.39992 3.66667 8.99992 3.66667C8.59992 3.66667 8.33325 3.93333 8.33325 4.33333V9H6.99992V4.33333C6.99992 3.93333 6.73325 3.66667 6.33325 3.66667C5.93325 3.66667 5.66658 3.93333 5.66658 4.33333V9H4.33325V4.33333C4.33325 3.93333 4.06659 3.66667 3.66658 3.66667C3.26659 3.66667 2.99992 3.93333 2.99992 4.33333V9H1.66659V2.33333ZM1.66659 26.3333H3.66658H6.33325H8.99992H11.6666H14.3333H16.9999H18.9999V39.6667H1.66659V26.3333ZM28.3333 39.6667H20.3333V25.6667V17.6667V9.66667V2.33333H28.3333V39.6667Z" fill="white" stroke="white" stroke-width="0.2"/>
<path d="M22.3332 14.3333H26.3332C26.7332 14.3333 26.9998 14.0667 26.9998 13.6667V9.66667C26.9998 9.26667 26.7332 9 26.3332 9H22.3332C21.9332 9 21.6665 9.26667 21.6665 9.66667V13.6667C21.6665 14.0667 21.9332 14.3333 22.3332 14.3333ZM22.9998 10.3333H25.6665V13H22.9998V10.3333Z" fill="white" stroke="white" stroke-width="0.2"/>
<path d="M22.3332 25H26.3332C26.7332 25 26.9998 24.7333 26.9998 24.3333C26.9998 23.9333 26.7332 23.6666 26.3332 23.6666H22.3332C21.9332 23.6666 21.6665 23.9333 21.6665 24.3333C21.6665 24.7333 21.9332 25 22.3332 25Z" fill="white" stroke="white" stroke-width="0.2"/>
<path d="M26.3332 17C26.7014 17 26.9998 16.7015 26.9998 16.3333C26.9998 15.9651 26.7014 15.6666 26.3332 15.6666C25.965 15.6666 25.6665 15.9651 25.6665 16.3333C25.6665 16.7015 25.965 17 26.3332 17Z" fill="white" stroke="white" stroke-width="0.2"/>
<path d="M22.3332 17C22.7014 17 22.9998 16.7015 22.9998 16.3333C22.9998 15.9651 22.7014 15.6666 22.3332 15.6666C21.965 15.6666 21.6665 15.9651 21.6665 16.3333C21.6665 16.7015 21.965 17 22.3332 17Z" fill="white" stroke="white" stroke-width="0.2"/>
<path d="M26.3332 19.6667C26.7014 19.6667 26.9998 19.3682 26.9998 19C26.9998 18.6319 26.7014 18.3334 26.3332 18.3334C25.965 18.3334 25.6665 18.6319 25.6665 19C25.6665 19.3682 25.965 19.6667 26.3332 19.6667Z" fill="white" stroke="white" stroke-width="0.2"/>
<path d="M22.3332 19.6667C22.7014 19.6667 22.9998 19.3682 22.9998 19C22.9998 18.6319 22.7014 18.3334 22.3332 18.3334C21.965 18.3334 21.6665 18.6319 21.6665 19C21.6665 19.3682 21.965 19.6667 22.3332 19.6667Z" fill="white" stroke="white" stroke-width="0.2"/>
<path d="M26.3332 22.3333C26.7014 22.3333 26.9998 22.0349 26.9998 21.6667C26.9998 21.2985 26.7014 21 26.3332 21C25.965 21 25.6665 21.2985 25.6665 21.6667C25.6665 22.0349 25.965 22.3333 26.3332 22.3333Z" fill="white" stroke="white" stroke-width="0.2"/>
<path d="M22.3332 22.3333C22.7014 22.3333 22.9998 22.0349 22.9998 21.6667C22.9998 21.2985 22.7014 21 22.3332 21C21.965 21 21.6665 21.2985 21.6665 21.6667C21.6665 22.0349 21.965 22.3333 22.3332 22.3333Z" fill="white" stroke="white" stroke-width="0.2"/>
</svg>
