<svg width="33" height="42" viewBox="0 0 33 42" fill="none" xmlns="http://www.w3.org/2000/svg">
<path d="M29.6512 1H3.34901C2.13561 1 1.14844 1.9872 1.14844 3.20057V38.7995C1.14844 40.0129 2.13561 41 3.34901 41H29.6512C30.8646 41 31.8517 40.0129 31.8517 38.7995V3.20057C31.8517 1.98717 30.8646 1 29.6512 1ZM3.34901 2.05741H29.6512C30.2816 2.05741 30.7943 2.57023 30.7943 3.20057V8.8036H2.20585V3.20057C2.20585 2.57023 2.71866 2.05741 3.34901 2.05741ZM29.6512 39.9426H3.34901C2.71866 39.9426 2.20585 39.4298 2.20585 38.7995V9.86101H30.7943V38.7995C30.7943 39.4298 30.2816 39.9426 29.6512 39.9426Z" fill="white" stroke="white" stroke-width="0.4"/>
<path d="M26.506 5.95939H27.969C28.261 5.95939 28.4977 5.72269 28.4977 5.43068C28.4977 5.13871 28.261 4.90198 27.969 4.90198H26.506C26.214 4.90198 25.9773 5.13871 25.9773 5.43068C25.9773 5.72269 26.214 5.95939 26.506 5.95939Z" fill="white" stroke="white" stroke-width="0.4"/>
<path d="M21.5819 5.95939H23.0449C23.3369 5.95939 23.5736 5.72269 23.5736 5.43068C23.5736 5.13871 23.3369 4.90198 23.0449 4.90198H21.5819C21.29 4.90198 21.0532 5.13871 21.0532 5.43068C21.0532 5.72269 21.29 5.95939 21.5819 5.95939Z" fill="white" stroke="white" stroke-width="0.4"/>
<path d="M6.21901 7.141C7.16217 7.141 7.92947 6.37369 7.92947 5.43053C7.92947 4.48738 7.16217 3.72009 6.21901 3.72009C5.27585 3.72009 4.50854 4.48738 4.50854 5.43053C4.50854 6.37369 5.27585 7.141 6.21901 7.141ZM6.21901 4.7775C6.57911 4.7775 6.87207 5.07046 6.87207 5.43053C6.87207 5.79063 6.57911 6.08359 6.21901 6.08359C5.85891 6.08359 5.56595 5.79063 5.56595 5.43053C5.56595 5.07046 5.85891 4.7775 6.21901 4.7775Z" fill="white" stroke="white" stroke-width="0.4"/>
<path d="M11.2766 7.141C12.2197 7.141 12.987 6.37369 12.987 5.43053C12.987 4.48738 12.2198 3.72009 11.2766 3.72009C10.3335 3.72009 9.56616 4.48738 9.56616 5.43053C9.56616 6.37369 10.3335 7.141 11.2766 7.141ZM11.2766 4.7775C11.6367 4.7775 11.9296 5.07046 11.9296 5.43053C11.9296 5.79063 11.6367 6.08359 11.2766 6.08359C10.9165 6.08359 10.6236 5.79063 10.6236 5.43053C10.6236 5.07046 10.9165 4.7775 11.2766 4.7775Z" fill="white" stroke="white" stroke-width="0.4"/>
<path d="M16.5001 16.7441C11.8345 16.7441 8.03882 20.5398 8.03882 25.2054C8.03882 29.8709 11.8345 33.6665 16.5001 33.6665C21.1656 33.6665 24.9612 29.8709 24.9612 25.2054C24.9612 20.5398 21.1656 16.7441 16.5001 16.7441ZM16.5001 17.8015C20.48 17.8015 23.7359 20.9583 23.897 24.8993C20.3251 26.8472 17.9541 25.8549 15.6596 24.894C13.7037 24.0748 11.6875 23.2308 9.1492 24.3215C9.58747 20.6542 12.7167 17.8015 16.5001 17.8015ZM16.5001 32.6091C12.521 32.6091 9.26563 29.4539 9.10315 25.5141C11.4576 24.2809 13.2211 25.019 15.2512 25.8693C16.6474 26.4541 18.1486 27.0829 19.9455 27.0829C21.106 27.0828 22.39 26.8202 23.848 26.1141C23.3986 29.7694 20.2749 32.6091 16.5001 32.6091Z" fill="white" stroke="white" stroke-width="0.4"/>
<path d="M24.4514 17.2545C23.4169 16.2201 22.2135 15.4076 20.8743 14.8396C19.4868 14.2509 18.0152 13.9525 16.5003 13.9525C14.9853 13.9525 13.5137 14.2509 12.1261 14.8395C10.787 15.4076 9.58351 16.2201 8.5491 17.2545C7.51469 18.2889 6.70214 19.4924 6.1341 20.8315C5.5455 22.219 5.24707 23.6907 5.24707 25.2056C5.24707 26.7205 5.54552 28.1922 6.1341 29.5797C6.70214 30.9188 7.51469 32.1223 8.5491 33.1567C9.58353 34.1911 10.787 35.0037 12.1261 35.5717C13.5137 36.1603 14.9853 36.4588 16.5003 36.4588C18.0152 36.4588 19.4868 36.1603 20.8743 35.5717C22.2134 35.0037 23.4169 34.1911 24.4514 33.1567C25.4858 32.1223 26.2983 30.9188 26.8664 29.5797C27.455 28.1922 27.7534 26.7205 27.7534 25.2056C27.7534 23.6907 27.455 22.219 26.8664 20.8315C26.2983 19.4924 25.4858 18.289 24.4514 17.2545ZM16.5003 35.4014C10.8783 35.4014 6.30451 30.8276 6.30451 25.2056C6.30451 19.5837 10.8783 15.0099 16.5003 15.0099C22.1222 15.0099 26.696 19.5837 26.696 25.2056C26.696 30.8276 22.1222 35.4014 16.5003 35.4014Z" fill="white" stroke="white" stroke-width="0.4"/>
<path d="M18.1143 20.6055C19.191 20.9833 20.1054 21.7313 20.6891 22.7116C20.788 22.8778 20.9636 22.9699 21.1438 22.9699C21.2358 22.9699 21.3291 22.9459 21.4138 22.8954C21.6647 22.7461 21.747 22.4216 21.5976 22.1707C20.8873 20.9777 19.7746 20.0674 18.4644 19.6077C18.1889 19.5111 17.8872 19.656 17.7905 19.9315C17.6938 20.2071 17.8388 20.5088 18.1143 20.6055Z" fill="white" stroke="white" stroke-width="0.4"/>
</svg>
