<svg width="48" height="42" viewBox="0 0 48 42" fill="none" xmlns="http://www.w3.org/2000/svg">
<path d="M36.7538 24.1765H34.6162C34.4147 24.1818 34.2237 24.2941 34.123 24.4706L34.0805 24.5455L32.9136 21.7647C32.659 21.1551 32.0862 20.7914 31.3807 20.7914H16.6776C15.9722 20.7914 15.3993 21.1551 15.1447 21.7647L13.9513 24.6096L13.8664 24.4599C13.7657 24.2834 13.5747 24.1711 13.3732 24.1711H11.2409V24.1765C10.79 24.1765 10.3657 24.3583 10.0475 24.6898C9.70269 25.0481 9.51704 25.5455 9.53826 26.0642C9.57539 27.0856 10.3763 27.9144 11.3311 27.9198H12.5722L12.0259 29.2246C11.9941 29.2941 11.9782 29.3743 11.9782 29.4492V36.6364C11.9782 37.5027 12.6041 38.2193 13.4209 38.3636V39.4225C13.4209 40.1551 14.0096 40.7487 14.7363 40.7487H16.5609C17.2876 40.7487 17.8764 40.1551 17.8764 39.4225V38.3904H30.1873V39.4225C30.1873 40.1551 30.776 40.7487 31.5027 40.7487H33.3273C34.054 40.7487 34.6428 40.1551 34.6428 39.4225V38.3636C35.4596 38.2193 36.0855 37.4973 36.0855 36.6364V29.4492C36.0855 29.3743 36.0696 29.2941 36.0378 29.2246L35.4914 27.9251H36.6636C37.6184 27.9198 38.4246 27.0856 38.4564 26.0695C38.4723 25.5562 38.2867 25.0535 37.9472 24.6952C37.629 24.3636 37.2047 24.1818 36.7538 24.1818V24.1765ZM34.9345 34.8717H13.1186V29.5615L13.9513 27.5722C13.9513 27.5722 13.9513 27.5722 13.9513 27.5668L14.0733 27.2781H33.9797L34.1017 27.5668L34.9345 29.5562V34.8663V34.8717ZM16.195 22.2139C16.2692 22.0321 16.4283 21.9465 16.6723 21.9465H31.3754C31.6247 21.9465 31.7785 22.0321 31.8528 22.2139L33.4918 26.123H14.556L16.195 22.2139ZM11.3204 26.7594C10.981 26.7594 10.684 26.4225 10.668 26.0214C10.6627 25.8182 10.7317 25.6257 10.859 25.492C10.9332 25.4171 11.0552 25.3262 11.2303 25.3262H13.0337L13.3891 25.9358L13.1663 26.4652L13.0443 26.754H11.3204V26.7594ZM16.7254 39.4118C16.7254 39.5027 16.6458 39.5829 16.5556 39.5829H14.731C14.6408 39.5829 14.5613 39.5027 14.5613 39.4118V38.3797H16.7307V39.4118H16.7254ZM33.322 39.5829H31.4974C31.4072 39.5829 31.3277 39.5027 31.3277 39.4118V38.3797H33.4971V39.4118C33.4971 39.5027 33.4175 39.5829 33.3273 39.5829H33.322ZM34.9345 36.6203C34.9345 36.9519 34.6693 37.2246 34.3351 37.2246H13.7126C13.3838 37.2246 13.1132 36.9572 13.1132 36.6203V36.016H34.9292V36.6203H34.9345ZM36.6636 26.754H35.0087L34.8868 26.4706L34.6375 25.877L34.9504 25.3316H36.7538C36.9341 25.3262 37.0508 25.4171 37.1251 25.492C37.2524 25.6257 37.3214 25.8182 37.316 26.0214C37.3001 26.4225 37.0031 26.7594 36.6636 26.7594V26.754ZM18.6349 30.1283C18.5765 29.9305 18.4174 29.7807 18.2211 29.7326L16.1578 29.2299C15.7282 29.123 15.2826 29.2032 14.906 29.4545C14.4764 29.738 14.1741 30.2139 14.0786 30.7594C13.8983 31.7968 14.4923 32.8235 15.4099 33.0481L18.8311 33.8824C18.8735 33.893 18.9213 33.8984 18.9637 33.8984C19.1175 33.8984 19.2714 33.8342 19.3774 33.7166C19.5207 33.5668 19.5684 33.3529 19.51 33.1551L18.6243 30.1283H18.6349ZM15.6858 31.9198C15.3569 31.8396 15.1341 31.3904 15.2084 30.9572C15.2508 30.7219 15.3675 30.5294 15.5319 30.4171C15.5903 30.3797 15.6805 30.3369 15.7865 30.3369C15.8184 30.3369 15.8502 30.3369 15.8873 30.3476L17.6324 30.7754L18.1416 32.5187L15.6858 31.9198ZM28.1717 30.6898C28.1717 31.0107 27.9171 31.2674 27.5989 31.2674H20.4542C20.1359 31.2674 19.8813 31.0107 19.8813 30.6898C19.8813 30.369 20.1359 30.1123 20.4542 30.1123H27.5989C27.9171 30.1123 28.1717 30.369 28.1717 30.6898ZM28.1717 32.385C28.1717 32.7059 27.9171 32.9626 27.5989 32.9626H20.4542C20.1359 32.9626 19.8813 32.7059 19.8813 32.385C19.8813 32.0642 20.1359 31.8075 20.4542 31.8075H27.5989C27.9171 31.8075 28.1717 32.0642 28.1717 32.385ZM33.9744 30.754C33.879 30.2086 33.5766 29.7326 33.147 29.4492C32.7704 29.1979 32.3249 29.1176 31.8952 29.2246L29.8319 29.7273C29.6357 29.7754 29.4765 29.9251 29.4182 30.123L28.5324 33.1497C28.474 33.3476 28.5271 33.5615 28.665 33.7112C28.7764 33.8289 28.9249 33.893 29.0787 33.893C29.1211 33.893 29.1689 33.8877 29.2113 33.877L32.6325 33.0428C33.5501 32.8182 34.1495 31.7914 33.9638 30.754H33.9744ZM32.3726 31.9198L29.9168 32.5187L30.426 30.7754L32.171 30.3476C32.3195 30.3102 32.4468 30.3636 32.5264 30.4171C32.6908 30.5241 32.8075 30.7219 32.85 30.9572C32.9242 31.3904 32.7014 31.8396 32.3726 31.9198ZM46.2588 24.2781C46.9378 24.2781 47.4947 23.7219 47.4947 23.0321V18.1818C47.4947 17.4973 46.9431 16.9358 46.2588 16.9358H44.4289V7.72727C44.4289 5.26738 42.7846 3.26738 40.769 3.26738H38.3716C38.1064 1.97326 36.966 1 35.6081 1H12.3866C11.0234 1 9.88833 1.97326 9.62312 3.26738H7.22565C5.20477 3.26738 3.56579 5.26738 3.56579 7.72727V16.9412H1.73586C1.05693 16.9412 0.5 17.4973 0.5 18.1872V23.0374C0.5 23.7219 1.05163 24.2834 1.73586 24.2834H3.56579V25.2995H1.73586C1.05693 25.2995 0.5 25.8556 0.5 26.5455V31.3957C0.5 32.0802 1.05163 32.6417 1.73586 32.6417H3.56579V33.6578H1.73586C1.05693 33.6578 0.5 34.2139 0.5 34.9037V39.754C0.5 40.4385 1.05163 41 1.73586 41H6.54672C7.22565 41 7.78259 40.4438 7.78259 39.754V34.9037C7.78259 34.2193 7.23096 33.6578 6.54672 33.6578H4.71679V32.6417H6.54672C7.22565 32.6417 7.78259 32.0856 7.78259 31.3957V26.5455C7.78259 25.861 7.23096 25.2995 6.54672 25.2995H4.71679V24.2834H6.54672C7.22565 24.2834 7.78259 23.7273 7.78259 23.0374V18.1872C7.78259 17.5027 7.23096 16.9412 6.54672 16.9412H4.71679V7.72727C4.71679 5.90374 5.84657 4.42246 7.23096 4.42246H9.62843C9.89363 5.71658 11.034 6.68984 12.3919 6.68984H35.6081C36.9713 6.68984 38.1064 5.71658 38.3716 4.42246H40.769C42.1534 4.42246 43.2832 5.90374 43.2832 7.72727V16.9412H41.4533C40.7743 16.9412 40.2174 17.4973 40.2174 18.1872V23.0374C40.2174 23.7219 40.769 24.2834 41.4533 24.2834H43.2832V25.2995H41.4533C40.7743 25.2995 40.2174 25.8556 40.2174 26.5455V31.3957C40.2174 32.0802 40.769 32.6417 41.4533 32.6417H43.2832V33.6578H41.4533C40.7743 33.6578 40.2174 34.2139 40.2174 34.9037V39.754C40.2174 40.4385 40.769 41 41.4533 41H46.2641C46.9431 41 47.5 40.4438 47.5 39.754V34.9037C47.5 34.2193 46.9484 33.6578 46.2641 33.6578H44.4342V32.6417H46.2641C46.9431 32.6417 47.5 32.0856 47.5 31.3957V26.5455C47.5 25.861 46.9484 25.2995 46.2641 25.2995H44.4342V24.2834H46.2641L46.2588 24.2781ZM6.62628 34.893V39.7433C6.62628 39.7914 6.58385 39.8289 6.54142 39.8289H1.73056C1.68282 39.8289 1.64569 39.7861 1.64569 39.7433V34.893C1.64569 34.8449 1.68813 34.8075 1.73056 34.8075H6.54142C6.58915 34.8075 6.62628 34.8503 6.62628 34.893ZM6.62628 26.5401V31.3904C6.62628 31.4385 6.58385 31.4759 6.54142 31.4759H1.73056C1.68282 31.4759 1.64569 31.4332 1.64569 31.3904V26.5401C1.64569 26.492 1.68813 26.4545 1.73056 26.4545H6.54142C6.58915 26.4545 6.62628 26.4973 6.62628 26.5401ZM6.62628 18.1872V23.0374C6.62628 23.0856 6.58385 23.123 6.54142 23.123H1.73056C1.68282 23.123 1.64569 23.0802 1.64569 23.0374V18.1872C1.64569 18.139 1.68813 18.1016 1.73056 18.1016H6.54142C6.58915 18.1016 6.62628 18.1444 6.62628 18.1872ZM35.6028 5.54011H12.3866C11.4637 5.54011 10.7105 4.78075 10.7105 3.85027C10.7105 2.91979 11.4637 2.16043 12.3866 2.16043H35.6028C36.5257 2.16043 37.2789 2.91979 37.2789 3.85027C37.2789 4.78075 36.5257 5.54011 35.6028 5.54011ZM46.349 34.893V39.7433C46.349 39.7914 46.3066 39.8289 46.2641 39.8289H41.4533C41.4055 39.8289 41.3684 39.7861 41.3684 39.7433V34.893C41.3684 34.8449 41.4108 34.8075 41.4533 34.8075H46.2641C46.3119 34.8075 46.349 34.8503 46.349 34.893ZM46.349 26.5401V31.3904C46.349 31.4385 46.3066 31.4759 46.2641 31.4759H41.4533C41.4055 31.4759 41.3684 31.4332 41.3684 31.3904V26.5401C41.3684 26.492 41.4108 26.4545 41.4533 26.4545H46.2641C46.3119 26.4545 46.349 26.4973 46.349 26.5401ZM41.3631 23.0374V18.1872C41.3631 18.139 41.4055 18.1016 41.448 18.1016H46.2588C46.3066 18.1016 46.3437 18.1444 46.3437 18.1872V23.0374C46.3437 23.0856 46.3013 23.123 46.2588 23.123H41.448C41.4002 23.123 41.3631 23.0802 41.3631 23.0374ZM23.9973 18.0535C24.7134 18.0535 25.3764 17.7005 25.8167 17.0802C26.3259 16.3636 26.4585 15.4278 26.1667 14.5722C25.9387 13.9091 25.6841 13.5401 24.724 12.1711L24.4641 11.8021C24.358 11.6471 24.183 11.5561 23.9973 11.5561C23.8117 11.5561 23.6367 11.6471 23.5306 11.8021L23.276 12.1711C22.3159 13.5401 22.056 13.9091 21.828 14.5722C21.5415 15.4278 21.6741 16.3636 22.1833 17.0749C22.6236 17.6898 23.2866 18.0481 24.0027 18.0481L23.9973 18.0535ZM22.91 14.9519C23.0691 14.4866 23.2442 14.2139 23.9973 13.1444C24.7505 14.2193 24.9256 14.4866 25.0847 14.9519C25.2491 15.4438 25.1749 16.0053 24.8831 16.4118C24.7558 16.5936 24.4641 16.8984 23.9973 16.8984C23.5306 16.8984 23.2389 16.5936 23.1116 16.4118C22.8251 16.0053 22.7456 15.4438 22.91 14.9572V14.9519ZM32.4787 15.385C33.1947 15.385 33.8577 15.0321 34.298 14.4118C34.8072 13.6952 34.9398 12.7594 34.6481 11.9037C34.42 11.2406 34.1654 10.8717 33.2053 9.50267L32.9507 9.13369C32.8447 8.97861 32.6696 8.8877 32.484 8.8877C32.2983 8.8877 32.1233 8.97861 32.0172 9.13369L31.7626 9.49733C30.8026 10.8663 30.5427 11.2353 30.3146 11.9037C30.0282 12.754 30.1608 13.6952 30.67 14.4064C31.1102 15.0214 31.7732 15.3797 32.4893 15.3797L32.4787 15.385ZM31.3913 12.2834C31.5504 11.8182 31.7255 11.5455 32.4787 10.4759C33.2319 11.5455 33.4069 11.8182 33.566 12.2834C33.7304 12.7754 33.6562 13.3369 33.3645 13.7433C33.2372 13.9251 32.9454 14.2299 32.4787 14.2299C32.0119 14.2299 31.7202 13.9251 31.5929 13.7433C31.3065 13.3369 31.2269 12.7754 31.3913 12.2888V12.2834ZM15.516 15.385C16.2321 15.385 16.8951 15.0321 17.3353 14.4118C17.8445 13.6952 17.9771 12.7594 17.6854 11.9037C17.4573 11.2406 17.2027 10.8717 16.2427 9.50267L15.9881 9.13369C15.882 8.97861 15.707 8.8877 15.5213 8.8877C15.3357 8.8877 15.1606 8.97861 15.0546 9.13369L14.7947 9.50267C13.8346 10.8717 13.5747 11.2406 13.3466 11.9037C13.0602 12.7594 13.1928 13.6952 13.702 14.4064C14.1423 15.0214 14.8053 15.3797 15.5213 15.3797L15.516 15.385ZM14.4287 12.2834C14.5878 11.8182 14.7628 11.5455 15.516 10.4759C16.2692 11.5455 16.4443 11.8182 16.6034 12.2834C16.7678 12.7754 16.6935 13.3369 16.4018 13.7433C16.2745 13.9251 15.9828 14.2299 15.516 14.2299C15.0493 14.2299 14.7575 13.9251 14.6302 13.7433C14.3438 13.3369 14.2642 12.7754 14.4287 12.2888V12.2834Z" fill="white" stroke="white" stroke-width="0.4"/>
</svg>
