<svg width="32" height="40" viewBox="0 0 32 40" fill="none" xmlns="http://www.w3.org/2000/svg">
<path d="M16.6258 33.3254C17.4912 33.4316 17.4628 34.773 16.5394 34.7971H15.4729C15.0966 34.7969 14.7886 34.5057 14.7517 34.1328L14.7479 34.0574C14.7482 33.6491 15.0721 33.3188 15.4729 33.3187H16.5394L16.6258 33.3254Z" fill="white"/>
<path d="M16.1324 31.089C17.3474 31.2446 17.2951 33.1018 16.0109 33.1456H15.9986C14.6581 33.1033 14.6695 31.1214 15.9986 31.0793H16.01L16.1324 31.089Z" fill="white"/>
<path fill-rule="evenodd" clip-rule="evenodd" d="M13.1661 0.0222469C13.4202 -0.0408225 13.7244 0.0253481 13.91 0.283312C14.0267 0.43718 14.2439 0.611284 14.4765 0.75613C14.7121 0.902722 14.9283 0.996547 15.0326 1.01526L15.2708 1.0462C15.5166 1.0679 15.7871 1.06537 16.0821 1.06264L16.5717 1.06167C17.0798 1.06753 17.6436 1.1078 18.2532 1.28986C19.0697 1.53384 19.9579 2.02729 20.9168 3.00612L21.0809 3.185C21.8695 4.09965 22.1826 5.32772 22.2803 6.45605C22.3789 7.5951 22.258 8.66043 22.1636 9.26298C22.8798 9.9935 22.9367 10.9514 22.6466 11.835C22.3581 12.7134 21.7207 13.5428 21.0041 14.0811C20.9387 14.6652 20.7435 15.393 20.4603 16.0758C20.1807 16.75 19.8058 17.4008 19.3738 17.8336C19.5299 18.8305 19.7677 19.8498 19.9574 20.395C21.0954 20.6082 26.1854 21.6187 26.2363 21.6288H26.2382L26.4081 21.6723C27.2928 21.9331 28.6347 22.882 29.0166 24.5798L29.3307 25.916C29.6613 27.2595 30.0316 28.6126 30.3688 29.8436L30.7996 31.4322C30.935 31.9391 31.0605 32.419 31.1687 32.8594L31.2181 33.0972C31.4256 34.2871 31.0204 35.5204 30.1325 36.3664L28.0782 38.5216H31.2855L31.369 38.5284C31.5579 38.5518 31.7122 38.6375 31.8216 38.7643C31.9437 38.906 32.0009 39.0876 32 39.2632C31.999 39.4388 31.9398 39.6198 31.8178 39.7602C31.7084 39.8859 31.5545 39.9716 31.3671 39.9942L31.2845 40H0.725914C0.349805 40 0.0407622 39.709 0.00379563 39.3357L0 39.2603C0.000397032 38.8518 0.32535 38.5216 0.725914 38.5216H3.87344L1.81241 36.3596C0.872188 35.4573 0.476366 34.1181 0.782848 32.8604L0.956498 32.1719C1.14109 31.4567 1.35732 30.6652 1.58278 29.8436L1.92818 28.576C2.27921 27.278 2.63866 25.903 2.93497 24.5807L3.02417 24.25C3.52793 22.6519 4.89636 21.8006 5.71337 21.6297L5.71432 21.6288L8.61228 21.0554C9.98691 20.784 11.4469 20.4977 11.9923 20.395C12.1817 19.8486 12.4158 18.8301 12.5749 17.8307C12.1426 17.3985 11.7685 16.7475 11.4894 16.0739C11.2063 15.3905 11.0101 14.663 10.9456 14.0801C10.2367 13.5437 9.60773 12.7325 9.31542 11.8688C9.02148 11.0001 9.06285 10.056 9.73579 9.31133C9.55878 8.32536 9.39071 7.16358 9.47294 6.05962C9.55812 4.9166 9.91239 3.81009 10.8232 3.02933C10.9272 2.93501 11.0199 2.85011 11.0937 2.76826C11.1695 2.68413 11.2111 2.61867 11.2275 2.56811C11.2534 2.48383 11.2638 2.42981 11.2569 2.35733C11.2492 2.277 11.2192 2.16194 11.1392 1.9638L11.1003 1.8526C11.0332 1.59245 11.1282 1.33702 11.2891 1.16707C11.4714 0.974754 11.7641 0.865534 12.0568 0.983353C12.2318 1.0482 12.3976 1.12003 12.5531 1.19704C12.5688 0.981664 12.5923 0.779115 12.6224 0.605292C12.6698 0.287808 12.9114 0.0856221 13.1661 0.0222469ZM6.84257 27.7174C6.62266 27.7669 6.44992 27.9923 6.47344 28.225L6.47439 28.2356V28.2472L7.31797 38.5226L24.6887 38.5216L25.5351 28.2289L25.5332 28.1283C25.5214 28.0301 25.4802 27.9381 25.4127 27.8634L25.4117 27.8624C25.322 27.7621 25.1982 27.7078 25.0644 27.7077H6.93936L6.84257 27.7174ZM19.965 21.8985C17.8302 24.6268 14.1056 24.6111 11.9847 21.8985L6.00373 23.0772C5.82152 23.1148 5.47097 23.2754 5.13074 23.5838C4.83651 23.8507 4.55907 24.2199 4.40672 24.6987L4.34979 24.9104C4.04641 26.2595 3.68183 27.6531 3.32782 28.9628L2.97957 30.24C2.83006 30.7845 2.68526 31.3138 2.55161 31.8142L2.19008 33.2171C2.01254 33.9417 2.24168 34.7203 2.78504 35.2602H2.79168L2.84862 35.3202L5.86045 38.482L5.03016 28.3526C4.98518 27.8093 5.16739 27.2667 5.52928 26.8655L5.67257 26.7224C6.02142 26.4083 6.47474 26.2312 6.94315 26.2312L25.0663 26.2274L25.2665 26.238C25.7289 26.2881 26.1636 26.5101 26.4802 26.8607L26.6074 27.0183C26.8446 27.3443 26.9768 27.7402 26.986 28.1457L26.9803 28.3497L26.1528 38.4181C26.2381 38.3287 26.3555 38.2061 26.4935 38.0614L28.6342 35.8143C28.7802 35.6611 28.9029 35.5332 28.9891 35.443C29.0321 35.3979 29.067 35.3613 29.0906 35.3366L29.2396 35.1848C29.7321 34.6511 29.9294 33.9094 29.7606 33.2162C29.114 30.6282 28.2207 27.6886 27.6018 24.9104L27.5449 24.6987C27.3926 24.22 27.115 23.8515 26.8209 23.5848C26.5657 23.3536 26.3047 23.2053 26.113 23.1294L25.9479 23.0772C25.4202 22.9686 21.3147 22.1601 19.965 21.8985ZM18.09 18.874C16.7892 19.6065 15.1671 19.6054 13.8654 18.874C13.7176 19.6397 13.5084 20.5522 13.2667 21.1376C13.7586 21.6788 14.7003 22.4806 15.9777 22.4806L16.2273 22.4709C17.3821 22.3758 18.2355 21.6388 18.6897 21.1376C18.4451 20.5499 18.2357 19.6399 18.09 18.874ZM17.2568 6.09539C16.7036 5.78595 16.086 5.64539 15.5374 5.76374C15.2338 5.83751 15.0075 6.01271 14.9111 6.20079C14.7796 6.45586 14.5152 6.60485 14.2383 6.59528H14.2365C13.9568 6.58287 13.7077 6.40789 13.5988 6.1418L13.5978 6.14084C13.596 6.1362 13.5815 6.11279 13.5419 6.09056C13.509 6.07226 13.4759 6.06481 13.4527 6.06445C13.2636 6.12285 13.1027 6.30118 12.9754 6.61559C12.8452 6.93691 12.7668 7.36135 12.7239 7.82229C12.6383 8.74229 12.6989 9.75339 12.7239 10.2657H12.722C12.7456 10.6065 12.5339 10.8641 12.2817 10.9744C12.0294 11.0845 11.6999 11.0634 11.4742 10.81C11.3082 10.6332 11.1519 10.5048 11.0197 10.4262C10.9026 10.3566 10.8248 10.3397 10.7824 10.3401C10.7778 10.343 10.7725 10.3463 10.7672 10.3498C10.7636 10.3522 10.7592 10.3543 10.7559 10.3566C10.5256 10.7335 10.5737 11.1985 10.809 11.6793C11.0476 12.1666 11.4605 12.6277 11.8651 12.9324L11.9477 12.9923C12.009 13.0392 12.0813 13.1014 12.1498 13.1857L12.2475 13.3298L12.2485 13.3308L12.2902 13.4139C12.3513 13.5514 12.3709 13.679 12.3794 13.7765L12.3861 13.8771V13.879L12.4022 14.0472C12.4484 14.4135 12.5748 14.7906 12.7154 15.1689L12.7229 15.1718L12.7571 15.2655C12.9763 15.8715 13.2386 16.431 13.6567 16.8416L13.8455 17.0079L13.8559 17.0156L13.8645 17.0253C14.4415 17.6164 15.1939 17.9548 15.9834 17.9448H15.9891L16.1371 17.9429C16.875 17.9112 17.5704 17.5762 18.1099 17.0234L18.1184 17.0137L18.1289 17.006C18.6598 16.5876 18.9667 15.9543 19.2154 15.2655L19.2163 15.2636L19.3425 14.9136C19.4628 14.5634 19.5591 14.2153 19.5788 13.88L19.5854 13.7775C19.5956 13.6596 19.622 13.4983 19.7211 13.325L19.7221 13.323L19.8189 13.1838C19.9197 13.0615 20.028 12.9867 20.0997 12.9353C20.5053 12.6307 20.9205 12.1674 21.1597 11.6783C21.395 11.197 21.441 10.7329 21.2109 10.3585C21.2067 10.3556 21.2021 10.3517 21.1976 10.3488C21.1938 10.3463 21.1897 10.3442 21.1862 10.342C21.1437 10.3415 21.0652 10.3578 20.9481 10.4271C20.8162 10.5053 20.6611 10.6348 20.4964 10.812L20.4954 10.811C20.273 11.0627 19.9462 11.087 19.6946 10.9812C19.443 10.8751 19.228 10.6228 19.2448 10.285C19.2685 9.30452 18.9672 8.21978 18.534 7.38235L18.5331 7.37945C18.2792 6.87297 17.8101 6.40496 17.2568 6.09539ZM13.9973 2.17748C14.008 2.33987 14.0251 2.48512 14.0514 2.59809L14.0704 2.72765C14.0866 3.02775 13.921 3.31393 13.6462 3.44123L13.6405 3.44317C13.4746 3.51415 13.3193 3.52899 13.1746 3.48861C13.0346 3.44941 12.925 3.36409 12.8378 3.27879C12.754 3.19688 12.6709 3.0931 12.6034 3.01579L12.6024 3.01483C12.5143 3.28246 12.399 3.48703 12.2646 3.65782C12.0887 3.88124 11.8758 4.05215 11.7057 4.21282C11.53 4.3788 11.3672 4.56034 11.2341 4.83841C11.0999 5.11907 10.9899 5.51085 10.9409 6.10216L10.9105 6.46475C10.8745 7.2323 10.9878 8.08904 11.1383 8.90619C11.1666 8.91253 11.1956 8.91951 11.2246 8.92746C11.2281 7.71778 11.2798 6.39629 12.0635 5.29286L12.0701 5.28416L12.1783 5.15943C12.7118 4.59748 13.5508 4.40764 14.2298 4.7949C15.1405 4.10911 16.2903 4.11793 17.3119 4.50676C18.3723 4.91061 19.3338 5.73488 19.8103 6.69004L19.9508 6.97624C20.2346 7.58613 20.4568 8.28022 20.5808 8.97581C20.6374 8.95516 20.6933 8.93794 20.7479 8.9236C20.8245 8.39245 20.9133 7.5297 20.8446 6.63686C20.7741 5.72064 20.5431 4.80585 20.0049 4.17511L19.8929 4.05328C19.131 3.27611 18.4667 2.90045 17.8603 2.71702C17.2499 2.53242 16.6844 2.53658 16.0982 2.54201L16.0992 2.54297C15.343 2.55561 14.7085 2.55494 13.9973 2.17748Z" fill="white"/>
</svg>
