<svg width="32" height="40" viewBox="0 0 32 40" fill="none" xmlns="http://www.w3.org/2000/svg">
<path d="M16.3639 32.8749C17.2241 32.9783 17.1956 34.2866 16.2778 34.3098H15.2278C14.879 34.3094 14.5888 34.062 14.5219 33.7335L14.5074 33.5885C14.5075 33.1901 14.8298 32.8685 15.2278 32.8681H16.2778L16.3639 32.8749Z" fill="white"/>
<path fill-rule="evenodd" clip-rule="evenodd" d="M15.7547 0.000164394C17.0445 -0.00866207 18.0862 0.337959 18.7028 1.03475C19.3005 1.71065 19.4587 2.6708 19.1225 3.83007C21.0565 4.98297 21.9561 7.01274 22.202 9.09293L22.2987 9.76106C22.3764 10.402 22.4007 11.0697 22.2562 11.7277C22.811 12.2455 22.8858 13.0114 22.7242 13.7109C22.562 14.4121 22.152 15.0963 21.6673 15.5083C21.6603 16.1274 21.5859 17.4092 21.3637 18.497C21.2476 19.0655 21.0876 19.6046 20.8629 19.9667C20.7503 20.148 20.6089 20.304 20.4307 20.3873C20.2422 20.4752 20.037 20.4701 19.8312 20.3719L19.8235 20.368C19.4711 20.1809 19.3377 19.7443 19.5247 19.3933L19.604 19.2367C19.8848 18.6491 20.034 17.966 20.1193 17.1782C19.7839 17.7102 19.3823 18.2453 18.8923 18.7233C18.9921 19.4621 19.1444 20.4634 19.3303 21.0506C20.569 21.2649 25.5444 22.1745 25.8473 22.236L26.0155 22.2776C26.8887 22.5303 28.2109 23.4498 28.5875 25.0932L28.8969 26.3986C29.2196 27.7135 29.5741 29.0435 29.8957 30.2565L30.3453 31.9612C30.4847 32.4982 30.6105 32.9965 30.7137 33.4328L30.7533 33.6262C30.9163 34.5941 30.5872 35.565 29.8609 36.2591L29.8619 36.26L27.6447 38.5641H30.7311L30.7427 38.5564L30.8055 38.5583C31.0321 38.5646 31.2157 38.654 31.3402 38.7962C31.4617 38.9352 31.5164 39.1133 31.5143 39.2845C31.5098 39.6281 31.2678 39.9915 30.8036 40H0.72131C0.372905 39.9999 0.0816536 39.7535 0.0145036 39.4247L0 39.2797C4.79663e-05 38.8812 0.322915 38.5585 0.72131 38.5583H3.85021L1.6331 36.2552C0.858473 35.5147 0.539222 34.4561 0.781258 33.428L0.950466 32.7299C1.13543 31.9913 1.36252 31.1397 1.59732 30.2526L2.26546 27.7087C2.48989 26.8349 2.70916 25.9477 2.90555 25.0874L2.99353 24.7684C3.49007 23.2214 4.83917 22.3959 5.64575 22.2302L8.74274 21.6607C10.1402 21.4061 11.6043 21.142 12.183 21.0419C12.3689 20.4547 12.5203 19.4525 12.62 18.7146C12.1304 18.2377 11.7283 17.7026 11.393 17.1695C11.4784 17.9593 11.6286 18.6441 11.9094 19.2319L11.9886 19.3875L12.0438 19.5229C12.139 19.8443 11.9981 20.1994 11.6918 20.3632L11.6831 20.367C11.4768 20.4653 11.2712 20.4701 11.0826 20.3815C10.9044 20.2977 10.763 20.1409 10.6504 19.959C10.4258 19.5956 10.2656 19.055 10.1496 18.4854C9.92765 17.3953 9.85301 16.1125 9.84598 15.4987C9.36276 15.0861 8.9523 14.4031 8.79012 13.7031C8.62834 13.0046 8.70287 12.2389 9.2581 11.7219C9.066 10.835 9.18087 9.92495 9.31418 9.09002C9.56155 7.01003 10.4552 4.98468 12.3889 3.83007C12.052 2.67095 12.2109 1.71064 12.8086 1.03475C13.4246 0.338238 14.4652 -0.00819384 15.7547 0.000164394ZM6.83021 28.1284C6.73303 28.1284 6.64208 28.1581 6.56528 28.2134L6.49276 28.2773C6.40513 28.3724 6.36297 28.4957 6.37383 28.6244L7.20537 38.5641H24.2964L25.1279 28.6244L25.126 28.5287C25.1145 28.4355 25.0746 28.3485 25.009 28.2773L25.008 28.2763C24.9205 28.1804 24.8008 28.1284 24.6715 28.1284H6.83021ZM19.3487 22.5164C17.6818 25.141 13.8263 25.1483 12.1404 22.5164C11.4369 22.6425 10.0744 22.8883 8.79979 23.1198L5.92712 23.6487C5.74902 23.6848 5.40475 23.8394 5.07044 24.137C4.78167 24.3941 4.50934 24.7493 4.35977 25.2102L4.30369 25.4152C3.90219 27.1593 3.41387 29.0045 2.98193 30.6278C2.66994 31.8061 2.37585 32.9141 2.17457 33.7644C2.0621 34.2319 2.18268 34.7166 2.49848 35.091L2.64641 35.2438L2.65512 35.2525L5.75114 38.4684L4.93798 28.7443C4.89343 28.2172 5.07313 27.6898 5.4311 27.3007L5.57323 27.1624C5.91901 26.858 6.36731 26.6868 6.83021 26.6867L24.6754 26.6848L24.8726 26.6954C25.3298 26.7441 25.7588 26.9598 26.0716 27.2997L26.1973 27.4525C26.4317 27.7685 26.5624 28.1519 26.5715 28.5451L26.5657 28.7423L25.7535 38.4481C26.0394 38.1507 26.631 37.5355 27.2164 36.9281C27.6214 36.5079 28.027 36.0877 28.3322 35.7708C28.4846 35.6126 28.6124 35.4797 28.7025 35.3859C28.7923 35.2926 28.8387 35.2448 28.8418 35.2419L28.8485 35.2332L28.8563 35.2264C29.2679 34.8397 29.4355 34.293 29.3117 33.7654L29.07 32.7946C28.4805 30.4754 27.7229 27.8025 27.1816 25.4152L27.1255 25.2112C26.976 24.7501 26.7046 24.394 26.4158 24.137C26.1651 23.9138 25.9084 23.771 25.7206 23.698L25.5591 23.6487C25.0619 23.5476 20.8039 22.7765 19.3487 22.5164ZM13.9263 19.7105C13.7962 20.5525 13.6425 21.3167 13.4216 21.8348C13.7781 22.323 14.5016 23.0374 15.6919 23.0579H15.746C16.9841 23.0578 17.7217 22.3148 18.0801 21.8154C17.8626 21.2994 17.7107 20.5436 17.5822 19.7124C16.4753 20.3304 15.033 20.3302 13.9263 19.7105ZM18.0279 8.4625C17.4821 8.13963 16.817 8.18312 16.0748 8.61624L16.068 8.62011L16.0603 8.62398C15.8791 8.71053 15.6635 8.71595 15.4792 8.63848L15.4666 8.63365L15.456 8.62688C14.7087 8.19192 14.032 8.13462 13.4835 8.4625L13.4777 8.46541C13.0181 8.72021 12.6323 9.23661 12.3599 9.93123C12.0889 10.6224 11.9389 11.4695 11.9355 12.3514V12.3794L11.9268 12.4065C11.849 12.6684 11.7295 12.8711 11.5709 13.0118C11.4108 13.1537 11.2227 13.2227 11.0285 13.2361C10.7353 13.2563 10.4317 13.15 10.1641 12.9934C10.1558 13.0539 10.1531 13.1207 10.1593 13.1936C10.1735 13.3606 10.2263 13.546 10.3062 13.7283C10.386 13.91 10.4904 14.0831 10.6021 14.2243C10.687 14.3315 10.7717 14.4146 10.8477 14.4708L10.9212 14.5182L10.9299 14.5231L10.9386 14.5289L11.014 14.5685C11.0422 14.5799 11.0742 14.5894 11.1097 14.5985C11.1453 14.6075 11.1827 14.6154 11.2238 14.6236C11.2634 14.6316 11.3085 14.6404 11.3524 14.6507C11.4862 14.6821 11.642 14.7358 11.7614 14.8702L11.7875 14.8586L11.8736 15.0433C13.0475 17.5631 14.4403 18.7288 15.7576 18.7291C16.9927 18.7291 18.2938 17.7044 19.4183 15.4996L19.6407 15.0433C19.7554 14.7749 19.9789 14.6935 20.159 14.6507C20.2032 14.6402 20.2485 14.6308 20.2885 14.6226C20.3302 14.6142 20.3685 14.6058 20.4046 14.5965C20.4764 14.5781 20.5316 14.5569 20.5757 14.5269L20.5844 14.5211L20.5941 14.5163C20.6862 14.4664 20.7988 14.3653 20.9122 14.2214C21.0237 14.0798 21.1275 13.9067 21.2071 13.7244C21.2871 13.5411 21.3401 13.3549 21.3541 13.1878C21.3601 13.1153 21.3565 13.0493 21.3483 12.9895C21.0804 13.1475 20.7773 13.2564 20.4839 13.2371C20.2893 13.2242 20.0999 13.1551 19.9395 13.0128C19.781 12.8719 19.6618 12.6688 19.5837 12.4065L19.575 12.3794V12.3514C19.5724 11.4697 19.4227 10.6224 19.1515 9.93123C18.8788 9.23664 18.4924 8.72016 18.0328 8.46541L18.0279 8.4625ZM15.7122 4.44309C15.0654 4.4361 14.6719 4.4476 14.3334 4.52044C14.0012 4.59199 13.7102 4.72523 13.2756 4.98359L13.2698 4.98649C11.6651 5.87768 10.9705 7.47329 10.7442 9.23506L10.7491 9.24183L10.7355 9.32498C10.6487 9.87351 10.5787 10.4165 10.605 10.9204C10.7974 9.67722 11.2826 8.55235 12.0196 7.79534C12.4815 7.32095 13.0449 6.98973 13.6943 6.87098C14.3208 6.75655 15.0136 6.84398 15.7557 7.17072C16.4974 6.84393 17.1896 6.75646 17.8162 6.87098C18.4656 6.98976 19.0287 7.32175 19.4908 7.79631C20.2323 8.55786 20.7182 9.69125 20.9083 10.9426C20.9385 10.4315 20.8684 9.8805 20.7778 9.32498L20.7768 9.31725C20.5377 7.34383 19.7584 5.71117 17.9148 4.80664L17.9071 4.80277C17.2342 4.43807 16.834 4.44134 15.7141 4.44309H15.7122ZM15.7518 1.44472C15.3081 1.44474 14.8694 1.50307 14.5161 1.61489C14.1542 1.72954 13.9213 1.88833 13.8277 2.0587L13.8132 2.08287L13.8093 2.08578C13.6261 2.36787 13.6184 2.76818 13.7088 3.19385C14.3184 3.00076 14.8913 3.00143 15.7102 3.00143C16.5451 2.99833 17.1655 2.99427 17.793 3.19191C17.8846 2.7607 17.8767 2.35654 17.6856 2.07417L17.676 2.0587C17.5823 1.88836 17.3494 1.7295 16.9875 1.61489C16.6342 1.5031 16.1956 1.44472 15.7518 1.44472Z" fill="white"/>
</svg>
