<svg width="122" height="329" viewBox="0 0 122 329" fill="none" xmlns="http://www.w3.org/2000/svg">
<path d="M121.467 125.481C121.662 125.676 121.662 125.993 121.467 126.188L118.285 129.37C118.09 129.565 117.773 129.565 117.578 129.37C117.382 129.175 117.382 128.858 117.578 128.663L120.406 125.834L117.578 123.006C117.382 122.811 117.382 122.494 117.578 122.299C117.773 122.103 118.09 122.103 118.285 122.299L121.467 125.481ZM0.646202 4.35355C0.45094 4.15829 0.45094 3.8417 0.646202 3.64644L3.82818 0.464455C4.02345 0.269196 4.34003 0.269196 4.53529 0.464455C4.73055 0.659721 4.73055 0.976303 4.53529 1.17156L1.70686 3.99999L4.53529 6.82842C4.73055 7.02368 4.73055 7.34026 4.53529 7.53553C4.34003 7.73079 4.02345 7.73079 3.82818 7.53553L0.646202 4.35355ZM0.999756 3.99999V3.49999H1.96753V3.99999V4.49999H0.999756V3.99999ZM3.90307 3.99999V3.49999H5.83861V3.99999V4.49999H3.90307V3.99999ZM7.77415 3.99999V3.49999H9.70969V3.99999V4.49999H7.77415V3.99999ZM11.6452 3.99999V3.49999H13.5808V3.99999V4.49999H11.6452V3.99999ZM15.5163 3.99999V3.49999H17.4519V3.99999V4.49999H15.5163V3.99999ZM19.3874 3.99999V3.49999H21.3229V3.99999V4.49999H19.3874V3.99999ZM23.2585 3.99999V3.49999H25.194V3.99999V4.49999H23.2585V3.99999ZM27.1296 3.99999V3.49999H29.0651V3.99999V4.49999H27.1296V3.99999ZM31.0006 3.99999V3.49999H32.9362V3.99999V4.49999H31.0006V3.99999ZM34.8717 3.99999V3.49999H36.8073V3.99999V4.49999H34.8717V3.99999ZM38.7428 3.99999V3.49999H40.6783V3.99999V4.49999H38.7428V3.99999ZM42.6139 3.99999V3.49999H44.5494V3.99999V4.49999H42.6139V3.99999ZM46.485 3.99999V3.49999H48.4205V3.99999V4.49999H46.485V3.99999ZM50.356 3.99999V3.49999H52.2916V3.99999V4.49999H50.356V3.99999ZM54.2271 3.99999V3.49999H56.1627V3.99999V4.49999H54.2271V3.99999ZM58.0982 3.99999V3.49999H59.066V3.99999V4.49999H58.0982V3.99999ZM59.066 3.99999V3.49999C59.3961 3.49999 59.7233 3.5128 60.0471 3.53796L60.0084 4.03645L59.9697 4.53495C59.6716 4.5118 59.3702 4.49999 59.066 4.49999V3.99999ZM61.8685 4.32902L61.9849 3.84274C62.6276 3.99652 63.2511 4.19994 63.851 4.44869L63.6594 4.91056L63.4679 5.37242C62.9163 5.1437 62.3431 4.95668 61.7522 4.81529L61.8685 4.32902ZM65.3367 5.76676L65.5983 5.34069C66.1577 5.68418 66.6879 6.07042 67.1843 6.49485L66.8594 6.8749L66.5345 7.25495C66.0776 6.86429 65.5897 6.50886 65.0751 6.19284L65.3367 5.76676ZM68.1911 8.20653L68.5711 7.88163C68.9956 8.3781 69.3818 8.90828 69.7253 9.46763L69.2992 9.72928L68.8731 9.99092C68.5571 9.47631 68.2017 8.9884 67.811 8.53143L68.1911 8.20653ZM70.1554 11.4065L70.6173 11.215C70.866 11.8149 71.0695 12.4384 71.2232 13.0811L70.737 13.1974L70.2507 13.3138C70.1093 12.7228 69.9223 12.1496 69.6936 11.5981L70.1554 11.4065ZM71.0295 15.0576L71.528 15.0188C71.5532 15.3427 71.566 15.6699 71.566 16H71.066H70.566C70.566 15.6958 70.5542 15.3944 70.531 15.0963L71.0295 15.0576ZM71.066 16H71.566V17.0191H71.066H70.566V16H71.066ZM71.066 19.0573H71.566V21.0955H71.066H70.566V19.0573H71.066ZM71.066 23.1337H71.566V25.172H71.066H70.566V23.1337H71.066ZM71.066 27.2102H71.566V29.2484H71.066H70.566V27.2102H71.066ZM71.066 31.2866H71.566V33.3248H71.066H70.566V31.2866H71.066ZM71.066 35.363H71.566V37.4012H71.066H70.566V35.363H71.066ZM71.066 39.4394H71.566V41.4777H71.066H70.566V39.4394H71.066ZM71.066 43.5159H71.566V45.5541H71.066H70.566V43.5159H71.066ZM71.066 47.5923H71.566V49.6305H71.066H70.566V47.5923H71.066ZM71.066 51.6687H71.566V53.7069H71.066H70.566V51.6687H71.066ZM71.066 55.7451H71.566V57.7834H71.066H70.566V55.7451H71.066ZM71.066 59.8216H71.566V61.8598H71.066H70.566V59.8216H71.066ZM71.066 63.898H71.566V65.9362H71.066H70.566V63.898H71.066ZM71.066 67.9744H71.566V70.0126H71.066H70.566V67.9744H71.066ZM71.066 72.0508H71.566V74.0891H71.066H70.566V72.0508H71.066ZM71.066 76.1273H71.566V78.1655H71.066H70.566V76.1273H71.066ZM71.066 80.2037H71.566V82.2419H71.066H70.566V80.2037H71.066ZM71.066 84.2801H71.566V86.3183H71.066H70.566V84.2801H71.066ZM71.066 88.3566H71.566V90.3948H71.066H70.566V88.3566H71.066ZM71.066 92.433H71.566V94.4712H71.066H70.566V92.433H71.066ZM71.066 96.5094H71.566V98.5476H71.066H70.566V96.5094H71.066ZM71.066 100.586H71.566V102.624H71.066H70.566V100.586H71.066ZM71.066 104.662H71.566V106.7H71.066H70.566V104.662H71.066ZM71.066 108.739H71.566V110.777H71.066H70.566V108.739H71.066ZM71.066 112.815H71.566V113.834H71.066H70.566V112.815H71.066ZM71.066 113.834H71.566C71.566 114.138 71.5778 114.44 71.6009 114.738L71.1024 114.777L70.6039 114.815C70.5788 114.492 70.566 114.164 70.566 113.834H71.066ZM71.395 116.637L71.8813 116.52C72.0227 117.111 72.2097 117.685 72.4384 118.236L71.9765 118.428L71.5147 118.619C71.2659 118.019 71.0625 117.396 70.9087 116.753L71.395 116.637ZM72.8327 120.105L73.2588 119.843C73.5748 120.358 73.9303 120.846 74.3209 121.303L73.9409 121.628L73.5608 121.953C73.1364 121.456 72.7502 120.926 72.4067 120.367L72.8327 120.105ZM75.2725 122.959L75.5974 122.579C76.0544 122.97 76.5423 123.325 77.0569 123.641L76.7952 124.067L76.5336 124.494C75.9743 124.15 75.4441 123.764 74.9476 123.339L75.2725 122.959ZM78.4725 124.924L78.664 124.462C79.2156 124.691 79.7888 124.878 80.3798 125.019L80.2634 125.505L80.1471 125.991C79.5043 125.838 78.8809 125.634 78.281 125.386L78.4725 124.924ZM82.1235 125.798L82.1623 125.299C82.4604 125.322 82.7617 125.334 83.066 125.334V125.834V126.334C82.7359 126.334 82.4086 126.321 82.0848 126.296L82.1235 125.798ZM83.066 125.834V125.334H84.0171V125.834V126.334H83.066V125.834ZM85.9195 125.834V125.334H87.8219V125.834V126.334H85.9195V125.834ZM89.7242 125.834V125.334H91.6266V125.834V126.334H89.7242V125.834ZM93.529 125.834V125.334H95.4313V125.834V126.334H93.529V125.834ZM97.3337 125.834V125.334H99.2361V125.834V126.334H97.3337V125.834ZM101.138 125.834V125.334H103.041V125.834V126.334H101.138V125.834ZM104.943 125.834V125.334H106.846V125.834V126.334H104.943V125.834ZM108.748 125.834V125.334H110.65V125.834V126.334H108.748V125.834ZM112.553 125.834V125.334H114.455V125.834V126.334H112.553V125.834ZM116.357 125.834V125.334H118.26V125.834V126.334H116.357V125.834ZM120.162 125.834V125.334H121.113V125.834V126.334H120.162V125.834ZM121.467 125.481C121.662 125.676 121.662 125.993 121.467 126.188L118.285 129.37C118.09 129.565 117.773 129.565 117.578 129.37C117.382 129.175 117.382 128.858 117.578 128.663L120.406 125.834L117.578 123.006C117.382 122.811 117.382 122.494 117.578 122.299C117.773 122.103 118.09 122.103 118.285 122.299L121.467 125.481ZM0.646202 4.35355C0.45094 4.15829 0.45094 3.8417 0.646202 3.64644L3.82818 0.464455C4.02345 0.269196 4.34003 0.269196 4.53529 0.464455C4.73055 0.659721 4.73055 0.976303 4.53529 1.17156L1.70686 3.99999L4.53529 6.82842C4.73055 7.02368 4.73055 7.34026 4.53529 7.53553C4.34003 7.73079 4.02345 7.73079 3.82818 7.53553L0.646202 4.35355ZM0.999756 3.99999V3.49999H1.96753V3.99999V4.49999H0.999756V3.99999ZM3.90307 3.99999V3.49999H5.83861V3.99999V4.49999H3.90307V3.99999ZM7.77415 3.99999V3.49999H9.70969V3.99999V4.49999H7.77415V3.99999ZM11.6452 3.99999V3.49999H13.5808V3.99999V4.49999H11.6452V3.99999ZM15.5163 3.99999V3.49999H17.4519V3.99999V4.49999H15.5163V3.99999ZM19.3874 3.99999V3.49999H21.3229V3.99999V4.49999H19.3874V3.99999ZM23.2585 3.99999V3.49999H25.194V3.99999V4.49999H23.2585V3.99999ZM27.1296 3.99999V3.49999H29.0651V3.99999V4.49999H27.1296V3.99999ZM31.0006 3.99999V3.49999H32.9362V3.99999V4.49999H31.0006V3.99999ZM34.8717 3.99999V3.49999H36.8073V3.99999V4.49999H34.8717V3.99999ZM38.7428 3.99999V3.49999H40.6783V3.99999V4.49999H38.7428V3.99999ZM42.6139 3.99999V3.49999H44.5494V3.99999V4.49999H42.6139V3.99999ZM46.485 3.99999V3.49999H48.4205V3.99999V4.49999H46.485V3.99999ZM50.356 3.99999V3.49999H52.2916V3.99999V4.49999H50.356V3.99999ZM54.2271 3.99999V3.49999H56.1627V3.99999V4.49999H54.2271V3.99999ZM58.0982 3.99999V3.49999H59.066V3.99999V4.49999H58.0982V3.99999ZM59.066 3.99999V3.49999C59.3961 3.49999 59.7233 3.5128 60.0471 3.53796L60.0084 4.03645L59.9697 4.53495C59.6716 4.5118 59.3702 4.49999 59.066 4.49999V3.99999ZM61.8685 4.32902L61.9849 3.84274C62.6276 3.99652 63.2511 4.19994 63.851 4.44869L63.6594 4.91056L63.4679 5.37242C62.9163 5.1437 62.3431 4.95668 61.7522 4.81529L61.8685 4.32902ZM65.3367 5.76676L65.5983 5.34069C66.1577 5.68418 66.6879 6.07042 67.1843 6.49485L66.8594 6.8749L66.5345 7.25495C66.0776 6.86429 65.5897 6.50886 65.0751 6.19284L65.3367 5.76676ZM68.1911 8.20653L68.5711 7.88163C68.9956 8.3781 69.3818 8.90828 69.7253 9.46763L69.2992 9.72928L68.8731 9.99092C68.5571 9.47631 68.2017 8.9884 67.811 8.53143L68.1911 8.20653ZM70.1554 11.4065L70.6173 11.215C70.866 11.8149 71.0695 12.4384 71.2232 13.0811L70.737 13.1974L70.2507 13.3138C70.1093 12.7228 69.9223 12.1496 69.6936 11.5981L70.1554 11.4065ZM71.0295 15.0576L71.528 15.0188C71.5532 15.3427 71.566 15.6699 71.566 16H71.066H70.566C70.566 15.6958 70.5542 15.3944 70.531 15.0963L71.0295 15.0576ZM71.066 16H71.566V17.0191H71.066H70.566V16H71.066ZM71.066 19.0573H71.566V21.0955H71.066H70.566V19.0573H71.066ZM71.066 23.1337H71.566V25.172H71.066H70.566V23.1337H71.066ZM71.066 27.2102H71.566V29.2484H71.066H70.566V27.2102H71.066ZM71.066 31.2866H71.566V33.3248H71.066H70.566V31.2866H71.066ZM71.066 35.363H71.566V37.4012H71.066H70.566V35.363H71.066ZM71.066 39.4394H71.566V41.4777H71.066H70.566V39.4394H71.066ZM71.066 43.5159H71.566V45.5541H71.066H70.566V43.5159H71.066ZM71.066 47.5923H71.566V49.6305H71.066H70.566V47.5923H71.066ZM71.066 51.6687H71.566V53.7069H71.066H70.566V51.6687H71.066ZM71.066 55.7451H71.566V57.7834H71.066H70.566V55.7451H71.066ZM71.066 59.8216H71.566V61.8598H71.066H70.566V59.8216H71.066ZM71.066 63.898H71.566V65.9362H71.066H70.566V63.898H71.066ZM71.066 67.9744H71.566V70.0126H71.066H70.566V67.9744H71.066ZM71.066 72.0508H71.566V74.0891H71.066H70.566V72.0508H71.066ZM71.066 76.1273H71.566V78.1655H71.066H70.566V76.1273H71.066ZM71.066 80.2037H71.566V82.2419H71.066H70.566V80.2037H71.066ZM71.066 84.2801H71.566V86.3183H71.066H70.566V84.2801H71.066ZM71.066 88.3566H71.566V90.3948H71.066H70.566V88.3566H71.066ZM71.066 92.433H71.566V94.4712H71.066H70.566V92.433H71.066ZM71.066 96.5094H71.566V98.5476H71.066H70.566V96.5094H71.066ZM71.066 100.586H71.566V102.624H71.066H70.566V100.586H71.066ZM71.066 104.662H71.566V106.7H71.066H70.566V104.662H71.066ZM71.066 108.739H71.566V110.777H71.066H70.566V108.739H71.066ZM71.066 112.815H71.566V113.834H71.066H70.566V112.815H71.066ZM71.066 113.834H71.566C71.566 114.138 71.5778 114.44 71.6009 114.738L71.1024 114.777L70.6039 114.815C70.5788 114.492 70.566 114.164 70.566 113.834H71.066ZM71.395 116.637L71.8813 116.52C72.0227 117.111 72.2097 117.685 72.4384 118.236L71.9765 118.428L71.5147 118.619C71.2659 118.019 71.0625 117.396 70.9087 116.753L71.395 116.637ZM72.8327 120.105L73.2588 119.843C73.5748 120.358 73.9303 120.846 74.3209 121.303L73.9409 121.628L73.5608 121.953C73.1364 121.456 72.7502 120.926 72.4067 120.367L72.8327 120.105ZM75.2725 122.959L75.5974 122.579C76.0544 122.97 76.5423 123.325 77.0569 123.641L76.7952 124.067L76.5336 124.494C75.9743 124.15 75.4441 123.764 74.9476 123.339L75.2725 122.959ZM78.4725 124.924L78.664 124.462C79.2156 124.691 79.7888 124.878 80.3798 125.019L80.2634 125.505L80.1471 125.991C79.5043 125.838 78.8809 125.634 78.281 125.386L78.4725 124.924ZM82.1235 125.798L82.1623 125.299C82.4604 125.322 82.7617 125.334 83.066 125.334V125.834V126.334C82.7359 126.334 82.4086 126.321 82.0848 126.296L82.1235 125.798ZM83.066 125.834V125.334H84.0171V125.834V126.334H83.066V125.834ZM85.9195 125.834V125.334H87.8219V125.834V126.334H85.9195V125.834ZM89.7242 125.834V125.334H91.6266V125.834V126.334H89.7242V125.834ZM93.529 125.834V125.334H95.4313V125.834V126.334H93.529V125.834ZM97.3337 125.834V125.334H99.2361V125.834V126.334H97.3337V125.834ZM101.138 125.834V125.334H103.041V125.834V126.334H101.138V125.834ZM104.943 125.834V125.334H106.846V125.834V126.334H104.943V125.834ZM108.748 125.834V125.334H110.65V125.834V126.334H108.748V125.834ZM112.553 125.834V125.334H114.455V125.834V126.334H112.553V125.834ZM116.357 125.834V125.334H118.26V125.834V126.334H116.357V125.834ZM120.162 125.834V125.334H121.113V125.834V126.334H120.162V125.834Z" fill="white" fill-opacity="0.8"/>
<path d="M121.467 135.463C121.662 135.658 121.662 135.975 121.467 136.17L118.285 139.352C118.09 139.547 117.773 139.547 117.578 139.352C117.382 139.157 117.382 138.84 117.578 138.645L120.406 135.816L117.578 132.988C117.382 132.793 117.382 132.476 117.578 132.281C117.773 132.086 118.09 132.086 118.285 132.281L121.467 135.463ZM0.646202 82.2395C0.45094 82.0442 0.45094 81.7276 0.646202 81.5324L3.82818 78.3504C4.02345 78.1551 4.34003 78.1551 4.53529 78.3504C4.73055 78.5456 4.73055 78.8622 4.53529 79.0575L1.70686 81.8859L4.53529 84.7143C4.73055 84.9096 4.73055 85.2262 4.53529 85.4215C4.34003 85.6167 4.02345 85.6167 3.82818 85.4215L0.646202 82.2395ZM0.999756 81.8859V81.3859H2.00094V81.8859V82.3859H0.999756V81.8859ZM4.0033 81.8859V81.3859H6.00567V81.8859V82.3859H4.0033V81.8859ZM8.00803 81.8859V81.3859H10.0104V81.8859V82.3859H8.00803V81.8859ZM12.0128 81.8859V81.3859H14.0151V81.8859V82.3859H12.0128V81.8859ZM16.0175 81.8859V81.3859H18.0199V81.8859V82.3859H16.0175V81.8859ZM20.0222 81.8859V81.3859H22.0246V81.8859V82.3859H20.0222V81.8859ZM24.027 81.8859V81.3859H26.0293V81.8859V82.3859H24.027V81.8859ZM28.0317 81.8859V81.3859H30.0341V81.8859V82.3859H28.0317V81.8859ZM32.0364 81.8859V81.3859H34.0388V81.8859V82.3859H32.0364V81.8859ZM36.0411 81.8859V81.3859H38.0435V81.8859V82.3859H36.0411V81.8859ZM40.0459 81.8859V81.3859H42.0482V81.8859V82.3859H40.0459V81.8859ZM44.0506 81.8859V81.3859H46.053V81.8859V82.3859H44.0506V81.8859ZM48.0553 81.8859V81.3859H49.0565V81.8859V82.3859H48.0553V81.8859ZM49.0565 81.8859V81.3859C49.3866 81.3859 49.7138 81.3987 50.0377 81.4239L49.999 81.9224L49.9602 82.4209C49.6621 82.3977 49.3608 82.3859 49.0565 82.3859V81.8859ZM51.8591 82.2149L51.9754 81.7287C52.6182 81.8824 53.2416 82.0859 53.8415 82.3346L53.65 82.7965L53.4584 83.2583C52.9069 83.0296 52.3337 82.8426 51.7427 82.7012L51.8591 82.2149ZM55.3272 83.6527L55.5889 83.2266C56.1482 83.5701 56.6784 83.9563 57.1749 84.3808L56.85 84.7608L56.5251 85.1409C56.0681 84.7502 55.5802 84.3948 55.0656 84.0788L55.3272 83.6527ZM58.1816 86.0924L58.5617 85.7675C58.9861 86.264 59.3723 86.7942 59.7158 87.3535L59.2897 87.6152L58.8637 87.8768C58.5477 87.3622 58.1922 86.8743 57.8016 86.4173L58.1816 86.0924ZM60.146 89.2925L60.6078 89.1009C60.8566 89.7008 61.06 90.3243 61.2138 90.967L60.7275 91.0834L60.2412 91.1997C60.0998 90.6088 59.9128 90.0355 59.6841 89.484L60.146 89.2925ZM61.0201 92.9435L61.5186 92.9047C61.5437 93.2286 61.5565 93.5558 61.5565 93.8859H61.0565H60.5565C60.5565 93.5817 60.5447 93.2803 60.5216 92.9822L61.0201 92.9435ZM61.0565 93.8859H61.5565V94.9549H61.0565H60.5565V93.8859H61.0565ZM61.0565 97.0927H61.5565V99.2306H61.0565H60.5565V97.0927H61.0565ZM61.0565 101.369H61.5565V103.506H61.0565H60.5565V101.369H61.0565ZM61.0565 105.644H61.5565V107.782H61.0565H60.5565V105.644H61.0565ZM61.0565 109.92H61.5565V112.058H61.0565H60.5565V109.92H61.0565ZM61.0565 114.196H61.5565V116.334H61.0565H60.5565V114.196H61.0565ZM61.0565 118.472H61.5565V120.61H61.0565H60.5565V118.472H61.0565ZM61.0565 122.747H61.5565V123.816H61.0565H60.5565V122.747H61.0565ZM61.0565 123.816H61.5565C61.5565 124.121 61.5683 124.422 61.5915 124.72L61.093 124.759L60.5945 124.798C60.5693 124.474 60.5565 124.147 60.5565 123.816H61.0565ZM61.3855 126.619L61.8718 126.503C62.0132 127.094 62.2002 127.667 62.4289 128.218L61.9671 128.41L61.5052 128.601C61.2565 128.002 61.053 127.378 60.8993 126.735L61.3855 126.619ZM62.8233 130.087L63.2494 129.825C63.5654 130.34 63.9208 130.828 64.3115 131.285L63.9314 131.61L63.5514 131.935C63.1269 131.438 62.7407 130.908 62.3972 130.349L62.8233 130.087ZM65.2631 132.942L65.588 132.561C66.0449 132.952 66.5328 133.308 67.0475 133.624L66.7858 134.05L66.5242 134.476C65.9648 134.132 65.4346 133.746 64.9382 133.322L65.2631 132.942ZM68.4631 134.906L68.6546 134.444C69.2062 134.673 69.7794 134.86 70.3703 135.001L70.254 135.487L70.1376 135.974C69.4949 135.82 68.8714 135.616 68.2715 135.368L68.4631 134.906ZM72.1141 135.78L72.1528 135.281C72.4509 135.305 72.7523 135.316 73.0565 135.316V135.816V136.316C72.7264 136.316 72.3992 136.304 72.0754 136.278L72.1141 135.78ZM73.0565 135.816V135.316H74.0577V135.816V136.316H73.0565V135.816ZM76.0601 135.816V135.316H78.0624V135.816V136.316H76.0601V135.816ZM80.0648 135.816V135.316H82.0672V135.816V136.316H80.0648V135.816ZM84.0695 135.816V135.316H86.0719V135.816V136.316H84.0695V135.816ZM88.0743 135.816V135.316H90.0766V135.816V136.316H88.0743V135.816ZM92.079 135.816V135.316H94.0814V135.816V136.316H92.079V135.816ZM96.0837 135.816V135.316H98.0861V135.816V136.316H96.0837V135.816ZM100.088 135.816V135.316H102.091V135.816V136.316H100.088V135.816ZM104.093 135.816V135.316H106.096V135.816V136.316H104.093V135.816ZM108.098 135.816V135.316H110.1V135.816V136.316H108.098V135.816ZM112.103 135.816V135.316H114.105V135.816V136.316H112.103V135.816ZM116.107 135.816V135.316H118.11V135.816V136.316H116.107V135.816ZM120.112 135.816V135.316H121.113V135.816V136.316H120.112V135.816ZM121.467 135.463C121.662 135.658 121.662 135.975 121.467 136.17L118.285 139.352C118.09 139.547 117.773 139.547 117.578 139.352C117.382 139.157 117.382 138.84 117.578 138.645L120.406 135.816L117.578 132.988C117.382 132.793 117.382 132.476 117.578 132.281C117.773 132.086 118.09 132.086 118.285 132.281L121.467 135.463ZM0.646202 82.2395C0.45094 82.0442 0.45094 81.7276 0.646202 81.5324L3.82818 78.3504C4.02345 78.1551 4.34003 78.1551 4.53529 78.3504C4.73055 78.5456 4.73055 78.8622 4.53529 79.0575L1.70686 81.8859L4.53529 84.7143C4.73055 84.9096 4.73055 85.2262 4.53529 85.4215C4.34003 85.6167 4.02345 85.6167 3.82818 85.4215L0.646202 82.2395ZM0.999756 81.8859V81.3859H2.00094V81.8859V82.3859H0.999756V81.8859ZM4.0033 81.8859V81.3859H6.00567V81.8859V82.3859H4.0033V81.8859ZM8.00803 81.8859V81.3859H10.0104V81.8859V82.3859H8.00803V81.8859ZM12.0128 81.8859V81.3859H14.0151V81.8859V82.3859H12.0128V81.8859ZM16.0175 81.8859V81.3859H18.0199V81.8859V82.3859H16.0175V81.8859ZM20.0222 81.8859V81.3859H22.0246V81.8859V82.3859H20.0222V81.8859ZM24.027 81.8859V81.3859H26.0293V81.8859V82.3859H24.027V81.8859ZM28.0317 81.8859V81.3859H30.0341V81.8859V82.3859H28.0317V81.8859ZM32.0364 81.8859V81.3859H34.0388V81.8859V82.3859H32.0364V81.8859ZM36.0411 81.8859V81.3859H38.0435V81.8859V82.3859H36.0411V81.8859ZM40.0459 81.8859V81.3859H42.0482V81.8859V82.3859H40.0459V81.8859ZM44.0506 81.8859V81.3859H46.053V81.8859V82.3859H44.0506V81.8859ZM48.0553 81.8859V81.3859H49.0565V81.8859V82.3859H48.0553V81.8859ZM49.0565 81.8859V81.3859C49.3866 81.3859 49.7138 81.3987 50.0377 81.4239L49.999 81.9224L49.9602 82.4209C49.6621 82.3977 49.3608 82.3859 49.0565 82.3859V81.8859ZM51.8591 82.2149L51.9754 81.7287C52.6182 81.8824 53.2416 82.0859 53.8415 82.3346L53.65 82.7965L53.4584 83.2583C52.9069 83.0296 52.3337 82.8426 51.7427 82.7012L51.8591 82.2149ZM55.3272 83.6527L55.5889 83.2266C56.1482 83.5701 56.6784 83.9563 57.1749 84.3808L56.85 84.7608L56.5251 85.1409C56.0681 84.7502 55.5802 84.3948 55.0656 84.0788L55.3272 83.6527ZM58.1816 86.0924L58.5617 85.7675C58.9861 86.264 59.3723 86.7942 59.7158 87.3535L59.2897 87.6152L58.8637 87.8768C58.5477 87.3622 58.1922 86.8743 57.8016 86.4173L58.1816 86.0924ZM60.146 89.2925L60.6078 89.1009C60.8566 89.7008 61.06 90.3243 61.2138 90.967L60.7275 91.0834L60.2412 91.1997C60.0998 90.6088 59.9128 90.0355 59.6841 89.484L60.146 89.2925ZM61.0201 92.9435L61.5186 92.9047C61.5437 93.2286 61.5565 93.5558 61.5565 93.8859H61.0565H60.5565C60.5565 93.5817 60.5447 93.2803 60.5216 92.9822L61.0201 92.9435ZM61.0565 93.8859H61.5565V94.9549H61.0565H60.5565V93.8859H61.0565ZM61.0565 97.0927H61.5565V99.2306H61.0565H60.5565V97.0927H61.0565ZM61.0565 101.369H61.5565V103.506H61.0565H60.5565V101.369H61.0565ZM61.0565 105.644H61.5565V107.782H61.0565H60.5565V105.644H61.0565ZM61.0565 109.92H61.5565V112.058H61.0565H60.5565V109.92H61.0565ZM61.0565 114.196H61.5565V116.334H61.0565H60.5565V114.196H61.0565ZM61.0565 118.472H61.5565V120.61H61.0565H60.5565V118.472H61.0565ZM61.0565 122.747H61.5565V123.816H61.0565H60.5565V122.747H61.0565ZM61.0565 123.816H61.5565C61.5565 124.121 61.5683 124.422 61.5915 124.72L61.093 124.759L60.5945 124.798C60.5693 124.474 60.5565 124.147 60.5565 123.816H61.0565ZM61.3855 126.619L61.8718 126.503C62.0132 127.094 62.2002 127.667 62.4289 128.218L61.9671 128.41L61.5052 128.601C61.2565 128.002 61.053 127.378 60.8993 126.735L61.3855 126.619ZM62.8233 130.087L63.2494 129.825C63.5654 130.34 63.9208 130.828 64.3115 131.285L63.9314 131.61L63.5514 131.935C63.1269 131.438 62.7407 130.908 62.3972 130.349L62.8233 130.087ZM65.2631 132.942L65.588 132.561C66.0449 132.952 66.5328 133.308 67.0475 133.624L66.7858 134.05L66.5242 134.476C65.9648 134.132 65.4346 133.746 64.9382 133.322L65.2631 132.942ZM68.4631 134.906L68.6546 134.444C69.2062 134.673 69.7794 134.86 70.3703 135.001L70.254 135.487L70.1376 135.974C69.4949 135.82 68.8714 135.616 68.2715 135.368L68.4631 134.906ZM72.1141 135.78L72.1528 135.281C72.4509 135.305 72.7523 135.316 73.0565 135.316V135.816V136.316C72.7264 136.316 72.3992 136.304 72.0754 136.278L72.1141 135.78ZM73.0565 135.816V135.316H74.0577V135.816V136.316H73.0565V135.816ZM76.0601 135.816V135.316H78.0624V135.816V136.316H76.0601V135.816ZM80.0648 135.816V135.316H82.0672V135.816V136.316H80.0648V135.816ZM84.0695 135.816V135.316H86.0719V135.816V136.316H84.0695V135.816ZM88.0743 135.816V135.316H90.0766V135.816V136.316H88.0743V135.816ZM92.079 135.816V135.316H94.0814V135.816V136.316H92.079V135.816ZM96.0837 135.816V135.316H98.0861V135.816V136.316H96.0837V135.816ZM100.088 135.816V135.316H102.091V135.816V136.316H100.088V135.816ZM104.093 135.816V135.316H106.096V135.816V136.316H104.093V135.816ZM108.098 135.816V135.316H110.1V135.816V136.316H108.098V135.816ZM112.103 135.816V135.316H114.105V135.816V136.316H112.103V135.816ZM116.107 135.816V135.316H118.11V135.816V136.316H116.107V135.816ZM120.112 135.816V135.316H121.113V135.816V136.316H120.112V135.816Z" fill="white" fill-opacity="0.8"/>
<path d="M121.467 145.445C121.662 145.64 121.662 145.957 121.467 146.152L118.285 149.334C118.09 149.529 117.773 149.529 117.578 149.334C117.382 149.139 117.382 148.822 117.578 148.627L120.406 145.799L117.578 142.97C117.382 142.775 117.382 142.458 117.578 142.263C117.773 142.068 118.09 142.068 118.285 142.263L121.467 145.445ZM0.646202 163.122C0.45094 162.927 0.45094 162.61 0.646202 162.415L3.82818 159.233C4.02345 159.038 4.34003 159.038 4.53529 159.233C4.73055 159.428 4.73055 159.745 4.53529 159.94L1.70686 162.768L4.53529 165.597C4.73055 165.792 4.73055 166.109 4.53529 166.304C4.34003 166.499 4.02345 166.499 3.82818 166.304L0.646202 163.122ZM0.999756 162.768V162.268H2.03882V162.768V163.268H0.999756V162.768ZM4.11694 162.768V162.268H6.19506V162.768V163.268H4.11694V162.768ZM8.27319 162.768V162.268H10.3513V162.768V163.268H8.27319V162.768ZM12.4294 162.768V162.268H14.5076V162.768V163.268H12.4294V162.768ZM16.5857 162.768V162.268H18.6638V162.768V163.268H16.5857V162.768ZM20.7419 162.768V162.268H22.82V162.768V163.268H20.7419V162.768ZM24.8982 162.768V162.268H26.9763V162.768V163.268H24.8982V162.768ZM29.0544 162.768V162.268H31.1325V162.768V163.268H29.0544V162.768ZM33.2107 162.768V162.268H35.2888V162.768V163.268H33.2107V162.768ZM37.3669 162.768V162.268H39.445V162.768V163.268H37.3669V162.768ZM41.5231 162.768V162.268H42.5622V162.768V163.268H41.5231V162.768ZM42.5622 162.768V162.268C42.9161 162.268 43.2644 162.245 43.6057 162.201L43.6704 162.697L43.7351 163.192C43.351 163.242 42.9595 163.268 42.5622 163.268V162.768ZM45.8101 162.124L45.6186 161.663C46.2675 161.394 46.8734 161.041 47.423 160.619L47.7276 161.015L48.0323 161.412C47.4142 161.887 46.7324 162.283 46.0016 162.586L45.8101 162.124ZM49.2941 159.449L48.8976 159.144C49.32 158.595 49.6723 157.989 49.9414 157.34L50.4032 157.531L50.8651 157.723C50.5621 158.454 50.1655 159.135 49.6905 159.754L49.2941 159.449ZM50.9753 155.392L50.4795 155.327C50.5241 154.986 50.5471 154.637 50.5471 154.283H51.0471H51.5471C51.5471 154.681 51.5212 155.072 51.4711 155.456L50.9753 155.392ZM51.0471 154.283H50.5471C50.5471 153.886 50.5729 153.495 50.623 153.111L51.1188 153.175L51.6146 153.24C51.5701 153.581 51.5471 153.93 51.5471 154.283H51.0471ZM51.6909 151.036L51.229 150.844C51.532 150.113 51.9286 149.431 52.4036 148.813L52.8 149.118L53.1965 149.423C52.7741 149.972 52.4218 150.578 52.1528 151.227L51.6909 151.036ZM54.3665 147.552L54.0618 147.155C54.6799 146.68 55.3618 146.284 56.0925 145.981L56.284 146.442L56.4755 146.904C55.8267 147.173 55.2207 147.526 54.6711 147.948L54.3665 147.552ZM58.4237 145.87L58.359 145.375C58.7431 145.324 59.1346 145.299 59.5319 145.299V145.799V146.299C59.178 146.299 58.8297 146.322 58.4884 146.366L58.4237 145.87ZM59.5319 145.799V145.299H60.5583V145.799V146.299H59.5319V145.799ZM62.611 145.799V145.299H64.6637V145.799V146.299H62.611V145.799ZM66.7164 145.799V145.299H68.7691V145.799V146.299H66.7164V145.799ZM70.8218 145.799V145.299H72.8745V145.799V146.299H70.8218V145.799ZM74.9273 145.799V145.299H76.98V145.799V146.299H74.9273V145.799ZM79.0327 145.799V145.299H81.0854V145.799V146.299H79.0327V145.799ZM83.1381 145.799V145.299H85.1908V145.799V146.299H83.1381V145.799ZM87.2435 145.799V145.299H89.2962V145.799V146.299H87.2435V145.799ZM91.3489 145.799V145.299H93.4017V145.799V146.299H91.3489V145.799ZM95.4544 145.799V145.299H97.5071V145.799V146.299H95.4544V145.799ZM99.5598 145.799V145.299H101.613V145.799V146.299H99.5598V145.799ZM103.665 145.799V145.299H105.718V145.799V146.299H103.665V145.799ZM107.771 145.799V145.299H109.823V145.799V146.299H107.771V145.799ZM111.876 145.799V145.299H113.929V145.799V146.299H111.876V145.799ZM115.981 145.799V145.299H118.034V145.799V146.299H115.981V145.799ZM120.087 145.799V145.299H121.113V145.799V146.299H120.087V145.799ZM121.467 145.445C121.662 145.64 121.662 145.957 121.467 146.152L118.285 149.334C118.09 149.529 117.773 149.529 117.578 149.334C117.382 149.139 117.382 148.822 117.578 148.627L120.406 145.799L117.578 142.97C117.382 142.775 117.382 142.458 117.578 142.263C117.773 142.068 118.09 142.068 118.285 142.263L121.467 145.445ZM0.646202 163.122C0.45094 162.927 0.45094 162.61 0.646202 162.415L3.82818 159.233C4.02345 159.038 4.34003 159.038 4.53529 159.233C4.73055 159.428 4.73055 159.745 4.53529 159.94L1.70686 162.768L4.53529 165.597C4.73055 165.792 4.73055 166.109 4.53529 166.304C4.34003 166.499 4.02345 166.499 3.82818 166.304L0.646202 163.122ZM0.999756 162.768V162.268H2.03882V162.768V163.268H0.999756V162.768ZM4.11694 162.768V162.268H6.19506V162.768V163.268H4.11694V162.768ZM8.27319 162.768V162.268H10.3513V162.768V163.268H8.27319V162.768ZM12.4294 162.768V162.268H14.5076V162.768V163.268H12.4294V162.768ZM16.5857 162.768V162.268H18.6638V162.768V163.268H16.5857V162.768ZM20.7419 162.768V162.268H22.82V162.768V163.268H20.7419V162.768ZM24.8982 162.768V162.268H26.9763V162.768V163.268H24.8982V162.768ZM29.0544 162.768V162.268H31.1325V162.768V163.268H29.0544V162.768ZM33.2107 162.768V162.268H35.2888V162.768V163.268H33.2107V162.768ZM37.3669 162.768V162.268H39.445V162.768V163.268H37.3669V162.768ZM41.5231 162.768V162.268H42.5622V162.768V163.268H41.5231V162.768ZM42.5622 162.768V162.268C42.9161 162.268 43.2644 162.245 43.6057 162.201L43.6704 162.697L43.7351 163.192C43.351 163.242 42.9595 163.268 42.5622 163.268V162.768ZM45.8101 162.124L45.6186 161.663C46.2675 161.394 46.8734 161.041 47.423 160.619L47.7276 161.015L48.0323 161.412C47.4142 161.887 46.7324 162.283 46.0016 162.586L45.8101 162.124ZM49.2941 159.449L48.8976 159.144C49.32 158.595 49.6723 157.989 49.9414 157.34L50.4032 157.531L50.8651 157.723C50.5621 158.454 50.1655 159.135 49.6905 159.754L49.2941 159.449ZM50.9753 155.392L50.4795 155.327C50.5241 154.986 50.5471 154.637 50.5471 154.283H51.0471H51.5471C51.5471 154.681 51.5212 155.072 51.4711 155.456L50.9753 155.392ZM51.0471 154.283H50.5471C50.5471 153.886 50.5729 153.495 50.623 153.111L51.1188 153.175L51.6146 153.24C51.5701 153.581 51.5471 153.93 51.5471 154.283H51.0471ZM51.6909 151.036L51.229 150.844C51.532 150.113 51.9286 149.431 52.4036 148.813L52.8 149.118L53.1965 149.423C52.7741 149.972 52.4218 150.578 52.1528 151.227L51.6909 151.036ZM54.3665 147.552L54.0618 147.155C54.6799 146.68 55.3618 146.284 56.0925 145.981L56.284 146.442L56.4755 146.904C55.8267 147.173 55.2207 147.526 54.6711 147.948L54.3665 147.552ZM58.4237 145.87L58.359 145.375C58.7431 145.324 59.1346 145.299 59.5319 145.299V145.799V146.299C59.178 146.299 58.8297 146.322 58.4884 146.366L58.4237 145.87ZM59.5319 145.799V145.299H60.5583V145.799V146.299H59.5319V145.799ZM62.611 145.799V145.299H64.6637V145.799V146.299H62.611V145.799ZM66.7164 145.799V145.299H68.7691V145.799V146.299H66.7164V145.799ZM70.8218 145.799V145.299H72.8745V145.799V146.299H70.8218V145.799ZM74.9273 145.799V145.299H76.98V145.799V146.299H74.9273V145.799ZM79.0327 145.799V145.299H81.0854V145.799V146.299H79.0327V145.799ZM83.1381 145.799V145.299H85.1908V145.799V146.299H83.1381V145.799ZM87.2435 145.799V145.299H89.2962V145.799V146.299H87.2435V145.799ZM91.3489 145.799V145.299H93.4017V145.799V146.299H91.3489V145.799ZM95.4544 145.799V145.299H97.5071V145.799V146.299H95.4544V145.799ZM99.5598 145.799V145.299H101.613V145.799V146.299H99.5598V145.799ZM103.665 145.799V145.299H105.718V145.799V146.299H103.665V145.799ZM107.771 145.799V145.299H109.823V145.799V146.299H107.771V145.799ZM111.876 145.799V145.299H113.929V145.799V146.299H111.876V145.799ZM115.981 145.799V145.299H118.034V145.799V146.299H115.981V145.799ZM120.087 145.799V145.299H121.113V145.799V146.299H120.087V145.799Z" fill="white" fill-opacity="0.8"/>
<path d="M121.467 155.427C121.662 155.622 121.662 155.939 121.467 156.134L118.285 159.316C118.09 159.511 117.773 159.511 117.578 159.316C117.382 159.121 117.382 158.804 117.578 158.609L120.406 155.781L117.578 152.952C117.382 152.757 117.382 152.44 117.578 152.245C117.773 152.05 118.09 152.05 118.285 152.245L121.467 155.427ZM0.646202 244.006C0.45094 243.811 0.45094 243.494 0.646202 243.299L3.82818 240.117C4.02345 239.922 4.34003 239.922 4.53529 240.117C4.73055 240.312 4.73055 240.629 4.53529 240.824L1.70686 243.652L4.53529 246.481C4.73055 246.676 4.73055 246.993 4.53529 247.188C4.34003 247.383 4.02345 247.383 3.82818 247.188L0.646202 244.006ZM0.999756 243.652V243.152H2.00094V243.652V244.152H0.999756V243.652ZM4.0033 243.652V243.152H6.00567V243.652V244.152H4.0033V243.652ZM8.00803 243.652V243.152H10.0104V243.652V244.152H8.00803V243.652ZM12.0128 243.652V243.152H14.0151V243.652V244.152H12.0128V243.652ZM16.0175 243.652V243.152H18.0199V243.652V244.152H16.0175V243.652ZM20.0222 243.652V243.152H22.0246V243.652V244.152H20.0222V243.652ZM24.027 243.652V243.152H26.0293V243.652V244.152H24.027V243.652ZM28.0317 243.652V243.152H30.0341V243.652V244.152H28.0317V243.652ZM32.0364 243.652V243.152H34.0388V243.652V244.152H32.0364V243.652ZM36.0411 243.652V243.152H38.0435V243.652V244.152H36.0411V243.652ZM40.0459 243.652V243.152H42.0482V243.652V244.152H40.0459V243.652ZM44.0506 243.652V243.152H46.053V243.652V244.152H44.0506V243.652ZM48.0553 243.652V243.152H49.0565V243.652V244.152H48.0553V243.652ZM49.0565 243.652V243.152C49.3608 243.152 49.6621 243.141 49.9602 243.117L49.999 243.616L50.0377 244.114C49.7138 244.14 49.3866 244.152 49.0565 244.152V243.652ZM51.8591 243.323L51.7427 242.837C52.3337 242.696 52.9069 242.509 53.4584 242.28L53.65 242.742L53.8415 243.204C53.2416 243.452 52.6182 243.656 51.9754 243.81L51.8591 243.323ZM55.3272 241.886L55.0656 241.459C55.5802 241.143 56.0681 240.788 56.5251 240.397L56.85 240.777L57.1749 241.157C56.6784 241.582 56.1482 241.968 55.5889 242.312L55.3272 241.886ZM58.1816 239.446L57.8016 239.121C58.1922 238.664 58.5477 238.176 58.8637 237.661L59.2897 237.923L59.7158 238.185C59.3723 238.744 58.9861 239.274 58.5617 239.771L58.1816 239.446ZM60.146 236.246L59.6841 236.054C59.9128 235.503 60.0998 234.929 60.2412 234.339L60.7275 234.455L61.2138 234.571C61.06 235.214 60.8566 235.837 60.6078 236.437L60.146 236.246ZM61.0201 232.595L60.5216 232.556C60.5447 232.258 60.5565 231.957 60.5565 231.652H61.0565H61.5565C61.5565 231.982 61.5437 232.31 61.5186 232.633L61.0201 232.595ZM61.0565 231.652H60.5565V230.654H61.0565H61.5565V231.652H61.0565ZM61.0565 228.658H60.5565V226.662H61.0565H61.5565V228.658H61.0565ZM61.0565 224.666H60.5565V222.67H61.0565H61.5565V224.666H61.0565ZM61.0565 220.674H60.5565V218.678H61.0565H61.5565V220.674H61.0565ZM61.0565 216.682H60.5565V214.686H61.0565H61.5565V216.682H61.0565ZM61.0565 212.69H60.5565V210.694H61.0565H61.5565V212.69H61.0565ZM61.0565 208.698H60.5565V206.702H61.0565H61.5565V208.698H61.0565ZM61.0565 204.706H60.5565V202.71H61.0565H61.5565V204.706H61.0565ZM61.0565 200.715H60.5565V198.719H61.0565H61.5565V200.715H61.0565ZM61.0565 196.723H60.5565V194.727H61.0565H61.5565V196.723H61.0565ZM61.0565 192.731H60.5565V190.735H61.0565H61.5565V192.731H61.0565ZM61.0565 188.739H60.5565V186.743H61.0565H61.5565V188.739H61.0565ZM61.0565 184.747H60.5565V182.751H61.0565H61.5565V184.747H61.0565ZM61.0565 180.755H60.5565V178.759H61.0565H61.5565V180.755H61.0565ZM61.0565 176.763H60.5565V174.767H61.0565H61.5565V176.763H61.0565ZM61.0565 172.771H60.5565V170.775H61.0565H61.5565V172.771H61.0565ZM61.0565 168.779H60.5565V167.781H61.0565H61.5565V168.779H61.0565ZM61.0565 167.781H60.5565C60.5565 167.451 60.5693 167.123 60.5945 166.8L61.093 166.838L61.5915 166.877C61.5683 167.175 61.5565 167.476 61.5565 167.781H61.0565ZM61.3855 164.978L60.8993 164.862C61.053 164.219 61.2565 163.596 61.5052 162.996L61.9671 163.187L62.4289 163.379C62.2002 163.93 62.0132 164.504 61.8718 165.094L61.3855 164.978ZM62.8233 161.51L62.3972 161.248C62.7407 160.689 63.1269 160.159 63.5514 159.662L63.9314 159.987L64.3115 160.312C63.9208 160.769 63.5654 161.257 63.2494 161.772L62.8233 161.51ZM65.2631 158.656L64.9382 158.276C65.4346 157.851 65.9648 157.465 66.5242 157.121L66.7858 157.547L67.0474 157.974C66.5328 158.29 66.0449 158.645 65.588 159.036L65.2631 158.656ZM68.4631 156.691L68.2715 156.229C68.8714 155.981 69.4949 155.777 70.1376 155.623L70.254 156.11L70.3703 156.596C69.7794 156.737 69.2062 156.924 68.6546 157.153L68.4631 156.691ZM72.1141 155.817L72.0754 155.319C72.3992 155.293 72.7264 155.281 73.0565 155.281V155.781V156.281C72.7523 156.281 72.4509 156.292 72.1528 156.316L72.1141 155.817ZM73.0565 155.781V155.281H74.0577V155.781V156.281H73.0565V155.781ZM76.0601 155.781V155.281H78.0624V155.781V156.281H76.0601V155.781ZM80.0648 155.781V155.281H82.0672V155.781V156.281H80.0648V155.781ZM84.0695 155.781V155.281H86.0719V155.781V156.281H84.0695V155.781ZM88.0743 155.781V155.281H90.0766V155.781V156.281H88.0743V155.781ZM92.079 155.781V155.281H94.0814V155.781V156.281H92.079V155.781ZM96.0837 155.781V155.281H98.0861V155.781V156.281H96.0837V155.781ZM100.088 155.781V155.281H102.091V155.781V156.281H100.088V155.781ZM104.093 155.781V155.281H106.096V155.781V156.281H104.093V155.781ZM108.098 155.781V155.281H110.1V155.781V156.281H108.098V155.781ZM112.103 155.781V155.281H114.105V155.781V156.281H112.103V155.781ZM116.107 155.781V155.281H118.11V155.781V156.281H116.107V155.781ZM120.112 155.781V155.281H121.113V155.781V156.281H120.112V155.781ZM121.467 155.427C121.662 155.622 121.662 155.939 121.467 156.134L118.285 159.316C118.09 159.511 117.773 159.511 117.578 159.316C117.382 159.121 117.382 158.804 117.578 158.609L120.406 155.781L117.578 152.952C117.382 152.757 117.382 152.44 117.578 152.245C117.773 152.05 118.09 152.05 118.285 152.245L121.467 155.427ZM0.646202 244.006C0.45094 243.811 0.45094 243.494 0.646202 243.299L3.82818 240.117C4.02345 239.922 4.34003 239.922 4.53529 240.117C4.73055 240.312 4.73055 240.629 4.53529 240.824L1.70686 243.652L4.53529 246.481C4.73055 246.676 4.73055 246.993 4.53529 247.188C4.34003 247.383 4.02345 247.383 3.82818 247.188L0.646202 244.006ZM0.999756 243.652V243.152H2.00094V243.652V244.152H0.999756V243.652ZM4.0033 243.652V243.152H6.00567V243.652V244.152H4.0033V243.652ZM8.00803 243.652V243.152H10.0104V243.652V244.152H8.00803V243.652ZM12.0128 243.652V243.152H14.0151V243.652V244.152H12.0128V243.652ZM16.0175 243.652V243.152H18.0199V243.652V244.152H16.0175V243.652ZM20.0222 243.652V243.152H22.0246V243.652V244.152H20.0222V243.652ZM24.027 243.652V243.152H26.0293V243.652V244.152H24.027V243.652ZM28.0317 243.652V243.152H30.0341V243.652V244.152H28.0317V243.652ZM32.0364 243.652V243.152H34.0388V243.652V244.152H32.0364V243.652ZM36.0411 243.652V243.152H38.0435V243.652V244.152H36.0411V243.652ZM40.0459 243.652V243.152H42.0482V243.652V244.152H40.0459V243.652ZM44.0506 243.652V243.152H46.053V243.652V244.152H44.0506V243.652ZM48.0553 243.652V243.152H49.0565V243.652V244.152H48.0553V243.652ZM49.0565 243.652V243.152C49.3608 243.152 49.6621 243.141 49.9602 243.117L49.999 243.616L50.0377 244.114C49.7138 244.14 49.3866 244.152 49.0565 244.152V243.652ZM51.8591 243.323L51.7427 242.837C52.3337 242.696 52.9069 242.509 53.4584 242.28L53.65 242.742L53.8415 243.204C53.2416 243.452 52.6182 243.656 51.9754 243.81L51.8591 243.323ZM55.3272 241.886L55.0656 241.459C55.5802 241.143 56.0681 240.788 56.5251 240.397L56.85 240.777L57.1749 241.157C56.6784 241.582 56.1482 241.968 55.5889 242.312L55.3272 241.886ZM58.1816 239.446L57.8016 239.121C58.1922 238.664 58.5477 238.176 58.8637 237.661L59.2897 237.923L59.7158 238.185C59.3723 238.744 58.9861 239.274 58.5617 239.771L58.1816 239.446ZM60.146 236.246L59.6841 236.054C59.9128 235.503 60.0998 234.929 60.2412 234.339L60.7275 234.455L61.2138 234.571C61.06 235.214 60.8566 235.837 60.6078 236.437L60.146 236.246ZM61.0201 232.595L60.5216 232.556C60.5447 232.258 60.5565 231.957 60.5565 231.652H61.0565H61.5565C61.5565 231.982 61.5437 232.31 61.5186 232.633L61.0201 232.595ZM61.0565 231.652H60.5565V230.654H61.0565H61.5565V231.652H61.0565ZM61.0565 228.658H60.5565V226.662H61.0565H61.5565V228.658H61.0565ZM61.0565 224.666H60.5565V222.67H61.0565H61.5565V224.666H61.0565ZM61.0565 220.674H60.5565V218.678H61.0565H61.5565V220.674H61.0565ZM61.0565 216.682H60.5565V214.686H61.0565H61.5565V216.682H61.0565ZM61.0565 212.69H60.5565V210.694H61.0565H61.5565V212.69H61.0565ZM61.0565 208.698H60.5565V206.702H61.0565H61.5565V208.698H61.0565ZM61.0565 204.706H60.5565V202.71H61.0565H61.5565V204.706H61.0565ZM61.0565 200.715H60.5565V198.719H61.0565H61.5565V200.715H61.0565ZM61.0565 196.723H60.5565V194.727H61.0565H61.5565V196.723H61.0565ZM61.0565 192.731H60.5565V190.735H61.0565H61.5565V192.731H61.0565ZM61.0565 188.739H60.5565V186.743H61.0565H61.5565V188.739H61.0565ZM61.0565 184.747H60.5565V182.751H61.0565H61.5565V184.747H61.0565ZM61.0565 180.755H60.5565V178.759H61.0565H61.5565V180.755H61.0565ZM61.0565 176.763H60.5565V174.767H61.0565H61.5565V176.763H61.0565ZM61.0565 172.771H60.5565V170.775H61.0565H61.5565V172.771H61.0565ZM61.0565 168.779H60.5565V167.781H61.0565H61.5565V168.779H61.0565ZM61.0565 167.781H60.5565C60.5565 167.451 60.5693 167.123 60.5945 166.8L61.093 166.838L61.5915 166.877C61.5683 167.175 61.5565 167.476 61.5565 167.781H61.0565ZM61.3855 164.978L60.8993 164.862C61.053 164.219 61.2565 163.596 61.5052 162.996L61.9671 163.187L62.4289 163.379C62.2002 163.93 62.0132 164.504 61.8718 165.094L61.3855 164.978ZM62.8233 161.51L62.3972 161.248C62.7407 160.689 63.1269 160.159 63.5514 159.662L63.9314 159.987L64.3115 160.312C63.9208 160.769 63.5654 161.257 63.2494 161.772L62.8233 161.51ZM65.2631 158.656L64.9382 158.276C65.4346 157.851 65.9648 157.465 66.5242 157.121L66.7858 157.547L67.0474 157.974C66.5328 158.29 66.0449 158.645 65.588 159.036L65.2631 158.656ZM68.4631 156.691L68.2715 156.229C68.8714 155.981 69.4949 155.777 70.1376 155.623L70.254 156.11L70.3703 156.596C69.7794 156.737 69.2062 156.924 68.6546 157.153L68.4631 156.691ZM72.1141 155.817L72.0754 155.319C72.3992 155.293 72.7264 155.281 73.0565 155.281V155.781V156.281C72.7523 156.281 72.4509 156.292 72.1528 156.316L72.1141 155.817ZM73.0565 155.781V155.281H74.0577V155.781V156.281H73.0565V155.781ZM76.0601 155.781V155.281H78.0624V155.781V156.281H76.0601V155.781ZM80.0648 155.781V155.281H82.0672V155.781V156.281H80.0648V155.781ZM84.0695 155.781V155.281H86.0719V155.781V156.281H84.0695V155.781ZM88.0743 155.781V155.281H90.0766V155.781V156.281H88.0743V155.781ZM92.079 155.781V155.281H94.0814V155.781V156.281H92.079V155.781ZM96.0837 155.781V155.281H98.0861V155.781V156.281H96.0837V155.781ZM100.088 155.781V155.281H102.091V155.781V156.281H100.088V155.781ZM104.093 155.781V155.281H106.096V155.781V156.281H104.093V155.781ZM108.098 155.781V155.281H110.1V155.781V156.281H108.098V155.781ZM112.103 155.781V155.281H114.105V155.781V156.281H112.103V155.781ZM116.107 155.781V155.281H118.11V155.781V156.281H116.107V155.781ZM120.112 155.781V155.281H121.113V155.781V156.281H120.112V155.781Z" fill="white" fill-opacity="0.8"/>
<path d="M121.467 165.409C121.662 165.605 121.662 165.921 121.467 166.116L118.285 169.298C118.09 169.494 117.773 169.494 117.578 169.298C117.382 169.103 117.382 168.787 117.578 168.591L120.406 165.763L117.578 162.934C117.382 162.739 117.382 162.423 117.578 162.227C117.773 162.032 118.09 162.032 118.285 162.227L121.467 165.409ZM0.646202 324.892C0.45094 324.697 0.45094 324.38 0.646202 324.185L3.82818 321.003C4.02345 320.808 4.34003 320.808 4.53529 321.003C4.73055 321.198 4.73055 321.515 4.53529 321.71L1.70686 324.538L4.53529 327.367C4.73055 327.562 4.73055 327.879 4.53529 328.074C4.34003 328.269 4.02345 328.269 3.82818 328.074L0.646202 324.892ZM0.999756 324.538V324.038H1.96753V324.538V325.038H0.999756V324.538ZM3.90307 324.538V324.038H5.83861V324.538V325.038H3.90307V324.538ZM7.77415 324.538V324.038H9.70969V324.538V325.038H7.77415V324.538ZM11.6452 324.538V324.038H13.5808V324.538V325.038H11.6452V324.538ZM15.5163 324.538V324.038H17.4519V324.538V325.038H15.5163V324.538ZM19.3874 324.538V324.038H21.3229V324.538V325.038H19.3874V324.538ZM23.2585 324.538V324.038H25.194V324.538V325.038H23.2585V324.538ZM27.1296 324.538V324.038H29.0651V324.538V325.038H27.1296V324.538ZM31.0006 324.538V324.038H32.9362V324.538V325.038H31.0006V324.538ZM34.8717 324.538V324.038H36.8073V324.538V325.038H34.8717V324.538ZM38.7428 324.538V324.038H40.6783V324.538V325.038H38.7428V324.538ZM42.6139 324.538V324.038H44.5494V324.538V325.038H42.6139V324.538ZM46.485 324.538V324.038H48.4205V324.538V325.038H46.485V324.538ZM50.356 324.538V324.038H52.2916V324.538V325.038H50.356V324.538ZM54.2271 324.538V324.038H56.1627V324.538V325.038H54.2271V324.538ZM58.0982 324.538V324.038H59.066V324.538V325.038H58.0982V324.538ZM59.066 324.538V324.038C59.3702 324.038 59.6716 324.027 59.9697 324.003L60.0084 324.502L60.0471 325C59.7233 325.026 59.3961 325.038 59.066 325.038V324.538ZM61.8685 324.209L61.7522 323.723C62.3431 323.582 62.9163 323.395 63.4679 323.166L63.6594 323.628L63.851 324.09C63.2511 324.338 62.6276 324.542 61.9849 324.696L61.8685 324.209ZM65.3367 322.772L65.0751 322.345C65.5897 322.029 66.0776 321.674 66.5345 321.283L66.8594 321.663L67.1843 322.043C66.6879 322.468 66.1577 322.854 65.5983 323.198L65.3367 322.772ZM68.1911 320.332L67.811 320.007C68.2017 319.55 68.5571 319.062 68.8731 318.547L69.2992 318.809L69.7253 319.071C69.3818 319.63 68.9956 320.16 68.5711 320.657L68.1911 320.332ZM70.1554 317.132L69.6936 316.94C69.9223 316.389 70.1093 315.815 70.2507 315.225L70.737 315.341L71.2232 315.457C71.0695 316.1 70.866 316.723 70.6173 317.323L70.1554 317.132ZM71.0295 313.481L70.531 313.442C70.5542 313.144 70.566 312.843 70.566 312.538H71.066H71.566C71.566 312.868 71.5532 313.196 71.528 313.519L71.0295 313.481ZM71.066 312.538H70.566V311.547H71.066H71.566V312.538H71.066ZM71.066 309.565H70.566V307.583H71.066H71.566V309.565H71.066ZM71.066 305.601H70.566V303.619H71.066H71.566V305.601H71.066ZM71.066 301.637H70.566V299.655H71.066H71.566V301.637H71.066ZM71.066 297.673H70.566V295.691H71.066H71.566V297.673H71.066ZM71.066 293.709H70.566V291.727H71.066H71.566V293.709H71.066ZM71.066 289.745H70.566V287.763H71.066H71.566V289.745H71.066ZM71.066 285.781H70.566V283.799H71.066H71.566V285.781H71.066ZM71.066 281.817H70.566V279.835H71.066H71.566V281.817H71.066ZM71.066 277.853H70.566V275.871H71.066H71.566V277.853H71.066ZM71.066 273.889H70.566V271.908H71.066H71.566V273.889H71.066ZM71.066 269.926H70.566V267.944H71.066H71.566V269.926H71.066ZM71.066 265.962H70.566V263.98H71.066H71.566V265.962H71.066ZM71.066 261.998H70.566V260.016H71.066H71.566V261.998H71.066ZM71.066 258.034H70.566V256.052H71.066H71.566V258.034H71.066ZM71.066 254.07H70.566V252.088H71.066H71.566V254.07H71.066ZM71.066 250.106H70.566V248.124H71.066H71.566V250.106H71.066ZM71.066 246.142H70.566V244.16H71.066H71.566V246.142H71.066ZM71.066 242.178H70.566V240.196H71.066H71.566V242.178H71.066ZM71.066 238.214H70.566V236.232H71.066H71.566V238.214H71.066ZM71.066 234.25H70.566V232.268H71.066H71.566V234.25H71.066ZM71.066 230.286H70.566V228.304H71.066H71.566V230.286H71.066ZM71.066 226.322H70.566V224.34H71.066H71.566V226.322H71.066ZM71.066 222.358H70.566V220.376H71.066H71.566V222.358H71.066ZM71.066 218.394H70.566V216.412H71.066H71.566V218.394H71.066ZM71.066 214.43H70.566V212.448H71.066H71.566V214.43H71.066ZM71.066 210.466H70.566V208.484H71.066H71.566V210.466H71.066ZM71.066 206.502H70.566V204.52H71.066H71.566V206.502H71.066ZM71.066 202.538H70.566V200.556H71.066H71.566V202.538H71.066ZM71.066 198.574H70.566V196.592H71.066H71.566V198.574H71.066ZM71.066 194.61H70.566V192.628H71.066H71.566V194.61H71.066ZM71.066 190.646H70.566V188.664H71.066H71.566V190.646H71.066ZM71.066 186.682H70.566V184.7H71.066H71.566V186.682H71.066ZM71.066 182.718H70.566V180.736H71.066H71.566V182.718H71.066ZM71.066 178.754H70.566V177.763H71.066H71.566V178.754H71.066ZM71.066 177.763H70.566C70.566 177.433 70.5788 177.106 70.6039 176.782L71.1024 176.82L71.6009 176.859C71.5778 177.157 71.566 177.459 71.566 177.763H71.066ZM71.395 174.96L70.9087 174.844C71.0625 174.201 71.2659 173.578 71.5147 172.978L71.9765 173.169L72.4384 173.361C72.2097 173.913 72.0227 174.486 71.8813 175.077L71.395 174.96ZM72.8327 171.492L72.4067 171.231C72.7502 170.671 73.1364 170.141 73.5608 169.645L73.9409 169.969L74.3209 170.294C73.9303 170.751 73.5748 171.239 73.2588 171.754L72.8327 171.492ZM75.2725 168.638L74.9476 168.258C75.4441 167.833 75.9743 167.447 76.5336 167.104L76.7953 167.53L77.0569 167.956C76.5423 168.272 76.0544 168.627 75.5974 169.018L75.2725 168.638ZM78.4725 166.673L78.281 166.212C78.8809 165.963 79.5043 165.759 80.1471 165.606L80.2634 166.092L80.3798 166.578C79.7888 166.72 79.2156 166.907 78.664 167.135L78.4725 166.673ZM82.1235 165.799L82.0848 165.301C82.4086 165.276 82.7359 165.263 83.066 165.263V165.763V166.263C82.7617 166.263 82.4604 166.275 82.1623 166.298L82.1235 165.799ZM83.066 165.763V165.263H84.0171V165.763V166.263H83.066V165.763ZM85.9195 165.763V165.263H87.8219V165.763V166.263H85.9195V165.763ZM89.7242 165.763V165.263H91.6266V165.763V166.263H89.7242V165.763ZM93.529 165.763V165.263H95.4313V165.763V166.263H93.529V165.763ZM97.3337 165.763V165.263H99.2361V165.763V166.263H97.3337V165.763ZM101.138 165.763V165.263H103.041V165.763V166.263H101.138V165.763ZM104.943 165.763V165.263H106.846V165.763V166.263H104.943V165.763ZM108.748 165.763V165.263H110.65V165.763V166.263H108.748V165.763ZM112.553 165.763V165.263H114.455V165.763V166.263H112.553V165.763ZM116.357 165.763V165.263H118.26V165.763V166.263H116.357V165.763ZM120.162 165.763V165.263H121.113V165.763V166.263H120.162V165.763ZM121.467 165.409C121.662 165.605 121.662 165.921 121.467 166.116L118.285 169.298C118.09 169.494 117.773 169.494 117.578 169.298C117.382 169.103 117.382 168.787 117.578 168.591L120.406 165.763L117.578 162.934C117.382 162.739 117.382 162.423 117.578 162.227C117.773 162.032 118.09 162.032 118.285 162.227L121.467 165.409ZM0.646202 324.892C0.45094 324.697 0.45094 324.38 0.646202 324.185L3.82818 321.003C4.02345 320.808 4.34003 320.808 4.53529 321.003C4.73055 321.198 4.73055 321.515 4.53529 321.71L1.70686 324.538L4.53529 327.367C4.73055 327.562 4.73055 327.879 4.53529 328.074C4.34003 328.269 4.02345 328.269 3.82818 328.074L0.646202 324.892ZM0.999756 324.538V324.038H1.96753V324.538V325.038H0.999756V324.538ZM3.90307 324.538V324.038H5.83861V324.538V325.038H3.90307V324.538ZM7.77415 324.538V324.038H9.70969V324.538V325.038H7.77415V324.538ZM11.6452 324.538V324.038H13.5808V324.538V325.038H11.6452V324.538ZM15.5163 324.538V324.038H17.4519V324.538V325.038H15.5163V324.538ZM19.3874 324.538V324.038H21.3229V324.538V325.038H19.3874V324.538ZM23.2585 324.538V324.038H25.194V324.538V325.038H23.2585V324.538ZM27.1296 324.538V324.038H29.0651V324.538V325.038H27.1296V324.538ZM31.0006 324.538V324.038H32.9362V324.538V325.038H31.0006V324.538ZM34.8717 324.538V324.038H36.8073V324.538V325.038H34.8717V324.538ZM38.7428 324.538V324.038H40.6783V324.538V325.038H38.7428V324.538ZM42.6139 324.538V324.038H44.5494V324.538V325.038H42.6139V324.538ZM46.485 324.538V324.038H48.4205V324.538V325.038H46.485V324.538ZM50.356 324.538V324.038H52.2916V324.538V325.038H50.356V324.538ZM54.2271 324.538V324.038H56.1627V324.538V325.038H54.2271V324.538ZM58.0982 324.538V324.038H59.066V324.538V325.038H58.0982V324.538ZM59.066 324.538V324.038C59.3702 324.038 59.6716 324.027 59.9697 324.003L60.0084 324.502L60.0471 325C59.7233 325.026 59.3961 325.038 59.066 325.038V324.538ZM61.8685 324.209L61.7522 323.723C62.3431 323.582 62.9163 323.395 63.4679 323.166L63.6594 323.628L63.851 324.09C63.2511 324.338 62.6276 324.542 61.9849 324.696L61.8685 324.209ZM65.3367 322.772L65.0751 322.345C65.5897 322.029 66.0776 321.674 66.5345 321.283L66.8594 321.663L67.1843 322.043C66.6879 322.468 66.1577 322.854 65.5983 323.198L65.3367 322.772ZM68.1911 320.332L67.811 320.007C68.2017 319.55 68.5571 319.062 68.8731 318.547L69.2992 318.809L69.7253 319.071C69.3818 319.63 68.9956 320.16 68.5711 320.657L68.1911 320.332ZM70.1554 317.132L69.6936 316.94C69.9223 316.389 70.1093 315.815 70.2507 315.225L70.737 315.341L71.2232 315.457C71.0695 316.1 70.866 316.723 70.6173 317.323L70.1554 317.132ZM71.0295 313.481L70.531 313.442C70.5542 313.144 70.566 312.843 70.566 312.538H71.066H71.566C71.566 312.868 71.5532 313.196 71.528 313.519L71.0295 313.481ZM71.066 312.538H70.566V311.547H71.066H71.566V312.538H71.066ZM71.066 309.565H70.566V307.583H71.066H71.566V309.565H71.066ZM71.066 305.601H70.566V303.619H71.066H71.566V305.601H71.066ZM71.066 301.637H70.566V299.655H71.066H71.566V301.637H71.066ZM71.066 297.673H70.566V295.691H71.066H71.566V297.673H71.066ZM71.066 293.709H70.566V291.727H71.066H71.566V293.709H71.066ZM71.066 289.745H70.566V287.763H71.066H71.566V289.745H71.066ZM71.066 285.781H70.566V283.799H71.066H71.566V285.781H71.066ZM71.066 281.817H70.566V279.835H71.066H71.566V281.817H71.066ZM71.066 277.853H70.566V275.871H71.066H71.566V277.853H71.066ZM71.066 273.889H70.566V271.908H71.066H71.566V273.889H71.066ZM71.066 269.926H70.566V267.944H71.066H71.566V269.926H71.066ZM71.066 265.962H70.566V263.98H71.066H71.566V265.962H71.066ZM71.066 261.998H70.566V260.016H71.066H71.566V261.998H71.066ZM71.066 258.034H70.566V256.052H71.066H71.566V258.034H71.066ZM71.066 254.07H70.566V252.088H71.066H71.566V254.07H71.066ZM71.066 250.106H70.566V248.124H71.066H71.566V250.106H71.066ZM71.066 246.142H70.566V244.16H71.066H71.566V246.142H71.066ZM71.066 242.178H70.566V240.196H71.066H71.566V242.178H71.066ZM71.066 238.214H70.566V236.232H71.066H71.566V238.214H71.066ZM71.066 234.25H70.566V232.268H71.066H71.566V234.25H71.066ZM71.066 230.286H70.566V228.304H71.066H71.566V230.286H71.066ZM71.066 226.322H70.566V224.34H71.066H71.566V226.322H71.066ZM71.066 222.358H70.566V220.376H71.066H71.566V222.358H71.066ZM71.066 218.394H70.566V216.412H71.066H71.566V218.394H71.066ZM71.066 214.43H70.566V212.448H71.066H71.566V214.43H71.066ZM71.066 210.466H70.566V208.484H71.066H71.566V210.466H71.066ZM71.066 206.502H70.566V204.52H71.066H71.566V206.502H71.066ZM71.066 202.538H70.566V200.556H71.066H71.566V202.538H71.066ZM71.066 198.574H70.566V196.592H71.066H71.566V198.574H71.066ZM71.066 194.61H70.566V192.628H71.066H71.566V194.61H71.066ZM71.066 190.646H70.566V188.664H71.066H71.566V190.646H71.066ZM71.066 186.682H70.566V184.7H71.066H71.566V186.682H71.066ZM71.066 182.718H70.566V180.736H71.066H71.566V182.718H71.066ZM71.066 178.754H70.566V177.763H71.066H71.566V178.754H71.066ZM71.066 177.763H70.566C70.566 177.433 70.5788 177.106 70.6039 176.782L71.1024 176.82L71.6009 176.859C71.5778 177.157 71.566 177.459 71.566 177.763H71.066ZM71.395 174.96L70.9087 174.844C71.0625 174.201 71.2659 173.578 71.5147 172.978L71.9765 173.169L72.4384 173.361C72.2097 173.913 72.0227 174.486 71.8813 175.077L71.395 174.96ZM72.8327 171.492L72.4067 171.231C72.7502 170.671 73.1364 170.141 73.5608 169.645L73.9409 169.969L74.3209 170.294C73.9303 170.751 73.5748 171.239 73.2588 171.754L72.8327 171.492ZM75.2725 168.638L74.9476 168.258C75.4441 167.833 75.9743 167.447 76.5336 167.104L76.7953 167.53L77.0569 167.956C76.5423 168.272 76.0544 168.627 75.5974 169.018L75.2725 168.638ZM78.4725 166.673L78.281 166.212C78.8809 165.963 79.5043 165.759 80.1471 165.606L80.2634 166.092L80.3798 166.578C79.7888 166.72 79.2156 166.907 78.664 167.135L78.4725 166.673ZM82.1235 165.799L82.0848 165.301C82.4086 165.276 82.7359 165.263 83.066 165.263V165.763V166.263C82.7617 166.263 82.4604 166.275 82.1623 166.298L82.1235 165.799ZM83.066 165.763V165.263H84.0171V165.763V166.263H83.066V165.763ZM85.9195 165.763V165.263H87.8219V165.763V166.263H85.9195V165.763ZM89.7242 165.763V165.263H91.6266V165.763V166.263H89.7242V165.763ZM93.529 165.763V165.263H95.4313V165.763V166.263H93.529V165.763ZM97.3337 165.763V165.263H99.2361V165.763V166.263H97.3337V165.763ZM101.138 165.763V165.263H103.041V165.763V166.263H101.138V165.763ZM104.943 165.763V165.263H106.846V165.763V166.263H104.943V165.763ZM108.748 165.763V165.263H110.65V165.763V166.263H108.748V165.763ZM112.553 165.763V165.263H114.455V165.763V166.263H112.553V165.763ZM116.357 165.763V165.263H118.26V165.763V166.263H116.357V165.763ZM120.162 165.763V165.263H121.113V165.763V166.263H120.162V165.763Z" fill="white" fill-opacity="0.8"/>
</svg>
