<svg width="96" height="25" viewBox="0 0 96 25" fill="none" xmlns="http://www.w3.org/2000/svg">
<path d="M95.3536 4.85355C95.5488 4.65829 95.5488 4.34171 95.3536 4.14645L92.1716 0.964466C91.9763 0.769204 91.6597 0.769204 91.4645 0.964466C91.2692 1.15973 91.2692 1.47631 91.4645 1.67157L94.2929 4.5L91.4645 7.32843C91.2692 7.52369 91.2692 7.84027 91.4645 8.03553C91.6597 8.2308 91.9763 8.2308 92.1716 8.03553L95.3536 4.85355ZM21 4.5V5H21.9737V4.5V4H21V4.5ZM23.9211 4.5V5H25.8684V4.5V4H23.9211V4.5ZM27.8158 4.5V5H29.7632V4.5V4H27.8158V4.5ZM31.7105 4.5V5H33.6579V4.5V4H31.7105V4.5ZM35.6053 4.5V5H37.5526V4.5V4H35.6053V4.5ZM39.5 4.5V5H41.4474V4.5V4H39.5V4.5ZM43.3947 4.5V5H45.3421V4.5V4H43.3947V4.5ZM47.2895 4.5V5H49.2368V4.5V4H47.2895V4.5ZM51.1842 4.5V5H53.1316V4.5V4H51.1842V4.5ZM55.0789 4.5V5H57.0263V4.5V4H55.0789V4.5ZM58.9737 4.5V5H60.9211V4.5V4H58.9737V4.5ZM62.8684 4.5V5H64.8158V4.5V4H62.8684V4.5ZM66.7632 4.5V5H68.7105V4.5V4H66.7632V4.5ZM70.6579 4.5V5H72.6053V4.5V4H70.6579V4.5ZM74.5526 4.5V5H76.5V4.5V4H74.5526V4.5ZM78.4474 4.5V5H80.3947V4.5V4H78.4474V4.5ZM82.3421 4.5V5H84.2895V4.5V4H82.3421V4.5ZM86.2368 4.5V5H88.1842V4.5V4H86.2368V4.5ZM90.1316 4.5V5H92.0789V4.5V4H90.1316V4.5ZM94.0263 4.5V5H95V4.5V4H94.0263V4.5Z" fill="white" fill-opacity="0.6"/>
<path d="M0.646447 20.1464C0.451184 20.3417 0.451184 20.6583 0.646447 20.8536L3.82843 24.0355C4.02369 24.2308 4.34027 24.2308 4.53553 24.0355C4.7308 23.8403 4.7308 23.5237 4.53553 23.3284L1.70711 20.5L4.53553 17.6716C4.7308 17.4763 4.7308 17.1597 4.53553 16.9645C4.34027 16.7692 4.02369 16.7692 3.82843 16.9645L0.646447 20.1464ZM1 20.5V21H1.97368V20.5V20H1V20.5ZM3.92105 20.5V21H5.86842V20.5V20H3.92105V20.5ZM7.81579 20.5V21H9.76316V20.5V20H7.81579V20.5ZM11.7105 20.5V21H13.6579V20.5V20H11.7105V20.5ZM15.6053 20.5V21H17.5526V20.5V20H15.6053V20.5ZM19.5 20.5V21H21.4474V20.5V20H19.5V20.5ZM23.3947 20.5V21H25.3421V20.5V20H23.3947V20.5ZM27.2895 20.5V21H29.2368V20.5V20H27.2895V20.5ZM31.1842 20.5V21H33.1316V20.5V20H31.1842V20.5ZM35.0789 20.5V21H37.0263V20.5V20H35.0789V20.5ZM38.9737 20.5V21H40.9211V20.5V20H38.9737V20.5ZM42.8684 20.5V21H44.8158V20.5V20H42.8684V20.5ZM46.7632 20.5V21H48.7105V20.5V20H46.7632V20.5ZM50.6579 20.5V21H52.6053V20.5V20H50.6579V20.5ZM54.5526 20.5V21H56.5V20.5V20H54.5526V20.5ZM58.4474 20.5V21H60.3947V20.5V20H58.4474V20.5ZM62.3421 20.5V21H64.2895V20.5V20H62.3421V20.5ZM66.2368 20.5V21H68.1842V20.5V20H66.2368V20.5ZM70.1316 20.5V21H72.0789V20.5V20H70.1316V20.5ZM74.0263 20.5V21H75V20.5V20H74.0263V20.5Z" fill="white" fill-opacity="0.6"/>
</svg>
