<svg width="1272" height="750" viewBox="0 0 1272 750" fill="none" xmlns="http://www.w3.org/2000/svg">
<g clip-path="url(#clip0_2001_293)">
<rect width="1272" height="750" rx="24" fill="#00235B"/>
<path d="M1164 597C1262.31 597 1342 676.693 1342 775C1342 873.307 1262.31 953 1164 953C1065.69 953 986 873.307 986 775C986 676.693 1065.69 597 1164 597ZM269.5 597C350.962 597 417 663.038 417 744.5C417 825.962 350.962 892 269.5 892C253.382 892 237.87 889.412 223.352 884.634C206.295 911.879 176.014 930 141.5 930C88.2045 930 45 886.795 45 833.5C45 786.848 78.1044 747.929 122.104 738.95C125.022 660.06 189.896 597 269.5 597ZM125.963 778.597C102.009 785.362 84.4551 807.381 84.4551 833.5C84.4551 865.005 109.995 890.545 141.5 890.545C160.416 890.545 177.18 881.338 187.559 867.161C157.1 846.773 134.659 815.343 125.963 778.597ZM1164 669.776C1105.89 669.776 1058.78 716.887 1058.78 775C1058.78 833.113 1105.89 880.224 1164 880.224C1222.11 880.224 1269.22 833.113 1269.22 775C1269.22 716.887 1222.11 669.776 1164 669.776ZM269.5 657.307C221.344 657.307 182.307 696.344 182.307 744.5C182.307 745.012 182.312 745.523 182.32 746.033C212.983 760.368 234.863 790.351 237.688 825.707C247.544 829.571 258.274 831.693 269.5 831.693C317.656 831.693 356.693 792.656 356.693 744.5C356.693 696.344 317.656 657.307 269.5 657.307ZM571.5 340C655.601 340 727.484 392.303 756.401 466.154C789.432 473.418 819.024 489.854 842.369 512.657C847.399 445.735 903.291 393 971.5 393C1043.02 393 1101 450.979 1101 522.5C1101 594.021 1043.02 652 971.5 652C943.13 652 916.892 642.876 895.557 627.404C895.848 631.565 896 635.765 896 640C896 738.307 816.307 818 718 818C655.466 818 600.467 785.751 568.718 736.979C460.372 735.491 373 647.2 373 538.5C373 428.871 461.871 340 571.5 340ZM769.758 548.367C765.973 625.692 717.941 691.388 650.447 720.677C668.725 735.997 692.285 745.224 718 745.224C776.113 745.224 823.224 698.113 823.224 640C823.224 600.702 801.679 566.436 769.758 548.367ZM17 315C115.859 315 196 395.141 196 494C196 592.859 115.859 673 17 673C-81.859 673 -162 592.859 -162 494C-162 395.141 -81.859 315 17 315ZM571.5 421.158C506.694 421.158 454.158 473.694 454.158 538.5C454.158 592.53 490.677 638.029 540.377 651.667C540.127 647.81 540 643.92 540 640C540 559.611 593.292 491.67 666.474 469.574C645.143 440.234 610.55 421.158 571.5 421.158ZM688.839 538.871C644.911 551.515 612.776 592.004 612.776 640C612.776 642.778 612.885 645.53 613.097 648.254C657.261 631.507 688.684 588.87 688.839 538.871ZM17 388.186C-41.4396 388.186 -88.8145 435.56 -88.8145 494C-88.8145 552.44 -41.4396 599.814 17 599.814C75.4396 599.814 122.814 552.44 122.814 494C122.814 435.56 75.4396 388.186 17 388.186ZM971.5 445.947C929.221 445.947 894.947 480.221 894.947 522.5C894.947 564.779 929.221 599.053 971.5 599.053C1013.78 599.053 1048.05 564.779 1048.05 522.5C1048.05 480.221 1013.78 445.947 971.5 445.947ZM1260.5 234C1313.8 234 1357 277.205 1357 330.5C1357 383.795 1313.8 427 1260.5 427C1207.2 427 1164 383.795 1164 330.5C1164 277.205 1207.2 234 1260.5 234ZM1260.5 273.455C1228.99 273.455 1203.46 298.995 1203.46 330.5C1203.46 362.005 1228.99 387.545 1260.5 387.545C1292.01 387.545 1317.54 362.005 1317.54 330.5C1317.54 298.995 1292.01 273.455 1260.5 273.455Z" fill="#002869"/>
</g>
<defs>
<clipPath id="clip0_2001_293">
<rect width="1272" height="750" rx="24" fill="white"/>
</clipPath>
</defs>
</svg>
