<svg width="24" height="39" viewBox="0 0 24 39" fill="none" xmlns="http://www.w3.org/2000/svg">
<path d="M19.6464 38.3536C19.8417 38.5488 20.1583 38.5488 20.3536 38.3536L23.5355 35.1716C23.7308 34.9763 23.7308 34.6597 23.5355 34.4645C23.3403 34.2692 23.0237 34.2692 22.8284 34.4645L20 37.2929L17.1716 34.4645C16.9763 34.2692 16.6597 34.2692 16.4645 34.4645C16.2692 34.6597 16.2692 34.9763 16.4645 35.1716L19.6464 38.3536ZM20 6L19.5 6L19.5 7L20 7L20.5 7L20.5 6L20 6ZM20 9L19.5 9L19.5 11L20 11L20.5 11L20.5 9L20 9ZM20 13L19.5 13L19.5 15L20 15L20.5 15L20.5 13L20 13ZM20 17L19.5 17L19.5 19L20 19L20.5 19L20.5 17L20 17ZM20 21L19.5 21L19.5 23L20 23L20.5 23L20.5 21L20 21ZM20 25L19.5 25L19.5 27L20 27L20.5 27L20.5 25L20 25ZM20 29L19.5 29L19.5 31L20 31L20.5 31L20.5 29L20 29ZM20 33L19.5 33L19.5 35L20 35L20.5 35L20.5 33L20 33ZM20 37L19.5 37L19.5 38L20 38L20.5 38L20.5 37L20 37ZM19.6464 38.3536C19.8417 38.5488 20.1583 38.5488 20.3536 38.3536L23.5355 35.1716C23.7308 34.9763 23.7308 34.6597 23.5355 34.4645C23.3403 34.2692 23.0237 34.2692 22.8284 34.4645L20 37.2929L17.1716 34.4645C16.9763 34.2692 16.6597 34.2692 16.4645 34.4645C16.2692 34.6597 16.2692 34.9763 16.4645 35.1716L19.6464 38.3536ZM20 6L19.5 6L19.5 7L20 7L20.5 7L20.5 6L20 6ZM20 9L19.5 9L19.5 11L20 11L20.5 11L20.5 9L20 9ZM20 13L19.5 13L19.5 15L20 15L20.5 15L20.5 13L20 13ZM20 17L19.5 17L19.5 19L20 19L20.5 19L20.5 17L20 17ZM20 21L19.5 21L19.5 23L20 23L20.5 23L20.5 21L20 21ZM20 25L19.5 25L19.5 27L20 27L20.5 27L20.5 25L20 25ZM20 29L19.5 29L19.5 31L20 31L20.5 31L20.5 29L20 29ZM20 33L19.5 33L19.5 35L20 35L20.5 35L20.5 33L20 33ZM20 37L19.5 37L19.5 38L20 38L20.5 38L20.5 37L20 37Z" fill="white" fill-opacity="0.8"/>
<path d="M4.35355 0.646447C4.15829 0.451184 3.84171 0.451184 3.64645 0.646447L0.464466 3.82843C0.269204 4.02369 0.269204 4.34027 0.464466 4.53553C0.659728 4.7308 0.976311 4.7308 1.17157 4.53553L4 1.70711L6.82843 4.53553C7.02369 4.7308 7.34027 4.7308 7.53553 4.53553C7.7308 4.34027 7.7308 4.02369 7.53553 3.82843L4.35355 0.646447ZM4 1L3.5 1L3.5 2L4 2L4.5 2L4.5 1L4 1ZM4 4L3.5 4L3.5 6L4 6L4.5 6L4.5 4L4 4ZM4 8L3.5 8L3.5 10L4 10L4.5 10L4.5 8L4 8ZM4 12L3.5 12L3.5 14L4 14L4.5 14L4.5 12L4 12ZM4 16L3.5 16L3.5 18L4 18L4.5 18L4.5 16L4 16ZM4 20L3.5 20L3.5 22L4 22L4.5 22L4.5 20L4 20ZM4 24L3.5 24L3.5 26L4 26L4.5 26L4.5 24L4 24ZM4 28L3.5 28L3.5 30L4 30L4.5 30L4.5 28L4 28ZM4 32L3.5 32L3.5 33L4 33L4.5 33L4.5 32L4 32ZM4.35355 0.646447C4.15829 0.451184 3.84171 0.451184 3.64645 0.646447L0.464466 3.82843C0.269204 4.02369 0.269204 4.34027 0.464466 4.53553C0.659728 4.7308 0.976311 4.7308 1.17157 4.53553L4 1.70711L6.82843 4.53553C7.02369 4.7308 7.34027 4.7308 7.53553 4.53553C7.7308 4.34027 7.7308 4.02369 7.53553 3.82843L4.35355 0.646447ZM4 1L3.5 1L3.5 2L4 2L4.5 2L4.5 1L4 1ZM4 4L3.5 4L3.5 6L4 6L4.5 6L4.5 4L4 4ZM4 8L3.5 8L3.5 10L4 10L4.5 10L4.5 8L4 8ZM4 12L3.5 12L3.5 14L4 14L4.5 14L4.5 12L4 12ZM4 16L3.5 16L3.5 18L4 18L4.5 18L4.5 16L4 16ZM4 20L3.5 20L3.5 22L4 22L4.5 22L4.5 20L4 20ZM4 24L3.5 24L3.5 26L4 26L4.5 26L4.5 24L4 24ZM4 28L3.5 28L3.5 30L4 30L4.5 30L4.5 28L4 28ZM4 32L3.5 32L3.5 33L4 33L4.5 33L4.5 32L4 32Z" fill="white" fill-opacity="0.8"/>
</svg>
