<svg width="1272" height="309" viewBox="0 0 1272 309" fill="none" xmlns="http://www.w3.org/2000/svg">
<path d="M1164 -47C1262.31 -47 1342 32.6933 1342 131C1342 229.307 1262.31 309 1164 309C1065.69 309 986 229.307 986 131C986 32.6933 1065.69 -47 1164 -47ZM269.5 -47C350.962 -47 417 19.038 417 100.5C417 181.962 350.962 248 269.5 248C253.382 248 237.87 245.412 223.352 240.634C206.295 267.879 176.014 286 141.5 286C88.2045 286 45 242.795 45 189.5C45 142.848 78.1044 103.929 122.104 94.9502C125.022 16.0597 189.896 -47 269.5 -47ZM125.963 134.597C102.009 141.362 84.4551 163.381 84.4551 189.5C84.4551 221.005 109.995 246.545 141.5 246.545C160.416 246.545 177.18 237.338 187.559 223.161C157.1 202.773 134.659 171.343 125.963 134.597ZM1164 25.7764C1105.89 25.7764 1058.78 72.8868 1058.78 131C1058.78 189.113 1105.89 236.224 1164 236.224C1222.11 236.224 1269.22 189.113 1269.22 131C1269.22 72.8868 1222.11 25.7764 1164 25.7764ZM269.5 13.3066C221.344 13.3066 182.307 52.3445 182.307 100.5C182.307 101.012 182.312 101.523 182.32 102.033C212.983 116.368 234.863 146.351 237.688 181.707C247.544 185.571 258.274 187.693 269.5 187.693C317.656 187.693 356.693 148.656 356.693 100.5C356.693 52.3445 317.656 13.3066 269.5 13.3066ZM571.5 -304C655.601 -304 727.484 -251.697 756.401 -177.846C789.432 -170.582 819.024 -154.146 842.369 -131.343C847.399 -198.265 903.291 -251 971.5 -251C1043.02 -251 1101 -193.021 1101 -121.5C1101 -49.9791 1043.02 8 971.5 8C943.13 8 916.892 -1.12381 895.557 -16.5957C895.848 -12.4348 896 -8.23483 896 -4C896 94.3067 816.307 174 718 174C655.466 174 600.467 141.751 568.718 92.9795C460.372 91.491 373 3.19962 373 -105.5C373 -215.129 461.871 -304 571.5 -304ZM769.758 -95.6328C765.973 -18.3079 717.941 47.3877 650.447 76.6768C668.725 91.9974 692.285 101.224 718 101.224C776.113 101.224 823.224 54.1131 823.224 -4C823.224 -43.2985 801.679 -77.5637 769.758 -95.6328ZM17 -329C115.859 -329 196 -248.859 196 -150C196 -51.141 115.859 29 17 29C-81.859 29 -162 -51.141 -162 -150C-162 -248.859 -81.859 -329 17 -329ZM571.5 -222.842C506.694 -222.842 454.158 -170.306 454.158 -105.5C454.158 -51.4695 490.677 -5.97055 540.377 7.66699C540.127 3.81015 540 -0.0801086 540 -4C540 -84.3894 593.292 -152.33 666.474 -174.426C645.143 -203.766 610.55 -222.842 571.5 -222.842ZM688.839 -105.129C644.911 -92.485 612.776 -51.9957 612.776 -4C612.776 -1.22223 612.885 1.53036 613.097 4.25391C657.261 -12.4933 688.684 -55.1305 688.839 -105.129ZM17 -255.814C-41.4396 -255.814 -88.8145 -208.44 -88.8145 -150C-88.8145 -91.5604 -41.4396 -44.1855 17 -44.1855C75.4396 -44.1855 122.814 -91.5604 122.814 -150C122.814 -208.44 75.4396 -255.814 17 -255.814ZM971.5 -198.053C929.221 -198.053 894.947 -163.779 894.947 -121.5C894.947 -79.221 929.221 -44.9473 971.5 -44.9473C1013.78 -44.9473 1048.05 -79.221 1048.05 -121.5C1048.05 -163.779 1013.78 -198.053 971.5 -198.053ZM1260.5 -410C1313.8 -410 1357 -366.795 1357 -313.5C1357 -260.205 1313.8 -217 1260.5 -217C1207.2 -217 1164 -260.205 1164 -313.5C1164 -366.795 1207.2 -410 1260.5 -410ZM1260.5 -370.545C1228.99 -370.545 1203.46 -345.005 1203.46 -313.5C1203.46 -281.995 1228.99 -256.455 1260.5 -256.455C1292.01 -256.455 1317.54 -281.995 1317.54 -313.5C1317.54 -345.005 1292.01 -370.545 1260.5 -370.545Z" fill="#002869"/>
</svg>
