<svg width="1272" height="516" viewBox="0 0 1272 516" fill="none" xmlns="http://www.w3.org/2000/svg">
<path d="M1164 363C1262.31 363 1342 442.693 1342 541C1342 639.307 1262.31 719 1164 719C1065.69 719 986 639.307 986 541C986 442.693 1065.69 363 1164 363ZM269.5 363C350.962 363 417 429.038 417 510.5C417 591.962 350.962 658 269.5 658C253.382 658 237.87 655.412 223.352 650.634C206.295 677.879 176.014 696 141.5 696C88.2045 696 45 652.795 45 599.5C45 552.848 78.1044 513.929 122.104 504.95C125.022 426.06 189.896 363 269.5 363ZM125.963 544.597C102.009 551.362 84.4551 573.381 84.4551 599.5C84.4551 631.005 109.995 656.545 141.5 656.545C160.416 656.545 177.18 647.338 187.559 633.161C157.1 612.773 134.659 581.343 125.963 544.597ZM1164 435.776C1105.89 435.776 1058.78 482.887 1058.78 541C1058.78 599.113 1105.89 646.224 1164 646.224C1222.11 646.224 1269.22 599.113 1269.22 541C1269.22 482.887 1222.11 435.776 1164 435.776ZM269.5 423.307C221.344 423.307 182.307 462.344 182.307 510.5C182.307 511.012 182.312 511.523 182.32 512.033C212.983 526.368 234.863 556.351 237.688 591.707C247.544 595.571 258.274 597.693 269.5 597.693C317.656 597.693 356.693 558.656 356.693 510.5C356.693 462.344 317.656 423.307 269.5 423.307ZM571.5 106C655.601 106 727.484 158.303 756.401 232.154C789.432 239.418 819.024 255.854 842.369 278.657C847.399 211.735 903.291 159 971.5 159C1043.02 159 1101 216.979 1101 288.5C1101 360.021 1043.02 418 971.5 418C943.13 418 916.892 408.876 895.557 393.404C895.848 397.565 896 401.765 896 406C896 504.307 816.307 584 718 584C655.466 584 600.467 551.751 568.718 502.979C460.372 501.491 373 413.2 373 304.5C373 194.871 461.871 106 571.5 106ZM769.758 314.367C765.973 391.692 717.941 457.388 650.447 486.677C668.725 501.997 692.285 511.224 718 511.224C776.113 511.224 823.224 464.113 823.224 406C823.224 366.702 801.679 332.436 769.758 314.367ZM17 81C115.859 81 196 161.141 196 260C196 358.859 115.859 439 17 439C-81.859 439 -162 358.859 -162 260C-162 161.141 -81.859 81 17 81ZM571.5 187.158C506.694 187.158 454.158 239.694 454.158 304.5C454.158 358.53 490.677 404.029 540.377 417.667C540.127 413.81 540 409.92 540 406C540 325.611 593.292 257.67 666.474 235.574C645.143 206.234 610.55 187.158 571.5 187.158ZM688.839 304.871C644.911 317.515 612.776 358.004 612.776 406C612.776 408.778 612.885 411.53 613.097 414.254C657.261 397.507 688.684 354.87 688.839 304.871ZM17 154.186C-41.4396 154.186 -88.8145 201.56 -88.8145 260C-88.8145 318.44 -41.4396 365.814 17 365.814C75.4396 365.814 122.814 318.44 122.814 260C122.814 201.56 75.4396 154.186 17 154.186ZM971.5 211.947C929.221 211.947 894.947 246.221 894.947 288.5C894.947 330.779 929.221 365.053 971.5 365.053C1013.78 365.053 1048.05 330.779 1048.05 288.5C1048.05 246.221 1013.78 211.947 971.5 211.947ZM1260.5 0C1313.8 6.20106e-07 1357 43.2045 1357 96.5C1357 149.795 1313.8 193 1260.5 193C1207.2 193 1164 149.795 1164 96.5C1164 43.2045 1207.2 0 1260.5 0ZM1260.5 39.4551C1228.99 39.4551 1203.46 64.9948 1203.46 96.5C1203.46 128.005 1228.99 153.545 1260.5 153.545C1292.01 153.545 1317.54 128.005 1317.54 96.5C1317.54 64.9948 1292.01 39.4551 1260.5 39.4551Z" fill="#002869"/>
</svg>
