<svg width="1367" height="684" viewBox="0 0 1367 684" fill="none" xmlns="http://www.w3.org/2000/svg">
<g clip-path="url(#clip0_97_6451)">
<rect x="1" width="1366" height="732" rx="40" fill="#F1F3F7"/>
<path opacity="0.4" d="M703.828 916C703.828 710.645 537.355 544.172 332 544.172C126.645 544.172 -39.8279 710.645 -39.8279 916C-39.8279 1121.35 126.645 1287.83 332 1287.83V1545C-15.3871 1545 -297 1263.39 -297 916C-297 568.613 -15.3871 287 332 287C679.387 287 961 568.613 961 916C961 1263.39 679.387 1545 332 1545V1287.83C537.355 1287.83 703.828 1121.35 703.828 916Z" fill="#D7DDE9"/>
<path opacity="0.4" d="M1424.99 476.5C1424.99 387.861 1353.14 316.005 1264.5 316.005C1175.86 316.005 1104.01 387.861 1104.01 476.5C1104.01 565.139 1175.86 636.995 1264.5 636.995V748C1114.55 748 993 626.445 993 476.5C993 326.555 1114.55 205 1264.5 205C1414.45 205 1536 326.555 1536 476.5C1536 626.445 1414.45 748 1264.5 748V636.995C1353.14 636.995 1424.99 565.139 1424.99 476.5Z" fill="#D7DDE9"/>
</g>
<defs>
<clipPath id="clip0_97_6451">
<rect width="1367" height="684" rx="40" fill="white"/>
</clipPath>
</defs>
</svg>
