<svg width="40" height="40" viewBox="0 0 40 40" fill="none" xmlns="http://www.w3.org/2000/svg">
<path d="M20 0C8.9543 0 0 8.9543 0 20C0 28.8366 5.7305 36.3344 13.6797 38.9789C14.6797 39.1633 15.0469 38.5453 15.0469 38.0156C15.0469 37.5398 15.0289 35.9789 15.0203 34.3219C9.45625 35.5305 8.28125 31.9633 8.28125 31.9633C7.36875 29.6453 6.05625 29.0312 6.05625 29.0312C4.24062 27.7906 6.19375 27.8156 6.19375 27.8156C8.20313 27.957 9.26094 29.8789 9.26094 29.8789C11.0469 32.9398 13.9469 32.0555 15.0844 31.5437C15.2625 30.2547 15.7797 29.3719 16.35 28.8719C11.9078 28.3656 7.23437 26.6516 7.23437 18.9844C7.23437 16.7984 8.01562 15.0125 9.29844 13.6109C9.09063 13.1031 8.40625 11.0648 9.49219 8.30156C9.49219 8.30156 11.175 7.76406 15.0 10.3531C16.6 9.91094 18.3 9.69062 20 9.68281C21.7 9.69062 23.4 9.91094 25.0031 10.3531C28.825 7.76406 30.5047 8.30156 30.5047 8.30156C31.5938 11.0648 30.9094 13.1031 30.7016 13.6109C31.9875 15.0125 32.7641 16.7984 32.7641 18.9844C32.7641 26.6703 28.0813 28.3609 23.6266 28.8562C24.3422 29.475 24.9797 30.6906 24.9797 32.5547C24.9797 35.225 24.9563 37.3578 24.9563 38.0156C24.9563 38.5492 25.3172 39.1719 26.3313 38.975C34.275 36.3289 40 28.8344 40 20C40 8.9543 31.0457 0 20 0Z" fill="#136EFF"/>
</svg>
