<svg width="141" height="68" viewBox="0 0 141 68" fill="none" xmlns="http://www.w3.org/2000/svg">
<path d="M67.5381 1C58.7935 1 50.9581 5.81107 46.9854 13.4336L46.6172 14.1387L45.8467 13.9385C44.5387 13.5988 43.1947 13.4268 41.8291 13.4268C36.4481 13.4268 31.5191 16.0826 28.5771 20.46L28.2256 20.9814L27.6035 20.8916C26.477 20.7291 25.3363 20.6484 24.1934 20.6484C11.4049 20.6484 1 31.0427 1 43.8154C1.00023 56.5987 11.4058 67 24.1934 67H99.457C114.091 67 126 55.0933 126 40.4639C126 25.8219 114.09 13.9082 99.457 13.9082C96.2792 13.9082 93.0974 14.4916 90.1279 15.6074L89.2334 15.9434L88.8564 15.0664C85.249 6.66609 76.8305 1.00019 67.5381 1Z" stroke="white" stroke-opacity="0.2" stroke-width="2"/>
<path d="M112.616 35.7217C114.81 37.8241 117.742 39 120.792 39C123.844 39 126.775 37.8241 128.97 35.7217C128.998 35.7005 129.024 35.677 129.05 35.6511C129.069 35.6323 129.088 35.6111 129.105 35.59C131.332 33.3982 132.583 30.4138 132.583 27.298C132.583 24.1843 131.332 21.1999 129.105 19.0078C129.088 18.9867 129.069 18.9655 129.05 18.9467C129.024 18.9208 128.998 18.8973 128.97 18.8762C126.775 16.7737 123.844 15.5978 120.792 15.5978C117.742 15.5978 114.808 16.7737 112.614 18.8762C112.585 18.8973 112.559 18.9208 112.533 18.9467C112.514 18.9655 112.495 18.9867 112.479 19.0078C110.251 21.1997 109 24.1864 109 27.2998C109 30.4135 110.251 33.3979 112.479 35.59C112.495 35.6111 112.514 35.63 112.533 35.6511C112.559 35.677 112.585 35.7005 112.616 35.7217ZM113.113 20.5297C114.083 21.3575 115.18 22.023 116.362 22.5004C116.13 23.8362 115.997 25.1884 115.964 26.5454H110.545C110.71 24.3136 111.613 22.1994 113.113 20.5297ZM131.041 26.5454H125.616C125.583 25.1885 125.451 23.8362 125.218 22.5004C126.403 22.023 127.5 21.3575 128.47 20.5297C129.97 22.1994 130.873 24.3136 131.038 26.5454H131.041ZM128.47 34.0686C127.5 33.2408 126.403 32.5752 125.221 32.0978C125.453 30.7597 125.586 29.4074 125.619 28.0505H131.041C130.875 30.2823 129.97 32.3989 128.47 34.0686ZM118.109 33.1043C119.865 32.634 121.718 32.634 123.474 33.1043C122.789 35.9029 121.678 37.4951 120.792 37.4951C119.905 37.4951 118.794 35.9053 118.109 33.1043ZM118.083 37.1352C116.661 36.7472 115.341 36.0604 114.208 35.1221C114.957 34.4989 115.791 33.9886 116.685 33.6006C116.967 34.8423 117.438 36.0346 118.083 37.1352ZM124.102 28.0504H124.1C124.074 29.2474 123.965 30.4421 123.775 31.625C121.818 31.1217 119.766 31.1217 117.808 31.625C117.619 30.4421 117.51 29.2474 117.483 28.0504H124.102ZM117.486 26.5452H117.484C117.51 25.3482 117.619 24.1535 117.808 22.9729C119.766 23.4762 121.818 23.4762 123.775 22.9729C123.965 24.1535 124.074 25.3482 124.1 26.5452H117.486ZM124.899 33.6006C125.792 33.9886 126.626 34.5013 127.375 35.1222C126.242 36.0629 124.922 36.7496 123.501 37.1353C124.145 36.0347 124.617 34.8423 124.899 33.6006ZM124.899 20.9974C124.617 19.7557 124.145 18.5633 123.501 17.4627C124.923 17.8484 126.242 18.5327 127.375 19.4734C126.626 20.0943 125.792 20.6094 124.899 20.9974ZM123.475 21.4913C121.719 21.964 119.865 21.964 118.109 21.4913C118.794 18.6904 119.906 17.1005 120.792 17.1005C121.678 17.1005 122.79 18.6903 123.475 21.4913ZM116.685 20.9974C115.792 20.6094 114.958 20.0943 114.209 19.4735C115.339 18.5328 116.662 17.8461 118.084 17.4604C117.439 18.561 116.967 19.7533 116.685 20.9974ZM115.967 28.0504C116.001 29.4073 116.133 30.7596 116.365 32.0977C115.181 32.5751 114.083 33.2407 113.114 34.0685C111.614 32.3988 110.711 30.2821 110.545 28.0504H115.967ZM131.515 11.6091C131.594 11.2023 131.992 10.9341 132.402 11.0141C135.16 11.5409 137.596 13.1354 139.172 15.4425C140.75 17.7518 141.338 20.5857 140.812 23.3256C140.743 23.6807 140.43 23.9347 140.068 23.9371C140.02 23.9371 139.971 23.9324 139.923 23.923C139.513 23.843 139.243 23.4503 139.324 23.0411C139.774 20.6941 139.269 18.2647 137.918 16.2867C136.568 14.3066 134.48 12.9426 132.115 12.4887C131.705 12.4111 131.437 12.0183 131.515 11.6091ZM130.897 14.8004C130.975 14.3936 131.373 14.1255 131.786 14.2031C135.757 14.9603 138.359 18.7701 137.596 22.7118C137.53 23.0669 137.217 23.3256 136.852 23.3256C136.802 23.3256 136.755 23.3209 136.708 23.3115C136.298 23.2339 136.027 22.8388 136.106 22.4319C136.397 20.9292 136.077 19.3747 135.212 18.1071C134.347 16.8418 133.013 15.967 131.499 15.6801C131.086 15.6002 130.819 15.2072 130.897 14.8004ZM130.281 17.9917C130.319 17.7966 130.433 17.6225 130.598 17.512C130.764 17.3991 130.97 17.3568 131.167 17.3944C132.224 17.5967 133.155 18.2058 133.757 19.0877C134.362 19.9719 134.587 21.056 134.383 22.1026C134.314 22.4577 134.001 22.714 133.639 22.714C133.591 22.714 133.542 22.7093 133.494 22.6999C133.084 22.6223 132.814 22.2272 132.892 21.8204C133.02 21.1643 132.88 20.4846 132.504 19.9319C132.127 19.3769 131.542 18.9959 130.88 18.8713C130.684 18.8337 130.508 18.7185 130.397 18.5538C130.283 18.3869 130.24 18.1846 130.281 17.9871L130.281 17.9917Z" fill="white"/>
<path fill-rule="evenodd" clip-rule="evenodd" d="M28.5 30C30.0855 30 31.4242 31.0543 31.8545 32.5H41C42.6569 32.5 44 33.8431 44 35.5V39.5C44 40.0523 43.5523 40.5 43 40.5C42.4477 40.5 42 40.0523 42 39.5V35.5C42 34.9477 41.5523 34.5 41 34.5H31.8545C31.4242 35.9457 30.0855 37 28.5 37C26.567 37 25 35.433 25 33.5C25 31.567 26.567 30 28.5 30ZM28.5 32C27.6716 32 27 32.6716 27 33.5C27 34.3284 27.6716 35 28.5 35C29.3284 35 30 34.3284 30 33.5C30 32.6716 29.3284 32 28.5 32Z" fill="#136EFF"/>
<path fill-rule="evenodd" clip-rule="evenodd" d="M23 45.5C23.5523 45.5 24 45.9477 24 46.5V50.5C24 51.0523 24.4477 51.5 25 51.5H34.1455C34.5758 50.0543 35.9145 49 37.5 49C39.433 49 41 50.567 41 52.5C41 54.433 39.433 56 37.5 56C35.9145 56 34.5758 54.9457 34.1455 53.5H25C23.3431 53.5 22 52.1569 22 50.5V46.5C22 45.9477 22.4477 45.5 23 45.5ZM37.5 51C36.6716 51 36 51.6716 36 52.5C36 53.3284 36.6716 54 37.5 54C38.3284 54 39 53.3284 39 52.5C39 51.6716 38.3284 51 37.5 51Z" fill="#136EFF"/>
<path fill-rule="evenodd" clip-rule="evenodd" d="M20.5 37C22.0855 37 23.4242 38.0543 23.8545 39.5H31C32.6569 39.5 34 40.8431 34 42.5V43.5C34 44.0523 34.4477 44.5 35 44.5H42.1455C42.5758 43.0543 43.9145 42 45.5 42C47.433 42 49 43.567 49 45.5C49 47.433 47.433 49 45.5 49C43.9145 49 42.5758 47.9457 42.1455 46.5H35C33.3431 46.5 32 45.1569 32 43.5V42.5C32 41.9477 31.5523 41.5 31 41.5H23.8545C23.4242 42.9457 22.0855 44 20.5 44C18.567 44 17 42.433 17 40.5C17 38.567 18.567 37 20.5 37ZM45.5 44C44.6716 44 44 44.6716 44 45.5C44 46.3284 44.6716 47 45.5 47C46.3284 47 47 46.3284 47 45.5C47 44.6716 46.3284 44 45.5 44ZM20.5 39C19.6716 39 19 39.6716 19 40.5C19 41.3284 19.6716 42 20.5 42C21.3284 42 22 41.3284 22 40.5C22 39.6716 21.3284 39 20.5 39Z" fill="#FC9433"/>
<path d="M59.068 49.5L55.684 36.72H57.754L60.238 46.818L62.722 36.72H64.702L67.186 46.818L69.652 36.72H71.758L68.356 49.5H66.088L63.712 40.176L61.336 49.5H59.068ZM73.7085 49.5V36.72H78.2985C79.8345 36.72 80.9925 36.996 81.7725 37.548C82.5525 38.1 82.9425 38.976 82.9425 40.176C82.9425 40.716 82.8285 41.19 82.6005 41.598C82.3725 42.006 82.0365 42.33 81.5925 42.57C81.1605 42.798 80.6445 42.918 80.0445 42.93L80.0265 42.858C81.1185 42.882 81.9645 43.182 82.5645 43.758C83.1765 44.322 83.4825 45.066 83.4825 45.99C83.4825 47.154 83.0925 48.03 82.3125 48.618C81.5325 49.206 80.4225 49.5 78.9825 49.5H73.7085ZM75.6525 47.754H78.9285C79.7325 47.754 80.3565 47.592 80.8005 47.268C81.2565 46.932 81.4845 46.446 81.4845 45.81C81.4845 45.186 81.2565 44.7 80.8005 44.352C80.3565 44.004 79.7325 43.83 78.9285 43.83H75.6525V47.754ZM75.6525 42.174H78.2625C79.1145 42.174 79.7745 42.012 80.2425 41.688C80.7105 41.364 80.9445 40.908 80.9445 40.32C80.9445 39.696 80.7165 39.234 80.2605 38.934C79.8165 38.622 79.1505 38.466 78.2625 38.466H75.6525V42.174ZM85.075 49.5C85.075 48.54 85.219 47.682 85.507 46.926C85.795 46.17 86.287 45.468 86.983 44.82C87.679 44.172 88.639 43.524 89.863 42.876C90.451 42.576 90.919 42.3 91.267 42.048C91.627 41.784 91.885 41.514 92.041 41.238C92.197 40.962 92.275 40.626 92.275 40.23C92.275 39.822 92.185 39.474 92.005 39.186C91.837 38.886 91.585 38.652 91.249 38.484C90.913 38.304 90.487 38.214 89.971 38.214C89.155 38.214 88.507 38.436 88.027 38.88C87.559 39.312 87.265 39.936 87.145 40.752L85.129 40.626C85.273 39.342 85.759 38.322 86.587 37.566C87.427 36.81 88.555 36.432 89.971 36.432C90.883 36.432 91.657 36.594 92.293 36.918C92.941 37.23 93.433 37.668 93.769 38.232C94.117 38.796 94.291 39.45 94.291 40.194C94.291 40.842 94.183 41.4 93.967 41.868C93.751 42.336 93.391 42.774 92.887 43.182C92.383 43.578 91.699 44.004 90.835 44.46C89.731 45.048 88.897 45.63 88.333 46.206C87.769 46.77 87.469 47.274 87.433 47.718H94.291V49.5H85.075ZM101.319 49.5V46.836H94.8755V45.18L101.085 36.72H103.263V45.072H104.829V46.836H103.263V49.5H101.319ZM97.0895 45.072H101.319V39.42L97.0895 45.072Z" fill="white"/>
</svg>
