<svg width="75" height="56" viewBox="0 0 75 56" fill="none" xmlns="http://www.w3.org/2000/svg">
<path d="M70.0156 0C72.4281 0.000159037 74.3894 1.9616 74.3896 4.37402C74.3829 4.5153 74.3899 36.1472 74.4033 36.2549V40.0127C74.4033 42.432 72.4382 44.4012 70.0156 44.4014H49.5938V45.5918C49.5938 46.507 49.7549 47.426 50.0645 48.2402L52.2344 53.9775H60.3818C60.9402 53.9778 61.3906 54.4289 61.3906 54.9873C61.3906 55.5457 60.9402 55.9968 60.3818 55.9971H3.02246V56C1.68661 56 0.596703 54.9164 0.59668 53.5771V21.5293C0.59668 20.1934 1.68324 19.1026 3.02246 19.1025H6.28613V11.458C6.28613 9.88336 7.56507 8.60473 9.13965 8.60449H11.0244V4.3916C11.0244 1.97233 12.986 0.0031816 15.3984 0.00292969L70.0156 0ZM9.13965 10.6201C8.67875 10.6202 8.30573 10.9966 8.30566 11.4541H8.30859V19.0986H19.3125C20.6482 19.0989 21.7383 20.1863 21.7383 21.5254C21.6879 22.1067 21.8223 53.3719 21.7012 53.9775H36.0029C36.4638 53.9774 36.8369 53.6031 36.8369 53.1455V11.4541C36.8369 10.9932 36.4604 10.6203 36.0029 10.6201H9.13965ZM38.8525 44.4014C38.8088 44.7451 38.9698 53.9574 38.7275 53.9775H50.0742L48.1768 48.957L48.1797 48.9541C47.6144 47.5711 47.5338 45.9122 47.5742 44.4014H38.8525ZM3.02246 21.1182C2.80037 21.1182 2.61523 21.3033 2.61523 21.5254V53.5732C2.61525 53.7953 2.80038 53.9766 3.02246 53.9766H19.3086C19.5306 53.9765 19.7158 53.7953 19.7158 53.5732V21.5254C19.7158 21.3033 19.5306 21.1182 19.3086 21.1182H3.02246ZM12.124 46.583C12.6824 46.5831 13.1336 47.0335 13.1338 47.5918C13.1338 48.1503 12.6825 48.6015 12.124 48.6016H10.2021C8.86997 48.5676 8.86997 46.6169 10.2021 46.583H12.124ZM38.8525 42.3818H70.0117L70.0156 42.3789C71.3212 42.3789 72.3848 41.3153 72.3848 40.0098V37.2471H38.8525V42.3818ZM43.2578 38.5596C44.5898 38.5937 44.5898 40.544 43.2578 40.5781H42.1533C40.8213 40.5441 40.8213 38.5936 42.1533 38.5596H43.2578ZM15.3984 2.02246C14.0997 2.02257 13.043 3.08608 13.043 4.3916V8.60352H20.1943C20.1843 8.09994 20.5163 7.58942 21.1924 7.57227H23.9453C24.5037 7.57239 24.9539 8.0227 24.9541 8.58105C24.9541 8.58846 24.9533 8.59615 24.9531 8.60352H36.002C37.5767 8.60352 38.8555 9.88224 38.8555 11.457V35.2344H72.3701V4.37793C72.3701 3.07906 71.3135 2.02246 70.0146 2.02246H15.3984Z" fill="white"/>
</svg>
