<svg width="186" height="52" viewBox="0 0 186 52" fill="none" xmlns="http://www.w3.org/2000/svg">
<path fill-rule="evenodd" clip-rule="evenodd" d="M23 0C26.1709 0 28.8483 2.10867 29.709 5H48C51.3137 5 54 7.68629 54 11V19C54 20.1046 53.1046 21 52 21C50.8954 21 50 20.1046 50 19V11C50 9.89543 49.1046 9 48 9H29.709C28.8483 11.8913 26.1709 14 23 14C19.134 14 16 10.866 16 7C16 3.13401 19.134 0 23 0ZM23 4C21.3431 4 20 5.34315 20 7C20 8.65685 21.3431 10 23 10C24.6569 10 26 8.65685 26 7C26 5.34315 24.6569 4 23 4Z" fill="#136EFF"/>
<path fill-rule="evenodd" clip-rule="evenodd" d="M12 31C13.1046 31 14 31.8954 14 33V41C14 42.1046 14.8954 43 16 43H34.291C35.1517 40.1087 37.8291 38 41 38C44.866 38 48 41.134 48 45C48 48.866 44.866 52 41 52C37.8291 52 35.1517 49.8913 34.291 47H16C12.6863 47 10 44.3137 10 41V33C10 31.8954 10.8954 31 12 31ZM41 42C39.3431 42 38 43.3431 38 45C38 46.6569 39.3431 48 41 48C42.6569 48 44 46.6569 44 45C44 43.3431 42.6569 42 41 42Z" fill="#136EFF"/>
<path fill-rule="evenodd" clip-rule="evenodd" d="M7 14C10.1709 14 12.8483 16.1087 13.709 19H28C31.3137 19 34 21.6863 34 25V27C34 28.1046 34.8954 29 36 29H50.291C51.1517 26.1087 53.8291 24 57 24C60.866 24 64 27.134 64 31C64 34.866 60.866 38 57 38C53.8291 38 51.1517 35.8913 50.291 33H36C32.6863 33 30 30.3137 30 27V25C30 23.8954 29.1046 23 28 23H13.709C12.8483 25.8913 10.1709 28 7 28C3.13401 28 0 24.866 0 21C0 17.134 3.13401 14 7 14ZM57 28C55.3431 28 54 29.3431 54 31C54 32.6569 55.3431 34 57 34C58.6569 34 60 32.6569 60 31C60 29.3431 58.6569 28 57 28ZM7 18C5.34315 18 4 19.3431 4 21C4 22.6569 5.34315 24 7 24C8.65685 24 10 22.6569 10 21C10 19.3431 8.65685 18 7 18Z" fill="#FC9433"/>
<path d="M92.136 38.5L85.368 12.94H89.508L94.476 33.136L99.444 12.94H103.404L108.372 33.136L113.304 12.94H117.516L110.712 38.5H106.176L101.424 19.852L96.672 38.5H92.136ZM121.417 38.5V12.94H130.597C133.669 12.94 135.985 13.492 137.545 14.596C139.105 15.7 139.885 17.452 139.885 19.852C139.885 20.932 139.657 21.88 139.201 22.696C138.745 23.512 138.073 24.16 137.185 24.64C136.321 25.096 135.289 25.336 134.089 25.36L134.053 25.216C136.237 25.264 137.929 25.864 139.129 27.016C140.353 28.144 140.965 29.632 140.965 31.48C140.965 33.808 140.185 35.56 138.625 36.736C137.065 37.912 134.845 38.5 131.965 38.5H121.417ZM125.305 35.008H131.857C133.465 35.008 134.713 34.684 135.601 34.036C136.513 33.364 136.969 32.392 136.969 31.12C136.969 29.872 136.513 28.9 135.601 28.204C134.713 27.508 133.465 27.16 131.857 27.16H125.305V35.008ZM125.305 23.848H130.525C132.229 23.848 133.549 23.524 134.485 22.876C135.421 22.228 135.889 21.316 135.889 20.14C135.889 18.892 135.433 17.968 134.521 17.368C133.633 16.744 132.301 16.432 130.525 16.432H125.305V23.848ZM144.15 38.5C144.15 36.58 144.438 34.864 145.014 33.352C145.59 31.84 146.574 30.436 147.966 29.14C149.358 27.844 151.278 26.548 153.726 25.252C154.902 24.652 155.838 24.1 156.534 23.596C157.254 23.068 157.77 22.528 158.082 21.976C158.394 21.424 158.55 20.752 158.55 19.96C158.55 19.144 158.37 18.448 158.01 17.872C157.674 17.272 157.17 16.804 156.498 16.468C155.826 16.108 154.974 15.928 153.942 15.928C152.31 15.928 151.014 16.372 150.054 17.26C149.118 18.124 148.53 19.372 148.29 21.004L144.258 20.752C144.546 18.184 145.518 16.144 147.174 14.632C148.854 13.12 151.11 12.364 153.942 12.364C155.766 12.364 157.314 12.688 158.586 13.336C159.882 13.96 160.866 14.836 161.538 15.964C162.234 17.092 162.582 18.4 162.582 19.888C162.582 21.184 162.366 22.3 161.934 23.236C161.502 24.172 160.782 25.048 159.774 25.864C158.766 26.656 157.398 27.508 155.67 28.42C153.462 29.596 151.794 30.76 150.666 31.912C149.538 33.04 148.938 34.048 148.866 34.936H162.582V38.5H144.15ZM176.639 38.5V33.172H163.751V29.86L176.171 12.94H180.527V29.644H183.659V33.172H180.527V38.5H176.639ZM168.179 29.644H176.639V18.34L168.179 29.644Z" fill="white"/>
</svg>
