<svg width="93" height="26" viewBox="0 0 93 26" fill="none" xmlns="http://www.w3.org/2000/svg">
<path fill-rule="evenodd" clip-rule="evenodd" d="M11.5 0C13.0855 0 14.4242 1.05434 14.8545 2.5H24C25.6569 2.5 27 3.84315 27 5.5V9.5C27 10.0523 26.5523 10.5 26 10.5C25.4477 10.5 25 10.0523 25 9.5V5.5C25 4.94772 24.5523 4.5 24 4.5H14.8545C14.4242 5.94566 13.0855 7 11.5 7C9.567 7 8 5.433 8 3.5C8 1.567 9.567 0 11.5 0ZM11.5 2C10.6716 2 10 2.67157 10 3.5C10 4.32843 10.6716 5 11.5 5C12.3284 5 13 4.32843 13 3.5C13 2.67157 12.3284 2 11.5 2Z" fill="#136EFF"/>
<path fill-rule="evenodd" clip-rule="evenodd" d="M6 15.5C6.55228 15.5 7 15.9477 7 16.5V20.5C7 21.0523 7.44772 21.5 8 21.5H17.1455C17.5758 20.0543 18.9145 19 20.5 19C22.433 19 24 20.567 24 22.5C24 24.433 22.433 26 20.5 26C18.9145 26 17.5758 24.9457 17.1455 23.5H8C6.34315 23.5 5 22.1569 5 20.5V16.5C5 15.9477 5.44772 15.5 6 15.5ZM20.5 21C19.6716 21 19 21.6716 19 22.5C19 23.3284 19.6716 24 20.5 24C21.3284 24 22 23.3284 22 22.5C22 21.6716 21.3284 21 20.5 21Z" fill="#136EFF"/>
<path fill-rule="evenodd" clip-rule="evenodd" d="M3.5 7C5.08545 7 6.42417 8.05434 6.85449 9.5H14C15.6569 9.5 17 10.8431 17 12.5V13.5C17 14.0523 17.4477 14.5 18 14.5H25.1455C25.5758 13.0543 26.9145 12 28.5 12C30.433 12 32 13.567 32 15.5C32 17.433 30.433 19 28.5 19C26.9145 19 25.5758 17.9457 25.1455 16.5H18C16.3431 16.5 15 15.1569 15 13.5V12.5C15 11.9477 14.5523 11.5 14 11.5H6.85449C6.42417 12.9457 5.08545 14 3.5 14C1.567 14 0 12.433 0 10.5C0 8.567 1.567 7 3.5 7ZM28.5 14C27.6716 14 27 14.6716 27 15.5C27 16.3284 27.6716 17 28.5 17C29.3284 17 30 16.3284 30 15.5C30 14.6716 29.3284 14 28.5 14ZM3.5 9C2.67157 9 2 9.67157 2 10.5C2 11.3284 2.67157 12 3.5 12C4.32843 12 5 11.3284 5 10.5C5 9.67157 4.32843 9 3.5 9Z" fill="#FC9433"/>
<path d="M46.068 19.5L42.684 6.72H44.754L47.238 16.818L49.722 6.72H51.702L54.186 16.818L56.652 6.72H58.758L55.356 19.5H53.088L50.712 10.176L48.336 19.5H46.068ZM60.7085 19.5V6.72H65.2985C66.8345 6.72 67.9925 6.996 68.7725 7.548C69.5525 8.1 69.9425 8.976 69.9425 10.176C69.9425 10.716 69.8285 11.19 69.6005 11.598C69.3725 12.006 69.0365 12.33 68.5925 12.57C68.1605 12.798 67.6445 12.918 67.0445 12.93L67.0265 12.858C68.1185 12.882 68.9645 13.182 69.5645 13.758C70.1765 14.322 70.4825 15.066 70.4825 15.99C70.4825 17.154 70.0925 18.03 69.3125 18.618C68.5325 19.206 67.4225 19.5 65.9825 19.5H60.7085ZM62.6525 17.754H65.9285C66.7325 17.754 67.3565 17.592 67.8005 17.268C68.2565 16.932 68.4845 16.446 68.4845 15.81C68.4845 15.186 68.2565 14.7 67.8005 14.352C67.3565 14.004 66.7325 13.83 65.9285 13.83H62.6525V17.754ZM62.6525 12.174H65.2625C66.1145 12.174 66.7745 12.012 67.2425 11.688C67.7105 11.364 67.9445 10.908 67.9445 10.32C67.9445 9.696 67.7165 9.234 67.2605 8.934C66.8165 8.622 66.1505 8.466 65.2625 8.466H62.6525V12.174ZM72.075 19.5C72.075 18.54 72.219 17.682 72.507 16.926C72.795 16.17 73.287 15.468 73.983 14.82C74.679 14.172 75.639 13.524 76.863 12.876C77.451 12.576 77.919 12.3 78.267 12.048C78.627 11.784 78.885 11.514 79.041 11.238C79.197 10.962 79.275 10.626 79.275 10.23C79.275 9.822 79.185 9.474 79.005 9.186C78.837 8.886 78.585 8.652 78.249 8.484C77.913 8.304 77.487 8.214 76.971 8.214C76.155 8.214 75.507 8.436 75.027 8.88C74.559 9.312 74.265 9.936 74.145 10.752L72.129 10.626C72.273 9.342 72.759 8.322 73.587 7.566C74.427 6.81 75.555 6.432 76.971 6.432C77.883 6.432 78.657 6.594 79.293 6.918C79.941 7.23 80.433 7.668 80.769 8.232C81.117 8.796 81.291 9.45 81.291 10.194C81.291 10.842 81.183 11.4 80.967 11.868C80.751 12.336 80.391 12.774 79.887 13.182C79.383 13.578 78.699 14.004 77.835 14.46C76.731 15.048 75.897 15.63 75.333 16.206C74.769 16.77 74.469 17.274 74.433 17.718H81.291V19.5H72.075ZM88.3195 19.5V16.836H81.8755V15.18L88.0855 6.72H90.2635V15.072H91.8295V16.836H90.2635V19.5H88.3195ZM84.0895 15.072H88.3195V9.42L84.0895 15.072Z" fill="white"/>
</svg>
