<svg width="131" height="62" viewBox="0 0 131 62" fill="none" xmlns="http://www.w3.org/2000/svg">
<path d="M62.5859 1C54.6305 1.00015 47.504 5.36866 43.8906 12.2891L43.5225 12.9941L42.7529 12.7949C41.5651 12.487 40.3448 12.3301 39.1045 12.3301C34.2175 12.3301 29.742 14.7381 27.0713 18.7051L26.7207 19.2256L26.0996 19.1357C25.0746 18.9881 24.0362 18.9141 22.9961 18.9141C11.3615 18.9142 1.89844 28.3541 1.89844 39.9492C1.89857 51.5541 11.3623 60.9999 22.9961 61H91.7412C105.061 61 115.898 50.1817 115.898 36.8936C115.898 23.5939 105.061 12.7696 91.7412 12.7695C88.8489 12.7695 85.9528 13.2996 83.25 14.3135L82.3564 14.6484L81.9795 13.7725C78.6984 6.14562 71.0396 1 62.5859 1Z" stroke="white" stroke-opacity="0.4" stroke-width="2"/>
<path d="M106.152 32.19C108.004 33.9921 110.477 35 113.051 35C115.626 35 118.1 33.9921 119.951 32.19C119.975 32.1719 119.997 32.1517 120.019 32.1295C120.035 32.1134 120.051 32.0953 120.065 32.0771C121.944 30.1984 123 27.6404 123 24.9697C123 22.3008 121.944 19.7428 120.065 17.8639C120.051 17.8457 120.035 17.8276 120.019 17.8115C119.997 17.7893 119.975 17.7691 119.951 17.751C118.099 15.9489 115.626 14.941 113.051 14.941C110.477 14.941 108.002 15.9489 106.151 17.751C106.127 17.7691 106.105 17.7893 106.083 17.8115C106.067 17.8276 106.051 17.8457 106.037 17.8639C104.157 19.7426 103.102 22.3026 103.102 24.9713C103.102 27.6402 104.157 30.1982 106.037 32.0771C106.051 32.0953 106.067 32.1114 106.083 32.1295C106.105 32.1517 106.126 32.1719 106.152 32.19ZM106.572 19.1683C107.39 19.8778 108.316 20.4483 109.314 20.8575C109.118 22.0025 109.006 23.1615 108.978 24.3246H104.405C104.545 22.4117 105.307 20.5995 106.572 19.1683ZM121.698 24.3246H117.122C117.094 23.1616 116.982 22.0025 116.786 20.8575C117.785 20.4483 118.711 19.8778 119.529 19.1683C120.795 20.5995 121.557 22.4117 121.697 24.3246H121.698ZM119.529 30.7731C118.711 30.0635 117.785 29.493 116.788 29.0839C116.984 27.9369 117.096 26.7778 117.124 25.6147H121.698C121.559 27.5277 120.795 29.3419 119.529 30.7731ZM110.787 29.9466C112.269 29.5434 113.833 29.5434 115.314 29.9466C114.736 32.3453 113.799 33.7101 113.051 33.7101C112.303 33.7101 111.365 32.3474 110.787 29.9466ZM110.765 33.4016C109.566 33.069 108.452 32.4804 107.496 31.6761C108.128 31.1419 108.832 30.7045 109.586 30.3719C109.824 31.4362 110.221 32.4583 110.765 33.4016ZM115.844 25.6146H115.842C115.82 26.6406 115.728 27.6647 115.568 28.6786C113.917 28.2472 112.185 28.2472 110.533 28.6786C110.373 27.6647 110.282 26.6406 110.26 25.6146H115.844ZM110.262 24.3245H110.26C110.282 23.2985 110.374 22.2744 110.534 21.2625C112.185 21.6939 113.917 21.6939 115.568 21.2625C115.728 22.2744 115.82 23.2985 115.842 24.3245H110.262ZM116.516 30.372C117.27 30.7046 117.974 31.144 118.606 31.6761C117.65 32.4824 116.536 33.071 115.336 33.4017C115.88 32.4583 116.278 31.4363 116.516 30.372ZM116.516 19.5692C116.278 18.5049 115.88 17.4829 115.336 16.5395C116.536 16.8701 117.65 17.4566 118.606 18.2629C117.974 18.7951 117.27 19.2366 116.516 19.5692ZM115.314 19.9925C113.833 20.3977 112.269 20.3977 110.788 19.9925C111.365 17.5917 112.303 16.229 113.051 16.229C113.799 16.229 114.737 17.5917 115.314 19.9925ZM109.586 19.5692C108.832 19.2366 108.128 18.7951 107.497 18.263C108.45 17.4567 109.566 16.8681 110.766 16.5375C110.222 17.4808 109.824 18.5029 109.586 19.5692ZM108.98 25.6146C109.008 26.7777 109.12 27.9368 109.316 29.0838C108.316 29.493 107.391 30.0634 106.573 30.773C105.307 29.3418 104.545 27.5275 104.405 25.6146H108.98ZM122.099 11.5221C122.165 11.1734 122.501 10.9436 122.847 11.0121C125.174 11.4636 127.23 12.8303 128.559 14.8078C129.891 16.7873 130.387 19.2163 129.943 21.5648C129.885 21.8692 129.621 22.0869 129.315 22.0889C129.275 22.0889 129.233 22.0849 129.193 22.0768C128.847 22.0083 128.619 21.6717 128.687 21.3209C129.067 19.3092 128.641 17.2269 127.502 15.5315C126.362 13.8342 124.6 12.6651 122.605 12.276C122.259 12.2095 122.033 11.8728 122.099 11.5221ZM121.577 14.2575C121.643 13.9088 121.979 13.679 122.327 13.7455C125.678 14.3946 127.874 17.6601 127.23 21.0387C127.174 21.3431 126.91 21.5648 126.602 21.5648C126.56 21.5648 126.52 21.5607 126.48 21.5527C126.134 21.4862 125.906 21.1475 125.972 20.7988C126.218 19.5107 125.948 18.1783 125.218 17.0918C124.488 16.0073 123.363 15.2574 122.085 15.0115C121.737 14.943 121.511 14.6062 121.577 14.2575ZM121.057 16.9929C121.089 16.8256 121.185 16.6764 121.325 16.5817C121.465 16.4849 121.639 16.4487 121.805 16.4809C122.697 16.6543 123.483 17.1764 123.991 17.9323C124.5 18.6902 124.69 19.6195 124.518 20.5165C124.46 20.8209 124.196 21.0406 123.891 21.0406C123.851 21.0406 123.809 21.0366 123.769 21.0285C123.423 20.962 123.195 20.6233 123.261 20.2746C123.369 19.7122 123.251 19.1296 122.933 18.6559C122.615 18.1802 122.121 17.8537 121.563 17.7468C121.397 17.7146 121.249 17.6158 121.155 17.4747C121.059 17.3316 121.023 17.1582 121.057 16.9889L121.057 16.9929Z" fill="white"/>
<path fill-rule="evenodd" clip-rule="evenodd" d="M27.119 28C28.5798 28 29.8132 28.9714 30.2097 30.3034H38.6359C40.1624 30.3034 41.3999 31.5409 41.3999 33.0674V36.7528C41.3999 37.2617 40.9874 37.6742 40.4786 37.6742C39.9697 37.6742 39.5572 37.2617 39.5572 36.7528V33.0674C39.5572 32.5586 39.1447 32.1461 38.6359 32.1461H30.2097C29.8132 33.478 28.5798 34.4494 27.119 34.4494C25.338 34.4494 23.8943 33.0057 23.8943 31.2247C23.8943 29.4438 25.338 28 27.119 28ZM27.119 29.8427C26.3557 29.8427 25.737 30.4614 25.737 31.2247C25.737 31.988 26.3557 32.6067 27.119 32.6067C27.8823 32.6067 28.501 31.988 28.501 31.2247C28.501 30.4614 27.8823 29.8427 27.119 29.8427Z" fill="#136EFF"/>
<path fill-rule="evenodd" clip-rule="evenodd" d="M22.0515 42.281C22.5603 42.281 22.9728 42.6935 22.9728 43.2024V46.8877C22.9728 47.3966 23.3853 47.8091 23.8942 47.8091H32.3204C32.7168 46.4771 33.9503 45.5057 35.411 45.5057C37.192 45.5057 38.6357 46.9495 38.6357 48.7304C38.6357 50.5114 37.192 51.9552 35.411 51.9552C33.9503 51.9552 32.7168 50.9838 32.3204 49.6518H23.8942C22.3676 49.6518 21.1301 48.4143 21.1301 46.8877V43.2024C21.1301 42.6935 21.5426 42.281 22.0515 42.281ZM35.411 47.3484C34.6478 47.3484 34.029 47.9672 34.029 48.7304C34.029 49.4937 34.6478 50.1125 35.411 50.1125C36.1743 50.1125 36.793 49.4937 36.793 48.7304C36.793 47.9672 36.1743 47.3484 35.411 47.3484Z" fill="#136EFF"/>
<path fill-rule="evenodd" clip-rule="evenodd" d="M19.7482 34.4495C21.2089 34.4495 22.4423 35.4209 22.8388 36.7528H29.4223C30.9489 36.7528 32.1864 37.9903 32.1864 39.5169V40.4382C32.1864 40.9471 32.5989 41.3596 33.1077 41.3596H39.6912C40.0877 40.0276 41.3211 39.0562 42.7819 39.0562C44.5628 39.0562 46.0066 40.5 46.0066 42.2809C46.0066 44.0619 44.5628 45.5056 42.7819 45.5056C41.3211 45.5056 40.0877 44.5342 39.6912 43.2023H33.1077C31.5812 43.2023 30.3437 41.9648 30.3437 40.4382V39.5169C30.3437 39.008 29.9312 38.5955 29.4223 38.5955H22.8388C22.4423 39.9275 21.2089 40.8989 19.7482 40.8989C17.9672 40.8989 16.5234 39.4551 16.5234 37.6742C16.5234 35.8932 17.9672 34.4495 19.7482 34.4495ZM42.7819 40.8989C42.0186 40.8989 41.3998 41.5177 41.3998 42.2809C41.3998 43.0442 42.0186 43.6629 42.7819 43.6629C43.5451 43.6629 44.1639 43.0442 44.1639 42.2809C44.1639 41.5177 43.5451 40.8989 42.7819 40.8989ZM19.7482 36.2922C18.9849 36.2922 18.3661 36.9109 18.3661 37.6742C18.3661 38.4375 18.9849 39.0562 19.7482 39.0562C20.5114 39.0562 21.1302 38.4375 21.1302 37.6742C21.1302 36.9109 20.5114 36.2922 19.7482 36.2922Z" fill="#FC9433"/>
<path d="M55.2827 45.9775L52.1649 34.2027H54.0721L56.3607 43.5065L58.6493 34.2027H60.4736L62.7622 43.5065L65.0343 34.2027H66.9746L63.8402 45.9775H61.7506L59.5615 37.3869L57.3723 45.9775H55.2827ZM68.7717 45.9775V34.2027H73.0007C74.4159 34.2027 75.4828 34.457 76.2014 34.9656C76.9201 35.4742 77.2794 36.2813 77.2794 37.3869C77.2794 37.8844 77.1744 38.3211 76.9643 38.697C76.7542 39.073 76.4447 39.3715 76.0356 39.5926C75.6376 39.8027 75.1622 39.9132 74.6093 39.9243L74.5928 39.8579C75.5989 39.8801 76.3783 40.1565 76.9311 40.6872C77.495 41.2068 77.7769 41.8923 77.7769 42.7436C77.7769 43.8161 77.4176 44.6232 76.699 45.1649C75.9803 45.7067 74.9576 45.9775 73.6309 45.9775H68.7717ZM70.5628 44.3689H73.5811C74.3219 44.3689 74.8968 44.2196 75.3059 43.9211C75.726 43.6115 75.9361 43.1637 75.9361 42.5778C75.9361 42.0028 75.726 41.5551 75.3059 41.2344C74.8968 40.9138 74.3219 40.7535 73.5811 40.7535H70.5628V44.3689ZM70.5628 39.2277H72.9675C73.7525 39.2277 74.3606 39.0785 74.7918 38.78C75.223 38.4814 75.4386 38.0613 75.4386 37.5196C75.4386 36.9446 75.2285 36.519 74.8084 36.2426C74.3993 35.9551 73.7857 35.8114 72.9675 35.8114H70.5628V39.2277ZM79.2443 45.9775C79.2443 45.093 79.3769 44.3025 79.6423 43.606C79.9076 42.9094 80.3609 42.2627 81.0022 41.6656C81.6435 41.0686 82.5279 40.4716 83.6557 39.8745C84.1974 39.5981 84.6286 39.3438 84.9493 39.1117C85.2809 38.8684 85.5186 38.6197 85.6624 38.3654C85.8061 38.1111 85.878 37.8015 85.878 37.4366C85.878 37.0607 85.7951 36.7401 85.6292 36.4748C85.4744 36.1983 85.2422 35.9828 84.9327 35.828C84.6231 35.6621 84.2306 35.5792 83.7552 35.5792C83.0034 35.5792 82.4063 35.7837 81.9641 36.1928C81.5329 36.5908 81.262 37.1658 81.1515 37.9176L79.294 37.8015C79.4267 36.6185 79.8745 35.6787 80.6373 34.9822C81.4113 34.2856 82.4506 33.9374 83.7552 33.9374C84.5955 33.9374 85.3086 34.0866 85.8946 34.3851C86.4916 34.6726 86.9449 35.0761 87.2545 35.5958C87.5751 36.1154 87.7354 36.718 87.7354 37.4035C87.7354 38.0005 87.6359 38.5146 87.4369 38.9458C87.2379 39.377 86.9062 39.7805 86.4418 40.1565C85.9775 40.5213 85.3473 40.9138 84.5512 41.3339C83.5341 41.8757 82.7657 42.4119 82.246 42.9426C81.7264 43.4623 81.45 43.9266 81.4168 44.3357H87.7354V45.9775H79.2443ZM94.211 45.9775V43.5231H88.2739V41.9973L93.9955 34.2027H96.0022V41.8978H97.445V43.5231H96.0022V45.9775H94.211ZM90.3137 41.8978H94.211V36.6903L90.3137 41.8978Z" fill="white"/>
</svg>
