<svg width="544" height="176" viewBox="0 0 544 176" fill="none" xmlns="http://www.w3.org/2000/svg">
<path d="M531.099 56.043C531.84 56.1005 532.564 56.2154 533.269 56.3838L533.153 56.8701C533.847 57.0361 534.52 57.2559 535.168 57.5244L535.358 57.0625C536.039 57.3449 536.694 57.6788 537.315 58.0605L537.054 58.4873C537.658 58.8583 538.231 59.2758 538.768 59.7344L539.092 59.3545C539.649 59.8308 540.168 60.3501 540.645 60.9072L540.266 61.2324C540.724 61.7689 541.142 62.3422 541.513 62.9463L541.938 62.6836C542.32 63.3054 542.654 63.9596 542.937 64.6406L542.476 64.832C542.744 65.4795 542.964 66.1529 543.13 66.8467L543.615 66.7305C543.784 67.4346 543.898 68.1594 543.956 68.9004H543.957L543.459 68.9395C543.486 69.2893 543.5 69.643 543.5 70V71H544V73H543.5V75H544V77H543.5V79H544V81H543.5V83H544V85H543.5V87H544V89H543.5V91H544V93H543.5V95H544V97H543.5V99H544V101H543.5V103H544V105H543.5V107H544V109H543.5V111H544V113H543.5V115H544V117H543.5V119H544V121H543.5V123H544V125H543.5V127H544V129H543.5V131H544V133H543.5V135H544V137H543.5V139H544V141H543.5V143H544V145H543.5V147H544V149H543.5V151H544V153H543.5V155H544V157H543.5V159H544V161H543.5V162C543.5 162.357 543.486 162.711 543.459 163.061L543.956 163.099C543.899 163.84 543.784 164.564 543.615 165.269L543.13 165.153C542.964 165.847 542.744 166.52 542.476 167.168L542.937 167.358C542.654 168.039 542.32 168.694 541.938 169.315L541.513 169.054C541.142 169.658 540.724 170.231 540.266 170.768L540.645 171.092C540.168 171.649 539.649 172.168 539.092 172.645L538.768 172.266C538.231 172.724 537.658 173.142 537.054 173.513L537.315 173.938C536.694 174.32 536.039 174.654 535.358 174.937L535.168 174.476C534.52 174.744 533.847 174.964 533.153 175.13L533.269 175.615C532.564 175.784 531.84 175.899 531.099 175.956L531.061 175.459C530.711 175.486 530.357 175.5 530 175.5H529V176H527V175.5H525V176H523V175.5H521V176H519V175.5H517V176H515V175.5H513V176H511V175.5H509V176H507V175.5H505V176H503V175.5H501V176H499V175.5H497V176H495V175.5H493V176H491V175.5H489V176H487V175.5H485V176H483V175.5H481V176H479V175.5H477V176H475V175.5H473V176H471V175.5H469V176H467V175.5H465V176H463V175.5H461V176H459V175.5H457V176H455V175.5H453V176H451V175.5H449V176H447V175.5H445V176H443V175.5H441V176H439V175.5H437V176H435V175.5H433V176H431V175.5H429V176H427V175.5H425V176H423V175.5H421V176H419V175.5H417V176H415V175.5H413V176H411V175.5H409V176H407V175.5H405V176H403V175.5H401V176H399V175.5H397V176H395V175.5H393V176H391V175.5H389V176H387V175.5H385V176H383V175.5H381V176H379V175.5H377V176H375V175.5H373V176H371V175.5H369V176H367V175.5H365V176H363V175.5H361V176H359V175.5H357V176H355V175.5H353V176H351V175.5H349V176H347V175.5H345V176H343V175.5H341V176H339V175.5H337V176H335V175.5H333V176H331V175.5H329V176H327V175.5H325V176H323V175.5H321V176H319V175.5H317V176H315V175.5H313V176H311V175.5H309V176H307V175.5H305V176H303V175.5H301V176H299V175.5H297V176H295V175.5H293V176H291V175.5H289V176H287V175.5H285V176H283V175.5H281V176H279V175.5H277V176H275V175.5H273V176H271V175.5H269V176H267V175.5H265V176H263V175.5H261V176H259V175.5H257V176H255V175.5H253V176H251V175.5H249V176H247V175.5H245V176H243V175.5H241V176H239V175.5H237V176H235V175.5H233V176H231V175.5H229V176H227V175.5H225V176H223V175.5H221V176H219V175.5H217V176H215V175.5H213V176H211V175.5H209V176H207V175.5H205V176H203V175.5H201V176H199V175.5H197V176H195V175.5H193V176H191V175.5H189V176H187V175.5H185V176H183V175.5H181V176H179V175.5H177V176H175V175.5H173V176H171V175.5H169V176H167V175.5H165V176H163V175.5H161V176H159V175.5H157V176H155V175.5H153V176H151V175.5H149V176H147V175.5H145V176H143V175.5H141V176H139V175.5H137V176H135V175.5H133V176H131V175.5H129V176H127V175.5H125V176H123V175.5H121V176H119V175.5H117V176H115V175.5H113V176H111V175.5H109V176H107V175.5H105V176H103V175.5H101V176H99V175.5H97V176H95V175.5H93V176H91V175.5H89V176H87V175.5H85V176H83V175.5H81V176H79V175.5H77V176H75V175.5H73V176H71V175.5H69V176H67V175.5H65V176H63V175.5H61V176H59V175.5H57V176H55V175.5H53V176H51V175.5H49V176H47V175.5H45V176H43V175.5H41V176H39V175.5H37V176H35V175.5H33V176H31V175.5H29V176H27V175.5H25V176H23V175.5H21V176H19V175.5H17V176H15V175.5H14C13.643 175.5 13.2893 175.486 12.9395 175.459L12.9004 175.956C12.1594 175.898 11.4346 175.784 10.7305 175.615L10.8467 175.13C10.1529 174.964 9.47955 174.744 8.83203 174.476L8.64062 174.937C7.95962 174.654 7.30536 174.32 6.68359 173.938L6.94629 173.513C6.34217 173.142 5.76885 172.724 5.23242 172.266L4.90723 172.645C4.35009 172.168 3.83081 171.649 3.35449 171.092L3.73438 170.768C3.27579 170.231 2.85829 169.658 2.4873 169.054L2.06055 169.315C1.67876 168.694 1.34487 168.039 1.0625 167.358L1.52441 167.168C1.2559 166.52 1.0361 165.847 0.870117 165.153L0.383789 165.269C0.215379 164.564 0.10049 163.84 0.0429688 163.099L0.541016 163.061C0.527436 162.886 0.517601 162.71 0.510742 162.533L0.5 162V161H0V159H0.5V157H0V155H0.5V153H0V151H0.5V149H0V147H0.5V145H0V143H0.5V141H0V139H0.5V137H0V135H0.5V133H0V131H0.5V129H0V127H0.5V125H0V123H0.5V121H0V119H0.5V117H0V115H0.5V113H0V111H0.5V109H0V107H0.5V105H0V103H0.5V101H0V99H0.5V97H0V95H0.5V93H0V91H0.5V89H0V87H0.5V85H0V83H0.5V81H0V79H0.5V77H0V75H0.5V73H0V71H0.5V70C0.5 69.643 0.513843 69.2893 0.541016 68.9395L0.0429688 68.9004C0.10054 68.1594 0.215333 67.4346 0.383789 66.7305L0.870117 66.8467C1.0361 66.1529 1.2559 65.4795 1.52441 64.832L1.0625 64.6406C1.34491 63.9597 1.67873 63.3053 2.06055 62.6836L2.4873 62.9463C2.85828 62.3422 3.27579 61.7689 3.73438 61.2324L3.35449 60.9072C3.83081 60.3501 4.3501 59.8308 4.90723 59.3545L5.23242 59.7344C5.76885 59.2758 6.34217 58.8583 6.94629 58.4873L6.68359 58.0605C7.30534 57.6787 7.95966 57.3449 8.64062 57.0625L8.83203 57.5244C9.47955 57.2559 10.1529 57.0361 10.8467 56.8701L10.7305 56.3838C11.3291 56.2406 11.9426 56.1358 12.5684 56.0723L12.9004 56.043L12.9395 56.541C13.2893 56.5138 13.643 56.5 14 56.5H15V56H17V56.5H19V56H21V56.5H23V56H25V56.5H27V56H29V56.5H31V56H33V56.5H35V56H37V56.5H39V56H41V56.5H43V56H45V56.5H47V56H49V56.5H51V56H53V56.5H55V56H57V56.5H59V56H61V56.5H63V56H65V56.5H67V56H69V56.5H71V56H73V56.5H75V56H77V56.5H79V56H81V56.5H83V56H85V56.5H87V56H89V56.5H91V56H93V56.5H95V56H97V56.5H99V56H101V56.5H103V56H105V56.5H107V56H109V56.5H111V56H113V56.5H115V56H117V56.5H119V56H121V56.5H123V56H125V56.5H127V56H129V56.5H131V56H133V56.5H135V56H137V56.5H139V56H141V56.5H143V56H145V56.5H147V56H149V56.5H151V56H153V56.5H155V56H157V56.5H159V56H161V56.5H163V56H165V56.5H167V56H169V56.5H171V56H173V56.5H175V56H177V56.5H179V56H181V56.5H183V56H185V56.5H187V56H189V56.5H191V56H193V56.5H195V56H197V56.5H199V56H201V56.5H203V56H205V56.5H207V56H209V56.5H211V56H213V56.5H215V56H217V56.5H219V56H221V56.5H223V56H225V56.5H227V56H229V56.5H231V56H233V56.5H235V56H237V56.5H239V56H241V56.5H243V56H245V56.5H247V56H249V56.5H251V56H253V56.5H255V56H257V56.5H259V56H261V56.5H263V56H265V56.5H267V56H269V56.5H271V56H273V56.5H275V56H277V56.5H279V56H281V56.5H283V56H285V56.5H287V56H289V56.5H291V56H293V56.5H295V56H297V56.5H299V56H301V56.5H303V56H305V56.5H307V56H309V56.5H311V56H313V56.5H315V56H317V56.5H319V56H321V56.5H323V56H325V56.5H327V56H329V56.5H331V56H333V56.5H335V56H337V56.5H339V56H341V56.5H343V56H345V56.5H347V56H349V56.5H351V56H353V56.5H355V56H357V56.5H359V56H361V56.5H363V56H365V56.5H367V56H369V56.5H371V56H373V56.5H375V56H377V56.5H379V56H381V56.5H383V56H385V56.5H387V56H389V56.5H391V56H393V56.5H395V56H397V56.5H399V56H401V56.5H403V56H405V56.5H407V56H409V56.5H411V56H413V56.5H415V56H417V56.5H419V56H421V56.5H423V56H425V56.5H427V56H429V56.5H431V56H433V56.5H435V56H437V56.5H439V56H441V56.5H443V56H445V56.5H447V56H449V56.5H451V56H453V56.5H455V56H457V56.5H459V56H461V56.5H463V56H465V56.5H467V56H469V56.5H471V56H473V56.5H475V56H477V56.5H479V56H481V56.5H483V56H485V56.5H487V56H489V56.5H491V56H493V56.5H495V56H497V56.5H499V56H501V56.5H503V56H505V56.5H507V56H509V56.5H511V56H513V56.5H515V56H517V56.5H519V56H521V56.5H523V56H525V56.5H527V56H529V56.5H530C530.357 56.5 530.711 56.5138 531.061 56.541L531.099 56.043Z" stroke="white" stroke-opacity="0.2" stroke-dasharray="2 2"/>
<path d="M397.646 0.646447C397.842 0.451184 398.158 0.451184 398.354 0.646447L401.536 3.82843C401.731 4.02369 401.731 4.34027 401.536 4.53553C401.34 4.7308 401.024 4.7308 400.828 4.53553L398 1.70711L395.172 4.53553C394.976 4.7308 394.66 4.7308 394.464 4.53553C394.269 4.34027 394.269 4.02369 394.464 3.82843L397.646 0.646447ZM398.354 60.3536C398.158 60.5488 397.842 60.5488 397.646 60.3536L394.464 57.1716C394.269 56.9763 394.269 56.6597 394.464 56.4645C394.66 56.2692 394.976 56.2692 395.172 56.4645L398 59.2929L400.828 56.4645C401.024 56.2692 401.34 56.2692 401.536 56.4645C401.731 56.6597 401.731 56.9763 401.536 57.1716L398.354 60.3536ZM398 1H398.5V1.92857H398H397.5V1H398ZM398 3.78571H398.5V5.64286H398H397.5V3.78571H398ZM398 7.5H398.5V9.35714H398H397.5V7.5H398ZM398 11.2143H398.5V13.0714H398H397.5V11.2143H398ZM398 14.9286H398.5V16.7857H398H397.5V14.9286H398ZM398 18.6429H398.5V20.5H398H397.5V18.6429H398ZM398 22.3571H398.5V24.2143H398H397.5V22.3571H398ZM398 26.0714H398.5V27H398H397.5V26.0714H398ZM398 27H398.5V28.0312H398H397.5V27H398ZM398 30.0938H398.5V32.1562H398H397.5V30.0938H398ZM398 34.2188H398.5V36.2812H398H397.5V34.2188H398ZM398 38.3438H398.5V40.4062H398H397.5V38.3438H398ZM398 42.4688H398.5V44.5312H398H397.5V42.4688H398ZM398 46.5938H398.5V48.6562H398H397.5V46.5938H398ZM398 50.7188H398.5V52.7812H398H397.5V50.7188H398ZM398 54.8438H398.5V56.9062H398H397.5V54.8438H398ZM398 58.9688H398.5V60H398H397.5V58.9688H398Z" fill="white" fill-opacity="0.6"/>
<path d="M368.354 0.646447C368.158 0.451184 367.842 0.451184 367.646 0.646447L364.464 3.82843C364.269 4.02369 364.269 4.34027 364.464 4.53553C364.66 4.7308 364.976 4.7308 365.172 4.53553L368 1.70711L370.828 4.53553C371.024 4.7308 371.34 4.7308 371.536 4.53553C371.731 4.34027 371.731 4.02369 371.536 3.82843L368.354 0.646447ZM48.6464 60.3536C48.8417 60.5488 49.1583 60.5488 49.3536 60.3536L52.5355 57.1716C52.7308 56.9763 52.7308 56.6597 52.5355 56.4645C52.3403 56.2692 52.0237 56.2692 51.8284 56.4645L49 59.2929L46.1716 56.4645C45.9763 56.2692 45.6597 56.2692 45.4645 56.4645C45.2692 56.6597 45.2692 56.9763 45.4645 57.1716L48.6464 60.3536ZM49 60H49.5V58.95H49H48.5V60H49ZM49 56.85H49.5V54.75H49H48.5V56.85H49ZM49 52.65H49.5V50.55H49H48.5V52.65H49ZM49 48.45H49.5V46.35H49H48.5V48.45H49ZM49 44.25H49.5V42.15H49H48.5V44.25H49ZM49 40.05H49.5V39H49H48.5V40.05H49ZM49 39H49.5C49.5 38.6958 49.5118 38.3944 49.535 38.0963L49.0365 38.0576L48.538 38.0188C48.5128 38.3427 48.5 38.6699 48.5 39H49ZM49.329 36.1974L49.8153 36.3138C49.9567 35.7228 50.1437 35.1496 50.3724 34.5981L49.9106 34.4065L49.4487 34.215C49.1999 34.8149 48.9965 35.4384 48.8428 36.0811L49.329 36.1974ZM50.7668 32.7293L51.1928 32.9909C51.5089 32.4763 51.8643 31.9884 52.255 31.5314L51.8749 31.2065L51.4949 30.8816C51.0704 31.3781 50.6842 31.9083 50.3407 32.4676L50.7668 32.7293ZM53.2065 29.8749L53.5314 30.255C53.9884 29.8643 54.4763 29.5089 54.9909 29.1928L54.7293 28.7668L54.4676 28.3407C53.9083 28.6842 53.3781 29.0704 52.8816 29.4949L53.2065 29.8749ZM56.4065 27.9106L56.5981 28.3724C57.1496 28.1437 57.7228 27.9567 58.3138 27.8153L58.1974 27.329L58.0811 26.8428C57.4384 26.9965 56.8149 27.1999 56.215 27.4487L56.4065 27.9106ZM60.0576 27.0365L60.0963 27.535C60.3944 27.5118 60.6958 27.5 61 27.5V27V26.5C60.6699 26.5 60.3427 26.5128 60.0188 26.538L60.0576 27.0365ZM61 27V27.5H61.9966V27V26.5H61V27ZM63.9899 27V27.5H65.9831V27V26.5H63.9899V27ZM67.9764 27V27.5H69.9696V27V26.5H67.9764V27ZM71.9628 27V27.5H73.9561V27V26.5H71.9628V27ZM75.9493 27V27.5H77.9426V27V26.5H75.9493V27ZM79.9358 27V27.5H81.9291V27V26.5H79.9358V27ZM83.9223 27V27.5H85.9155V27V26.5H83.9223V27ZM87.9088 27V27.5H89.902V27V26.5H87.9088V27ZM91.8953 27V27.5H93.8885V27V26.5H91.8953V27ZM95.8818 27V27.5H97.875V27V26.5H95.8818V27ZM99.8683 27V27.5H101.861V27V26.5H99.8683V27ZM103.855 27V27.5H105.848V27V26.5H103.855V27ZM107.841 27V27.5H109.834V27V26.5H107.841V27ZM111.828 27V27.5H113.821V27V26.5H111.828V27ZM115.814 27V27.5H117.807V27V26.5H115.814V27ZM119.801 27V27.5H121.794V27V26.5H119.801V27ZM123.787 27V27.5H125.78V27V26.5H123.787V27ZM127.774 27V27.5H129.767V27V26.5H127.774V27ZM131.76 27V27.5H133.753V27V26.5H131.76V27ZM135.747 27V27.5H137.74V27V26.5H135.747V27ZM139.733 27V27.5H141.726V27V26.5H139.733V27ZM143.72 27V27.5H145.713V27V26.5H143.72V27ZM147.706 27V27.5H149.699V27V26.5H147.706V27ZM151.693 27V27.5H153.686V27V26.5H151.693V27ZM155.679 27V27.5H157.672V27V26.5H155.679V27ZM159.666 27V27.5H161.659V27V26.5H159.666V27ZM163.652 27V27.5H165.645V27V26.5H163.652V27ZM167.638 27V27.5H169.632V27V26.5H167.638V27ZM171.625 27V27.5H173.618V27V26.5H171.625V27ZM175.611 27V27.5H177.605V27V26.5H175.611V27ZM179.598 27V27.5H181.591V27V26.5H179.598V27ZM183.584 27V27.5H185.578V27V26.5H183.584V27ZM187.571 27V27.5H189.564V27V26.5H187.571V27ZM191.557 27V27.5H193.551V27V26.5H191.557V27ZM195.544 27V27.5H197.537V27V26.5H195.544V27ZM199.53 27V27.5H201.524V27V26.5H199.53V27ZM203.517 27V27.5H205.51V27V26.5H203.517V27ZM207.503 27V27.5H209.497V27V26.5H207.503V27ZM211.49 27V27.5H213.483V27V26.5H211.49V27ZM215.476 27V27.5H217.469V27V26.5H215.476V27ZM219.463 27V27.5H221.456V27V26.5H219.463V27ZM223.449 27V27.5H225.442V27V26.5H223.449V27ZM227.436 27V27.5H229.429V27V26.5H227.436V27ZM231.422 27V27.5H233.415V27V26.5H231.422V27ZM235.409 27V27.5H237.402V27V26.5H235.409V27ZM239.395 27V27.5H241.388V27V26.5H239.395V27ZM243.382 27V27.5H245.375V27V26.5H243.382V27ZM247.368 27V27.5H249.361V27V26.5H247.368V27ZM251.355 27V27.5H253.348V27V26.5H251.355V27ZM255.341 27V27.5H257.334V27V26.5H255.341V27ZM259.328 27V27.5H261.321V27V26.5H259.328V27ZM263.314 27V27.5H265.307V27V26.5H263.314V27ZM267.3 27V27.5H269.294V27V26.5H267.3V27ZM271.287 27V27.5H273.28V27V26.5H271.287V27ZM275.273 27V27.5H277.267V27V26.5H275.273V27ZM279.26 27V27.5H281.253V27V26.5H279.26V27ZM283.246 27V27.5H285.24V27V26.5H283.246V27ZM287.233 27V27.5H289.226V27V26.5H287.233V27ZM291.219 27V27.5H293.213V27V26.5H291.219V27ZM295.206 27V27.5H297.199V27V26.5H295.206V27ZM299.192 27V27.5H301.186V27V26.5H299.192V27ZM303.179 27V27.5H305.172V27V26.5H303.179V27ZM307.165 27V27.5H309.159V27V26.5H307.165V27ZM311.152 27V27.5H313.145V27V26.5H311.152V27ZM315.138 27V27.5H317.132V27V26.5H315.138V27ZM319.125 27V27.5H321.118V27V26.5H319.125V27ZM323.111 27V27.5H325.105V27V26.5H323.111V27ZM327.098 27V27.5H329.091V27V26.5H327.098V27ZM331.084 27V27.5H333.078V27V26.5H331.084V27ZM335.071 27V27.5H337.064V27V26.5H335.071V27ZM339.057 27V27.5H341.051V27V26.5H339.057V27ZM343.044 27V27.5H345.037V27V26.5H343.044V27ZM347.03 27V27.5H349.024V27V26.5H347.03V27ZM351.017 27V27.5H353.01V27V26.5H351.017V27ZM355.003 27V27.5H356V27V26.5H355.003V27ZM356 27V27.5C356.33 27.5 356.657 27.4872 356.981 27.462L356.942 26.9635L356.904 26.465C356.606 26.4882 356.304 26.5 356 26.5V27ZM358.803 26.671L358.919 27.1572C359.562 27.0035 360.185 26.8001 360.785 26.5513L360.593 26.0894L360.402 25.6276C359.85 25.8563 359.277 26.0433 358.686 26.1847L358.803 26.671ZM362.271 25.2332L362.532 25.6593C363.092 25.3158 363.622 24.9296 364.118 24.5051L363.793 24.1251L363.469 23.745C363.012 24.1357 362.524 24.4911 362.009 24.8072L362.271 25.2332ZM365.125 22.7935L365.505 23.1184C365.93 22.6219 366.316 22.0917 366.659 21.5324L366.233 21.2707L365.807 21.0091C365.491 21.5237 365.136 22.0116 364.745 22.4686L365.125 22.7935ZM367.089 19.5935L367.551 19.785C367.8 19.1851 368.003 18.5616 368.157 17.9189L367.671 17.8026L367.185 17.6862C367.043 18.2772 366.856 18.8504 366.628 19.4019L367.089 19.5935ZM367.964 15.9424L368.462 15.9812C368.487 15.6573 368.5 15.3301 368.5 15H368H367.5C367.5 15.3042 367.488 15.6056 367.465 15.9037L367.964 15.9424ZM368 15H368.5V14.125H368H367.5V15H368ZM368 12.375H368.5V10.625H368H367.5V12.375H368ZM368 8.875H368.5V7.125H368H367.5V8.875H368ZM368 5.375H368.5V3.625H368H367.5V5.375H368ZM368 1.875H368.5V1H368H367.5V1.875H368Z" fill="white" fill-opacity="0.6"/>
<path d="M378.354 0.646447C378.158 0.451184 377.842 0.451184 377.646 0.646447L374.464 3.82843C374.269 4.02369 374.269 4.34027 374.464 4.53553C374.66 4.7308 374.976 4.7308 375.172 4.53553L378 1.70711L380.828 4.53553C381.024 4.7308 381.34 4.7308 381.536 4.53553C381.731 4.34027 381.731 4.02369 381.536 3.82843L378.354 0.646447ZM143.646 60.3536C143.842 60.5488 144.158 60.5488 144.354 60.3536L147.536 57.1716C147.731 56.9763 147.731 56.6597 147.536 56.4645C147.34 56.2692 147.024 56.2692 146.828 56.4645L144 59.2929L141.172 56.4645C140.976 56.2692 140.66 56.2692 140.464 56.4645C140.269 56.6597 140.269 56.9763 140.464 57.1716L143.646 60.3536ZM144 60H144.5V59H144H143.5V60H144ZM144 57H144.5V55H144H143.5V57H144ZM144 53H144.5V51H144H143.5V53H144ZM144 49H144.5V47H144H143.5V49H144ZM144 45H144.5V44H144H143.5V45H144ZM144 44H144.5C144.5 43.6958 144.512 43.3944 144.535 43.0963L144.036 43.0576L143.538 43.0188C143.513 43.3427 143.5 43.6699 143.5 44H144ZM144.329 41.1974L144.815 41.3138C144.957 40.7228 145.144 40.1496 145.372 39.5981L144.911 39.4065L144.449 39.215C144.2 39.8149 143.997 40.4384 143.843 41.0811L144.329 41.1974ZM145.767 37.7293L146.193 37.9909C146.509 37.4763 146.864 36.9884 147.255 36.5314L146.875 36.2065L146.495 35.8816C146.07 36.3781 145.684 36.9083 145.341 37.4676L145.767 37.7293ZM148.207 34.8749L148.531 35.255C148.988 34.8643 149.476 34.5089 149.991 34.1928L149.729 33.7668L149.468 33.3407C148.908 33.6842 148.378 34.0704 147.882 34.4949L148.207 34.8749ZM151.407 32.9106L151.598 33.3724C152.15 33.1437 152.723 32.9567 153.314 32.8153L153.197 32.329L153.081 31.8428C152.438 31.9965 151.815 32.1999 151.215 32.4487L151.407 32.9106ZM155.058 32.0365L155.096 32.535C155.394 32.5118 155.696 32.5 156 32.5V32V31.5C155.67 31.5 155.343 31.5128 155.019 31.538L155.058 32.0365ZM156 32V32.5H156.991V32V31.5H156V32ZM158.972 32V32.5H160.953V32V31.5H158.972V32ZM162.934 32V32.5H164.915V32V31.5H162.934V32ZM166.896 32V32.5H168.877V32V31.5H166.896V32ZM170.858 32V32.5H172.84V32V31.5H170.858V32ZM174.821 32V32.5H176.802V32V31.5H174.821V32ZM178.783 32V32.5H180.764V32V31.5H178.783V32ZM182.745 32V32.5H184.726V32V31.5H182.745V32ZM186.708 32V32.5H188.689V32V31.5H186.708V32ZM190.67 32V32.5H192.651V32V31.5H190.67V32ZM194.632 32V32.5H196.613V32V31.5H194.632V32ZM198.594 32V32.5H200.575V32V31.5H198.594V32ZM202.557 32V32.5H204.538V32V31.5H202.557V32ZM206.519 32V32.5H208.5V32V31.5H206.519V32ZM210.481 32V32.5H212.462V32V31.5H210.481V32ZM214.443 32V32.5H216.425V32V31.5H214.443V32ZM218.406 32V32.5H220.387V32V31.5H218.406V32ZM222.368 32V32.5H224.349V32V31.5H222.368V32ZM226.33 32V32.5H228.311V32V31.5H226.33V32ZM230.292 32V32.5H232.274V32V31.5H230.292V32ZM234.255 32V32.5H236.236V32V31.5H234.255V32ZM238.217 32V32.5H240.198V32V31.5H238.217V32ZM242.179 32V32.5H244.16V32V31.5H242.179V32ZM246.142 32V32.5H248.123V32V31.5H246.142V32ZM250.104 32V32.5H252.085V32V31.5H250.104V32ZM254.066 32V32.5H256.047V32V31.5H254.066V32ZM258.028 32V32.5H260.009V32V31.5H258.028V32ZM261.991 32V32.5H263.972V32V31.5H261.991V32ZM265.953 32V32.5H267.934V32V31.5H265.953V32ZM269.915 32V32.5H271.896V32V31.5H269.915V32ZM273.877 32V32.5H275.859V32V31.5H273.877V32ZM277.84 32V32.5H279.821V32V31.5H277.84V32ZM281.802 32V32.5H283.783V32V31.5H281.802V32ZM285.764 32V32.5H287.745V32V31.5H285.764V32ZM289.726 32V32.5H291.708V32V31.5H289.726V32ZM293.689 32V32.5H295.67V32V31.5H293.689V32ZM297.651 32V32.5H299.632V32V31.5H297.651V32ZM301.613 32V32.5H303.594V32V31.5H301.613V32ZM305.575 32V32.5H307.557V32V31.5H305.575V32ZM309.538 32V32.5H311.519V32V31.5H309.538V32ZM313.5 32V32.5H315.481V32V31.5H313.5V32ZM317.462 32V32.5H319.443V32V31.5H317.462V32ZM321.424 32V32.5H323.406V32V31.5H321.424V32ZM325.387 32V32.5H327.368V32V31.5H325.387V32ZM329.349 32V32.5H331.33V32V31.5H329.349V32ZM333.311 32V32.5H335.292V32V31.5H333.311V32ZM337.273 32V32.5H339.255V32V31.5H337.273V32ZM341.236 32V32.5H343.217V32V31.5H341.236V32ZM345.198 32V32.5H347.179V32V31.5H345.198V32ZM349.16 32V32.5H351.141V32V31.5H349.16V32ZM353.122 32V32.5H355.104V32V31.5H353.122V32ZM357.085 32V32.5H359.066V32V31.5H357.085V32ZM361.047 32V32.5H363.028V32V31.5H361.047V32ZM365.009 32V32.5H366V32V31.5H365.009V32ZM366 32V32.5C366.33 32.5 366.657 32.4872 366.981 32.462L366.942 31.9635L366.904 31.465C366.606 31.4882 366.304 31.5 366 31.5V32ZM368.803 31.671L368.919 32.1572C369.562 32.0035 370.185 31.8001 370.785 31.5513L370.593 31.0894L370.402 30.6276C369.85 30.8563 369.277 31.0433 368.686 31.1847L368.803 31.671ZM372.271 30.2332L372.532 30.6593C373.092 30.3158 373.622 29.9296 374.118 29.5051L373.793 29.1251L373.469 28.745C373.012 29.1357 372.524 29.4911 372.009 29.8072L372.271 30.2332ZM375.125 27.7935L375.505 28.1184C375.93 27.6219 376.316 27.0917 376.659 26.5324L376.233 26.2707L375.807 26.0091C375.491 26.5237 375.136 27.0116 374.745 27.4686L375.125 27.7935ZM377.089 24.5935L377.551 24.785C377.8 24.1851 378.003 23.5616 378.157 22.9189L377.671 22.8026L377.185 22.6862C377.043 23.2772 376.856 23.8504 376.628 24.4019L377.089 24.5935ZM377.964 20.9424L378.462 20.9812C378.487 20.6573 378.5 20.3301 378.5 20H378H377.5C377.5 20.3042 377.488 20.6056 377.465 20.9037L377.964 20.9424ZM378 20H378.5V19.05H378H377.5V20H378ZM378 17.15H378.5V15.25H378H377.5V17.15H378ZM378 13.35H378.5V11.45H378H377.5V13.35H378ZM378 9.55H378.5V7.65H378H377.5V9.55H378ZM378 5.75H378.5V3.85H378H377.5V5.75H378ZM378 1.95H378.5V1H378H377.5V1.95H378Z" fill="white" fill-opacity="0.6"/>
<path d="M407.646 0.646447C407.842 0.451184 408.158 0.451184 408.354 0.646447L411.536 3.82843C411.731 4.02369 411.731 4.34027 411.536 4.53553C411.34 4.7308 411.024 4.7308 410.828 4.53553L408 1.70711L405.172 4.53553C404.976 4.7308 404.66 4.7308 404.464 4.53553C404.269 4.34027 404.269 4.02369 404.464 3.82843L407.646 0.646447ZM487.354 60.3536C487.158 60.5488 486.842 60.5488 486.646 60.3536L483.464 57.1716C483.269 56.9763 483.269 56.6597 483.464 56.4645C483.66 56.2692 483.976 56.2692 484.172 56.4645L487 59.2929L489.828 56.4645C490.024 56.2692 490.34 56.2692 490.536 56.4645C490.731 56.6597 490.731 56.9763 490.536 57.1716L487.354 60.3536ZM487 60H486.5V59H487H487.5V60H487ZM487 57H486.5V55H487H487.5V57H487ZM487 53H486.5V51H487H487.5V53H487ZM487 49H486.5V47H487H487.5V49H487ZM487 45H486.5V44H487H487.5V45H487ZM487 44H486.5C486.5 43.6958 486.488 43.3944 486.465 43.0963L486.964 43.0576L487.462 43.0188C487.487 43.3427 487.5 43.6699 487.5 44H487ZM486.671 41.1974L486.185 41.3138C486.043 40.7228 485.856 40.1496 485.628 39.5981L486.089 39.4065L486.551 39.215C486.8 39.8149 487.003 40.4384 487.157 41.0811L486.671 41.1974ZM485.233 37.7293L484.807 37.9909C484.491 37.4763 484.136 36.9884 483.745 36.5314L484.125 36.2065L484.505 35.8816C484.93 36.3781 485.316 36.9083 485.659 37.4676L485.233 37.7293ZM482.793 34.8749L482.469 35.255C482.012 34.8643 481.524 34.5089 481.009 34.1928L481.271 33.7668L481.532 33.3407C482.092 33.6842 482.622 34.0704 483.118 34.4949L482.793 34.8749ZM479.593 32.9106L479.402 33.3724C478.85 33.1437 478.277 32.9567 477.686 32.8153L477.803 32.329L477.919 31.8428C478.562 31.9965 479.185 32.1999 479.785 32.4487L479.593 32.9106ZM475.942 32.0365L475.904 32.535C475.606 32.5118 475.304 32.5 475 32.5V32V31.5C475.33 31.5 475.657 31.5128 475.981 31.538L475.942 32.0365ZM475 32V32.5H474.018V32V31.5H475V32ZM472.054 32V32.5H470.089V32V31.5H472.054V32ZM468.125 32V32.5H466.161V32V31.5H468.125V32ZM464.196 32V32.5H462.232V32V31.5H464.196V32ZM460.268 32V32.5H458.304V32V31.5H460.268V32ZM456.339 32V32.5H454.375V32V31.5H456.339V32ZM452.411 32V32.5H450.446V32V31.5H452.411V32ZM448.482 32V32.5H446.518V32V31.5H448.482V32ZM444.554 32V32.5H442.589V32V31.5H444.554V32ZM440.625 32V32.5H438.661V32V31.5H440.625V32ZM436.696 32V32.5H434.732V32V31.5H436.696V32ZM432.768 32V32.5H430.804V32V31.5H432.768V32ZM428.839 32V32.5H426.875V32V31.5H428.839V32ZM424.911 32V32.5H422.946V32V31.5H424.911V32ZM420.982 32V32.5H420V32V31.5H420.982V32ZM420 32V32.5C419.67 32.5 419.343 32.4872 419.019 32.462L419.058 31.9635L419.096 31.465C419.394 31.4882 419.696 31.5 420 31.5V32ZM417.197 31.671L417.081 32.1572C416.438 32.0035 415.815 31.8001 415.215 31.5513L415.407 31.0894L415.598 30.6276C416.15 30.8563 416.723 31.0433 417.314 31.1847L417.197 31.671ZM413.729 30.2332L413.468 30.6593C412.908 30.3158 412.378 29.9296 411.882 29.5051L412.207 29.1251L412.531 28.745C412.988 29.1357 413.476 29.4911 413.991 29.8072L413.729 30.2332ZM410.875 27.7935L410.495 28.1184C410.07 27.6219 409.684 27.0917 409.341 26.5324L409.767 26.2707L410.193 26.0091C410.509 26.5237 410.864 27.0116 411.255 27.4686L410.875 27.7935ZM408.911 24.5935L408.449 24.785C408.2 24.1851 407.997 23.5616 407.843 22.9189L408.329 22.8026L408.815 22.6862C408.957 23.2772 409.144 23.8504 409.372 24.4019L408.911 24.5935ZM408.036 20.9424L407.538 20.9812C407.513 20.6573 407.5 20.3301 407.5 20H408H408.5C408.5 20.3042 408.512 20.6056 408.535 20.9037L408.036 20.9424ZM408 20H407.5V19.05H408H408.5V20H408ZM408 17.15H407.5V15.25H408H408.5V17.15H408ZM408 13.35H407.5V11.45H408H408.5V13.35H408ZM408 9.55H407.5V7.65H408H408.5V9.55H408ZM408 5.75H407.5V3.85H408H408.5V5.75H408ZM408 1.95H407.5V1H408H408.5V1.95H408Z" fill="white" fill-opacity="0.6"/>
<path d="M388.354 0.646447C388.158 0.451184 387.842 0.451184 387.646 0.646447L384.464 3.82843C384.269 4.02369 384.269 4.34027 384.464 4.53553C384.66 4.7308 384.976 4.7308 385.172 4.53553L388 1.70711L390.828 4.53553C391.024 4.7308 391.34 4.7308 391.536 4.53553C391.731 4.34027 391.731 4.02369 391.536 3.82843L388.354 0.646447ZM276.646 60.3536C276.842 60.5488 277.158 60.5488 277.354 60.3536L280.536 57.1716C280.731 56.9763 280.731 56.6597 280.536 56.4645C280.34 56.2692 280.024 56.2692 279.828 56.4645L277 59.2929L274.172 56.4645C273.976 56.2692 273.66 56.2692 273.464 56.4645C273.269 56.6597 273.269 56.9763 273.464 57.1716L276.646 60.3536ZM277 60H277.5V59.0833H277H276.5V60H277ZM277 57.25H277.5V55.4167H277H276.5V57.25H277ZM277 53.5833H277.5V51.75H277H276.5V53.5833H277ZM277 49.9167H277.5V49H277H276.5V49.9167H277ZM277 49H277.5C277.5 48.6958 277.512 48.3944 277.535 48.0963L277.036 48.0576L276.538 48.0188C276.513 48.3427 276.5 48.6699 276.5 49H277ZM277.329 46.1974L277.815 46.3138C277.957 45.7228 278.144 45.1496 278.372 44.5981L277.911 44.4065L277.449 44.215C277.2 44.8149 276.997 45.4384 276.843 46.0811L277.329 46.1974ZM278.767 42.7293L279.193 42.9909C279.509 42.4763 279.864 41.9884 280.255 41.5314L279.875 41.2065L279.495 40.8816C279.07 41.3781 278.684 41.9083 278.341 42.4676L278.767 42.7293ZM281.207 39.8749L281.531 40.255C281.988 39.8643 282.476 39.5089 282.991 39.1928L282.729 38.7668L282.468 38.3407C281.908 38.6842 281.378 39.0704 280.882 39.4949L281.207 39.8749ZM284.407 37.9106L284.598 38.3724C285.15 38.1437 285.723 37.9567 286.314 37.8153L286.197 37.329L286.081 36.8428C285.438 36.9965 284.815 37.1999 284.215 37.4487L284.407 37.9106ZM288.058 37.0365L288.096 37.535C288.394 37.5118 288.696 37.5 289 37.5V37V36.5C288.67 36.5 288.343 36.5128 288.019 36.538L288.058 37.0365ZM289 37V37.5H289.989V37V36.5H289V37ZM291.966 37V37.5H293.943V37V36.5H291.966V37ZM295.92 37V37.5H297.898V37V36.5H295.92V37ZM299.875 37V37.5H301.852V37V36.5H299.875V37ZM303.83 37V37.5H305.807V37V36.5H303.83V37ZM307.784 37V37.5H309.761V37V36.5H307.784V37ZM311.739 37V37.5H313.716V37V36.5H311.739V37ZM315.693 37V37.5H317.67V37V36.5H315.693V37ZM319.648 37V37.5H321.625V37V36.5H319.648V37ZM323.602 37V37.5H325.58V37V36.5H323.602V37ZM327.557 37V37.5H329.534V37V36.5H327.557V37ZM331.511 37V37.5H333.489V37V36.5H331.511V37ZM335.466 37V37.5H337.443V37V36.5H335.466V37ZM339.42 37V37.5H341.398V37V36.5H339.42V37ZM343.375 37V37.5H345.352V37V36.5H343.375V37ZM347.33 37V37.5H349.307V37V36.5H347.33V37ZM351.284 37V37.5H353.261V37V36.5H351.284V37ZM355.239 37V37.5H357.216V37V36.5H355.239V37ZM359.193 37V37.5H361.17V37V36.5H359.193V37ZM363.148 37V37.5H365.125V37V36.5H363.148V37ZM367.102 37V37.5H369.08V37V36.5H367.102V37ZM371.057 37V37.5H373.034V37V36.5H371.057V37ZM375.011 37V37.5H376V37V36.5H375.011V37ZM376 37V37.5C376.33 37.5 376.657 37.4872 376.981 37.462L376.942 36.9635L376.904 36.465C376.606 36.4882 376.304 36.5 376 36.5V37ZM378.803 36.671L378.919 37.1572C379.562 37.0035 380.185 36.8001 380.785 36.5513L380.593 36.0894L380.402 35.6276C379.85 35.8563 379.277 36.0433 378.686 36.1847L378.803 36.671ZM382.271 35.2332L382.532 35.6593C383.092 35.3158 383.622 34.9296 384.118 34.5051L383.793 34.1251L383.469 33.745C383.012 34.1357 382.524 34.4911 382.009 34.8072L382.271 35.2332ZM385.125 32.7935L385.505 33.1184C385.93 32.6219 386.316 32.0917 386.659 31.5324L386.233 31.2707L385.807 31.0091C385.491 31.5237 385.136 32.0116 384.745 32.4686L385.125 32.7935ZM387.089 29.5935L387.551 29.785C387.8 29.1851 388.003 28.5616 388.157 27.9189L387.671 27.8026L387.185 27.6862C387.043 28.2772 386.856 28.8504 386.628 29.4019L387.089 29.5935ZM387.964 25.9424L388.462 25.9812C388.487 25.6573 388.5 25.3301 388.5 25H388H387.5C387.5 25.3042 387.488 25.6056 387.465 25.9037L387.964 25.9424ZM388 25H388.5V24H388H387.5V25H388ZM388 22H388.5V20H388H387.5V22H388ZM388 18H388.5V16H388H387.5V18H388ZM388 14H388.5V12H388H387.5V14H388ZM388 10H388.5V8H388H387.5V10H388ZM388 6H388.5V4H388H387.5V6H388ZM388 2H388.5V1H388H387.5V2H388Z" fill="white" fill-opacity="0.6"/>
</svg>
