<svg width="446" height="61" viewBox="0 0 446 61" fill="none" xmlns="http://www.w3.org/2000/svg">
<path d="M352.646 0.646447C352.842 0.451184 353.158 0.451184 353.354 0.646447L356.536 3.82843C356.731 4.02369 356.731 4.34027 356.536 4.53553C356.34 4.7308 356.024 4.7308 355.828 4.53553L353 1.70711L350.172 4.53553C349.976 4.7308 349.66 4.7308 349.464 4.53553C349.269 4.34027 349.269 4.02369 349.464 3.82843L352.646 0.646447ZM353.354 60.3536C353.158 60.5488 352.842 60.5488 352.646 60.3536L349.464 57.1716C349.269 56.9763 349.269 56.6597 349.464 56.4645C349.66 56.2692 349.976 56.2692 350.172 56.4645L353 59.2929L355.828 56.4645C356.024 56.2692 356.34 56.2692 356.536 56.4645C356.731 56.6597 356.731 56.9763 356.536 57.1716L353.354 60.3536ZM353 1H353.5V1.92857H353H352.5V1H353ZM353 3.78571H353.5V5.64286H353H352.5V3.78571H353ZM353 7.5H353.5V9.35714H353H352.5V7.5H353ZM353 11.2143H353.5V13.0714H353H352.5V11.2143H353ZM353 14.9286H353.5V16.7857H353H352.5V14.9286H353ZM353 18.6429H353.5V20.5H353H352.5V18.6429H353ZM353 22.3571H353.5V24.2143H353H352.5V22.3571H353ZM353 26.0714H353.5V27H353H352.5V26.0714H353ZM353 27H353.5V28.0312H353H352.5V27H353ZM353 30.0938H353.5V32.1562H353H352.5V30.0938H353ZM353 34.2188H353.5V36.2812H353H352.5V34.2188H353ZM353 38.3438H353.5V40.4062H353H352.5V38.3438H353ZM353 42.4688H353.5V44.5312H353H352.5V42.4688H353ZM353 46.5938H353.5V48.6562H353H352.5V46.5938H353ZM353 50.7188H353.5V52.7812H353H352.5V50.7188H353ZM353 54.8438H353.5V56.9062H353H352.5V54.8438H353ZM353 58.9688H353.5V60H353H352.5V58.9688H353Z" fill="white" fill-opacity="0.6"/>
<path d="M323.354 0.646447C323.158 0.451184 322.842 0.451184 322.646 0.646447L319.464 3.82843C319.269 4.02369 319.269 4.34027 319.464 4.53553C319.66 4.7308 319.976 4.7308 320.172 4.53553L323 1.70711L325.828 4.53553C326.024 4.7308 326.34 4.7308 326.536 4.53553C326.731 4.34027 326.731 4.02369 326.536 3.82843L323.354 0.646447ZM3.64645 60.3536C3.84171 60.5488 4.15829 60.5488 4.35355 60.3536L7.53553 57.1716C7.7308 56.9763 7.7308 56.6597 7.53553 56.4645C7.34027 56.2692 7.02369 56.2692 6.82843 56.4645L4 59.2929L1.17157 56.4645C0.976311 56.2692 0.659728 56.2692 0.464466 56.4645C0.269204 56.6597 0.269204 56.9763 0.464466 57.1716L3.64645 60.3536ZM4 60H4.5V58.95H4H3.5V60H4ZM4 56.85H4.5V54.75H4H3.5V56.85H4ZM4 52.65H4.5V50.55H4H3.5V52.65H4ZM4 48.45H4.5V46.35H4H3.5V48.45H4ZM4 44.25H4.5V42.15H4H3.5V44.25H4ZM4 40.05H4.5V39H4H3.5V40.05H4ZM4 39H4.5C4.5 38.6958 4.5118 38.3944 4.53496 38.0963L4.03646 38.0576L3.53797 38.0188C3.51281 38.3427 3.5 38.6699 3.5 39H4ZM4.32903 36.1974L4.8153 36.3138C4.95669 35.7228 5.1437 35.1496 5.37243 34.5981L4.91057 34.4065L4.4487 34.215C4.19994 34.8149 3.99653 35.4384 3.84275 36.0811L4.32903 36.1974ZM5.76677 32.7293L6.19285 32.9909C6.50887 32.4763 6.8643 31.9884 7.25496 31.5314L6.87491 31.2065L6.49486 30.8816C6.07043 31.3781 5.68419 31.9083 5.3407 32.4676L5.76677 32.7293ZM8.20654 29.8749L8.53144 30.255C8.98841 29.8643 9.47632 29.5089 9.99093 29.1928L9.72929 28.7668L9.46764 28.3407C8.90829 28.6842 8.37811 29.0704 7.88164 29.4949L8.20654 29.8749ZM11.4065 27.9106L11.5981 28.3724C12.1496 28.1437 12.7228 27.9567 13.3138 27.8153L13.1974 27.329L13.0811 26.8428C12.4384 26.9965 11.8149 27.1999 11.215 27.4487L11.4065 27.9106ZM15.0576 27.0365L15.0963 27.535C15.3944 27.5118 15.6958 27.5 16 27.5V27V26.5C15.6699 26.5 15.3427 26.5128 15.0188 26.538L15.0576 27.0365ZM16 27V27.5H16.9966V27V26.5H16V27ZM18.9899 27V27.5H20.9831V27V26.5H18.9899V27ZM22.9764 27V27.5H24.9696V27V26.5H22.9764V27ZM26.9628 27V27.5H28.9561V27V26.5H26.9628V27ZM30.9493 27V27.5H32.9426V27V26.5H30.9493V27ZM34.9358 27V27.5H36.9291V27V26.5H34.9358V27ZM38.9223 27V27.5H40.9155V27V26.5H38.9223V27ZM42.9088 27V27.5H44.902V27V26.5H42.9088V27ZM46.8953 27V27.5H48.8885V27V26.5H46.8953V27ZM50.8818 27V27.5H52.875V27V26.5H50.8818V27ZM54.8683 27V27.5H56.8615V27V26.5H54.8683V27ZM58.8547 27V27.5H60.848V27V26.5H58.8547V27ZM62.8412 27V27.5H64.8345V27V26.5H62.8412V27ZM66.8277 27V27.5H68.821V27V26.5H66.8277V27ZM70.8142 27V27.5H72.8075V27V26.5H70.8142V27ZM74.8007 27V27.5H76.7939V27V26.5H74.8007V27ZM78.7872 27V27.5H80.7804V27V26.5H78.7872V27ZM82.7737 27V27.5H84.7669V27V26.5H82.7737V27ZM86.7601 27V27.5H88.7534V27V26.5H86.7601V27ZM90.7466 27V27.5H92.7399V27V26.5H90.7466V27ZM94.7331 27V27.5H96.7264V27V26.5H94.7331V27ZM98.7196 27V27.5H100.713V27V26.5H98.7196V27ZM102.706 27V27.5H104.699V27V26.5H102.706V27ZM106.693 27V27.5H108.686V27V26.5H106.693V27ZM110.679 27V27.5H112.672V27V26.5H110.679V27ZM114.666 27V27.5H116.659V27V26.5H114.666V27ZM118.652 27V27.5H120.645V27V26.5H118.652V27ZM122.638 27V27.5H124.632V27V26.5H122.638V27ZM126.625 27V27.5H128.618V27V26.5H126.625V27ZM130.611 27V27.5H132.605V27V26.5H130.611V27ZM134.598 27V27.5H136.591V27V26.5H134.598V27ZM138.584 27V27.5H140.578V27V26.5H138.584V27ZM142.571 27V27.5H144.564V27V26.5H142.571V27ZM146.557 27V27.5H148.551V27V26.5H146.557V27ZM150.544 27V27.5H152.537V27V26.5H150.544V27ZM154.53 27V27.5H156.524V27V26.5H154.53V27ZM158.517 27V27.5H160.51V27V26.5H158.517V27ZM162.503 27V27.5H164.497V27V26.5H162.503V27ZM166.49 27V27.5H168.483V27V26.5H166.49V27ZM170.476 27V27.5H172.469V27V26.5H170.476V27ZM174.463 27V27.5H176.456V27V26.5H174.463V27ZM178.449 27V27.5H180.442V27V26.5H178.449V27ZM182.436 27V27.5H184.429V27V26.5H182.436V27ZM186.422 27V27.5H188.415V27V26.5H186.422V27ZM190.409 27V27.5H192.402V27V26.5H190.409V27ZM194.395 27V27.5H196.388V27V26.5H194.395V27ZM198.382 27V27.5H200.375V27V26.5H198.382V27ZM202.368 27V27.5H204.361V27V26.5H202.368V27ZM206.355 27V27.5H208.348V27V26.5H206.355V27ZM210.341 27V27.5H212.334V27V26.5H210.341V27ZM214.328 27V27.5H216.321V27V26.5H214.328V27ZM218.314 27V27.5H220.307V27V26.5H218.314V27ZM222.3 27V27.5H224.294V27V26.5H222.3V27ZM226.287 27V27.5H228.28V27V26.5H226.287V27ZM230.273 27V27.5H232.267V27V26.5H230.273V27ZM234.26 27V27.5H236.253V27V26.5H234.26V27ZM238.246 27V27.5H240.24V27V26.5H238.246V27ZM242.233 27V27.5H244.226V27V26.5H242.233V27ZM246.219 27V27.5H248.213V27V26.5H246.219V27ZM250.206 27V27.5H252.199V27V26.5H250.206V27ZM254.192 27V27.5H256.186V27V26.5H254.192V27ZM258.179 27V27.5H260.172V27V26.5H258.179V27ZM262.165 27V27.5H264.159V27V26.5H262.165V27ZM266.152 27V27.5H268.145V27V26.5H266.152V27ZM270.138 27V27.5H272.132V27V26.5H270.138V27ZM274.125 27V27.5H276.118V27V26.5H274.125V27ZM278.111 27V27.5H280.105V27V26.5H278.111V27ZM282.098 27V27.5H284.091V27V26.5H282.098V27ZM286.084 27V27.5H288.078V27V26.5H286.084V27ZM290.071 27V27.5H292.064V27V26.5H290.071V27ZM294.057 27V27.5H296.051V27V26.5H294.057V27ZM298.044 27V27.5H300.037V27V26.5H298.044V27ZM302.03 27V27.5H304.024V27V26.5H302.03V27ZM306.017 27V27.5H308.01V27V26.5H306.017V27ZM310.003 27V27.5H311V27V26.5H310.003V27ZM311 27V27.5C311.33 27.5 311.657 27.4872 311.981 27.462L311.942 26.9635L311.904 26.465C311.606 26.4882 311.304 26.5 311 26.5V27ZM313.803 26.671L313.919 27.1572C314.562 27.0035 315.185 26.8001 315.785 26.5513L315.593 26.0894L315.402 25.6276C314.85 25.8563 314.277 26.0433 313.686 26.1847L313.803 26.671ZM317.271 25.2332L317.532 25.6593C318.092 25.3158 318.622 24.9296 319.118 24.5051L318.793 24.1251L318.469 23.745C318.012 24.1357 317.524 24.4911 317.009 24.8072L317.271 25.2332ZM320.125 22.7935L320.505 23.1184C320.93 22.6219 321.316 22.0917 321.659 21.5324L321.233 21.2707L320.807 21.0091C320.491 21.5237 320.136 22.0116 319.745 22.4686L320.125 22.7935ZM322.089 19.5935L322.551 19.785C322.8 19.1851 323.003 18.5616 323.157 17.9189L322.671 17.8026L322.185 17.6862C322.043 18.2772 321.856 18.8504 321.628 19.4019L322.089 19.5935ZM322.964 15.9424L323.462 15.9812C323.487 15.6573 323.5 15.3301 323.5 15H323H322.5C322.5 15.3042 322.488 15.6056 322.465 15.9037L322.964 15.9424ZM323 15H323.5V14.125H323H322.5V15H323ZM323 12.375H323.5V10.625H323H322.5V12.375H323ZM323 8.875H323.5V7.125H323H322.5V8.875H323ZM323 5.375H323.5V3.625H323H322.5V5.375H323ZM323 1.875H323.5V1H323H322.5V1.875H323Z" fill="white" fill-opacity="0.6"/>
<path d="M333.354 0.646447C333.158 0.451184 332.842 0.451184 332.646 0.646447L329.464 3.82843C329.269 4.02369 329.269 4.34027 329.464 4.53553C329.66 4.7308 329.976 4.7308 330.172 4.53553L333 1.70711L335.828 4.53553C336.024 4.7308 336.34 4.7308 336.536 4.53553C336.731 4.34027 336.731 4.02369 336.536 3.82843L333.354 0.646447ZM98.6464 60.3536C98.8417 60.5488 99.1583 60.5488 99.3536 60.3536L102.536 57.1716C102.731 56.9763 102.731 56.6597 102.536 56.4645C102.34 56.2692 102.024 56.2692 101.828 56.4645L99 59.2929L96.1716 56.4645C95.9763 56.2692 95.6597 56.2692 95.4645 56.4645C95.2692 56.6597 95.2692 56.9763 95.4645 57.1716L98.6464 60.3536ZM99 60H99.5V59H99H98.5V60H99ZM99 57H99.5V55H99H98.5V57H99ZM99 53H99.5V51H99H98.5V53H99ZM99 49H99.5V47H99H98.5V49H99ZM99 45H99.5V44H99H98.5V45H99ZM99 44H99.5C99.5 43.6958 99.5118 43.3944 99.535 43.0963L99.0365 43.0576L98.538 43.0188C98.5128 43.3427 98.5 43.6699 98.5 44H99ZM99.329 41.1974L99.8153 41.3138C99.9567 40.7228 100.144 40.1496 100.372 39.5981L99.9106 39.4065L99.4487 39.215C99.1999 39.8149 98.9965 40.4384 98.8428 41.0811L99.329 41.1974ZM100.767 37.7293L101.193 37.9909C101.509 37.4763 101.864 36.9884 102.255 36.5314L101.875 36.2065L101.495 35.8816C101.07 36.3781 100.684 36.9083 100.341 37.4676L100.767 37.7293ZM103.207 34.8749L103.531 35.255C103.988 34.8643 104.476 34.5089 104.991 34.1928L104.729 33.7668L104.468 33.3407C103.908 33.6842 103.378 34.0704 102.882 34.4949L103.207 34.8749ZM106.407 32.9106L106.598 33.3724C107.15 33.1437 107.723 32.9567 108.314 32.8153L108.197 32.329L108.081 31.8428C107.438 31.9965 106.815 32.1999 106.215 32.4487L106.407 32.9106ZM110.058 32.0365L110.096 32.535C110.394 32.5118 110.696 32.5 111 32.5V32V31.5C110.67 31.5 110.343 31.5128 110.019 31.538L110.058 32.0365ZM111 32V32.5H111.991V32V31.5H111V32ZM113.972 32V32.5H115.953V32V31.5H113.972V32ZM117.934 32V32.5H119.915V32V31.5H117.934V32ZM121.896 32V32.5H123.877V32V31.5H121.896V32ZM125.858 32V32.5H127.84V32V31.5H125.858V32ZM129.821 32V32.5H131.802V32V31.5H129.821V32ZM133.783 32V32.5H135.764V32V31.5H133.783V32ZM137.745 32V32.5H139.726V32V31.5H137.745V32ZM141.708 32V32.5H143.689V32V31.5H141.708V32ZM145.67 32V32.5H147.651V32V31.5H145.67V32ZM149.632 32V32.5H151.613V32V31.5H149.632V32ZM153.594 32V32.5H155.575V32V31.5H153.594V32ZM157.557 32V32.5H159.538V32V31.5H157.557V32ZM161.519 32V32.5H163.5V32V31.5H161.519V32ZM165.481 32V32.5H167.462V32V31.5H165.481V32ZM169.443 32V32.5H171.425V32V31.5H169.443V32ZM173.406 32V32.5H175.387V32V31.5H173.406V32ZM177.368 32V32.5H179.349V32V31.5H177.368V32ZM181.33 32V32.5H183.311V32V31.5H181.33V32ZM185.292 32V32.5H187.274V32V31.5H185.292V32ZM189.255 32V32.5H191.236V32V31.5H189.255V32ZM193.217 32V32.5H195.198V32V31.5H193.217V32ZM197.179 32V32.5H199.16V32V31.5H197.179V32ZM201.142 32V32.5H203.123V32V31.5H201.142V32ZM205.104 32V32.5H207.085V32V31.5H205.104V32ZM209.066 32V32.5H211.047V32V31.5H209.066V32ZM213.028 32V32.5H215.009V32V31.5H213.028V32ZM216.991 32V32.5H218.972V32V31.5H216.991V32ZM220.953 32V32.5H222.934V32V31.5H220.953V32ZM224.915 32V32.5H226.896V32V31.5H224.915V32ZM228.877 32V32.5H230.859V32V31.5H228.877V32ZM232.84 32V32.5H234.821V32V31.5H232.84V32ZM236.802 32V32.5H238.783V32V31.5H236.802V32ZM240.764 32V32.5H242.745V32V31.5H240.764V32ZM244.726 32V32.5H246.708V32V31.5H244.726V32ZM248.689 32V32.5H250.67V32V31.5H248.689V32ZM252.651 32V32.5H254.632V32V31.5H252.651V32ZM256.613 32V32.5H258.594V32V31.5H256.613V32ZM260.575 32V32.5H262.557V32V31.5H260.575V32ZM264.538 32V32.5H266.519V32V31.5H264.538V32ZM268.5 32V32.5H270.481V32V31.5H268.5V32ZM272.462 32V32.5H274.443V32V31.5H272.462V32ZM276.424 32V32.5H278.406V32V31.5H276.424V32ZM280.387 32V32.5H282.368V32V31.5H280.387V32ZM284.349 32V32.5H286.33V32V31.5H284.349V32ZM288.311 32V32.5H290.292V32V31.5H288.311V32ZM292.273 32V32.5H294.255V32V31.5H292.273V32ZM296.236 32V32.5H298.217V32V31.5H296.236V32ZM300.198 32V32.5H302.179V32V31.5H300.198V32ZM304.16 32V32.5H306.141V32V31.5H304.16V32ZM308.122 32V32.5H310.104V32V31.5H308.122V32ZM312.085 32V32.5H314.066V32V31.5H312.085V32ZM316.047 32V32.5H318.028V32V31.5H316.047V32ZM320.009 32V32.5H321V32V31.5H320.009V32ZM321 32V32.5C321.33 32.5 321.657 32.4872 321.981 32.462L321.942 31.9635L321.904 31.465C321.606 31.4882 321.304 31.5 321 31.5V32ZM323.803 31.671L323.919 32.1572C324.562 32.0035 325.185 31.8001 325.785 31.5513L325.593 31.0894L325.402 30.6276C324.85 30.8563 324.277 31.0433 323.686 31.1847L323.803 31.671ZM327.271 30.2332L327.532 30.6593C328.092 30.3158 328.622 29.9296 329.118 29.5051L328.793 29.1251L328.469 28.745C328.012 29.1357 327.524 29.4911 327.009 29.8072L327.271 30.2332ZM330.125 27.7935L330.505 28.1184C330.93 27.6219 331.316 27.0917 331.659 26.5324L331.233 26.2707L330.807 26.0091C330.491 26.5237 330.136 27.0116 329.745 27.4686L330.125 27.7935ZM332.089 24.5935L332.551 24.785C332.8 24.1851 333.003 23.5616 333.157 22.9189L332.671 22.8026L332.185 22.6862C332.043 23.2772 331.856 23.8504 331.628 24.4019L332.089 24.5935ZM332.964 20.9424L333.462 20.9812C333.487 20.6573 333.5 20.3301 333.5 20H333H332.5C332.5 20.3042 332.488 20.6056 332.465 20.9037L332.964 20.9424ZM333 20H333.5V19.05H333H332.5V20H333ZM333 17.15H333.5V15.25H333H332.5V17.15H333ZM333 13.35H333.5V11.45H333H332.5V13.35H333ZM333 9.55H333.5V7.65H333H332.5V9.55H333ZM333 5.75H333.5V3.85H333H332.5V5.75H333ZM333 1.95H333.5V1H333H332.5V1.95H333Z" fill="white" fill-opacity="0.6"/>
<path d="M362.646 0.646447C362.842 0.451184 363.158 0.451184 363.354 0.646447L366.536 3.82843C366.731 4.02369 366.731 4.34027 366.536 4.53553C366.34 4.7308 366.024 4.7308 365.828 4.53553L363 1.70711L360.172 4.53553C359.976 4.7308 359.66 4.7308 359.464 4.53553C359.269 4.34027 359.269 4.02369 359.464 3.82843L362.646 0.646447ZM442.354 60.3536C442.158 60.5488 441.842 60.5488 441.646 60.3536L438.464 57.1716C438.269 56.9763 438.269 56.6597 438.464 56.4645C438.66 56.2692 438.976 56.2692 439.172 56.4645L442 59.2929L444.828 56.4645C445.024 56.2692 445.34 56.2692 445.536 56.4645C445.731 56.6597 445.731 56.9763 445.536 57.1716L442.354 60.3536ZM442 60H441.5V59H442H442.5V60H442ZM442 57H441.5V55H442H442.5V57H442ZM442 53H441.5V51H442H442.5V53H442ZM442 49H441.5V47H442H442.5V49H442ZM442 45H441.5V44H442H442.5V45H442ZM442 44H441.5C441.5 43.6958 441.488 43.3944 441.465 43.0963L441.964 43.0576L442.462 43.0188C442.487 43.3427 442.5 43.6699 442.5 44H442ZM441.671 41.1974L441.185 41.3138C441.043 40.7228 440.856 40.1496 440.628 39.5981L441.089 39.4065L441.551 39.215C441.8 39.8149 442.003 40.4384 442.157 41.0811L441.671 41.1974ZM440.233 37.7293L439.807 37.9909C439.491 37.4763 439.136 36.9884 438.745 36.5314L439.125 36.2065L439.505 35.8816C439.93 36.3781 440.316 36.9083 440.659 37.4676L440.233 37.7293ZM437.793 34.8749L437.469 35.255C437.012 34.8643 436.524 34.5089 436.009 34.1928L436.271 33.7668L436.532 33.3407C437.092 33.6842 437.622 34.0704 438.118 34.4949L437.793 34.8749ZM434.593 32.9106L434.402 33.3724C433.85 33.1437 433.277 32.9567 432.686 32.8153L432.803 32.329L432.919 31.8428C433.562 31.9965 434.185 32.1999 434.785 32.4487L434.593 32.9106ZM430.942 32.0365L430.904 32.535C430.606 32.5118 430.304 32.5 430 32.5V32V31.5C430.33 31.5 430.657 31.5128 430.981 31.538L430.942 32.0365ZM430 32V32.5H429.018V32V31.5H430V32ZM427.054 32V32.5H425.089V32V31.5H427.054V32ZM423.125 32V32.5H421.161V32V31.5H423.125V32ZM419.196 32V32.5H417.232V32V31.5H419.196V32ZM415.268 32V32.5H413.304V32V31.5H415.268V32ZM411.339 32V32.5H409.375V32V31.5H411.339V32ZM407.411 32V32.5H405.446V32V31.5H407.411V32ZM403.482 32V32.5H401.518V32V31.5H403.482V32ZM399.554 32V32.5H397.589V32V31.5H399.554V32ZM395.625 32V32.5H393.661V32V31.5H395.625V32ZM391.696 32V32.5H389.732V32V31.5H391.696V32ZM387.768 32V32.5H385.804V32V31.5H387.768V32ZM383.839 32V32.5H381.875V32V31.5H383.839V32ZM379.911 32V32.5H377.946V32V31.5H379.911V32ZM375.982 32V32.5H375V32V31.5H375.982V32ZM375 32V32.5C374.67 32.5 374.343 32.4872 374.019 32.462L374.058 31.9635L374.096 31.465C374.394 31.4882 374.696 31.5 375 31.5V32ZM372.197 31.671L372.081 32.1572C371.438 32.0035 370.815 31.8001 370.215 31.5513L370.407 31.0894L370.598 30.6276C371.15 30.8563 371.723 31.0433 372.314 31.1847L372.197 31.671ZM368.729 30.2332L368.468 30.6593C367.908 30.3158 367.378 29.9296 366.882 29.5051L367.207 29.1251L367.531 28.745C367.988 29.1357 368.476 29.4911 368.991 29.8072L368.729 30.2332ZM365.875 27.7935L365.495 28.1184C365.07 27.6219 364.684 27.0917 364.341 26.5324L364.767 26.2707L365.193 26.0091C365.509 26.5237 365.864 27.0116 366.255 27.4686L365.875 27.7935ZM363.911 24.5935L363.449 24.785C363.2 24.1851 362.997 23.5616 362.843 22.9189L363.329 22.8026L363.815 22.6862C363.957 23.2772 364.144 23.8504 364.372 24.4019L363.911 24.5935ZM363.036 20.9424L362.538 20.9812C362.513 20.6573 362.5 20.3301 362.5 20H363H363.5C363.5 20.3042 363.512 20.6056 363.535 20.9037L363.036 20.9424ZM363 20H362.5V19.05H363H363.5V20H363ZM363 17.15H362.5V15.25H363H363.5V17.15H363ZM363 13.35H362.5V11.45H363H363.5V13.35H363ZM363 9.55H362.5V7.65H363H363.5V9.55H363ZM363 5.75H362.5V3.85H363H363.5V5.75H363ZM363 1.95H362.5V1H363H363.5V1.95H363Z" fill="white" fill-opacity="0.6"/>
<path d="M343.354 0.646447C343.158 0.451184 342.842 0.451184 342.646 0.646447L339.464 3.82843C339.269 4.02369 339.269 4.34027 339.464 4.53553C339.66 4.7308 339.976 4.7308 340.172 4.53553L343 1.70711L345.828 4.53553C346.024 4.7308 346.34 4.7308 346.536 4.53553C346.731 4.34027 346.731 4.02369 346.536 3.82843L343.354 0.646447ZM231.646 60.3536C231.842 60.5488 232.158 60.5488 232.354 60.3536L235.536 57.1716C235.731 56.9763 235.731 56.6597 235.536 56.4645C235.34 56.2692 235.024 56.2692 234.828 56.4645L232 59.2929L229.172 56.4645C228.976 56.2692 228.66 56.2692 228.464 56.4645C228.269 56.6597 228.269 56.9763 228.464 57.1716L231.646 60.3536ZM232 60H232.5V59.0833H232H231.5V60H232ZM232 57.25H232.5V55.4167H232H231.5V57.25H232ZM232 53.5833H232.5V51.75H232H231.5V53.5833H232ZM232 49.9167H232.5V49H232H231.5V49.9167H232ZM232 49H232.5C232.5 48.6958 232.512 48.3944 232.535 48.0963L232.036 48.0576L231.538 48.0188C231.513 48.3427 231.5 48.6699 231.5 49H232ZM232.329 46.1974L232.815 46.3138C232.957 45.7228 233.144 45.1496 233.372 44.5981L232.911 44.4065L232.449 44.215C232.2 44.8149 231.997 45.4384 231.843 46.0811L232.329 46.1974ZM233.767 42.7293L234.193 42.9909C234.509 42.4763 234.864 41.9884 235.255 41.5314L234.875 41.2065L234.495 40.8816C234.07 41.3781 233.684 41.9083 233.341 42.4676L233.767 42.7293ZM236.207 39.8749L236.531 40.255C236.988 39.8643 237.476 39.5089 237.991 39.1928L237.729 38.7668L237.468 38.3407C236.908 38.6842 236.378 39.0704 235.882 39.4949L236.207 39.8749ZM239.407 37.9106L239.598 38.3724C240.15 38.1437 240.723 37.9567 241.314 37.8153L241.197 37.329L241.081 36.8428C240.438 36.9965 239.815 37.1999 239.215 37.4487L239.407 37.9106ZM243.058 37.0365L243.096 37.535C243.394 37.5118 243.696 37.5 244 37.5V37V36.5C243.67 36.5 243.343 36.5128 243.019 36.538L243.058 37.0365ZM244 37V37.5H244.989V37V36.5H244V37ZM246.966 37V37.5H248.943V37V36.5H246.966V37ZM250.92 37V37.5H252.898V37V36.5H250.92V37ZM254.875 37V37.5H256.852V37V36.5H254.875V37ZM258.83 37V37.5H260.807V37V36.5H258.83V37ZM262.784 37V37.5H264.761V37V36.5H262.784V37ZM266.739 37V37.5H268.716V37V36.5H266.739V37ZM270.693 37V37.5H272.67V37V36.5H270.693V37ZM274.648 37V37.5H276.625V37V36.5H274.648V37ZM278.602 37V37.5H280.58V37V36.5H278.602V37ZM282.557 37V37.5H284.534V37V36.5H282.557V37ZM286.511 37V37.5H288.489V37V36.5H286.511V37ZM290.466 37V37.5H292.443V37V36.5H290.466V37ZM294.42 37V37.5H296.398V37V36.5H294.42V37ZM298.375 37V37.5H300.352V37V36.5H298.375V37ZM302.33 37V37.5H304.307V37V36.5H302.33V37ZM306.284 37V37.5H308.261V37V36.5H306.284V37ZM310.239 37V37.5H312.216V37V36.5H310.239V37ZM314.193 37V37.5H316.17V37V36.5H314.193V37ZM318.148 37V37.5H320.125V37V36.5H318.148V37ZM322.102 37V37.5H324.08V37V36.5H322.102V37ZM326.057 37V37.5H328.034V37V36.5H326.057V37ZM330.011 37V37.5H331V37V36.5H330.011V37ZM331 37V37.5C331.33 37.5 331.657 37.4872 331.981 37.462L331.942 36.9635L331.904 36.465C331.606 36.4882 331.304 36.5 331 36.5V37ZM333.803 36.671L333.919 37.1572C334.562 37.0035 335.185 36.8001 335.785 36.5513L335.593 36.0894L335.402 35.6276C334.85 35.8563 334.277 36.0433 333.686 36.1847L333.803 36.671ZM337.271 35.2332L337.532 35.6593C338.092 35.3158 338.622 34.9296 339.118 34.5051L338.793 34.1251L338.469 33.745C338.012 34.1357 337.524 34.4911 337.009 34.8072L337.271 35.2332ZM340.125 32.7935L340.505 33.1184C340.93 32.6219 341.316 32.0917 341.659 31.5324L341.233 31.2707L340.807 31.0091C340.491 31.5237 340.136 32.0116 339.745 32.4686L340.125 32.7935ZM342.089 29.5935L342.551 29.785C342.8 29.1851 343.003 28.5616 343.157 27.9189L342.671 27.8026L342.185 27.6862C342.043 28.2772 341.856 28.8504 341.628 29.4019L342.089 29.5935ZM342.964 25.9424L343.462 25.9812C343.487 25.6573 343.5 25.3301 343.5 25H343H342.5C342.5 25.3042 342.488 25.6056 342.465 25.9037L342.964 25.9424ZM343 25H343.5V24H343H342.5V25H343ZM343 22H343.5V20H343H342.5V22H343ZM343 18H343.5V16H343H342.5V18H343ZM343 14H343.5V12H343H342.5V14H343ZM343 10H343.5V8H343H342.5V10H343ZM343 6H343.5V4H343H342.5V6H343ZM343 2H343.5V1H343H342.5V2H343Z" fill="white" fill-opacity="0.6"/>
</svg>
