<svg width="33" height="24" viewBox="0 0 33 24" fill="none" xmlns="http://www.w3.org/2000/svg">
<path fill-rule="evenodd" clip-rule="evenodd" d="M29.3256 0.5C31.1561 0.5 32.6503 1.9938 32.6504 3.81523V20.1848C32.6503 22.0062 31.1561 23.5 29.3256 23.5H3.9752C2.14473 23.5 0.650529 22.0062 0.650391 20.1848V3.81523C0.650529 1.9938 2.14473 0.5 3.9752 0.5H29.3256ZM18.9803 15.7957C17.7348 17.0517 15.7138 17.093 14.4198 15.9133L14.2975 15.7957L12.4569 13.9391L4.46833 21.3325H28.8324L20.8315 13.9268L18.9803 15.7957ZM2.82647 19.8976L10.9287 12.3952L2.82647 4.21518V19.8976ZM22.3711 12.3848L30.4743 19.8967V4.21423L22.3711 12.3848ZM15.8467 14.2737L15.9336 14.3533C16.3818 14.727 17.0071 14.7004 17.4312 14.2727L28.9605 2.6675H4.3613L15.8467 14.2737Z" fill="white"/>
</svg>
