<svg width="544" height="150" viewBox="0 0 544 150" fill="none" xmlns="http://www.w3.org/2000/svg">
<rect x="0.5" y="0.5" width="543" height="100" rx="13.5" stroke="white" stroke-opacity="0.2" stroke-dasharray="2 2"/>
<path d="M131.354 149.354C131.158 149.549 130.842 149.549 130.646 149.354L127.464 146.172C127.269 145.976 127.269 145.66 127.464 145.464C127.66 145.269 127.976 145.269 128.172 145.464L131 148.293L133.828 145.464C134.024 145.269 134.34 145.269 134.536 145.464C134.731 145.66 134.731 145.976 134.536 146.172L131.354 149.354ZM131 149H130.5V148.125H131H131.5V149H131ZM131 146.375H130.5V144.625H131H131.5V146.375H131ZM131 142.875H130.5V141.125H131H131.5V142.875H131ZM131 139.375H130.5V137.625H131H131.5V139.375H131ZM131 135.875H130.5V135H131H131.5V135.875H131ZM131 135H130.5C130.5 134.67 130.513 134.343 130.538 134.019L131.036 134.058L131.535 134.096C131.512 134.394 131.5 134.696 131.5 135H131ZM131.329 132.197L130.843 132.081C130.997 131.438 131.2 130.815 131.449 130.215L131.911 130.407L132.372 130.598C132.144 131.15 131.957 131.723 131.815 132.314L131.329 132.197ZM132.767 128.729L132.341 128.468C132.684 127.908 133.07 127.378 133.495 126.882L133.875 127.207L134.255 127.531C133.864 127.988 133.509 128.476 133.193 128.991L132.767 128.729ZM135.207 125.875L134.882 125.495C135.378 125.07 135.908 124.684 136.468 124.341L136.729 124.767L136.991 125.193C136.476 125.509 135.988 125.864 135.531 126.255L135.207 125.875ZM138.407 123.911L138.215 123.449C138.815 123.2 139.438 122.997 140.081 122.843L140.197 123.329L140.314 123.815C139.723 123.957 139.15 124.144 138.598 124.372L138.407 123.911ZM142.058 123.036L142.019 122.538C142.343 122.513 142.67 122.5 143 122.5V123V123.5C142.696 123.5 142.394 123.512 142.096 123.535L142.058 123.036ZM143 123V122.5H143.997V123V123.5H143V123ZM145.99 123V122.5H147.984V123V123.5H145.99V123ZM149.978 123V122.5H151.971V123V123.5H149.978V123ZM153.965 123V122.5H155.958V123V123.5H153.965V123ZM157.952 123V122.5H159.946V123V123.5H157.952V123ZM161.939 123V122.5H163.933V123V123.5H161.939V123ZM165.926 123V122.5H167.92V123V123.5H165.926V123ZM169.913 123V122.5H171.907V123V123.5H169.913V123ZM173.901 123V122.5H175.894V123V123.5H173.901V123ZM177.888 123V122.5H179.881V123V123.5H177.888V123ZM181.875 123V122.5H183.869V123V123.5H181.875V123ZM185.862 123V122.5H187.856V123V123.5H185.862V123ZM189.849 123V122.5H191.843V123V123.5H189.849V123ZM193.837 123V122.5H195.83V123V123.5H193.837V123ZM197.824 123V122.5H199.817V123V123.5H197.824V123ZM201.811 123V122.5H203.805V123V123.5H201.811V123ZM205.798 123V122.5H207.792V123V123.5H205.798V123ZM209.785 123V122.5H211.779V123V123.5H209.785V123ZM213.772 123V122.5H215.766V123V123.5H213.772V123ZM217.76 123V122.5H219.753V123V123.5H217.76V123ZM221.747 123V122.5H223.74V123V123.5H221.747V123ZM225.734 123V122.5H227.728V123V123.5H225.734V123ZM229.721 123V122.5H231.715V123V123.5H229.721V123ZM233.708 123V122.5H235.702V123V123.5H233.708V123ZM237.696 123V122.5H239.689V123V123.5H237.696V123ZM241.683 123V122.5H243.676V123V123.5H241.683V123ZM245.67 123V122.5H247.664V123V123.5H245.67V123ZM249.657 123V122.5H251.651V123V123.5H249.657V123ZM253.644 123V122.5H255.638V123V123.5H253.644V123ZM257.631 123V122.5H259.625V123V123.5H257.631V123ZM261.619 123V122.5H263.612V123V123.5H261.619V123ZM265.606 123V122.5H267.599V123V123.5H265.606V123ZM269.593 123V122.5H271.587V123V123.5H269.593V123ZM273.58 123V122.5H275.574V123V123.5H273.58V123ZM277.567 123V122.5H279.561V123V123.5H277.567V123ZM281.555 123V122.5H283.548V123V123.5H281.555V123ZM285.542 123V122.5H287.535V123V123.5H285.542V123ZM289.529 123V122.5H291.523V123V123.5H289.529V123ZM293.516 123V122.5H295.51V123V123.5H293.516V123ZM297.503 123V122.5H299.497V123V123.5H297.503V123ZM301.49 123V122.5H303.484V123V123.5H301.49V123ZM305.478 123V122.5H307.471V123V123.5H305.478V123ZM309.465 123V122.5H311.458V123V123.5H309.465V123ZM313.452 123V122.5H315.446V123V123.5H313.452V123ZM317.439 123V122.5H319.433V123V123.5H317.439V123ZM321.426 123V122.5H323.42V123V123.5H321.426V123ZM325.414 123V122.5H327.407V123V123.5H325.414V123ZM329.401 123V122.5H331.394V123V123.5H329.401V123ZM333.388 123V122.5H335.382V123V123.5H333.388V123ZM337.375 123V122.5H339.369V123V123.5H337.375V123ZM341.362 123V122.5H343.356V123V123.5H341.362V123ZM345.349 123V122.5H347.343V123V123.5H345.349V123ZM349.337 123V122.5H351.33V123V123.5H349.337V123ZM353.324 123V122.5H355.317V123V123.5H353.324V123ZM357.311 123V122.5H359.305V123V123.5H357.311V123ZM361.298 123V122.5H363.292V123V123.5H361.298V123ZM365.285 123V122.5H367.279V123V123.5H365.285V123ZM369.273 123V122.5H371.266V123V123.5H369.273V123ZM373.26 123V122.5H375.253V123V123.5H373.26V123ZM377.247 123V122.5H379.241V123V123.5H377.247V123ZM381.234 123V122.5H383.228V123V123.5H381.234V123ZM385.221 123V122.5H387.215V123V123.5H385.221V123ZM389.208 123V122.5H391.202V123V123.5H389.208V123ZM393.196 123V122.5H395.189V123V123.5H393.196V123ZM397.183 123V122.5H399.176V123V123.5H397.183V123ZM401.17 123V122.5H403.164V123V123.5H401.17V123ZM405.157 123V122.5H407.151V123V123.5H405.157V123ZM409.144 123V122.5H411.138V123V123.5H409.144V123ZM413.132 123V122.5H415.125V123V123.5H413.132V123ZM417.119 123V122.5H419.112V123V123.5H417.119V123ZM421.106 123V122.5H423.1V123V123.5H421.106V123ZM425.093 123V122.5H427.087V123V123.5H425.093V123ZM429.08 123V122.5H431.074V123V123.5H429.08V123ZM433.068 123V122.5H435.061V123V123.5H433.068V123ZM437.055 123V122.5H439.048V123V123.5H437.055V123ZM441.042 123V122.5H443.035V123V123.5H441.042V123ZM445.029 123V122.5H447.023V123V123.5H445.029V123ZM449.016 123V122.5H451.01V123V123.5H449.016V123ZM453.003 123V122.5H454V123V123.5H453.003V123ZM454 123V122.5C454.304 122.5 454.606 122.488 454.904 122.465L454.942 122.964L454.981 123.462C454.657 123.487 454.33 123.5 454 123.5V123ZM456.803 122.671L456.686 122.185C457.277 122.043 457.85 121.856 458.402 121.628L458.593 122.089L458.785 122.551C458.185 122.8 457.562 123.003 456.919 123.157L456.803 122.671ZM460.271 121.233L460.009 120.807C460.524 120.491 461.012 120.136 461.469 119.745L461.793 120.125L462.118 120.505C461.622 120.93 461.092 121.316 460.532 121.659L460.271 121.233ZM463.125 118.793L462.745 118.469C463.136 118.012 463.491 117.524 463.807 117.009L464.233 117.271L464.659 117.532C464.316 118.092 463.93 118.622 463.505 119.118L463.125 118.793ZM465.089 115.593L464.628 115.402C464.856 114.85 465.043 114.277 465.185 113.686L465.671 113.803L466.157 113.919C466.003 114.562 465.8 115.185 465.551 115.785L465.089 115.593ZM465.964 111.942L465.465 111.904C465.488 111.606 465.5 111.304 465.5 111H466H466.5C466.5 111.33 466.487 111.657 466.462 111.981L465.964 111.942ZM466 111H465.5V110.083H466H466.5V111H466ZM466 108.25H465.5V106.417H466H466.5V108.25H466ZM466 104.583H465.5V102.75H466H466.5V104.583H466ZM466 100.917H465.5V99.0833H466H466.5V100.917H466ZM466 97.25H465.5V95.4167H466H466.5V97.25H466ZM466 93.5833H465.5V91.75H466H466.5V93.5833H466ZM466 89.9167H465.5V89H466H466.5V89.9167H466Z" fill="white" fill-opacity="0.6"/>
<path d="M121.354 149.354C121.158 149.549 120.842 149.549 120.646 149.354L117.464 146.172C117.269 145.976 117.269 145.66 117.464 145.464C117.66 145.269 117.976 145.269 118.172 145.464L121 148.293L123.828 145.464C124.024 145.269 124.34 145.269 124.536 145.464C124.731 145.66 124.731 145.976 124.536 146.172L121.354 149.354ZM121 149H120.5V148.05H121H121.5V149H121ZM121 146.15H120.5V144.25H121H121.5V146.15H121ZM121 142.35H120.5V140.45H121H121.5V142.35H121ZM121 138.55H120.5V136.65H121H121.5V138.55H121ZM121 134.75H120.5V132.85H121H121.5V134.75H121ZM121 130.95H120.5V130H121H121.5V130.95H121ZM121 130H120.5C120.5 129.67 120.513 129.343 120.538 129.019L121.036 129.058L121.535 129.096C121.512 129.394 121.5 129.696 121.5 130H121ZM121.329 127.197L120.843 127.081C120.997 126.438 121.2 125.815 121.449 125.215L121.911 125.407L122.372 125.598C122.144 126.15 121.957 126.723 121.815 127.314L121.329 127.197ZM122.767 123.729L122.341 123.468C122.684 122.908 123.07 122.378 123.495 121.882L123.875 122.207L124.255 122.531C123.864 122.988 123.509 123.476 123.193 123.991L122.767 123.729ZM125.207 120.875L124.882 120.495C125.378 120.07 125.908 119.684 126.468 119.341L126.729 119.767L126.991 120.193C126.476 120.509 125.988 120.864 125.531 121.255L125.207 120.875ZM128.407 118.911L128.215 118.449C128.815 118.2 129.438 117.997 130.081 117.843L130.197 118.329L130.314 118.815C129.723 118.957 129.15 119.144 128.598 119.372L128.407 118.911ZM132.058 118.036L132.019 117.538C132.343 117.513 132.67 117.5 133 117.5V118V118.5C132.696 118.5 132.394 118.512 132.096 118.535L132.058 118.036ZM133 118V117.5H134V118V118.5H133V118ZM136 118V117.5H138V118V118.5H136V118ZM140 118V117.5H142V118V118.5H140V118ZM144 118V117.5H146V118V118.5H144V118ZM148 118V117.5H150V118V118.5H148V118ZM152 118V117.5H154V118V118.5H152V118ZM156 118V117.5H158V118V118.5H156V118ZM160 118V117.5H162V118V118.5H160V118ZM164 118V117.5H166V118V118.5H164V118ZM168 118V117.5H170V118V118.5H168V118ZM172 118V117.5H174V118V118.5H172V118ZM176 118V117.5H178V118V118.5H176V118ZM180 118V117.5H182V118V118.5H180V118ZM184 118V117.5H186V118V118.5H184V118ZM188 118V117.5H190V118V118.5H188V118ZM192 118V117.5H194V118V118.5H192V118ZM196 118V117.5H198V118V118.5H196V118ZM200 118V117.5H202V118V118.5H200V118ZM204 118V117.5H206V118V118.5H204V118ZM208 118V117.5H210V118V118.5H208V118ZM212 118V117.5H214V118V118.5H212V118ZM216 118V117.5H218V118V118.5H216V118ZM220 118V117.5H222V118V118.5H220V118ZM224 118V117.5H226V118V118.5H224V118ZM228 118V117.5H230V118V118.5H228V118ZM232 118V117.5H234V118V118.5H232V118ZM236 118V117.5H238V118V118.5H236V118ZM240 118V117.5H242V118V118.5H240V118ZM244 118V117.5H246V118V118.5H244V118ZM248 118V117.5H250V118V118.5H248V118ZM252 118V117.5H254V118V118.5H252V118ZM256 118V117.5H258V118V118.5H256V118ZM260 118V117.5H262V118V118.5H260V118ZM264 118V117.5H266V118V118.5H264V118ZM268 118V117.5H270V118V118.5H268V118ZM272 118V117.5H274V118V118.5H272V118ZM276 118V117.5H278V118V118.5H276V118ZM280 118V117.5H282V118V118.5H280V118ZM284 118V117.5H286V118V118.5H284V118ZM288 118V117.5H290V118V118.5H288V118ZM292 118V117.5H294V118V118.5H292V118ZM296 118V117.5H298V118V118.5H296V118ZM300 118V117.5H302V118V118.5H300V118ZM304 118V117.5H306V118V118.5H304V118ZM308 118V117.5H310V118V118.5H308V118ZM312 118V117.5H314V118V118.5H312V118ZM316 118V117.5H318V118V118.5H316V118ZM320 118V117.5H322V118V118.5H320V118ZM324 118V117.5H325V118V118.5H324V118ZM325 118V117.5C325.304 117.5 325.606 117.488 325.904 117.465L325.942 117.964L325.981 118.462C325.657 118.487 325.33 118.5 325 118.5V118ZM327.803 117.671L327.686 117.185C328.277 117.043 328.85 116.856 329.402 116.628L329.593 117.089L329.785 117.551C329.185 117.8 328.562 118.003 327.919 118.157L327.803 117.671ZM331.271 116.233L331.009 115.807C331.524 115.491 332.012 115.136 332.469 114.745L332.793 115.125L333.118 115.505C332.622 115.93 332.092 116.316 331.532 116.659L331.271 116.233ZM334.125 113.793L333.745 113.469C334.136 113.012 334.491 112.524 334.807 112.009L335.233 112.271L335.659 112.532C335.316 113.092 334.93 113.622 334.505 114.118L334.125 113.793ZM336.089 110.593L335.628 110.402C335.856 109.85 336.043 109.277 336.185 108.686L336.671 108.803L337.157 108.919C337.003 109.562 336.8 110.185 336.551 110.785L336.089 110.593ZM336.964 106.942L336.465 106.904C336.488 106.606 336.5 106.304 336.5 106H337H337.5C337.5 106.33 337.487 106.657 337.462 106.981L336.964 106.942ZM337 106H336.5V104.938H337H337.5V106H337ZM337 102.812H336.5V100.688H337H337.5V102.812H337ZM337 98.5625H336.5V96.4375H337H337.5V98.5625H337ZM337 94.3125H336.5V92.1875H337H337.5V94.3125H337ZM337 90.0625H336.5V89H337H337.5V90.0625H337Z" fill="white" fill-opacity="0.6"/>
<path d="M101.354 149.354C101.158 149.549 100.842 149.549 100.646 149.354L97.4645 146.172C97.2692 145.976 97.2692 145.66 97.4645 145.464C97.6597 145.269 97.9763 145.269 98.1716 145.464L101 148.293L103.828 145.464C104.024 145.269 104.34 145.269 104.536 145.464C104.731 145.66 104.731 145.976 104.536 146.172L101.354 149.354ZM76 89H76.5V89.9167H76H75.5V89H76ZM76 91.75H76.5V93.5833H76H75.5V91.75H76ZM76 95.4167H76.5V97.25H76H75.5V95.4167H76ZM76 99.0833H76.5V100.917H76H75.5V99.0833H76ZM76 102.75H76.5V104.583H76H75.5V102.75H76ZM76 106.417H76.5V108.25H76H75.5V106.417H76ZM76 110.083H76.5V111H76H75.5V110.083H76ZM76 111H76.5C76.5 111.304 76.5118 111.606 76.535 111.904L76.0365 111.942L75.538 111.981C75.5128 111.657 75.5 111.33 75.5 111H76ZM76.329 113.803L76.8153 113.686C76.9567 114.277 77.1437 114.85 77.3724 115.402L76.9106 115.593L76.4487 115.785C76.1999 115.185 75.9965 114.562 75.8428 113.919L76.329 113.803ZM77.7668 117.271L78.1928 117.009C78.5089 117.524 78.8643 118.012 79.255 118.469L78.8749 118.793L78.4949 119.118C78.0704 118.622 77.6842 118.092 77.3407 117.532L77.7668 117.271ZM80.2065 120.125L80.5314 119.745C80.9884 120.136 81.4763 120.491 81.9909 120.807L81.7293 121.233L81.4676 121.659C80.9083 121.316 80.3781 120.93 79.8816 120.505L80.2065 120.125ZM83.4065 122.089L83.5981 121.628C84.1496 121.856 84.7228 122.043 85.3138 122.185L85.1974 122.671L85.0811 123.157C84.4384 123.003 83.8149 122.8 83.215 122.551L83.4065 122.089ZM87.0576 122.964L87.0963 122.465C87.3944 122.488 87.6958 122.5 88 122.5V123V123.5C87.6699 123.5 87.3427 123.487 87.0188 123.462L87.0576 122.964ZM88 123V122.5H88.25V123V123.5H88V123ZM88.75 123V122.5H89V123V123.5H88.75V123ZM89 123V122.5C89.3301 122.5 89.6573 122.513 89.9812 122.538L89.9424 123.036L89.9037 123.535C89.6056 123.512 89.3042 123.5 89 123.5V123ZM91.8026 123.329L91.9189 122.843C92.5616 122.997 93.1851 123.2 93.785 123.449L93.5935 123.911L93.4019 124.372C92.8504 124.144 92.2772 123.957 91.6862 123.815L91.8026 123.329ZM95.2707 124.767L95.5324 124.341C96.0917 124.684 96.6219 125.07 97.1184 125.495L96.7935 125.875L96.4686 126.255C96.0116 125.864 95.5237 125.509 95.0091 125.193L95.2707 124.767ZM98.1251 127.207L98.5051 126.882C98.9296 127.378 99.3158 127.908 99.6593 128.468L99.2332 128.729L98.8072 128.991C98.4911 128.476 98.1357 127.988 97.745 127.531L98.1251 127.207ZM100.089 130.407L100.551 130.215C100.8 130.815 101.003 131.438 101.157 132.081L100.671 132.197L100.185 132.314C100.043 131.723 99.8563 131.15 99.6276 130.598L100.089 130.407ZM100.964 134.058L101.462 134.019C101.487 134.343 101.5 134.67 101.5 135H101H100.5C100.5 134.696 100.488 134.394 100.465 134.096L100.964 134.058ZM101 135H101.5V135.875H101H100.5V135H101ZM101 137.625H101.5V139.375H101H100.5V137.625H101ZM101 141.125H101.5V142.875H101H100.5V141.125H101ZM101 144.625H101.5V146.375H101H100.5V144.625H101ZM101 148.125H101.5V149H101H100.5V148.125H101Z" fill="white" fill-opacity="0.6"/>
<path d="M111.354 149.354C111.158 149.549 110.842 149.549 110.646 149.354L107.464 146.172C107.269 145.976 107.269 145.66 107.464 145.464C107.66 145.269 107.976 145.269 108.172 145.464L111 148.293L113.828 145.464C114.024 145.269 114.34 145.269 114.536 145.464C114.731 145.66 114.731 145.976 114.536 146.172L111.354 149.354ZM111 149H110.5V148H111H111.5V149H111ZM111 146H110.5V144H111H111.5V146H111ZM111 142H110.5V140H111H111.5V142H111ZM111 138H110.5V136H111H111.5V138H111ZM111 134H110.5V132H111H111.5V134H111ZM111 130H110.5V128H111H111.5V130H111ZM111 126H110.5V125H111H111.5V126H111ZM111 125H110.5C110.5 124.67 110.513 124.343 110.538 124.019L111.036 124.058L111.535 124.096C111.512 124.394 111.5 124.696 111.5 125H111ZM111.329 122.197L110.843 122.081C110.997 121.438 111.2 120.815 111.449 120.215L111.911 120.407L112.372 120.598C112.144 121.15 111.957 121.723 111.815 122.314L111.329 122.197ZM112.767 118.729L112.341 118.468C112.684 117.908 113.07 117.378 113.495 116.882L113.875 117.207L114.255 117.531C113.864 117.988 113.509 118.476 113.193 118.991L112.767 118.729ZM115.207 115.875L114.882 115.495C115.378 115.07 115.908 114.684 116.468 114.341L116.729 114.767L116.991 115.193C116.476 115.509 115.988 115.864 115.531 116.255L115.207 115.875ZM118.407 113.911L118.215 113.449C118.815 113.2 119.438 112.997 120.081 112.843L120.197 113.329L120.314 113.815C119.723 113.957 119.15 114.144 118.598 114.372L118.407 113.911ZM122.058 113.036L122.019 112.538C122.343 112.513 122.67 112.5 123 112.5V113V113.5C122.696 113.5 122.394 113.512 122.096 113.535L122.058 113.036ZM123 113V112.5H124V113V113.5H123V113ZM126 113V112.5H128V113V113.5H126V113ZM130 113V112.5H132V113V113.5H130V113ZM134 113V112.5H136V113V113.5H134V113ZM138 113V112.5H140V113V113.5H138V113ZM142 113V112.5H144V113V113.5H142V113ZM146 113V112.5H148V113V113.5H146V113ZM150 113V112.5H152V113V113.5H150V113ZM154 113V112.5H156V113V113.5H154V113ZM158 113V112.5H160V113V113.5H158V113ZM162 113V112.5H164V113V113.5H162V113ZM166 113V112.5H168V113V113.5H166V113ZM170 113V112.5H172V113V113.5H170V113ZM174 113V112.5H176V113V113.5H174V113ZM178 113V112.5H180V113V113.5H178V113ZM182 113V112.5H184V113V113.5H182V113ZM186 113V112.5H188V113V113.5H186V113ZM190 113V112.5H192V113V113.5H190V113ZM194 113V112.5H195V113V113.5H194V113ZM195 113V112.5C195.304 112.5 195.606 112.488 195.904 112.465L195.942 112.964L195.981 113.462C195.657 113.487 195.33 113.5 195 113.5V113ZM197.803 112.671L197.686 112.185C198.277 112.043 198.85 111.856 199.402 111.628L199.593 112.089L199.785 112.551C199.185 112.8 198.562 113.003 197.919 113.157L197.803 112.671ZM201.271 111.233L201.009 110.807C201.524 110.491 202.012 110.136 202.469 109.745L202.793 110.125L203.118 110.505C202.622 110.93 202.092 111.316 201.532 111.659L201.271 111.233ZM204.125 108.793L203.745 108.469C204.136 108.012 204.491 107.524 204.807 107.009L205.233 107.271L205.659 107.532C205.316 108.092 204.93 108.622 204.505 109.118L204.125 108.793ZM206.089 105.593L205.628 105.402C205.856 104.85 206.043 104.277 206.185 103.686L206.671 103.803L207.157 103.919C207.003 104.562 206.8 105.185 206.551 105.785L206.089 105.593ZM206.964 101.942L206.465 101.904C206.488 101.606 206.5 101.304 206.5 101H207H207.5C207.5 101.33 207.487 101.657 207.462 101.981L206.964 101.942ZM207 101H206.5V100H207H207.5V101H207ZM207 98H206.5V96H207H207.5V98H207ZM207 94H206.5V92H207H207.5V94H207ZM207 90H206.5V89H207H207.5V90H207Z" fill="white" fill-opacity="0.6"/>
</svg>
