<svg width="392" height="61" viewBox="0 0 392 61" fill="none" xmlns="http://www.w3.org/2000/svg">
<path d="M56.3536 60.3536C56.1583 60.5488 55.8417 60.5488 55.6464 60.3536L52.4645 57.1716C52.2692 56.9763 52.2692 56.6597 52.4645 56.4645C52.6597 56.2692 52.9763 56.2692 53.1716 56.4645L56 59.2929L58.8284 56.4645C59.0237 56.2692 59.3403 56.2692 59.5355 56.4645C59.7308 56.6597 59.7308 56.9763 59.5355 57.1716L56.3536 60.3536ZM56 60H55.5V59.125H56H56.5V60H56ZM56 57.375H55.5V55.625H56H56.5V57.375H56ZM56 53.875H55.5V52.125H56H56.5V53.875H56ZM56 50.375H55.5V48.625H56H56.5V50.375H56ZM56 46.875H55.5V46H56H56.5V46.875H56ZM56 46H55.5C55.5 45.6699 55.5128 45.3427 55.538 45.0188L56.0365 45.0576L56.535 45.0963C56.5118 45.3944 56.5 45.6958 56.5 46H56ZM56.329 43.1974L55.8428 43.0811C55.9965 42.4384 56.1999 41.8149 56.4487 41.215L56.9106 41.4065L57.3724 41.5981C57.1437 42.1496 56.9567 42.7228 56.8153 43.3138L56.329 43.1974ZM57.7668 39.7293L57.3407 39.4676C57.6842 38.9083 58.0704 38.3781 58.4949 37.8816L58.8749 38.2065L59.255 38.5314C58.8643 38.9884 58.5089 39.4763 58.1928 39.9909L57.7668 39.7293ZM60.2065 36.8749L59.8816 36.4949C60.3781 36.0704 60.9083 35.6842 61.4676 35.3407L61.7293 35.7668L61.9909 36.1928C61.4763 36.5089 60.9884 36.8643 60.5314 37.255L60.2065 36.8749ZM63.4065 34.9106L63.215 34.4487C63.8149 34.1999 64.4384 33.9965 65.0811 33.8428L65.1974 34.329L65.3138 34.8153C64.7228 34.9567 64.1496 35.1437 63.5981 35.3724L63.4065 34.9106ZM67.0576 34.0365L67.0188 33.538C67.3427 33.5128 67.6699 33.5 68 33.5V34V34.5C67.6958 34.5 67.3944 34.5118 67.0963 34.535L67.0576 34.0365ZM68 34V33.5H68.9968V34V34.5H68V34ZM70.9904 34V33.5H72.984V34V34.5H70.9904V34ZM74.9776 34V33.5H76.9712V34V34.5H74.9776V34ZM78.9647 34V33.5H80.9583V34V34.5H78.9647V34ZM82.9519 34V33.5H84.9455V34V34.5H82.9519V34ZM86.9391 34V33.5H88.9327V34V34.5H86.9391V34ZM90.9263 34V33.5H92.9199V34V34.5H90.9263V34ZM94.9135 34V33.5H96.907V34V34.5H94.9135V34ZM98.9006 34V33.5H100.894V34V34.5H98.9006V34ZM102.888 34V33.5H104.881V34V34.5H102.888V34ZM106.875 34V33.5H108.869V34V34.5H106.875V34ZM110.862 34V33.5H112.856V34V34.5H110.862V34ZM114.849 34V33.5H116.843V34V34.5H114.849V34ZM118.837 34V33.5H120.83V34V34.5H118.837V34ZM122.824 34V33.5H124.817V34V34.5H122.824V34ZM126.811 34V33.5H128.805V34V34.5H126.811V34ZM130.798 34V33.5H132.792V34V34.5H130.798V34ZM134.785 34V33.5H136.779V34V34.5H134.785V34ZM138.772 34V33.5H140.766V34V34.5H138.772V34ZM142.76 34V33.5H144.753V34V34.5H142.76V34ZM146.747 34V33.5H148.74V34V34.5H146.747V34ZM150.734 34V33.5H152.728V34V34.5H150.734V34ZM154.721 34V33.5H156.715V34V34.5H154.721V34ZM158.708 34V33.5H160.702V34V34.5H158.708V34ZM162.696 34V33.5H164.689V34V34.5H162.696V34ZM166.683 34V33.5H168.676V34V34.5H166.683V34ZM170.67 34V33.5H172.664V34V34.5H170.67V34ZM174.657 34V33.5H176.651V34V34.5H174.657V34ZM178.644 34V33.5H180.638V34V34.5H178.644V34ZM182.631 34V33.5H184.625V34V34.5H182.631V34ZM186.619 34V33.5H188.612V34V34.5H186.619V34ZM190.606 34V33.5H192.599V34V34.5H190.606V34ZM194.593 34V33.5H196.587V34V34.5H194.593V34ZM198.58 34V33.5H200.574V34V34.5H198.58V34ZM202.567 34V33.5H204.561V34V34.5H202.567V34ZM206.555 34V33.5H208.548V34V34.5H206.555V34ZM210.542 34V33.5H212.535V34V34.5H210.542V34ZM214.529 34V33.5H216.523V34V34.5H214.529V34ZM218.516 34V33.5H220.51V34V34.5H218.516V34ZM222.503 34V33.5H224.497V34V34.5H222.503V34ZM226.49 34V33.5H228.484V34V34.5H226.49V34ZM230.478 34V33.5H232.471V34V34.5H230.478V34ZM234.465 34V33.5H236.458V34V34.5H234.465V34ZM238.452 34V33.5H240.446V34V34.5H238.452V34ZM242.439 34V33.5H244.433V34V34.5H242.439V34ZM246.426 34V33.5H248.42V34V34.5H246.426V34ZM250.414 34V33.5H252.407V34V34.5H250.414V34ZM254.401 34V33.5H256.394V34V34.5H254.401V34ZM258.388 34V33.5H260.382V34V34.5H258.388V34ZM262.375 34V33.5H264.369V34V34.5H262.375V34ZM266.362 34V33.5H268.356V34V34.5H266.362V34ZM270.349 34V33.5H272.343V34V34.5H270.349V34ZM274.337 34V33.5H276.33V34V34.5H274.337V34ZM278.324 34V33.5H280.317V34V34.5H278.324V34ZM282.311 34V33.5H284.305V34V34.5H282.311V34ZM286.298 34V33.5H288.292V34V34.5H286.298V34ZM290.285 34V33.5H292.279V34V34.5H290.285V34ZM294.273 34V33.5H296.266V34V34.5H294.273V34ZM298.26 34V33.5H300.253V34V34.5H298.26V34ZM302.247 34V33.5H304.241V34V34.5H302.247V34ZM306.234 34V33.5H308.228V34V34.5H306.234V34ZM310.221 34V33.5H312.215V34V34.5H310.221V34ZM314.208 34V33.5H316.202V34V34.5H314.208V34ZM318.196 34V33.5H320.189V34V34.5H318.196V34ZM322.183 34V33.5H324.176V34V34.5H322.183V34ZM326.17 34V33.5H328.164V34V34.5H326.17V34ZM330.157 34V33.5H332.151V34V34.5H330.157V34ZM334.144 34V33.5H336.138V34V34.5H334.144V34ZM338.132 34V33.5H340.125V34V34.5H338.132V34ZM342.119 34V33.5H344.112V34V34.5H342.119V34ZM346.106 34V33.5H348.1V34V34.5H346.106V34ZM350.093 34V33.5H352.087V34V34.5H350.093V34ZM354.08 34V33.5H356.074V34V34.5H354.08V34ZM358.068 34V33.5H360.061V34V34.5H358.068V34ZM362.055 34V33.5H364.048V34V34.5H362.055V34ZM366.042 34V33.5H368.035V34V34.5H366.042V34ZM370.029 34V33.5H372.023V34V34.5H370.029V34ZM374.016 34V33.5H376.01V34V34.5H374.016V34ZM378.003 34V33.5H379V34V34.5H378.003V34ZM379 34V33.5C379.304 33.5 379.606 33.4882 379.904 33.465L379.942 33.9635L379.981 34.462C379.657 34.4872 379.33 34.5 379 34.5V34ZM381.803 33.671L381.686 33.1847C382.277 33.0433 382.85 32.8563 383.402 32.6276L383.593 33.0894L383.785 33.5513C383.185 33.8001 382.562 34.0035 381.919 34.1572L381.803 33.671ZM385.271 32.2332L385.009 31.8072C385.524 31.4911 386.012 31.1357 386.469 30.745L386.793 31.1251L387.118 31.5051C386.622 31.9296 386.092 32.3158 385.532 32.6593L385.271 32.2332ZM388.125 29.7935L387.745 29.4686C388.136 29.0116 388.491 28.5237 388.807 28.0091L389.233 28.2707L389.659 28.5324C389.316 29.0917 388.93 29.6219 388.505 30.1184L388.125 29.7935ZM390.089 26.5935L389.628 26.4019C389.856 25.8504 390.043 25.2772 390.185 24.6862L390.671 24.8026L391.157 24.9189C391.003 25.5616 390.8 26.1851 390.551 26.785L390.089 26.5935ZM390.964 22.9424L390.465 22.9037C390.488 22.6056 390.5 22.3042 390.5 22H391H391.5C391.5 22.3301 391.487 22.6573 391.462 22.9812L390.964 22.9424ZM391 22H390.5V21.0833H391H391.5V22H391ZM391 19.25H390.5V17.4167H391H391.5V19.25H391ZM391 15.5833H390.5V13.75H391H391.5V15.5833H391ZM391 11.9167H390.5V10.0833H391H391.5V11.9167H391ZM391 8.25H390.5V6.41667H391H391.5V8.25H391ZM391 4.58334H390.5V2.75H391H391.5V4.58334H391ZM391 0.916664H390.5V0H391H391.5V0.916664H391Z" fill="white" fill-opacity="0.6"/>
<path d="M46.3536 60.3536C46.1583 60.5488 45.8417 60.5488 45.6464 60.3536L42.4645 57.1716C42.2692 56.9763 42.2692 56.6597 42.4645 56.4645C42.6597 56.2692 42.9763 56.2692 43.1716 56.4645L46 59.2929L48.8284 56.4645C49.0237 56.2692 49.3403 56.2692 49.5355 56.4645C49.7308 56.6597 49.7308 56.9763 49.5355 57.1716L46.3536 60.3536ZM46 60H45.5V59.05H46H46.5V60H46ZM46 57.15H45.5V55.25H46H46.5V57.15H46ZM46 53.35H45.5V51.45H46H46.5V53.35H46ZM46 49.55H45.5V47.65H46H46.5V49.55H46ZM46 45.75H45.5V43.85H46H46.5V45.75H46ZM46 41.95H45.5V41H46H46.5V41.95H46ZM46 41H45.5C45.5 40.6699 45.5128 40.3427 45.538 40.0188L46.0365 40.0576L46.535 40.0963C46.5118 40.3944 46.5 40.6958 46.5 41H46ZM46.329 38.1974L45.8428 38.0811C45.9965 37.4384 46.1999 36.8149 46.4487 36.215L46.9106 36.4065L47.3724 36.5981C47.1437 37.1496 46.9567 37.7228 46.8153 38.3138L46.329 38.1974ZM47.7668 34.7293L47.3407 34.4676C47.6842 33.9083 48.0704 33.3781 48.4949 32.8816L48.8749 33.2065L49.255 33.5314C48.8643 33.9884 48.5089 34.4763 48.1928 34.9909L47.7668 34.7293ZM50.2065 31.8749L49.8816 31.4949C50.3781 31.0704 50.9083 30.6842 51.4676 30.3407L51.7293 30.7668L51.9909 31.1928C51.4763 31.5089 50.9884 31.8643 50.5314 32.255L50.2065 31.8749ZM53.4065 29.9106L53.215 29.4487C53.8149 29.1999 54.4384 28.9965 55.0811 28.8428L55.1974 29.329L55.3138 29.8153C54.7228 29.9567 54.1496 30.1437 53.5981 30.3724L53.4065 29.9106ZM57.0576 29.0365L57.0188 28.538C57.3427 28.5128 57.6699 28.5 58 28.5V29V29.5C57.6958 29.5 57.3944 29.5118 57.0963 29.535L57.0576 29.0365ZM58 29V28.5H59V29V29.5H58V29ZM61 29V28.5H63V29V29.5H61V29ZM65 29V28.5H67V29V29.5H65V29ZM69 29V28.5H71V29V29.5H69V29ZM73 29V28.5H75V29V29.5H73V29ZM77 29V28.5H79V29V29.5H77V29ZM81 29V28.5H83V29V29.5H81V29ZM85 29V28.5H87V29V29.5H85V29ZM89 29V28.5H91V29V29.5H89V29ZM93 29V28.5H95V29V29.5H93V29ZM97 29V28.5H99V29V29.5H97V29ZM101 29V28.5H103V29V29.5H101V29ZM105 29V28.5H107V29V29.5H105V29ZM109 29V28.5H111V29V29.5H109V29ZM113 29V28.5H115V29V29.5H113V29ZM117 29V28.5H119V29V29.5H117V29ZM121 29V28.5H123V29V29.5H121V29ZM125 29V28.5H127V29V29.5H125V29ZM129 29V28.5H131V29V29.5H129V29ZM133 29V28.5H135V29V29.5H133V29ZM137 29V28.5H139V29V29.5H137V29ZM141 29V28.5H143V29V29.5H141V29ZM145 29V28.5H147V29V29.5H145V29ZM149 29V28.5H151V29V29.5H149V29ZM153 29V28.5H155V29V29.5H153V29ZM157 29V28.5H159V29V29.5H157V29ZM161 29V28.5H163V29V29.5H161V29ZM165 29V28.5H167V29V29.5H165V29ZM169 29V28.5H171V29V29.5H169V29ZM173 29V28.5H175V29V29.5H173V29ZM177 29V28.5H179V29V29.5H177V29ZM181 29V28.5H183V29V29.5H181V29ZM185 29V28.5H187V29V29.5H185V29ZM189 29V28.5H191V29V29.5H189V29ZM193 29V28.5H195V29V29.5H193V29ZM197 29V28.5H199V29V29.5H197V29ZM201 29V28.5H203V29V29.5H201V29ZM205 29V28.5H207V29V29.5H205V29ZM209 29V28.5H211V29V29.5H209V29ZM213 29V28.5H215V29V29.5H213V29ZM217 29V28.5H219V29V29.5H217V29ZM221 29V28.5H223V29V29.5H221V29ZM225 29V28.5H227V29V29.5H225V29ZM229 29V28.5H231V29V29.5H229V29ZM233 29V28.5H235V29V29.5H233V29ZM237 29V28.5H239V29V29.5H237V29ZM241 29V28.5H243V29V29.5H241V29ZM245 29V28.5H247V29V29.5H245V29ZM249 29V28.5H250V29V29.5H249V29ZM250 29V28.5C250.304 28.5 250.606 28.4882 250.904 28.465L250.942 28.9635L250.981 29.462C250.657 29.4872 250.33 29.5 250 29.5V29ZM252.803 28.671L252.686 28.1847C253.277 28.0433 253.85 27.8563 254.402 27.6276L254.593 28.0894L254.785 28.5513C254.185 28.8001 253.562 29.0035 252.919 29.1572L252.803 28.671ZM256.271 27.2332L256.009 26.8072C256.524 26.4911 257.012 26.1357 257.469 25.745L257.793 26.1251L258.118 26.5051C257.622 26.9296 257.092 27.3158 256.532 27.6593L256.271 27.2332ZM259.125 24.7935L258.745 24.4686C259.136 24.0116 259.491 23.5237 259.807 23.0091L260.233 23.2707L260.659 23.5324C260.316 24.0917 259.93 24.6219 259.505 25.1184L259.125 24.7935ZM261.089 21.5935L260.628 21.4019C260.856 20.8504 261.043 20.2772 261.185 19.6862L261.671 19.8026L262.157 19.9189C262.003 20.5616 261.8 21.1851 261.551 21.785L261.089 21.5935ZM261.964 17.9424L261.465 17.9037C261.488 17.6056 261.5 17.3042 261.5 17H262H262.5C262.5 17.3301 262.487 17.6573 262.462 17.9812L261.964 17.9424ZM262 17H261.5V15.9375H262H262.5V17H262ZM262 13.8125H261.5V11.6875H262H262.5V13.8125H262ZM262 9.5625H261.5V7.4375H262H262.5V9.5625H262ZM262 5.3125H261.5V3.1875H262H262.5V5.3125H262ZM262 1.0625H261.5V0H262H262.5V1.0625H262Z" fill="white" fill-opacity="0.6"/>
<path d="M26.3536 60.3536C26.1583 60.5488 25.8417 60.5488 25.6464 60.3536L22.4645 57.1716C22.2692 56.9763 22.2692 56.6597 22.4645 56.4645C22.6597 56.2692 22.9763 56.2692 23.1716 56.4645L26 59.2929L28.8284 56.4645C29.0237 56.2692 29.3403 56.2692 29.5355 56.4645C29.7308 56.6597 29.7308 56.9763 29.5355 57.1716L26.3536 60.3536ZM1 0H1.5V0.916668H1H0.5V0H1ZM1 2.75H1.5V4.58333H1H0.5V2.75H1ZM1 6.41667H1.5V8.25H1H0.5V6.41667H1ZM1 10.0833H1.5V11.9167H1H0.5V10.0833H1ZM1 13.75H1.5V15.5833H1H0.5V13.75H1ZM1 17.4167H1.5V19.25H1H0.5V17.4167H1ZM1 21.0833H1.5V22H1H0.5V21.0833H1ZM1 22H1.5C1.5 22.3042 1.5118 22.6056 1.53496 22.9037L1.03646 22.9424L0.537966 22.9812C0.512807 22.6573 0.5 22.3301 0.5 22H1ZM1.32903 24.8026L1.8153 24.6862C1.95669 25.2772 2.1437 25.8504 2.37243 26.4019L1.91057 26.5935L1.4487 26.785C1.19994 26.1851 0.996529 25.5616 0.842752 24.9189L1.32903 24.8026ZM2.76677 28.2707L3.19285 28.0091C3.50887 28.5237 3.8643 29.0116 4.25496 29.4686L3.87491 29.7935L3.49485 30.1184C3.07043 29.6219 2.68419 29.0917 2.3407 28.5324L2.76677 28.2707ZM5.20654 31.1251L5.53144 30.745C5.98841 31.1357 6.47632 31.4911 6.99093 31.8072L6.72929 32.2332L6.46764 32.6593C5.90829 32.3158 5.37811 31.9296 4.88164 31.5051L5.20654 31.1251ZM8.40655 33.0894L8.59808 32.6276C9.14964 32.8563 9.72285 33.0433 10.3138 33.1847L10.1974 33.671L10.0811 34.1572C9.43836 34.0035 8.8149 33.8001 8.21502 33.5513L8.40655 33.0894ZM12.0576 33.9635L12.0963 33.465C12.3944 33.4882 12.6958 33.5 13 33.5V34V34.5C12.6699 34.5 12.3427 34.4872 12.0188 34.462L12.0576 33.9635ZM13 34V33.5H13.25V34V34.5H13V34ZM13.75 34V33.5H14V34V34.5H13.75V34ZM14 34V33.5C14.3301 33.5 14.6573 33.5128 14.9812 33.538L14.9424 34.0365L14.9037 34.535C14.6056 34.5118 14.3042 34.5 14 34.5V34ZM16.8026 34.329L16.9189 33.8428C17.5616 33.9965 18.1851 34.1999 18.785 34.4487L18.5935 34.9106L18.4019 35.3724C17.8504 35.1437 17.2772 34.9567 16.6862 34.8153L16.8026 34.329ZM20.2707 35.7668L20.5324 35.3407C21.0917 35.6842 21.6219 36.0704 22.1184 36.4949L21.7935 36.8749L21.4686 37.255C21.0116 36.8643 20.5237 36.5089 20.0091 36.1928L20.2707 35.7668ZM23.1251 38.2065L23.5051 37.8816C23.9296 38.3781 24.3158 38.9083 24.6593 39.4676L24.2332 39.7293L23.8072 39.9909C23.4911 39.4763 23.1357 38.9884 22.745 38.5314L23.1251 38.2065ZM25.0894 41.4065L25.5513 41.215C25.8001 41.8149 26.0035 42.4384 26.1572 43.0811L25.671 43.1974L25.1847 43.3138C25.0433 42.7228 24.8563 42.1496 24.6276 41.5981L25.0894 41.4065ZM25.9635 45.0576L26.462 45.0188C26.4872 45.3427 26.5 45.6699 26.5 46H26H25.5C25.5 45.6958 25.4882 45.3944 25.465 45.0963L25.9635 45.0576ZM26 46H26.5V46.875H26H25.5V46H26ZM26 48.625H26.5V50.375H26H25.5V48.625H26ZM26 52.125H26.5V53.875H26H25.5V52.125H26ZM26 55.625H26.5V57.375H26H25.5V55.625H26ZM26 59.125H26.5V60H26H25.5V59.125H26Z" fill="white" fill-opacity="0.6"/>
<path d="M36.3536 60.3536C36.1583 60.5488 35.8417 60.5488 35.6464 60.3536L32.4645 57.1716C32.2692 56.9763 32.2692 56.6597 32.4645 56.4645C32.6597 56.2692 32.9763 56.2692 33.1716 56.4645L36 59.2929L38.8284 56.4645C39.0237 56.2692 39.3403 56.2692 39.5355 56.4645C39.7308 56.6597 39.7308 56.9763 39.5355 57.1716L36.3536 60.3536ZM36 60H35.5V59H36H36.5V60H36ZM36 57H35.5V55H36H36.5V57H36ZM36 53H35.5V51H36H36.5V53H36ZM36 49H35.5V47H36H36.5V49H36ZM36 45H35.5V43H36H36.5V45H36ZM36 41H35.5V39H36H36.5V41H36ZM36 37H35.5V36H36H36.5V37H36ZM36 36H35.5C35.5 35.6699 35.5128 35.3427 35.538 35.0188L36.0365 35.0576L36.535 35.0963C36.5118 35.3944 36.5 35.6958 36.5 36H36ZM36.329 33.1974L35.8428 33.0811C35.9965 32.4384 36.1999 31.8149 36.4487 31.215L36.9106 31.4065L37.3724 31.5981C37.1437 32.1496 36.9567 32.7228 36.8153 33.3138L36.329 33.1974ZM37.7668 29.7293L37.3407 29.4676C37.6842 28.9083 38.0704 28.3781 38.4949 27.8816L38.8749 28.2065L39.255 28.5314C38.8643 28.9884 38.5089 29.4763 38.1928 29.9909L37.7668 29.7293ZM40.2065 26.8749L39.8816 26.4949C40.3781 26.0704 40.9083 25.6842 41.4676 25.3407L41.7293 25.7668L41.9909 26.1928C41.4763 26.5089 40.9884 26.8643 40.5314 27.255L40.2065 26.8749ZM43.4065 24.9106L43.215 24.4487C43.8149 24.1999 44.4384 23.9965 45.0811 23.8428L45.1974 24.329L45.3138 24.8153C44.7228 24.9567 44.1496 25.1437 43.5981 25.3724L43.4065 24.9106ZM47.0576 24.0365L47.0188 23.538C47.3427 23.5128 47.6699 23.5 48 23.5V24V24.5C47.6958 24.5 47.3944 24.5118 47.0963 24.535L47.0576 24.0365ZM48 24V23.5H49V24V24.5H48V24ZM51 24V23.5H53V24V24.5H51V24ZM55 24V23.5H57V24V24.5H55V24ZM59 24V23.5H61V24V24.5H59V24ZM63 24V23.5H65V24V24.5H63V24ZM67 24V23.5H69V24V24.5H67V24ZM71 24V23.5H73V24V24.5H71V24ZM75 24V23.5H77V24V24.5H75V24ZM79 24V23.5H81V24V24.5H79V24ZM83 24V23.5H85V24V24.5H83V24ZM87 24V23.5H89V24V24.5H87V24ZM91 24V23.5H93V24V24.5H91V24ZM95 24V23.5H97V24V24.5H95V24ZM99 24V23.5H101V24V24.5H99V24ZM103 24V23.5H105V24V24.5H103V24ZM107 24V23.5H109V24V24.5H107V24ZM111 24V23.5H113V24V24.5H111V24ZM115 24V23.5H117V24V24.5H115V24ZM119 24V23.5H120V24V24.5H119V24ZM120 24V23.5C120.304 23.5 120.606 23.4882 120.904 23.465L120.942 23.9635L120.981 24.462C120.657 24.4872 120.33 24.5 120 24.5V24ZM122.803 23.671L122.686 23.1847C123.277 23.0433 123.85 22.8563 124.402 22.6276L124.593 23.0894L124.785 23.5513C124.185 23.8001 123.562 24.0035 122.919 24.1572L122.803 23.671ZM126.271 22.2332L126.009 21.8072C126.524 21.4911 127.012 21.1357 127.469 20.745L127.793 21.1251L128.118 21.5051C127.622 21.9296 127.092 22.3158 126.532 22.6593L126.271 22.2332ZM129.125 19.7935L128.745 19.4686C129.136 19.0116 129.491 18.5237 129.807 18.0091L130.233 18.2707L130.659 18.5324C130.316 19.0917 129.93 19.6219 129.505 20.1184L129.125 19.7935ZM131.089 16.5935L130.628 16.4019C130.856 15.8504 131.043 15.2772 131.185 14.6862L131.671 14.8026L132.157 14.9189C132.003 15.5616 131.8 16.1851 131.551 16.785L131.089 16.5935ZM131.964 12.9424L131.465 12.9037C131.488 12.6056 131.5 12.3042 131.5 12H132H132.5C132.5 12.3301 132.487 12.6573 132.462 12.9812L131.964 12.9424ZM132 12H131.5V11H132H132.5V12H132ZM132 9H131.5V7H132H132.5V9H132ZM132 5H131.5V3H132H132.5V5H132ZM132 1H131.5V0H132H132.5V1H132Z" fill="white" fill-opacity="0.6"/>
</svg>
