<svg width="32" height="28" viewBox="0 0 32 28" fill="none" xmlns="http://www.w3.org/2000/svg">
<path d="M31.5661 0.268033C31.2244 -0.017942 30.7518 -0.0766026 30.3446 0.0993809L1.14448 12.9462C0.402817 13.2688 -0.0406986 14.0094 0.00295036 14.8233C0.0465993 15.6373 0.577366 16.3192 1.35532 16.5465L12.262 19.8756L12.5746 25.8149C12.611 26.5555 13.0836 27.1934 13.7816 27.4501C13.9852 27.5234 14.1888 27.5527 14.3924 27.5527C14.8941 27.5527 15.3885 27.3401 15.7448 26.9441L18.4423 23.9451L23.75 27.6554C24.0771 27.8827 24.448 28 24.8406 28C25.0733 28 25.3205 27.956 25.5459 27.8607C26.1421 27.626 26.5784 27.0981 26.7092 26.4748L31.9732 1.44106C32.0677 1.0011 31.9078 0.554018 31.5661 0.268033ZM26.0258 4.60164L13.0688 17.639L3.21664 14.6252L26.0258 4.59418V4.60164ZM14.872 24.3925L14.7121 21.3421L16.4862 22.5886L14.8647 24.3925H14.872ZM24.5423 25.3091L15.2354 18.8122L28.7592 5.19534L24.5348 25.3086L24.5423 25.3091Z" fill="white"/>
</svg>
