<svg width="40" height="40" viewBox="0 0 40 40" fill="none" xmlns="http://www.w3.org/2000/svg">
<path d="M20 40C8.956 40 0 31.044 0 20C0 8.956 8.956 0 20 0C31.044 0 40 8.956 40 20C40 31.044 31.044 40 20 40Z" fill="#136EFF"/>
<path d="M32.728 13.5641C32.424 12.4121 31.524 11.5081 30.38 11.2001C28.308 10.6401 20.004 10.6401 20.004 10.6401C20.004 10.6401 11.696 10.6401 9.62797 11.2001C8.48397 11.5081 7.58397 12.4121 7.27997 13.5641C6.71997 15.6481 6.71997 20.0001 6.71997 20.0001C6.71997 20.0001 6.71997 24.3521 7.27597 26.4361C7.57997 27.5881 8.47997 28.4921 9.62397 28.8001C11.696 29.3601 20 29.3601 20 29.3601C20 29.3601 28.308 29.3601 30.376 28.8001C31.52 28.4921 32.42 27.5881 32.724 26.4361C33.28 24.3521 33.28 20.0001 33.28 20.0001C33.28 20.0001 33.28 15.6481 32.728 13.5641ZM17.284 23.9481V16.0521L24.224 20.0001L17.284 23.9481Z" fill="white"/>
</svg>
