<svg width="32" height="32" viewBox="0 0 32 32" fill="none" xmlns="http://www.w3.org/2000/svg">
<path fill-rule="evenodd" clip-rule="evenodd" d="M13.1154 2.37037V5.92593H11.5821C10.2109 5.92593 8.98285 6.89541 8.52977 8.2963H2.38462V5.92593C2.38462 5.2717 1.85046 4.74074 1.19231 4.74074C0.534154 4.74074 0 5.2717 0 5.92593V17.8276C0 18.4818 0.534154 19.0127 1.19231 19.0127C1.85046 19.0127 2.38462 18.4818 2.38462 17.8276V15.4074H8.52977C8.98285 16.8083 10.2109 17.7778 11.5821 17.7778H17.0333C18.4045 17.7778 19.6325 16.8083 20.0856 15.4074H22.6538V18.963C22.6538 19.6172 23.188 20.1481 23.8462 20.1481H23.9868C23.6172 20.7431 23.2142 21.44 22.8446 22.1867C22.0744 23.7345 21.4615 25.4886 21.4615 27.0056C21.4615 29.7837 23.622 32 26.2308 32C28.8395 32 31 29.7837 31 27.0056C31 25.4886 30.3872 23.7345 29.6169 22.1867C29.2473 21.44 28.8443 20.7431 28.4747 20.1481H28.6154C29.2735 20.1481 29.8077 19.6172 29.8077 18.963V15.4074C29.8077 11.4821 26.6028 8.2963 22.6538 8.2963H20.0856C19.6325 6.89541 18.4045 5.92593 17.0333 5.92593H15.5V2.37037H19.0769C19.7351 2.37037 20.2692 1.83941 20.2692 1.18519C20.2692 0.530963 19.7351 0 19.0769 0H9.53846C8.88031 0 8.34615 0.530963 8.34615 1.18519C8.34615 1.83941 8.88031 2.37037 9.53846 2.37037H13.1154ZM26.2308 21.0536C26.6171 21.6557 27.0702 22.4119 27.4803 23.2367C28.0836 24.4527 28.6154 25.8133 28.6154 27.0056C28.6154 28.4326 27.5709 29.6296 26.2308 29.6296C24.8906 29.6296 23.8462 28.4326 23.8462 27.0056C23.8462 25.8133 24.3779 24.4527 24.9812 23.2367C25.3914 22.4119 25.8445 21.6557 26.2308 21.0536ZM2.38462 13.037H9.53846C10.1966 13.037 10.7308 13.568 10.7308 14.2222C10.7308 14.8314 11.0551 15.4074 11.5821 15.4074H17.0333C17.5603 15.4074 17.8846 14.8314 17.8846 14.2222C17.8846 13.568 18.4188 13.037 19.0769 13.037H22.6538C23.9702 13.037 25.0385 14.099 25.0385 15.4074V17.7778H27.4231V15.4074C27.4231 12.7905 25.2865 10.6667 22.6538 10.6667H19.0769C18.4188 10.6667 17.8846 10.1357 17.8846 9.48148C17.8846 8.8723 17.5603 8.2963 17.0333 8.2963H11.5821C11.0551 8.2963 10.7308 8.8723 10.7308 9.48148C10.7308 10.1357 10.1966 10.6667 9.53846 10.6667H2.38462V13.037Z" fill="#136EFF"/>
</svg>
