<svg width="24" height="24" viewBox="0 0 24 24" fill="none" xmlns="http://www.w3.org/2000/svg">
<path d="M3.74736 15.3922C3.85523 15.385 3.96079 15.4025 4.05829 15.4394L4.15375 15.4829L5.74149 16.3562L5.74338 16.3571L5.80859 16.3977C6.11865 16.6142 6.22089 17.0336 6.03541 17.3721L6.03635 17.3731C5.8401 17.733 5.38841 17.8699 5.02511 17.6736L4.82192 17.564V17.5611L3.43454 16.7985L3.43265 16.7975C3.07304 16.5972 2.94261 16.1435 3.13967 15.7825L3.22189 15.6615C3.31462 15.5496 3.43806 15.4658 3.57724 15.4224L3.58953 15.4196L3.66514 15.4016C3.69024 15.3972 3.71793 15.3938 3.74736 15.3922Z" fill="#136EFF"/>
<path fill-rule="evenodd" clip-rule="evenodd" d="M11.9129 0.00998769C12.0354 -0.010006 12.1603 -9.8999e-06 12.2767 0.0402304L12.3911 0.0903198L12.392 0.0912649L22.6481 5.73625L22.6472 5.7372C22.9041 5.86319 23.0666 6.12352 23.0658 6.40821V17.5848L23.0583 17.6953C23.0238 17.9376 22.8714 18.149 22.6481 18.2596L22.649 18.2614L12.4176 23.8913L12.4166 23.8904C12.3012 23.9596 12.1695 24 12.032 24H12.0206L12.0093 23.9991C11.9793 23.9973 11.9512 23.9926 11.9337 23.9896C11.9264 23.9888 11.9198 23.9883 11.9148 23.9877L11.8978 23.9858L11.8808 23.982C11.8354 23.9722 11.7872 23.9555 11.7371 23.9338L11.7343 23.9329C11.7278 23.93 11.721 23.9265 11.7144 23.9234V23.9253L11.7097 23.9234L11.6946 23.9178L11.6804 23.9102C11.6788 23.9094 11.6772 23.9082 11.6757 23.9074L11.6691 23.9045L11.6624 23.9008L1.38748 18.2454L1.18713 18.1358V18.0809L1.18618 18.08C1.18338 18.0765 1.16907 18.0596 1.15499 18.0384L1.15594 18.0375C1.12904 18.0018 1.10425 17.966 1.08506 17.9288L1.08222 17.9241C1.07944 17.9185 1.06949 17.8959 1.0586 17.8683L1.05765 17.8692C1.05704 17.8677 1.05719 17.8652 1.05671 17.8636C1.05563 17.8608 1.05312 17.8579 1.05198 17.8551L1.05292 17.8541C1.03373 17.8037 1.02155 17.7561 1.01418 17.7133L1.01512 17.7124C1.01334 17.7028 1.00795 17.6786 1.00567 17.6538L1.00662 17.6528L1.00189 17.6188L1 17.6027V6.40159L1.00189 6.38647L1.00567 6.35339C1.00898 6.3054 1.01755 6.2501 1.03497 6.19273C1.0353 6.19159 1.03547 6.19009 1.03591 6.18895C1.03644 6.18724 1.03639 6.18501 1.03686 6.18328C1.04921 6.14366 1.06411 6.11108 1.07183 6.09444L1.07372 6.09066L1.10963 6.02356C1.11867 6.00872 1.12954 5.99456 1.13987 5.98008C1.1528 5.96062 1.16699 5.9399 1.18429 5.91865L1.19185 5.9092L1.2013 5.89975C1.23547 5.86309 1.2759 5.82941 1.32038 5.79768L1.33929 5.77878L1.38748 5.75137L11.6719 0.0912649L11.6747 0.0893747L11.7862 0.0402304C11.8244 0.0269908 11.8649 0.0178742 11.9072 0.0109328L11.9101 0.00998769H11.9129ZM2.49796 17.1434L11.2844 21.9794V12.5097L2.49796 7.67651V17.1434ZM12.7814 12.5097V21.9794L21.5679 17.1444V7.67462L12.7814 12.5097ZM3.30506 6.40915L12.031 11.2121L15.6186 9.23779L6.89165 4.43487L3.30506 6.40915ZM8.44726 3.57862L17.1742 8.38249L20.7589 6.40915L12.031 1.60529L8.44726 3.57862Z" fill="#136EFF"/>
</svg>
