<svg width="24" height="24" viewBox="0 0 24 24" fill="none" xmlns="http://www.w3.org/2000/svg">
<path fill-rule="evenodd" clip-rule="evenodd" d="M12.2492 14.7398C13.4745 14.8646 14.4341 15.9011 14.4342 17.1591C14.4342 18.4171 13.4747 19.4553 12.2492 19.5804L12.0005 19.5928C10.6584 19.5928 9.56671 18.4999 9.56671 17.1591C9.56683 15.8182 10.6587 14.7274 12.0005 14.7274L12.2492 14.7398ZM12.0005 16.3919C11.5765 16.3919 11.2323 16.7353 11.2323 17.1582C11.2323 17.5816 11.577 17.9263 12.0005 17.9263L12.0789 17.9225C12.4653 17.883 12.7677 17.5553 12.7677 17.1582L12.7639 17.0797C12.7271 16.72 12.4397 16.4325 12.0789 16.3957L12.0005 16.3919Z" fill="#136EFF"/>
<path fill-rule="evenodd" clip-rule="evenodd" d="M12.2712 3.5405C12.8981 3.60629 13.4868 3.89852 13.9186 4.36225L14.0927 4.56888C14.4171 4.99938 14.6023 5.52281 14.6198 6.06218L14.6141 6.33291L14.2018 12.1004C14.125 13.1795 13.2699 14.0379 12.2138 14.1409L12.0005 14.1515C10.92 14.1515 10.0019 13.3593 9.82405 12.3128L9.79918 12.1004L9.38685 6.33291C9.33474 5.61077 9.58748 4.89154 10.0824 4.36129L10.2766 4.17379C10.7515 3.76024 11.3658 3.52615 12.0005 3.52615L12.2712 3.5405ZM12.0005 5.19165C11.7658 5.19165 11.5476 5.27427 11.3729 5.42698L11.3012 5.49681C11.1179 5.69336 11.0283 5.94732 11.0467 6.2162L11.459 11.9828L11.4772 12.0851C11.5407 12.3174 11.7536 12.4869 12.0005 12.4869L12.1038 12.4764C12.339 12.4301 12.524 12.2296 12.542 11.9828L12.9543 6.2162L12.9562 6.11671C12.9491 5.88504 12.8603 5.66894 12.6998 5.49681L12.6988 5.49585C12.5161 5.29927 12.2695 5.19168 12.0005 5.19165Z" fill="#136EFF"/>
<path fill-rule="evenodd" clip-rule="evenodd" d="M15.6511 0C16.5011 0 17.301 0.333043 17.9031 0.932717L23.0672 6.09758L23.1773 6.21333C23.7078 6.80036 24 7.5529 24 8.34949V15.6524L23.9962 15.8112C23.96 16.5486 23.6722 17.24 23.1773 17.7876L23.0672 17.9034L17.9031 23.0682C17.3009 23.668 16.5008 24 15.6511 24H8.34791C7.55158 24 6.79957 23.7084 6.21262 23.1783L6.09686 23.0682L0.931797 17.9034C0.369825 17.339 0.0425421 16.6011 0.00382668 15.8112L0 15.6524V8.34949C0 7.49985 0.332023 6.69979 0.931797 6.09758L6.09686 0.932717L6.21262 0.822704C6.79948 0.292368 7.55135 3.60334e-05 8.34791 0H15.6511ZM8.34887 1.6655C7.99399 1.66552 7.65725 1.78658 7.38646 2.00893L7.27452 2.11033L2.11042 7.27328C1.82265 7.56105 1.66564 7.94187 1.66556 8.34758V15.6505C1.66556 16.0561 1.82364 16.438 2.11042 16.7248L7.27357 21.8887L7.3855 21.9901C7.65701 22.2135 7.99296 22.3345 8.34791 22.3345H15.6511L15.8023 22.3268C16.1507 22.2925 16.4744 22.1398 16.7255 21.8887L21.8896 16.7267L21.991 16.6148C22.182 16.3824 22.2975 16.1024 22.3268 15.8036L22.3344 15.6524V8.34853C22.3343 7.99369 22.2133 7.65688 21.991 7.38616L21.8896 7.27423L16.7264 2.11033C16.4386 1.8226 16.0577 1.6655 15.6521 1.6655H8.34887Z" fill="#136EFF"/>
</svg>
