<svg width="24" height="24" viewBox="0 0 24 24" fill="none" xmlns="http://www.w3.org/2000/svg">
<path d="M16.9756 8.19343C17.3318 7.90134 17.8548 7.9223 18.1872 8.256C18.5197 8.58999 18.5407 9.11573 18.2498 9.47365L18.1872 9.54317L11.5312 16.2243C11.3549 16.4007 11.1246 16.4905 10.8927 16.4905C10.6894 16.4905 10.4864 16.4225 10.3206 16.2869L10.2521 16.2243L6.92411 12.8833C6.56925 12.527 6.56925 11.9524 6.92411 11.5961C7.27865 11.2405 7.84977 11.2404 8.20425 11.5961L10.7477 14.1496L10.8917 14.2936L11.0357 14.1496L16.9071 8.256L16.9756 8.19343Z" fill="#136EFF"/>
<path fill-rule="evenodd" clip-rule="evenodd" d="M11.5859 0.0999598C11.8464 -0.0341635 12.1544 -0.0328022 12.4131 0.100953L13.0626 0.425725C14.5873 1.16669 16.1785 1.78427 17.8029 2.2661L18.6957 2.51539C19.5934 2.75157 20.5052 2.94795 21.4169 3.10137L21.693 3.15997C23.0444 3.51663 24 4.74532 24 6.18819V11.902C24 14.7379 23.8052 17.3568 21.7933 19.185L13.9396 23.5163C13.9396 23.5163 13.9361 23.5181 13.9336 23.5193C13.9268 23.5226 13.9158 23.5277 13.9018 23.5342C13.8738 23.5472 13.832 23.567 13.7787 23.5898C13.6717 23.6356 13.5178 23.6964 13.3338 23.7577C12.9627 23.881 12.4781 24.0012 12.001 24L11.8868 23.999C11.4065 23.9834 10.9645 23.8724 10.6335 23.7586C10.456 23.6976 10.3114 23.6371 10.2124 23.5918C10.1631 23.5693 10.1254 23.5499 10.1001 23.5372C10.0875 23.5308 10.0774 23.5265 10.0713 23.5233C10.0685 23.5218 10.0654 23.5193 10.0654 23.5193L10.0624 23.5183L2.20574 19.187C0.445399 17.5867 0.0765396 15.3827 0.0119176 12.9587L0 11.904V6.18819C0 4.64878 1.08674 3.35324 2.58313 3.10137L3.49383 2.93352C4.40428 2.75163 5.31041 2.52777 6.19714 2.2661L6.89134 2.05157C8.50555 1.53206 10.0823 0.876972 11.5869 0.100953L11.5859 0.0999598ZM11.8759 1.99099C10.4258 2.70525 8.91707 3.31419 7.37598 3.80653L6.7086 4.01212C5.77018 4.29015 4.81113 4.52662 3.84739 4.71927L2.88306 4.89705C2.25804 5.0019 1.81147 5.54999 1.81147 6.18918V12.7194C1.81715 14.6237 1.9337 16.4927 3.43325 17.8472L3.44716 17.8601L3.46404 17.87L10.7854 22.2619C10.9229 22.375 11.1041 22.4529 11.2929 22.5013C11.4979 22.5538 11.7286 22.5787 11.9553 22.5787C12.1819 22.5787 12.4118 22.5538 12.6167 22.5013C12.807 22.4525 12.9893 22.3735 13.1272 22.2589L20.533 17.871L20.5509 17.8601L20.5658 17.8472C22.0652 16.4929 22.1818 14.623 22.1875 12.7194L22.1885 6.1872C22.1883 5.54794 21.7411 5.00088 21.1179 4.89606C20.1527 4.73319 19.187 4.52451 18.2369 4.27432L17.2914 4.01013C15.5069 3.48172 13.7603 2.79846 12.0904 1.9741L11.9563 1.90756L11.8759 1.99099Z" fill="#136EFF"/>
</svg>
