<svg width="24" height="24" viewBox="0 0 24 24" fill="none" xmlns="http://www.w3.org/2000/svg">
<path fill-rule="evenodd" clip-rule="evenodd" d="M12.3457 6.91685C19.5382 7.46613 19.4244 17.8722 11.9976 18.106H11.988C4.44473 17.8716 4.44243 7.13548 11.988 6.89853H11.9976L12.3457 6.91685ZM11.9919 8.7687C6.95914 8.93092 6.95948 16.0723 11.9919 16.2339C17.0262 16.0728 17.0259 8.92919 11.9919 8.7687Z" fill="#136EFF"/>
<path fill-rule="evenodd" clip-rule="evenodd" d="M8.70365 1.06342C9.28931 0.88548 9.92781 1.09041 10.2943 1.58398L11.2852 2.92876C11.7543 2.89681 12.2256 2.89681 12.6946 2.92876L13.6856 1.58398C14.0717 1.05663 14.7726 0.859622 15.39 1.1039L17.9725 2.12768L18.0863 2.1778C18.642 2.4538 18.957 3.06314 18.845 3.67105L18.8459 3.67201L18.5577 5.26262C18.9025 5.55153 19.2307 5.86315 19.5333 6.19673L21.2357 5.91621L21.3581 5.90079C21.9698 5.84699 22.5525 6.18488 22.7993 6.75104L23.8703 9.22081L23.9137 9.33649C24.1036 9.91778 23.8861 10.5647 23.3652 10.9165L21.9703 11.8564C21.9998 12.288 21.9997 12.7195 21.9703 13.1472L23.264 14.0196L23.2668 14.0177L23.3671 14.0852C23.8873 14.4364 24.112 15.0853 23.9195 15.6661L23.8751 15.7809L22.8051 18.2497C22.5579 18.8195 21.9745 19.1525 21.36 19.1009L21.2367 19.0855L19.5342 18.804C19.2287 19.1367 18.9056 19.4487 18.5606 19.7362L18.8507 21.3297L18.8671 21.4502C18.9154 22.012 18.6057 22.5576 18.0921 22.8171L17.9783 22.8682L15.3958 23.892C14.8143 24.1209 14.1612 23.9618 13.7618 23.5064L13.6856 23.4119L12.6994 22.0691C12.2283 22.101 11.7571 22.101 11.2901 22.0691L10.3 23.4129L10.301 23.4138C9.90902 23.9536 9.19608 24.1381 8.58989 23.8939L6.01022 22.874C5.39138 22.6259 5.01941 21.9813 5.13683 21.3345L5.427 19.7391C5.07959 19.4513 4.75406 19.1369 4.45239 18.8059L2.74803 19.0874C2.13338 19.1881 1.5277 18.8957 1.23937 18.3625L1.18539 18.2526L0.115341 15.7809C-0.145889 15.1743 0.0649616 14.4598 0.621443 14.0871L2.01154 13.1472C1.98195 12.7122 1.98194 12.2914 2.01154 11.8564L0.617587 10.9165C0.0623028 10.5439 -0.15155 9.83007 0.112449 9.22081L1.18057 6.752L1.23359 6.64114C1.52144 6.1057 2.12503 5.81277 2.74225 5.91332L4.44661 6.19673C4.74652 5.86552 5.07232 5.5537 5.42122 5.26262L5.13201 3.66719C5.01461 3.01806 5.38472 2.37322 6.00444 2.12768L8.587 1.1039L8.70365 1.06342ZM14.0789 4.2321C13.815 4.58821 13.3984 4.80004 12.9597 4.81435L12.7708 4.80857C12.3806 4.77188 11.9841 4.76229 11.5908 4.78061L11.1985 4.80857C10.7556 4.85181 10.3167 4.68744 10.0137 4.37477L9.89323 4.2321L8.96489 2.96925L7.07159 3.71925L7.34247 5.2067L7.36368 5.39565C7.38234 5.8354 7.18532 6.26196 6.82962 6.53896C6.4251 6.85848 6.0496 7.21649 5.72198 7.59936L5.72102 7.60032C5.43117 7.93302 5.00288 8.11248 4.56614 8.09775L4.37816 8.07943L2.78177 7.81433L2.01443 9.59003L3.3139 10.4663C3.71622 10.7296 3.86332 11.0727 3.9058 11.4371C3.92651 11.6149 3.92265 11.7981 3.91351 11.9759C3.90415 12.1579 3.89011 12.3293 3.88749 12.5042C3.89029 12.6763 3.90423 12.8458 3.91351 13.0257C3.92264 13.2027 3.9265 13.3852 3.9058 13.5627C3.8633 13.9267 3.71507 14.2698 3.31294 14.5344L3.3139 14.5354L2.01732 15.4078L2.78467 17.1835L4.38298 16.9193L4.57193 16.9001C5.01139 16.8844 5.43968 17.0689 5.7268 17.4013L5.9813 17.6838C6.24358 17.9605 6.52972 18.221 6.83348 18.4608C7.18865 18.74 7.38545 19.166 7.3685 19.6041L7.34729 19.7921L7.07448 21.2834L8.96971 22.0334L9.90094 20.7696L10.0205 20.6279C10.3201 20.3165 10.7585 20.1525 11.2004 20.1931L11.5947 20.2201C11.9887 20.2384 12.3851 20.2298 12.7795 20.1931L12.9684 20.1873C13.3438 20.2016 13.7014 20.3605 13.9604 20.625L14.0809 20.7657L14.0818 20.7667L15.0121 22.0334L16.9044 21.2834L16.6355 19.7979L16.6143 19.6099C16.5953 19.1713 16.7919 18.745 17.1464 18.4637L17.4423 18.2179C17.6359 18.0494 17.822 17.8716 17.9986 17.6857L18.256 17.4013C18.5772 17.02 19.0931 16.835 19.5978 16.9222L21.1923 17.1854L21.9616 15.4049L20.665 14.5325C20.2354 14.2428 19.9999 13.7467 20.0538 13.2397L20.0837 12.8715C20.1033 12.5022 20.0931 12.1282 20.0538 11.7542C20.0027 11.2525 20.2377 10.7591 20.6602 10.4673L20.6621 10.4663L21.9616 9.59003L21.1942 7.81433L19.5969 8.07943C19.1593 8.1534 18.712 8.0222 18.3871 7.73336L18.256 7.59936C17.9253 7.2134 17.5485 6.85499 17.1464 6.53799C16.7416 6.21935 16.5421 5.70849 16.6374 5.20478L16.9044 3.71732L15.0102 2.96636L14.0789 4.2321Z" fill="#136EFF"/>
</svg>
