<svg width="24" height="25" viewBox="0 0 24 25" fill="none" xmlns="http://www.w3.org/2000/svg">
<path d="M12.0156 15.8496C12.466 16.2496 14.1651 16.8999 14.1651 18.8994C14.165 19.6992 13.8653 20.4492 13.3154 20.999C12.7656 21.5489 12.0156 21.8486 11.2158 21.8486C9.71595 21.8486 8.56542 20.7989 8.31544 19.499C7.81566 17.05 10.0142 16.2497 10.3652 15.8496V7.40039H12.0156V15.8496Z" fill="#136EFF"/>
<path fill-rule="evenodd" clip-rule="evenodd" d="M11.2158 0C13.0499 0.000129636 14.4658 1.46902 14.4658 3.25V14.625C15.7671 15.6053 16.6152 17.1766 16.6152 18.8994C16.615 22.1357 13.8159 24.6996 10.5088 24.249L10.1875 24.1963C8.07893 23.7847 6.38106 22.0887 5.96876 20.0293L5.9297 19.8174C5.57025 17.6728 6.45941 15.7774 7.96583 14.627V3.25C7.96592 1.46737 9.43319 1.71546e-05 11.2158 0ZM11.166 1.5C10.1966 1.50002 9.36641 2.2854 9.36622 3.2998V15.373L9.30763 15.418L8.85744 15.7676L8.85353 15.7715L8.85255 15.7705C7.65611 16.6322 7.07311 18.1708 7.31349 19.7705L7.39064 20.0908C7.84455 21.671 9.31384 22.8984 11.166 22.8984C12.2227 22.8983 13.1871 22.4666 13.9629 21.7393C14.683 21.0173 15.1152 20.0069 15.1152 18.9492C15.1152 17.6942 14.5358 16.4912 13.5283 15.7715L13.5235 15.7676L13.0733 15.418L13.0156 15.373V3.2998C13.0154 2.33546 12.1853 1.50024 11.166 1.5Z" fill="#136EFF"/>
<path d="M18.5156 9.44922C18.8982 9.44948 19.2157 9.76682 19.2158 10.1494C19.2158 10.3396 19.1374 10.525 19.0156 10.6621C18.8936 10.7993 18.7169 10.8993 18.5156 10.8994H15.5156V9.44922H18.5156Z" fill="#136EFF"/>
<path d="M17.3662 6.4502C17.7486 6.45063 18.0654 6.76791 18.0654 7.15039C18.0652 7.53657 17.7487 7.83855 17.3906 7.89844L17.3779 7.90039H15.5156V6.4502H17.3662Z" fill="#136EFF"/>
<path d="M18.4649 3.39941C18.6755 3.39941 18.867 3.47593 18.999 3.61621C19.1323 3.75791 19.1941 3.954 19.1631 4.1709C19.1517 4.54416 18.8406 4.84961 18.4649 4.84961H15.4649V3.39941H18.4649Z" fill="#136EFF"/>
</svg>
