<svg width="24" height="24" viewBox="0 0 24 24" fill="none" xmlns="http://www.w3.org/2000/svg">
<path fill-rule="evenodd" clip-rule="evenodd" d="M13.6991 10.3944L13.7031 10.3953L13.9436 10.4243C14.473 10.5084 14.961 10.7142 15.3801 11.0073C15.9399 10.6158 16.6236 10.3818 17.3625 10.3818H17.3655L17.5363 10.3866H17.5393L17.7072 10.3992C19.4378 10.5701 20.793 12.0098 20.7932 13.7552V13.7581L20.7893 13.927L20.7883 13.9289C20.6989 15.6508 19.2908 17.0355 17.5393 17.1237H17.5363L17.3655 17.1285H17.3625C16.6233 17.1285 15.9401 16.893 15.3801 16.5012C14.8983 16.8385 14.3256 17.0606 13.7031 17.115L13.6991 17.116L13.4026 17.1285H13.3977C11.5649 17.1282 10.0634 15.7084 9.97095 13.9289V13.927L9.96702 13.7581L9.96604 13.7552L9.97095 13.5824C10.0629 11.8026 11.5646 10.3821 13.3977 10.3818H13.4026L13.6991 10.3944ZM13.3948 12.0864C12.4612 12.0882 11.7014 12.836 11.701 13.7542L11.7108 13.9289C11.7997 14.7657 12.5209 15.4203 13.3948 15.4221L13.5715 15.4134L13.7296 15.3902C14.5054 15.2383 15.0928 14.5652 15.0954 13.76L15.0865 13.5843L15.0649 13.4386C14.925 12.726 14.3213 12.1721 13.5764 12.095L13.3948 12.0864ZM17.3586 12.0864C17.045 12.087 16.7511 12.1728 16.4985 12.3209C16.7082 12.7559 16.8292 13.2409 16.8294 13.7542V13.7581L16.8215 13.9781V13.981C16.7921 14.4108 16.6768 14.8172 16.4985 15.1875C16.751 15.3356 17.0445 15.4214 17.3586 15.4221L17.5353 15.4134L17.6934 15.3902C18.4691 15.2385 19.0566 14.5654 19.0592 13.76L19.0494 13.5795C18.9657 12.8004 18.3338 12.1773 17.5412 12.095L17.3586 12.0864Z" fill="#136EFF"/>
<path fill-rule="evenodd" clip-rule="evenodd" d="M21.7711 3.01158L21.776 3.01255L22.0058 3.04633C23.1407 3.26807 23.9998 4.25421 24 5.43422V17.5648C23.9998 18.8232 23.023 19.8611 21.776 19.9865L21.7711 19.9875L21.5276 19.999L21.5227 20L2.47531 19.999C1.10977 19.9986 0.000179538 18.907 0 17.5648V5.43422C0.000179728 4.092 1.10977 3.00045 2.47531 3H21.5276L21.7711 3.01158ZM1.73399 17.5648C1.73417 17.9668 2.06698 18.2941 2.47531 18.2945H21.5178L21.5944 18.2906L21.722 18.2675C22.0091 18.1883 22.2258 17.943 22.2591 17.6449L22.264 17.5648V8.39545H1.73399V17.5648ZM2.47531 4.70454C2.06682 4.70496 1.73417 5.03241 1.73399 5.43422V6.69091H22.264V5.43422C22.2639 5.05726 21.9713 4.74602 21.5983 4.7084L21.5178 4.70454H2.47531Z" fill="#136EFF"/>
</svg>
