<svg width="24" height="24" viewBox="0 0 24 24" fill="none" xmlns="http://www.w3.org/2000/svg">
<path d="M11.3381 12.5221V14.251H6.47867V12.5221H11.3381Z" fill="#136EFF"/>
<path d="M16.425 12.5221V14.251H14.6952V12.5221H16.425Z" fill="#136EFF"/>
<path d="M11.3381 6.26104V7.98993H6.47867V6.26104H11.3381Z" fill="#136EFF"/>
<path d="M16.425 6.26104V7.98993H14.6952V6.26104H16.425Z" fill="#136EFF"/>
<path fill-rule="evenodd" clip-rule="evenodd" d="M19.0823 0L19.322 0.0120831C19.8781 0.0672975 20.4013 0.313069 20.8001 0.711894L20.9612 0.89012C21.2651 1.26081 21.4526 1.71323 21.4999 2.19006L21.512 2.4297V20.0045L17.5166 24L14.386 20.8695L11.2555 23.999L8.12599 20.8695L4.99547 24L1 20.0045V2.4297C1.00008 1.78549 1.25622 1.16757 1.71189 0.711894L1.89012 0.550787C2.32245 0.196401 2.86594 6.84365e-05 3.4297 0H19.0823ZM3.4297 1.72989C3.28986 1.73 3.15479 1.77155 3.04103 1.8477L2.93531 1.93531C2.80459 2.06602 2.73003 2.24329 2.72989 2.4297V19.2896L4.99547 21.5552L8.12599 18.4247L11.2565 21.5552L14.386 18.4247L17.5166 21.5552L19.7821 19.2896V2.4297C19.782 2.29122 19.7412 2.15632 19.6653 2.04204L19.5777 1.93531C19.4793 1.83693 19.3548 1.77004 19.2203 1.74298L19.0823 1.72989H3.4297Z" fill="#136EFF"/>
</svg>
