<svg width="24" height="26" viewBox="0 0 24 26" fill="none" xmlns="http://www.w3.org/2000/svg">
<path fill-rule="evenodd" clip-rule="evenodd" d="M16.2519 21.4606C15.7654 23.662 13.8053 25.2739 11.5009 25.2739C9.19559 25.2739 7.2344 23.662 6.74992 21.4606H2.75705C2.17466 21.4606 1.70432 20.9893 1.70432 20.4089C1.70432 20.1838 1.77396 19.9749 1.89407 19.8043L3.75326 16.5109V10.8173C3.75326 6.55496 7.23633 3.07086 11.4997 3.07086C15.7642 3.07086 19.2462 6.55496 19.2462 10.8173V16.5109L21.1549 19.8953C21.5515 20.5978 21.0337 21.4618 20.2434 21.4618H16.2506L16.2519 21.4606ZM4.78384 0.888534C2.59057 2.27636 0.921196 4.34965 0.0581788 6.82346C-0.131576 7.37052 0.158103 7.96905 0.705158 8.15981C1.2502 8.35058 1.84873 8.06191 2.04051 7.51485C2.73795 5.50529 4.11772 3.79044 5.90109 2.6649C6.39061 2.35605 6.539 1.70806 6.23012 1.21852C5.91925 0.727997 5.27227 0.580613 4.78273 0.88949L4.78384 0.888534ZM17.1007 2.66395C18.8842 3.79339 20.2608 5.50027 20.9613 7.5139C21.151 8.06096 21.7496 8.34963 22.2966 8.15886C22.8437 7.9681 23.1314 7.36956 22.9416 6.8225C22.0837 4.35368 20.4092 2.27047 18.219 0.887578C17.7275 0.578726 17.0805 0.726085 16.7716 1.21661C16.4638 1.70713 16.6091 2.35411 17.1007 2.66299L17.1007 2.66395ZM8.94829 21.4607C9.69519 23.2714 12.0549 23.7579 13.4541 22.361C13.7094 22.1056 13.9153 21.7998 14.0546 21.4607H8.94829ZM18.4482 19.3562L17.3349 17.381C17.2138 17.2104 17.1421 17.0014 17.1421 16.7764V10.8164C17.1421 7.71471 14.6006 5.17424 11.501 5.17424C8.40133 5.17424 5.85985 7.71572 5.85675 10.8164L5.85171 16.7764C5.85171 16.951 5.81032 17.1276 5.71746 17.2901L4.55069 19.3562L18.4482 19.3562Z" fill="#136EFF"/>
</svg>
