<svg width="24" height="24" viewBox="0 0 24 24" fill="none" xmlns="http://www.w3.org/2000/svg">
<path d="M18.5459 0C21.5578 4.47707e-06 23.9999 2.44119 24 5.4541V14.1816C23.9999 17.1946 21.5578 19.6367 18.5459 19.6367H16.1475L12.8379 23.6084C12.6313 23.8568 12.3241 24 12 24C11.6759 23.9999 11.3686 23.8569 11.1621 23.6084L7.85254 19.6367H5.4541C2.44133 19.6365 0.000145303 17.1944 0 14.1816V5.4541C0.000103488 2.44113 2.44214 0 5.45508 0H18.5459ZM5.45508 2.18164C3.64796 2.18164 2.18174 3.64701 2.18164 5.4541V14.1816C2.18179 15.9897 3.64799 17.4541 5.45508 17.4541H8.36328C8.68748 17.4541 8.99455 17.5982 9.20215 17.8467L12 21.2051L14.7988 17.8467C15.0064 17.5983 15.3136 17.4541 15.6377 17.4541H18.5459C20.353 17.4541 21.8182 15.9897 21.8184 14.1816V5.4541C21.8183 3.64701 20.353 2.18164 18.5459 2.18164H5.45508ZM17.4541 10.9082C18.0565 10.9082 18.5459 11.3976 18.5459 12C18.5458 12.6023 18.0565 13.0908 17.4541 13.0908H6.5459C5.94354 13.0908 5.45417 12.6023 5.4541 12C5.4541 11.3976 5.9435 10.9082 6.5459 10.9082H17.4541ZM17.4541 5.4541C18.0565 5.4541 18.5459 5.9435 18.5459 6.5459C18.5457 7.14815 18.0564 7.63574 17.4541 7.63574H6.5459C5.9436 7.63574 5.45427 7.14815 5.4541 6.5459C5.4541 5.9435 5.9435 5.4541 6.5459 5.4541H17.4541Z" fill="#136EFF"/>
</svg>
