<svg width="24" height="24" viewBox="0 0 24 24" fill="none" xmlns="http://www.w3.org/2000/svg">
<path fill-rule="evenodd" clip-rule="evenodd" d="M10.2086 3.77988C10.6835 3.82794 11.054 4.22902 11.0541 4.71648V12.9459H19.2835L19.3802 12.9506C19.8548 12.9989 20.2247 13.3998 20.2247 13.8871L20.2117 14.4071C19.9498 19.5781 15.8037 23.725 10.6328 23.987L10.1128 24C4.70234 24 0.283693 19.7504 0.0130212 14.4071L0 13.8871C6.54464e-05 8.3023 4.52801 3.77523 10.1128 3.77523L10.2086 3.77988ZM11.0541 22.0589C12.5789 21.8844 14.0214 21.2844 15.2218 20.328L11.0541 16.1603V22.0589ZM9.17066 5.71353C5.41047 6.14365 2.42994 9.08725 1.9476 12.8315L1.90854 13.2073C1.54016 17.6491 4.77276 21.5554 9.17066 22.058V5.71353ZM16.5537 18.9961C17.51 17.7959 18.1108 16.3538 18.2855 14.8293H12.3869L16.5537 18.9961Z" fill="#136EFF"/>
<path fill-rule="evenodd" clip-rule="evenodd" d="M14.3866 0.010231L14.3884 0.0111611L14.8563 0.0437142C17.0288 0.248268 19.0818 1.15634 20.6982 2.63587L21.0376 2.9614L21.0395 2.96326L21.3827 3.32228L21.3846 3.32414L21.6915 3.67757C23.1831 5.47884 24.0064 7.75398 24 10.1129V10.1175L23.9953 10.204V10.2086C23.9501 10.6537 23.5948 11.0076 23.1489 11.0504L23.0578 11.055H13.8871C13.3999 11.055 12.9981 10.6842 12.9496 10.2096L12.9449 10.1129V0.94218C12.945 0.422233 13.3672 4.84812e-05 13.8871 0H13.889L14.3866 0.010231ZM14.8293 9.17067H22.0589C21.6176 5.37634 18.6236 2.38144 14.8293 1.94016V9.17067Z" fill="#136EFF"/>
</svg>
