<svg width="32" height="32" viewBox="0 0 32 32" fill="none" xmlns="http://www.w3.org/2000/svg">
<path d="M28.6452 3.69275H30V8.02001H28.7176L24.7295 30.7862L24.7009 30.9511L24.5618 31.0435C24.2372 31.2603 23.7182 31.4126 23.1336 31.5284C22.5322 31.6475 21.8029 31.7391 21.0157 31.8085C19.4399 31.9474 17.6007 32 16.0224 32C15.4079 32 13.5977 31.9599 11.8122 31.7942C10.9201 31.7114 10.0233 31.5961 9.28177 31.436C8.91137 31.356 8.57058 31.2627 8.28426 31.153C8.00599 31.0465 7.74177 30.9108 7.55922 30.7272L7.47252 30.6395L7.45156 30.5166L3.67396 8.02001H2V3.69275H3.35479L4.33992 0.282005L4.42186 0H27.5743L28.6452 3.69275ZM9.25795 29.5687C10.3161 29.806 12.7189 30.0609 16.0224 30.0612L16.7274 30.0574C18.3392 30.0393 19.7153 29.9603 20.7947 29.8545C21.835 29.7524 22.5732 29.6261 22.9821 29.5153L23.6462 25.7311H8.61295L9.25795 29.5687ZM8.28902 23.7923H23.9854L25.7327 13.8221H6.61411L8.28902 23.7923ZM16.7408 14.4985C17.6677 14.4985 18.5267 14.8309 19.1474 15.4512L19.2827 15.5941C19.8868 16.2775 20.1609 17.1794 20.0887 18.1522L20.0687 18.3618C19.9458 19.3564 19.4741 20.3217 18.7463 21.1075L18.5967 21.2628C17.6516 22.208 16.4151 22.7662 15.1916 22.7662C14.265 22.7661 13.4051 22.4331 12.785 21.8126C11.2843 20.3107 11.6393 17.6987 13.3357 16.0019L13.5167 15.8285C14.4359 14.9887 15.5945 14.4986 16.7408 14.4985ZM18.0622 17.2824C17.4052 17.6535 17.0881 18.1919 16.7665 18.8839L16.6055 19.2373C16.3951 19.7066 16.1538 20.2472 15.7823 20.7436C16.2845 20.6104 16.7996 20.3189 17.2266 19.8919C17.7496 19.369 18.0688 18.7374 18.1451 18.1236L18.1594 17.9531C18.1708 17.7017 18.1342 17.4768 18.0622 17.2824ZM15.9062 16.5964C15.4845 16.7511 15.0651 17.0145 14.7076 17.3719C13.8627 18.2169 13.6198 19.2541 13.8616 19.9547C14.2874 19.639 14.5192 19.1501 14.8353 18.4447L14.983 18.1189C15.2066 17.634 15.4842 17.0952 15.9062 16.5964ZM6.28827 11.8833H26.0719L26.7483 8.02001H5.63946L6.28827 11.8833ZM3.93882 6.08122H28.0612V5.63154H3.93882V6.08122ZM5.40508 3.58318H26.594L26.1176 1.93879H5.8805L5.40508 3.58318Z" fill="#136EFF"/>
</svg>
