<svg width="24" height="24" viewBox="0 0 24 24" fill="none" xmlns="http://www.w3.org/2000/svg">
<path fill-rule="evenodd" clip-rule="evenodd" d="M3.27246 17.4297C5.07955 17.4297 6.54572 18.8999 6.5459 20.7148C6.5459 22.5289 5.07966 24 3.27246 24C1.46441 23.9998 0 22.5288 0 20.7148C0.000182966 18.9 1.46452 17.4299 3.27246 17.4297ZM3.27246 19.6201C2.67033 19.6203 2.18182 20.1104 2.18164 20.7148C2.18164 21.3194 2.67022 21.8094 3.27246 21.8096C3.87487 21.8096 4.36328 21.3195 4.36328 20.7148C4.3631 20.1103 3.87476 19.6201 3.27246 19.6201Z" fill="#136EFF"/>
<path d="M22.9102 19.6201C23.5122 19.6203 23.9998 20.1105 24 20.7148C24 21.3194 23.5124 21.8093 22.9102 21.8096H12C11.3976 21.8096 10.9092 21.3195 10.9092 20.7148C10.9094 20.1103 11.3977 19.6201 12 19.6201H22.9102Z" fill="#136EFF"/>
<path d="M6.86426 8.98926C7.29073 8.56126 7.98174 8.56124 8.4082 8.98926C8.83365 9.41632 8.8336 10.111 8.4082 10.5381L4.04395 14.9189C3.61746 15.346 2.92648 15.346 2.5 14.9189L0.319336 12.7285C-0.106131 12.3004 -0.106131 11.6078 0.319336 11.1797C0.745841 10.7528 1.43589 10.7527 1.8623 11.1797L3.27246 12.5957L6.86426 8.98926Z" fill="#136EFF"/>
<path d="M22.9102 10.9502C23.5124 10.9504 24 11.4413 24 12.0459C23.9999 12.6504 23.5123 13.1414 22.9102 13.1416H12C11.3977 13.1416 10.9093 12.6505 10.9092 12.0459C10.9092 11.4412 11.3976 10.9502 12 10.9502H22.9102Z" fill="#136EFF"/>
<path d="M6.86426 0.320315C7.29075 -0.106772 7.98172 -0.106772 8.4082 0.320315C8.83331 0.748371 8.83334 1.44111 8.4082 1.86914L4.04395 6.24903C3.61746 6.67714 2.92649 6.67714 2.5 6.24903L0.319336 4.05957C-0.106131 3.63146 -0.106131 2.93788 0.319336 2.50977C0.745829 2.08307 1.43593 2.08287 1.8623 2.50977L3.27246 3.92676L6.86426 0.320315Z" fill="#136EFF"/>
<path d="M22.9102 2.28125C23.5124 2.28148 24 2.77144 24 3.37598C24 3.98054 23.5124 4.47145 22.9102 4.47168H12C11.3976 4.47168 10.9092 3.98068 10.9092 3.37598C10.9092 2.7713 11.3976 2.28125 12 2.28125H22.9102Z" fill="#136EFF"/>
</svg>
