<svg width="24" height="24" viewBox="0 0 24 24" fill="none" xmlns="http://www.w3.org/2000/svg">
<path fill-rule="evenodd" clip-rule="evenodd" d="M11.9064 0C13.5701 0 15.1551 0.713926 16.2583 1.95748L16.4579 2.1956C17.3586 3.3284 17.8051 4.75701 17.7076 6.20151L17.6776 6.51182C17.4942 8.01805 16.7287 9.38436 15.5561 10.3302L17.9523 14.7364C18.3707 14.6185 18.8055 14.5612 19.2413 14.5658H19.2779C20.4922 14.5649 21.659 15.0327 22.5375 15.8699C23.4164 16.7076 23.9389 17.8509 23.9953 19.0639L24 19.2908C23.9981 20.4232 23.5872 21.5205 22.8394 22.3789L22.8403 22.3798C22.0933 23.2382 21.0618 23.7957 19.9398 23.9538L19.7138 23.9801C18.5053 24.0914 17.2993 23.7334 16.3482 22.9789C15.5071 22.313 14.9221 21.3826 14.6823 20.3454H9.31805C9.07821 21.3828 8.4927 22.312 7.6512 22.9779L7.65214 22.9789C6.76031 23.6863 5.64448 24.0449 4.51251 23.9951L4.28657 23.9801C3.07773 23.8686 1.9568 23.2954 1.16006 22.3798C0.362731 21.4643 -0.0512501 20.2754 0.00507868 19.0639L0.0210159 18.837C0.128179 17.7089 0.639504 16.6549 1.46193 15.8699L1.63068 15.717C2.48754 14.9756 3.58577 14.5649 4.72344 14.5658H4.72625L4.93156 14.5714C5.26817 14.5884 5.6017 14.6427 5.92623 14.7317L8.25963 10.333C7.16587 9.45179 6.42554 8.20471 6.18123 6.81931L6.13529 6.51182C5.93447 4.85983 6.45251 3.20226 7.55558 1.95748L7.76839 1.72967C8.85733 0.626938 10.3471 0.000147015 11.9064 0ZM5.68436 16.8833C4.71459 16.4806 3.59791 16.7004 2.85503 17.4411C2.1127 18.1808 1.88939 19.2972 2.29067 20.2667L2.37223 20.4439C2.80988 21.3114 3.7035 21.8678 4.68781 21.8679L4.94469 21.8557C5.53731 21.7982 6.09562 21.5362 6.5206 21.1123L6.69309 20.9229C7.07133 20.463 7.2809 19.8835 7.2809 19.2823L7.27433 19.0864C7.20842 18.1819 6.67183 17.3755 5.86248 16.9648L5.68436 16.8833ZM20.2304 16.8823C19.2602 16.4796 18.1423 16.7014 17.4001 17.443C16.6582 18.1845 16.4366 19.301 16.8395 20.2704C17.2424 21.239 18.19 21.8702 19.2395 21.8679L19.5038 21.8539C20.8081 21.719 21.8246 20.6192 21.8278 19.2814L21.8213 19.0864C21.7553 18.1813 21.2181 17.3746 20.4076 16.9639L20.2304 16.8823ZM13.7036 11.3558C12.5494 11.7287 11.3076 11.7296 10.1533 11.3568L7.80214 15.7489C8.54118 16.3976 9.05808 17.2616 9.28055 18.2192H14.6402C14.8616 17.2696 15.3729 16.4118 16.1026 15.7658L13.7036 11.3558ZM11.9177 2.14592C10.9434 2.14982 10.009 2.53743 9.3218 3.22591L9.32274 3.22685C8.63488 3.91711 8.24744 4.85062 8.24744 5.8237C8.24756 6.80503 8.6407 7.74507 9.33774 8.43461L9.47086 8.56117C10.1518 9.17234 11.0399 9.50787 11.9599 9.50054C12.9345 9.49158 13.8661 9.09889 14.5502 8.40555L14.6739 8.27336C15.2387 7.64059 15.5684 6.83197 15.6058 5.98495L15.6095 5.80307C15.6032 4.82921 15.2112 3.89811 14.5192 3.21278C13.828 2.52762 12.8917 2.14323 11.9177 2.14592Z" fill="#136EFF"/>
</svg>
