<svg width="24" height="24" viewBox="0 0 24 24" fill="none" xmlns="http://www.w3.org/2000/svg">
<path d="M12.2005 0.00407228C14.7058 0.0681969 17.116 0.928451 19.0953 2.44133L19.5256 2.77017L20.9056 1.38254L20.9046 1.38152L20.9622 1.32756L20.9632 1.32858C21.0975 1.20965 21.2577 1.1232 21.4319 1.07814L21.5835 1.04963C21.7337 1.03183 21.886 1.04425 22.031 1.08628L22.1128 1.11479C22.2801 1.17796 22.4305 1.27909 22.5513 1.41105L22.6472 1.5322C22.7348 1.65853 22.7973 1.80165 22.8291 1.95368L23.9716 7.4421L23.9969 7.61924C24.0042 7.72121 23.9988 7.82431 23.9787 7.92568L23.9524 8.03054C23.9119 8.16777 23.8464 8.29582 23.7595 8.40825L23.6655 8.51514C23.5645 8.61679 23.4466 8.69828 23.318 8.75541L23.1857 8.80428C23.0545 8.84362 22.9163 8.858 22.7786 8.84805L22.6018 8.8226L17.1556 7.67116C17.0044 7.63921 16.8618 7.57699 16.7364 7.48893L16.6172 7.39221C16.5043 7.2875 16.4136 7.16052 16.3505 7.0196L16.297 6.87401C16.2384 6.6756 16.2344 6.46491 16.2848 6.26419L16.3323 6.11657C16.3895 5.97327 16.4742 5.84222 16.5828 5.73276L17.9133 4.39298L17.29 3.96844C15.8405 2.98161 14.1443 2.40336 12.3793 2.31407H12.3631L11.9146 2.30288H11.8994C6.56462 2.30079 2.27813 6.61917 2.28008 11.9959V12.0122L2.2922 12.4805V12.4958C2.55093 17.6389 6.74448 21.702 11.9126 21.7043L11.9247 21.7032L12.2944 21.6961H12.3066C16.3634 21.5338 19.7499 18.8558 21.0097 15.1805L21.0086 15.1794L21.0511 15.0746C21.1604 14.8349 21.3497 14.6388 21.5875 14.5218L21.6905 14.477C21.9332 14.3861 22.2001 14.3809 22.4472 14.4637L22.5604 14.5095C22.6636 14.5572 22.759 14.6187 22.8422 14.6928L22.922 14.7722C22.9982 14.855 23.0627 14.9484 23.1119 15.0501L23.1554 15.154C23.1944 15.26 23.2183 15.3716 23.2251 15.4849L23.2261 15.5979C23.2232 15.6728 23.2132 15.7476 23.1958 15.8208L23.1635 15.9298C21.65 20.3453 17.6426 23.5835 12.8592 23.9633L12.3945 23.9908L11.9025 24C5.65165 23.9942 0.501139 19.0959 0.0343486 12.9122L0.00404184 12.3095L9.40024e-07 12.001C-0.00258823 5.39341 5.34378 -7.34383e-05 11.8994 7.49988e-10L12.2005 0.00407228Z" fill="#136EFF"/>
</svg>
