<svg width="24" height="24" viewBox="0 0 24 24" fill="none" xmlns="http://www.w3.org/2000/svg">
<path d="M16.1152 15.9366C16.6703 15.9366 17.0888 16.3767 17.0888 16.8814C17.0887 17.3861 16.6702 17.8263 16.1152 17.8263H8.88482C8.36428 17.8263 7.96378 17.4391 7.91599 16.9746L7.9112 16.8814L7.91599 16.7873C7.96404 16.3231 8.36448 15.9366 8.88482 15.9366H16.1152Z" fill="#136EFF"/>
<path d="M12.6025 5.47174C13.1058 5.522 13.4736 5.93884 13.4736 6.412V11.4035L14.6202 10.2586L14.694 10.1922C15.053 9.90303 15.576 9.90325 15.935 10.1922L16.0098 10.2586L16.0749 10.3296C16.3593 10.6738 16.3596 11.1663 16.0749 11.5107L16.0098 11.5818L13.1948 14.3774C13.1085 14.4627 13.0078 14.5278 12.9006 14.5749V14.6597L12.8392 14.5998C12.7303 14.6391 12.6157 14.6607 12.5 14.6607C12.384 14.6607 12.269 14.6393 12.1598 14.5998L12.0994 14.6597V14.5749C12.0216 14.5407 11.9467 14.4983 11.879 14.4438L11.8052 14.3774L8.99023 11.5818C8.61883 11.2141 8.61931 10.6258 8.99023 10.2586L9.06498 10.1922C9.42403 9.90325 9.94705 9.90303 10.306 10.1922L10.3798 10.2586L11.5264 11.4035V6.412C11.5264 5.90725 11.9449 5.46713 12.5 5.46713L12.6025 5.47174Z" fill="#136EFF"/>
<path fill-rule="evenodd" clip-rule="evenodd" d="M20.771 0C22.0178 0 23 0.99768 23 2.18685V21.8131C23 23.0023 22.0178 24 20.771 24H4.22899C2.98218 24 2 23.0023 2 21.8131V2.18685C2 0.997681 2.98218 0 4.22899 0H20.771ZM4.22899 1.88973C4.09177 1.88973 3.94725 2.00661 3.94725 2.18685V21.8131C3.94725 21.9934 4.09178 22.1103 4.22899 22.1103H20.771C20.9082 22.1103 21.0528 21.9934 21.0528 21.8131V2.18685C21.0528 2.00661 20.9082 1.88973 20.771 1.88973H4.22899Z" fill="#136EFF"/>
</svg>
