<svg width="32" height="32" viewBox="0 0 32 32" fill="none" xmlns="http://www.w3.org/2000/svg">
<path d="M9.58251 7.71886C8.5448 7.71886 7.70036 6.87443 7.70036 5.83671C7.70036 5.04896 8.63427 3.52694 9.03579 2.90921C9.27651 2.53922 9.8885 2.53922 10.1292 2.90921C10.5307 3.52694 11.4647 5.04896 11.4647 5.83671C11.4647 6.87443 10.6202 7.71886 9.58251 7.71886ZM9.58251 4.52962C9.24977 5.12824 9.01191 5.65363 9.00459 5.83862C9.00459 6.15545 9.26378 6.41464 9.58251 6.41464C9.90092 6.41464 10.1598 6.15608 10.1604 5.83799C10.1525 5.65235 9.91493 5.1276 9.58251 4.52962Z" fill="#136EFF"/>
<path d="M11.2204 5.83655C11.2204 5.68125 11.1724 5.46927 11.0819 5.21565C10.9929 4.966 10.8685 4.6925 10.7294 4.41993C10.5904 4.14731 10.4385 3.87945 10.2967 3.64141L9.92417 3.04247C9.85742 2.93997 9.72951 2.87626 9.58219 2.87626C9.47162 2.87633 9.37226 2.91238 9.30135 2.97369L9.24117 3.04247C9.04247 3.34817 8.71302 3.87472 8.43494 4.41993C8.29589 4.69258 8.17151 4.96595 8.08246 5.21565C7.99202 5.46927 7.94494 5.68125 7.9449 5.83655C7.9449 6.7391 8.67968 7.47462 9.58219 7.4748C10.4848 7.4748 11.2204 6.73921 11.2204 5.83655ZM9.79616 4.41038C9.96463 4.71342 10.1108 5.00102 10.2165 5.23857C10.2692 5.3572 10.3136 5.46717 10.3454 5.56144C10.3753 5.64995 10.4011 5.74526 10.4047 5.82796L10.4056 5.83846C10.4047 6.2914 10.0355 6.65902 9.58219 6.65902C9.12907 6.65885 8.75973 6.29076 8.75973 5.83846V5.82891C8.76302 5.74589 8.79008 5.65088 8.81991 5.5624C8.8517 5.46809 8.89511 5.35824 8.94791 5.23953C9.05366 5.00176 9.2005 4.71382 9.36917 4.41038L9.58219 4.02637L9.79616 4.41038ZM9.58219 5.04848C9.5099 5.19006 9.44682 5.32164 9.39496 5.43822C9.34585 5.54865 9.30846 5.64321 9.2832 5.7181C9.27062 5.75543 9.26113 5.786 9.2555 5.80981C9.25271 5.8216 9.25085 5.83156 9.24977 5.83846C9.24954 5.83991 9.24896 5.84115 9.24881 5.84229C9.2508 6.02178 9.39937 6.16976 9.58219 6.16993C9.76443 6.16993 9.91218 6.02282 9.91461 5.84133C9.91446 5.84027 9.91482 5.83879 9.91461 5.83751C9.9135 5.83057 9.91164 5.82142 9.90888 5.80981C9.90319 5.78586 9.89478 5.75459 9.88214 5.71715C9.85682 5.64223 9.81847 5.54849 9.76942 5.43822C9.71758 5.32168 9.65445 5.18998 9.58219 5.04848ZM11.7095 5.83655C11.7095 7.00932 10.755 7.96388 9.58219 7.96388C8.40957 7.96371 7.45582 7.00922 7.45582 5.83655C7.45585 5.59803 7.52487 5.32381 7.62203 5.05134C7.72059 4.77501 7.85487 4.48163 7.99935 4.19831C8.28854 3.63129 8.6276 3.08798 8.83041 2.77596L8.90206 2.68234C9.07953 2.48022 9.33827 2.38725 9.58219 2.38717C9.86116 2.38717 10.16 2.50855 10.334 2.77596L10.717 3.39113C10.8633 3.63686 11.0203 3.91463 11.165 4.19831C11.3095 4.48164 11.4438 4.77498 11.5423 5.05134C11.6395 5.32381 11.7095 5.59803 11.7095 5.83655Z" fill="#136EFF"/>
<path d="M22.4764 7.71886C21.4387 7.71886 20.5942 6.87443 20.5942 5.83671C20.5942 5.04896 21.5281 3.52694 21.9297 2.90921C22.1704 2.53922 22.7824 2.53922 23.0231 2.90921C23.4246 3.52694 24.3585 5.04896 24.3585 5.83671C24.3585 6.87443 23.5141 7.71886 22.4764 7.71886ZM22.4764 4.52962C22.1436 5.12824 21.9058 5.65363 21.8985 5.83862C21.8985 6.15545 22.1576 6.41464 22.4764 6.41464C22.7948 6.41464 23.0537 6.15608 23.0543 5.83799C23.0463 5.65235 22.8088 5.1276 22.4764 4.52962Z" fill="#136EFF"/>
<path d="M24.1143 5.83655C24.1143 5.68125 24.0662 5.46927 23.9758 5.21565C23.8867 4.966 23.7623 4.6925 23.6233 4.41993C23.4843 4.14731 23.3323 3.87945 23.1906 3.64141L22.818 3.04247C22.7513 2.93997 22.6234 2.87626 22.4761 2.87626C22.3655 2.87633 22.2661 2.91238 22.1952 2.97369L22.135 3.04247C21.9363 3.34817 21.6069 3.87472 21.3288 4.41993C21.1898 4.69258 21.0654 4.96595 20.9763 5.21565C20.8859 5.46927 20.8388 5.68125 20.8388 5.83655C20.8388 6.7391 21.5735 7.47462 22.4761 7.4748C23.3787 7.4748 24.1143 6.73921 24.1143 5.83655ZM22.69 4.41038C22.8585 4.71342 23.0046 5.00102 23.1103 5.23857C23.1631 5.3572 23.2075 5.46717 23.2393 5.56144C23.2692 5.64995 23.295 5.74526 23.2985 5.82796L23.2995 5.83846C23.2986 6.2914 22.9294 6.65902 22.4761 6.65902C22.0229 6.65885 21.6536 6.29076 21.6536 5.83846V5.82891C21.6569 5.74589 21.684 5.65088 21.7138 5.5624C21.7456 5.46809 21.789 5.35824 21.8418 5.23953C21.9475 5.00176 22.0944 4.71382 22.263 4.41038L22.4761 4.02637L22.69 4.41038ZM22.4761 5.04848C22.4038 5.19006 22.3407 5.32164 22.2888 5.43822C22.2397 5.54865 22.2023 5.64321 22.1771 5.7181C22.1645 5.75543 22.155 5.786 22.1494 5.80981C22.1466 5.8216 22.1447 5.83156 22.1436 5.83846C22.1434 5.83991 22.1428 5.84115 22.1427 5.84229C22.1447 6.02178 22.2932 6.16976 22.4761 6.16993C22.6583 6.16993 22.806 6.02282 22.8085 5.84133C22.8083 5.84027 22.8087 5.83879 22.8085 5.83751C22.8074 5.83057 22.8055 5.82142 22.8028 5.80981C22.7971 5.78586 22.7886 5.75459 22.776 5.71715C22.7507 5.64223 22.7123 5.54849 22.6633 5.43822C22.6114 5.32168 22.5483 5.18998 22.4761 5.04848ZM24.6034 5.83655C24.6034 7.00932 23.6488 7.96388 22.4761 7.96388C21.3034 7.96371 20.3497 7.00922 20.3497 5.83655C20.3497 5.59803 20.4187 5.32381 20.5159 5.05134C20.6145 4.77501 20.7487 4.48163 20.8932 4.19831C21.1824 3.63129 21.5215 3.08798 21.7243 2.77596L21.7959 2.68234C21.9734 2.48022 22.2321 2.38725 22.4761 2.38717C22.755 2.38717 23.0538 2.50855 23.2278 2.77596L23.6109 3.39113C23.7572 3.63686 23.9142 3.91463 24.0589 4.19831C24.2034 4.48164 24.3376 4.77498 24.4362 5.05134C24.5334 5.32381 24.6034 5.59803 24.6034 5.83655Z" fill="#136EFF"/>
<path d="M16.0167 5.43655C14.979 5.43655 14.1345 4.59211 14.1345 3.5544C14.1345 2.76664 15.0684 1.24462 15.47 0.626899C15.7107 0.256901 16.3227 0.256901 16.5634 0.626899C16.9649 1.24462 17.8988 2.76664 17.8988 3.5544C17.8988 4.59211 17.0544 5.43655 16.0167 5.43655ZM16.0167 2.24731C15.6839 2.84593 15.4461 3.37131 15.4388 3.55631C15.4388 3.87313 15.6979 4.13232 16.0167 4.13232C16.3351 4.13232 16.594 3.87377 16.5946 3.55567C16.5866 3.37004 16.3491 2.84529 16.0167 2.24731Z" fill="#136EFF"/>
<path d="M17.6546 3.55424C17.6546 3.39893 17.6065 3.18695 17.5161 2.93333C17.427 2.68369 17.3026 2.41019 17.1636 2.13761C17.0245 1.865 16.8726 1.59714 16.7309 1.35909L16.3583 0.760155C16.2916 0.657657 16.1637 0.593943 16.0164 0.593943C15.9058 0.594012 15.8064 0.630066 15.7355 0.691377L15.6753 0.760155C15.4766 1.06585 15.1472 1.59241 14.8691 2.13761C14.7301 2.41026 14.6057 2.68363 14.5166 2.93333C14.4262 3.18695 14.3791 3.39893 14.3791 3.55424C14.3791 4.45679 15.1138 5.19231 16.0164 5.19248C16.919 5.19248 17.6546 4.4569 17.6546 3.55424ZM16.2303 2.12806C16.3988 2.43111 16.5449 2.71871 16.6506 2.95626C16.7034 3.07489 16.7478 3.18486 16.7796 3.27913C16.8095 3.36764 16.8353 3.46295 16.8388 3.54564L16.8398 3.55615C16.8389 4.00909 16.4697 4.3767 16.0164 4.3767C15.5632 4.37653 15.1939 4.00845 15.1939 3.55615V3.5466C15.1972 3.46358 15.2242 3.36857 15.2541 3.28009C15.2859 3.18578 15.3293 3.07593 15.3821 2.95721C15.4878 2.71945 15.6347 2.4315 15.8033 2.12806L16.0164 1.74406L16.2303 2.12806ZM16.0164 2.76616C15.9441 2.90774 15.881 3.03932 15.8291 3.1559C15.78 3.26634 15.7426 3.3609 15.7174 3.43579C15.7048 3.47312 15.6953 3.50369 15.6897 3.52749C15.6869 3.53929 15.685 3.54924 15.6839 3.55615C15.6837 3.55759 15.6831 3.55883 15.683 3.55997C15.685 3.73947 15.8335 3.88745 16.0164 3.88762C16.1986 3.88762 16.3463 3.74051 16.3488 3.55902C16.3486 3.55795 16.349 3.55648 16.3488 3.5552C16.3477 3.54825 16.3458 3.53911 16.343 3.52749C16.3374 3.50354 16.3289 3.47228 16.3163 3.43483C16.291 3.35992 16.2526 3.26618 16.2036 3.1559C16.1517 3.03936 16.0886 2.90766 16.0164 2.76616ZM18.1437 3.55424C18.1437 4.72701 17.1891 5.68157 16.0164 5.68157C14.8437 5.68139 13.89 4.7269 13.89 3.55424C13.89 3.31572 13.959 3.0415 14.0562 2.76903C14.1548 2.49269 14.289 2.19931 14.4335 1.916C14.7227 1.34898 15.0618 0.80567 15.2646 0.493642L15.3362 0.400028C15.5137 0.197907 15.7724 0.104939 16.0164 0.104858C16.2953 0.104858 16.5941 0.226232 16.7681 0.493642L17.1512 1.10882C17.2975 1.35455 17.4545 1.63231 17.5992 1.916C17.7437 2.19933 17.8779 2.49267 17.9765 2.76903C18.0737 3.0415 18.1437 3.31572 18.1437 3.55424Z" fill="#136EFF"/>
<path d="M7.10828 31.6509H4.31833C3.51434 31.6509 2.86 30.9965 2.86 30.1922V28.5142C2.86 28.154 3.15198 27.8621 3.51211 27.8621H7.91451C8.27463 27.8621 8.56662 28.154 8.56662 28.5142V30.1922C8.56662 30.9965 7.91228 31.6509 7.10828 31.6509ZM4.16422 29.1663V30.1922C4.16422 30.2772 4.23332 30.3466 4.31833 30.3466H7.10828C7.1933 30.3466 7.26239 30.2772 7.26239 30.1922V29.1663H4.16422Z" fill="#136EFF"/>
<path d="M8.32208 28.5145C8.32208 28.2894 8.13926 28.1066 7.91419 28.1066H3.51243C3.28736 28.1066 3.10454 28.2894 3.10454 28.5145V30.1919C3.10454 30.8612 3.64975 31.406 4.31865 31.406H7.10796C7.77687 31.406 8.32208 30.8612 8.32208 30.1919V28.5145ZM4.40845 30.1021H7.01817V29.4105H4.40845V30.1021ZM7.50725 30.1919C7.50725 30.4113 7.32869 30.5912 7.10796 30.5912H4.31865C4.09792 30.5912 3.91936 30.4113 3.91936 30.1919V28.9214H7.50725V30.1919ZM8.81116 30.1919C8.81116 31.1312 8.04705 31.8951 7.10796 31.8951H4.31865C3.37957 31.8951 2.61545 31.1312 2.61545 30.1919V28.5145C2.61545 28.0193 3.01724 27.6175 3.51243 27.6175H7.91419C8.40937 27.6175 8.81116 28.0193 8.81116 28.5145V30.1919Z" fill="#136EFF"/>
<path d="M27.682 31.6509H24.8924C24.0884 31.6509 23.434 30.9965 23.434 30.1922V28.5142C23.434 28.154 23.726 27.8621 24.0861 27.8621H28.4885C28.8487 27.8621 29.1406 28.154 29.1406 28.5142V30.1922C29.1406 30.9965 28.4863 31.6509 27.682 31.6509ZM24.7382 29.1663V30.1922C24.7382 30.2772 24.8073 30.3466 24.8924 30.3466H27.682C27.767 30.3466 27.8364 30.2772 27.8364 30.1922V29.1663H24.7382Z" fill="#136EFF"/>
<path d="M28.8961 28.5145C28.8961 28.2894 28.7133 28.1066 28.4882 28.1066H24.0864C23.8614 28.1066 23.6786 28.2894 23.6786 28.5145V30.1919C23.6786 30.8612 24.2238 31.406 24.8927 31.406H27.682C28.3512 31.406 28.8961 30.8612 28.8961 30.1919V28.5145ZM24.9825 30.1021H27.5922V29.4105H24.9825V30.1021ZM28.0813 30.1919C28.0813 30.412 27.9021 30.5912 27.682 30.5912H24.8927C24.6719 30.5912 24.4934 30.4113 24.4934 30.1919V28.9214H28.0813V30.1919ZM29.3852 30.1919C29.3852 31.1313 28.6214 31.8951 27.682 31.8951H24.8927C23.9536 31.8951 23.1895 31.1312 23.1895 30.1919V28.5145C23.1895 28.0193 23.5913 27.6175 24.0864 27.6175H28.4882C28.9834 27.6175 29.3852 28.0193 29.3852 28.5145V30.1919Z" fill="#136EFF"/>
<path d="M28.4885 29.1663H3.51211C2.50369 29.1663 1.68314 28.3457 1.68314 27.337V23.6975C1.68314 21.0187 3.86268 18.8392 6.5415 18.8392H25.4591C28.138 18.8392 30.3175 21.0187 30.3175 23.6975V27.337C30.3175 28.3457 29.4969 29.1663 28.4885 29.1663ZM6.5415 20.1434C4.58166 20.1434 2.98736 21.7377 2.98736 23.6975V27.337C2.98736 27.6264 3.22267 27.8621 3.51211 27.8621H28.4885C28.778 27.8621 29.0133 27.6264 29.0133 27.337V23.6975C29.0133 21.7377 27.419 20.1434 25.4591 20.1434H6.5415Z" fill="#136EFF"/>
<path d="M30.073 23.6975C30.073 21.1538 28.0029 19.0837 25.4591 19.0837H6.5415C3.99774 19.0837 1.92768 21.1538 1.92768 23.6975V27.337C1.92768 28.2107 2.63909 28.9217 3.51243 28.9217H28.4882C29.3615 28.9217 30.073 28.2107 30.073 27.337V23.6975ZM28.769 23.6975C28.769 21.8727 27.2839 20.3876 25.4591 20.3876H6.5415C4.71672 20.3876 3.23159 21.8727 3.23159 23.6975V27.337C3.23159 27.4916 3.35824 27.6175 3.51243 27.6175H28.4882C28.6424 27.6175 28.769 27.4916 28.769 27.337V23.6975ZM29.2581 27.337C29.2581 27.7613 28.9129 28.1066 28.4882 28.1066H3.51243C3.08774 28.1066 2.7425 27.7613 2.7425 27.337V23.6975C2.7425 21.6026 4.44661 19.8985 6.5415 19.8985H25.4591C27.554 19.8985 29.2581 21.6026 29.2581 23.6975V27.337ZM30.562 27.337C30.562 28.4808 29.6317 29.4108 28.4882 29.4108H3.51243C2.36893 29.4108 1.4386 28.4808 1.4386 27.337V23.6975C1.4386 20.8836 3.72763 18.5946 6.5415 18.5946H25.4591C28.273 18.5946 30.562 20.8836 30.562 23.6975V27.337Z" fill="#136EFF"/>
<path d="M26.9713 20.4263C26.7252 20.4263 26.4892 20.2355 26.379 19.911L25.1465 16.28C24.5141 14.4162 23.1312 12.7396 21.6238 12.7396H10.3768C8.86945 12.7396 7.48657 14.4162 6.8542 16.28L5.6213 19.911C5.47038 20.3561 5.08255 20.5508 4.75554 20.3443C4.42884 20.1383 4.28619 19.6104 4.43744 19.165L5.67034 15.534C6.51541 13.0442 8.36285 11.4354 10.3768 11.4354H21.6238C23.6378 11.4354 25.4853 13.0442 26.3303 15.534L27.5629 19.165C27.7142 19.6104 27.5715 20.1383 27.2448 20.3443C27.156 20.4003 27.063 20.4263 26.9713 20.4263Z" fill="#136EFF"/>
<path d="M21.624 11.1908C23.778 11.1909 25.6958 12.9046 26.5616 15.4551L27.7948 19.0859L27.8244 19.1891C27.8856 19.4303 27.8805 19.6829 27.8197 19.9084C27.7593 20.1321 27.639 20.3464 27.4567 20.493L27.3755 20.5513C27.2492 20.6308 27.1111 20.6707 26.9714 20.6707C26.6366 20.6707 26.3583 20.4478 26.2053 20.131L26.147 19.9896L24.9148 16.3587C24.6079 15.4543 24.1208 14.6009 23.5354 13.9782C22.9474 13.3529 22.2846 12.9839 21.624 12.9838H10.3769C9.71628 12.9838 9.05348 13.3529 8.46548 13.9782C7.95317 14.5231 7.51622 15.2447 7.20934 16.0225L7.08611 16.3587L5.85289 19.9896C5.76116 20.2601 5.58922 20.4775 5.36381 20.5904C5.16095 20.692 4.92896 20.7008 4.7152 20.6009L4.62541 20.5513C4.3969 20.4072 4.25021 20.1638 4.18122 19.9084C4.11167 19.6507 4.114 19.3571 4.20605 19.0859L5.43832 15.4551L5.52333 15.2191C6.42494 12.7995 8.29002 11.1908 10.3769 11.1908H21.624ZM10.3769 11.6799C8.6202 11.6799 6.94914 13.0019 6.06782 15.1685L5.90161 15.6127L4.66935 19.2435C4.6102 19.4178 4.60757 19.6114 4.65311 19.7804C4.69933 19.9517 4.78807 20.0758 4.88619 20.1377L4.95305 20.1701C5.01926 20.192 5.08398 20.1835 5.14506 20.1529C5.23289 20.1088 5.33045 20.007 5.3896 19.8329L6.62282 16.2011L6.75369 15.8438C7.08008 15.0163 7.54841 14.2393 8.10918 13.643C8.7475 12.9642 9.53029 12.4948 10.3769 12.4948H21.624C22.4706 12.4948 23.2534 12.9641 23.8917 13.643C24.5325 14.3245 25.0525 15.2418 25.3781 16.2011L26.6103 19.832L26.6466 19.9218C26.7383 20.1127 26.8755 20.1816 26.9714 20.1816C27.0151 20.1816 27.0633 20.17 27.1147 20.1377L27.1854 20.0794C27.2537 20.0105 27.3122 19.9088 27.3468 19.7804C27.381 19.6536 27.3884 19.5131 27.365 19.3773L27.3315 19.2435L26.0983 15.6127C25.2739 13.1839 23.4977 11.68 21.624 11.6799H10.3769Z" fill="#136EFF"/>
<path d="M30.371 19.8364H26.6981C26.338 19.8364 26.046 19.5444 26.046 19.1843C26.046 18.8242 26.338 18.5322 26.6981 18.5322H27.1391V16.7886C27.1391 16.4284 27.4311 16.1365 27.7912 16.1365H30.014C30.9744 16.1365 31.7558 16.9178 31.7558 17.8785V18.4513C31.7558 19.2152 31.1345 19.8364 30.371 19.8364ZM28.4433 18.5322H30.371C30.4156 18.5322 30.4515 18.4959 30.4515 18.4513V17.8785C30.4515 17.6371 30.2554 17.4407 30.014 17.4407H28.4433V18.5322Z" fill="#136EFF"/>
<path d="M26.8942 16.7889C26.8942 16.2937 27.296 15.8919 27.7912 15.8919H30.014C31.1095 15.8919 32 16.7831 32 17.8788V18.451C32 19.3498 31.2698 20.0805 30.3713 20.0807H26.6984C26.2033 20.0807 25.8016 19.6797 25.8014 19.1846C25.8014 18.6895 26.2032 18.2877 26.6984 18.2877H26.8942V16.7889ZM30.207 17.8788C30.207 17.7723 30.1201 17.6849 30.014 17.6849H28.6882V18.2877H30.207V17.8788ZM30.6961 18.451C30.6961 18.6293 30.552 18.7766 30.3713 18.7768H28.1991V17.1958H30.014C30.3907 17.1958 30.6961 17.5026 30.6961 17.8788V18.451ZM27.3833 18.7768H26.6984C26.4733 18.7768 26.2905 18.9596 26.2905 19.1846C26.2907 19.4096 26.4734 19.5916 26.6984 19.5916H30.3713C30.9996 19.5914 31.5109 19.0798 31.5109 18.451V17.8788C31.5109 17.0532 30.8393 16.381 30.014 16.381H27.7912C27.5661 16.381 27.3833 16.5638 27.3833 16.7889V18.7768Z" fill="#136EFF"/>
<path d="M5.30224 19.8364H1.62964C0.865768 19.8364 0.244542 19.2152 0.244542 18.4513V17.8785C0.244542 16.9178 1.02593 16.1365 1.98659 16.1365H4.20944C4.56956 16.1365 4.86155 16.4284 4.86155 16.7886V18.5322H5.30224C5.66236 18.5322 5.95435 18.8242 5.95435 19.1843C5.95435 19.5444 5.66236 19.8364 5.30224 19.8364ZM1.98659 17.4407C1.74523 17.4407 1.54877 17.6371 1.54877 17.8785V18.4513C1.54877 18.4959 1.58507 18.5322 1.62964 18.5322H3.55732V17.4407H1.98659Z" fill="#136EFF"/>
<path d="M4.61669 16.7889C4.61669 16.5639 4.43468 16.3812 4.20976 16.381H1.98691C1.16131 16.381 0.489084 17.0532 0.489084 17.8788V18.451C0.489084 19.0798 1.00083 19.5916 1.62964 19.5916H5.30255C5.52737 19.5914 5.70931 19.4095 5.70949 19.1846C5.70949 18.9597 5.52748 18.7769 5.30255 18.7768H4.61669V16.7889ZM3.80187 17.1958V18.7768H1.62964C1.45001 18.7768 1.30391 18.6306 1.30391 18.451V17.8788C1.30391 17.5024 1.61049 17.1958 1.98691 17.1958H3.80187ZM1.79299 18.2877H3.31278V17.6849H1.98691C1.8806 17.6849 1.79299 17.7725 1.79299 17.8788V18.2877ZM5.10577 18.2877H5.30255C5.79759 18.2878 6.19857 18.6896 6.19857 19.1846C6.1984 19.6796 5.79748 20.0805 5.30255 20.0807H1.62964C0.730712 20.0807 0 19.3499 0 18.451V17.8788C0 16.7831 0.891192 15.8919 1.98691 15.8919H4.20976C4.70479 15.8921 5.10577 16.2938 5.10577 16.7889V18.2877Z" fill="#136EFF"/>
<path d="M25.5028 26.333C24.2176 26.333 23.1723 25.2877 23.1723 24.0026C23.1723 22.7178 24.2176 21.6724 25.5028 21.6724C26.7876 21.6724 27.8329 22.7178 27.8329 24.0026C27.8329 25.2877 26.7876 26.333 25.5028 26.333ZM25.5028 22.9766C24.9369 22.9766 24.4765 23.4367 24.4765 24.0026C24.4765 24.5684 24.9369 25.0288 25.5028 25.0288C26.0686 25.0288 26.5287 24.5684 26.5287 24.0026C26.5287 23.4367 26.0686 22.9766 25.5028 22.9766Z" fill="#136EFF"/>
<path d="M27.5884 24.0022C27.5882 22.8528 26.6526 21.9171 25.5031 21.917C24.3531 21.917 23.417 22.8527 23.4168 24.0022C23.4168 25.1523 24.353 26.0885 25.5031 26.0885C26.6527 26.0883 27.5884 25.1522 27.5884 24.0022ZM26.2845 24.0022C26.2843 23.5717 25.9336 23.221 25.5031 23.2209C25.0723 23.2209 24.7209 23.5717 24.7207 24.0022C24.7207 24.433 25.0723 24.7846 25.5031 24.7846C25.9336 24.7844 26.2845 24.433 26.2845 24.0022ZM26.7735 24.0022C26.7735 24.7029 26.2039 25.2735 25.5031 25.2737C24.8022 25.2737 24.2316 24.7031 24.2316 24.0022C24.2318 23.3014 24.8024 22.7318 25.5031 22.7318C26.2037 22.7319 26.7734 23.3016 26.7735 24.0022ZM28.0775 24.0022C28.0775 25.4223 26.9228 26.5774 25.5031 26.5776C24.0829 26.5776 22.9277 25.4224 22.9277 24.0022C22.9279 22.5825 24.083 21.4279 25.5031 21.4279C26.9227 21.428 28.0773 22.5826 28.0775 24.0022Z" fill="#136EFF"/>
<path d="M6.49788 26.333C5.21308 26.333 4.16772 25.2877 4.16772 24.0026C4.16772 22.7178 5.21308 21.6724 6.49788 21.6724C7.78268 21.6724 8.82804 22.7178 8.82804 24.0026C8.82804 25.2877 7.78268 26.333 6.49788 26.333ZM6.49788 22.9766C5.93206 22.9766 5.47195 23.4367 5.47195 24.0026C5.47195 24.5684 5.93206 25.0288 6.49788 25.0288C7.0637 25.0288 7.52381 24.5684 7.52381 24.0026C7.52381 23.4367 7.0637 22.9766 6.49788 22.9766Z" fill="#136EFF"/>
<path d="M8.58381 24.0022C8.58364 22.8526 7.6472 21.917 6.49756 21.917C5.34807 21.9171 4.41244 22.8528 4.41227 24.0022C4.41227 25.1522 5.34798 26.0883 6.49756 26.0885C7.64728 26.0885 8.58381 25.1523 8.58381 24.0022ZM7.27895 24.0022C7.27878 23.5716 6.92822 23.2209 6.49756 23.2209C6.06705 23.221 5.71635 23.5717 5.71617 24.0022C5.71617 24.433 6.06704 24.7844 6.49756 24.7846C6.92823 24.7846 7.27895 24.4331 7.27895 24.0022ZM7.76803 24.0022C7.76803 24.703 7.19854 25.2737 6.49756 25.2737C5.79673 25.2735 5.22709 24.7029 5.22709 24.0022C5.22726 23.3016 5.79693 22.7319 6.49756 22.7318C7.19833 22.7318 7.76786 23.3015 7.76803 24.0022ZM9.0729 24.0022C9.0729 25.4224 7.91744 26.5776 6.49756 26.5776C5.07783 26.5774 3.92318 25.4223 3.92318 24.0022C3.92336 22.5826 5.07796 21.428 6.49756 21.4279C7.91731 21.4279 9.07272 22.5825 9.0729 24.0022Z" fill="#136EFF"/>
<path d="M20.9475 23.5651H11.0528C10.6927 23.5651 10.4007 23.2731 10.4007 22.913C10.4007 22.5528 10.6927 22.2608 11.0528 22.2608H20.9475C21.3076 22.2608 21.5996 22.5528 21.5996 22.913C21.5996 23.2731 21.3076 23.5651 20.9475 23.5651Z" fill="#136EFF"/>
<path d="M21.3554 22.9133C21.3554 22.6882 21.1726 22.5054 20.9475 22.5054H11.0531C10.828 22.5054 10.6452 22.6882 10.6452 22.9133C10.6454 23.1382 10.8282 23.3202 11.0531 23.3202H20.9475C21.1725 23.3202 21.3552 23.1382 21.3554 22.9133ZM21.8445 22.9133C21.8443 23.4083 21.4426 23.8093 20.9475 23.8093H11.0531C10.558 23.8093 10.1563 23.4083 10.1561 22.9133C10.1561 22.4181 10.5579 22.0163 11.0531 22.0163H20.9475C21.4427 22.0163 21.8445 22.4181 21.8445 22.9133Z" fill="#136EFF"/>
<path d="M20.9475 25.7443H11.0528C10.6927 25.7443 10.4007 25.4523 10.4007 25.0922C10.4007 24.732 10.6927 24.4401 11.0528 24.4401H20.9475C21.3076 24.4401 21.5996 24.732 21.5996 25.0922C21.5996 25.4523 21.3076 25.7443 20.9475 25.7443Z" fill="#136EFF"/>
<path d="M21.3554 25.0925C21.3554 24.8674 21.1726 24.6846 20.9475 24.6846H11.0531C10.828 24.6846 10.6452 24.8674 10.6452 25.0925C10.6454 25.3174 10.8282 25.4994 11.0531 25.4994H20.9475C21.1725 25.4994 21.3552 25.3174 21.3554 25.0925ZM21.8445 25.0925C21.8443 25.5875 21.4426 25.9885 20.9475 25.9885H11.0531C10.558 25.9885 10.1563 25.5875 10.1561 25.0925C10.1561 24.5973 10.5579 24.1955 11.0531 24.1955H20.9475C21.4427 24.1955 21.8445 24.5973 21.8445 25.0925Z" fill="#136EFF"/>
</svg>
