<svg width="32" height="34" viewBox="0 0 32 34" fill="none" xmlns="http://www.w3.org/2000/svg">
<path fill-rule="evenodd" clip-rule="evenodd" d="M14.9867 17.2531C15.3713 16.9935 15.898 17.0625 16.2019 17.4285L16.2028 17.4275C18.3181 19.9663 18.9833 22.053 18.6888 23.6072L18.6172 23.9107C18.1777 25.4615 16.8149 26.2242 15.4986 26.2242C14.2647 26.2241 12.9899 25.554 12.4733 24.1926L12.3809 23.9107C11.9342 22.3339 12.5357 20.1491 14.7746 17.4539C14.8147 17.4019 14.8599 17.3533 14.9122 17.3097L14.9867 17.2531ZM15.4986 19.5063C14.1246 21.4152 13.9394 22.6913 14.1439 23.413L14.1816 23.5299C14.3948 24.0943 14.923 24.3914 15.4986 24.3915C16.1127 24.3915 16.6728 24.053 16.8542 23.413L16.891 23.2565C17.0282 22.5129 16.7784 21.2842 15.4986 19.5063Z" fill="#136EFF"/>
<path fill-rule="evenodd" clip-rule="evenodd" d="M10.5124 11.1432C11.325 10.2502 12.6086 10.0745 13.6244 10.7841L23.098 17.3993C23.7356 17.8441 24.0878 18.5355 24.0879 19.314V27.7628L24.0756 28.0022C23.9551 29.1852 22.9544 30.111 21.7405 30.1111H9.25765C8.04356 30.1111 7.04206 29.1853 6.92155 28.0022L6.91023 27.7628V16.679C6.91023 16.1693 7.04808 15.711 7.34767 15.313L7.34861 15.312L10.3559 11.3318L10.5124 11.1432ZM12.2669 12.1812C12.1458 12.1812 12.0034 12.232 11.8738 12.3716L11.8191 12.4367L8.8108 16.4179C8.77204 16.4693 8.74292 16.5289 8.74292 16.679V27.7628L8.75329 27.8665C8.80175 28.1007 9.01025 28.2775 9.25765 28.2775H21.7405C21.9873 28.2774 22.1963 28.1006 22.2448 27.8665L22.2552 27.7628V19.314C22.2551 19.124 22.1853 18.9978 22.0506 18.9029L12.5752 12.2868C12.4927 12.2292 12.4126 12.1984 12.3385 12.1868L12.2669 12.1812Z" fill="#136EFF"/>
<path fill-rule="evenodd" clip-rule="evenodd" d="M20.9872 4.44508C21.771 4.44519 22.4458 4.81485 22.9764 5.43024C23.4973 6.03462 23.8928 6.88682 24.1699 7.91813L24.2953 8.43286C24.5629 9.65707 24.6638 11.0345 24.5781 12.2264C24.5291 12.9068 24.4175 13.5531 24.2265 14.0865C24.0419 14.6014 23.746 15.1103 23.262 15.3714L23.263 15.3724C23.0825 15.4699 22.8503 15.5486 22.5767 15.5487C22.0768 15.5486 21.5818 15.291 21.1117 14.7624C19.97 13.4777 18.6476 11.991 17.7244 10.5691C17.2623 9.85727 16.8812 9.13295 16.6761 8.4338C16.4707 7.73372 16.4285 7.00884 16.7157 6.34281C17.2866 5.01747 18.8392 4.50978 20.909 4.44696C20.9402 4.44581 20.97 4.44507 20.9872 4.44508ZM20.9684 6.27776C20.1274 6.30317 19.5013 6.40846 19.0687 6.56812C18.6907 6.70777 18.5108 6.86923 18.4277 7.00933L18.3975 7.06777C18.3119 7.26632 18.3093 7.59953 18.4984 8.11704C18.6825 8.62078 19.0147 9.20719 19.4477 9.83943C20.3104 11.099 21.4993 12.4383 22.4739 13.535C22.4857 13.5043 22.5014 13.4715 22.5135 13.435C22.6143 13.131 22.7064 12.673 22.7473 12.0549C22.8169 11.0174 22.7242 9.83349 22.5022 8.8175L22.3994 8.39327C22.2771 7.93626 22.082 7.3631 21.8055 6.91788C21.518 6.45513 21.2401 6.27807 20.9872 6.27776H20.9684Z" fill="#136EFF"/>
<path fill-rule="evenodd" clip-rule="evenodd" d="M10.2843 0.974854C11.2693 0.974966 12.0698 1.77528 12.0698 2.7604V3.88886C12.406 4.08445 12.6326 4.44827 12.6327 4.86554V6.49647H12.8721C13.2206 5.91741 13.8839 4.91976 14.8415 3.96239C15.9906 2.81352 17.6059 1.67599 19.6382 1.44151C21.3939 1.23841 22.9185 1.64519 24.1067 2.70384L24.3792 2.96403C25.6955 4.30907 26.3332 6.30422 26.655 8.27731C27.001 10.3994 27 12.6202 27 14.2411V28.4783C26.9998 30.9859 24.9598 33.0251 22.4532 33.0251H8.54589C6.11694 33.0249 4.12783 31.1112 4.00566 28.7121L4 28.4783V8.02654L4.00754 7.87005C4.08603 7.09912 4.73779 6.49663 5.52912 6.49647H5.58474V4.86554L5.5904 4.75052C5.62768 4.38249 5.84219 4.0673 6.14662 3.8898V2.7604L6.1551 2.57751C6.24671 1.67775 7.00955 0.975064 7.93216 0.974854H10.2843ZM22.8868 4.07175C22.1756 3.43764 21.2822 3.14734 20.0907 3.23837L19.8484 3.261C18.1717 3.45467 16.7773 4.54199 15.7692 5.66027C14.779 6.75863 14.2288 7.81226 14.2202 7.82857L14.2193 7.83045C14.0819 8.09861 13.8231 8.2798 13.5301 8.32067L13.4029 8.32916H5.83268V28.4783L5.84683 28.7555C5.98629 30.1213 7.14359 31.1914 8.54589 31.1915H22.4532C23.9485 31.1915 25.1672 29.9737 25.1673 28.4783V14.242L25.1626 13.0381C25.1482 11.7469 25.0908 10.2226 24.8647 8.75433C24.5781 6.89375 24.0373 5.24917 23.0839 4.2603L22.8868 4.07175ZM7.41743 6.49647H10.799L10.8 5.56882H7.41743V6.49647ZM7.9793 3.73614H10.2362V2.80754H7.9793V3.73614Z" fill="#136EFF"/>
</svg>
