<svg width="32" height="34" viewBox="0 0 32 34" fill="none" xmlns="http://www.w3.org/2000/svg">
<path d="M23.4477 27.3677L23.4467 27.3687C23.9131 27.4237 24.3939 27.4816 24.8881 27.5454L24.8871 27.5464C25.5308 27.6269 25.9826 28.2145 25.9008 28.855C25.8249 29.4491 25.3163 29.8808 24.7309 29.8755H24.7289L24.725 29.8765C24.6813 29.8762 24.6373 29.8721 24.5922 29.8657H24.5824L23.1733 29.6939C22.5305 29.6193 22.0719 29.0368 22.1469 28.3951L22.1664 28.2759C22.296 27.6956 22.8556 27.2946 23.4477 27.3677Z" fill="#136EFF"/>
<path d="M9.91849 26.897C10.5618 26.845 11.125 27.337 11.1724 27.9781C11.217 28.5828 10.7943 29.1143 10.2095 29.2173L10.0904 29.231C9.26842 29.2915 8.41325 29.3717 7.47809 29.4751L7.47711 29.4741C7.42997 29.4796 7.38246 29.4834 7.33453 29.4829C6.75216 29.4748 6.25234 29.0329 6.18611 28.44C6.11646 27.7995 6.57795 27.2184 7.22223 27.148C8.18491 27.0419 9.06794 26.9601 9.91849 26.897Z" fill="#136EFF"/>
<path d="M18.0688 26.8706L19.3881 26.9634C19.8382 26.9989 20.2982 27.0393 20.7651 27.0835L20.8842 27.1001C21.4669 27.2153 21.8775 27.7555 21.8217 28.3579V28.3599C21.7628 28.9679 21.248 29.4236 20.6469 29.4185H20.644L20.6411 29.4195C20.6153 29.4193 20.5829 29.4167 20.5463 29.4126C20.0917 29.3698 19.6433 29.3319 19.2055 29.2974L17.9243 29.2066C17.2798 29.1663 16.7878 28.6107 16.8286 27.9644C16.8694 27.3165 17.4346 26.8327 18.0688 26.8706Z" fill="#136EFF"/>
<path d="M14.8462 26.7437H14.8481L15.3579 26.7535H15.3598L15.48 26.7623C16.0293 26.8306 16.4574 27.2781 16.5005 27.8306L16.5044 27.9507C16.4899 28.5921 15.9613 29.098 15.3237 29.0923C15.3237 29.0923 15.3155 29.0936 15.3071 29.0933L15.3061 29.0923L14.8159 29.0845C14.1032 29.0755 13.4153 29.0794 12.7144 29.0972L12.7153 29.0982C12.6893 29.1 12.6644 29.0991 12.6567 29.0991H12.6509C12.0656 29.091 11.579 28.6516 11.5064 28.0767L11.4976 27.9605C11.4802 27.3132 11.9909 26.7766 12.6362 26.7593L13.7378 26.7408C14.1042 26.7385 14.4721 26.7391 14.8462 26.7437Z" fill="#136EFF"/>
<path fill-rule="evenodd" clip-rule="evenodd" d="M17.5424 10.6882C20.5851 9.44646 23.7997 11.3078 25.2299 13.8073L25.4193 14.1637C25.8302 14.9979 26.0081 15.832 25.931 16.5924C25.8474 17.4154 25.4653 18.1359 24.7982 18.6422L24.6605 18.7408C23.8138 19.3149 22.7795 19.447 21.853 19.0983L21.85 19.0973C21.8477 19.0964 21.8446 19.0972 21.8422 19.0963C21.7956 19.0786 21.6772 19.027 21.6313 19.0055L21.6303 19.0045C21.289 18.8436 20.5611 18.7052 19.6743 18.7877C18.8535 18.8641 17.9334 19.1269 17.1049 19.6979L16.9399 19.817C15.8259 20.6546 15.3123 21.4198 14.8686 22.1851L14.6811 22.5123C14.1995 23.3621 13.6603 24.3241 12.4224 25.0005L12.1655 25.1314C11.8241 25.2945 11.4685 25.383 11.1109 25.399L10.9575 25.4009C9.57819 25.3823 8.31372 24.3094 7.51617 22.6383C6.84783 21.2358 6.60151 19.5683 6.94782 18.0407C7.29663 16.5023 8.24633 15.1098 9.94388 14.3005L10.2154 14.1784C11.4965 13.6285 12.8307 13.4777 14.1226 13.5651C14.9901 12.3138 16.017 11.4057 17.2485 10.819L17.5424 10.6882ZM13.2173 15.8844C12.5459 15.9076 11.8886 16.0294 11.2632 16.2789L10.9517 16.4147C9.81822 16.9551 9.31411 17.8562 9.17241 18.8238C9.02806 19.8101 9.26418 20.8634 9.62943 21.6295C9.85849 22.1107 10.1672 22.5374 10.4771 22.7974C10.7991 23.0675 11.0196 23.0844 11.1558 23.0191L11.1568 23.0181L11.4136 22.8814C11.9651 22.5465 12.2221 22.1033 12.6441 21.358L12.854 20.9918C13.3676 20.1083 14.0773 19.0392 15.5337 17.945C16.2019 17.4424 16.9178 17.0859 17.6333 16.8434C16.3724 16.3172 14.9504 15.8995 13.5552 15.8815L13.2173 15.8844ZM21.1508 13.0329C20.3211 12.6134 19.3831 12.4718 18.4448 12.8493L18.2563 12.9313C17.6956 13.1984 17.197 13.5612 16.7378 14.0426C19.2012 14.7577 21.2927 16.0499 22.268 16.652L22.6967 16.9118C22.8933 16.9765 23.1306 16.9497 23.3481 16.8024L23.432 16.733C23.6087 16.5583 23.6484 16.2837 23.5697 15.9088C23.5044 15.5976 23.3705 15.2987 23.2758 15.1129L23.1986 14.9694C22.7863 14.2487 22.0447 13.4849 21.1508 13.0329Z" fill="#136EFF"/>
<path d="M18.3325 5.05054C18.9727 4.99337 19.544 5.48735 19.5932 6.12963L19.5961 6.24975C19.5806 6.84235 19.1197 7.33843 18.5161 7.38548C17.6274 7.45263 16.8006 7.48968 15.9741 7.49876H15.1421C14.4969 7.49014 13.9796 6.96239 13.9868 6.31615L13.9937 6.19701C14.06 5.60757 14.5634 5.15115 15.1704 5.15796H15.9477C16.7215 5.14911 17.4955 5.11414 18.3325 5.05054Z" fill="#136EFF"/>
<path d="M8.76714 4.67554L10.5054 4.86402L11.9859 4.99878L12.105 5.01441C12.6494 5.11513 13.0501 5.58854 13.061 6.14232L13.0571 6.26146C13.0067 6.87723 12.4884 7.34015 11.8804 7.3347H11.8775L11.8755 7.33567C11.847 7.33548 11.8189 7.33368 11.8032 7.33274H11.7954C11.326 7.29448 10.8213 7.24813 10.2749 7.1931L8.50249 7.00072C7.86123 6.92695 7.39866 6.34803 7.47223 5.70581C7.54552 5.0596 8.13612 4.60483 8.76714 4.67554Z" fill="#136EFF"/>
<path d="M22.9584 4.5398C23.5973 4.4552 24.1886 4.90641 24.2719 5.54858L24.2816 5.66772C24.2993 6.26101 23.8639 6.78253 23.2621 6.86107L23.2631 6.86204C22.7595 6.9284 22.2818 6.98884 21.8246 7.04564L21.8149 7.04661C21.7728 7.05078 21.7223 7.05496 21.6664 7.05443C21.1257 7.04746 20.6539 6.66701 20.5375 6.13451L20.519 6.02612C20.4398 5.38396 20.8964 4.80099 21.5375 4.72144L22.9584 4.5398Z" fill="#136EFF"/>
<path fill-rule="evenodd" clip-rule="evenodd" d="M28.6771 0.907022C29.0457 0.855479 29.4113 0.987358 29.6654 1.24589L29.7562 1.35038C29.9227 1.56594 30.0083 1.8331 29.9994 2.10525L29.9867 2.24295C29.6936 4.16456 29.0259 5.36601 28.3402 6.32689C28.3713 6.39765 28.3983 6.47276 28.4144 6.55345L28.5306 7.14134C29.6773 13.1601 29.5823 19.0909 28.2572 26.1773C28.9578 27.0939 29.4144 27.8944 29.6478 28.7896C29.8923 29.7276 29.8831 30.7321 29.7142 32.0259C29.6304 32.6593 29.0455 33.1246 28.4056 33.0356C19.5299 31.902 11.2446 31.9209 2.32384 33.0942L2.32286 33.0932C2.26907 33.1006 2.21372 33.104 2.15685 33.103H2.15489L2.15392 33.104C1.84534 33.0995 1.54812 32.9737 1.33068 32.7505C1.07377 32.485 0.955441 32.112 1.01526 31.7466C1.26727 30.1855 1.54751 29.1528 1.86779 28.356C2.16587 27.6146 2.49498 27.0891 2.84239 26.5533C0.979643 20.8275 1.04943 13.8952 3.00449 6.49584C3.00105 6.49131 2.99719 6.4867 2.99375 6.48217C2.13425 5.35607 1.03022 3.93449 1.28576 1.97244L1.30822 1.85428C1.44427 1.28085 1.99442 0.883391 2.59532 0.963662L2.5963 0.962685C11.4676 2.09697 19.7532 2.08036 28.6771 0.907022ZM27.2767 3.43532C19.2942 4.36325 11.7538 4.37312 3.80332 3.46364C3.8968 3.6744 4.02062 3.8867 4.16659 4.10914L5.53182 4.28101L5.64998 4.3025C6.22731 4.43556 6.62303 4.98681 6.54743 5.58862C6.49554 6.00433 6.23139 6.34133 5.87752 6.5056C5.96394 6.68446 6.06696 6.90383 6.16853 7.1472C6.42912 7.77167 6.71563 8.60728 6.72223 9.31319L6.71735 9.43331C6.66352 10.0242 6.16894 10.4908 5.56209 10.4958H5.5367C5.14887 10.4906 4.80573 10.2961 4.59628 10.0007C3.54226 15.3451 3.58092 20.3053 4.69979 24.5601C4.88906 24.5541 5.08523 24.5936 5.27108 24.6929H5.27303L5.37459 24.7554C5.86557 25.0881 6.03479 25.7449 5.74763 26.2789C5.48357 26.7681 5.23409 27.1613 5.01424 27.5025C5.45136 27.6258 5.79981 27.9982 5.86091 28.481L5.8697 28.6011C5.88451 29.1929 5.44918 29.7127 4.84823 29.7896L4.8492 29.7905L3.80429 29.9263C3.74457 30.1228 3.68514 30.3369 3.62754 30.5757C11.7442 29.625 19.4018 29.6238 27.4945 30.5689C27.5114 30.0214 27.4585 29.5847 27.3099 29.1568C27.124 28.6212 26.7801 28.0662 26.1742 27.3121C26.1278 27.2636 26.0851 27.2123 26.0482 27.1587L25.6137 26.6412L25.1088 26.063C24.6798 25.5799 24.7232 24.8406 25.2064 24.4107C25.4985 24.1516 25.8794 24.0691 26.2289 24.147C27.1128 18.7305 27.2016 14.0149 26.5111 9.3503L26.4828 9.48116C26.355 10.1145 25.7335 10.5239 25.1039 10.3952C24.4677 10.2682 24.06 9.64851 24.1879 9.01632L24.2504 8.73605C24.5894 7.3697 25.2849 6.47682 25.9135 5.66577L26.3754 5.05737C26.7237 4.57817 27.0334 4.0767 27.2767 3.43532Z" fill="#136EFF"/>
</svg>
