<svg width="32" height="32" viewBox="0 0 32 32" fill="none" xmlns="http://www.w3.org/2000/svg">
<path d="M20.8398 2.00098C21.2774 1.99865 21.705 2.13388 22.0596 2.38965C22.4142 2.64549 22.6771 3.00816 22.8105 3.42383L23.5986 5.83105H29.5898L29.8281 5.84375C30.3784 5.89897 30.8957 6.14102 31.291 6.5332C31.743 6.98185 31.9988 7.59079 32 8.22656V26.0049L31.9873 26.2422C31.9316 26.7907 31.6874 27.3057 31.292 27.6982C30.84 28.1469 30.2278 28.3994 29.5898 28.4004H2.41016C1.77218 28.3995 1.16003 28.1469 0.708008 27.6982C0.256014 27.2495 0.000933641 26.6407 0 26.0049V8.22559L0.0126953 7.98926C0.068314 7.44053 0.3124 6.92489 0.708008 6.53223C1.08392 6.15912 1.57139 5.92334 2.0918 5.85352V5.0332C2.0919 4.798 2.18596 4.57269 2.35254 4.40723C2.51902 4.24187 2.74428 4.14968 2.97852 4.14941H7.28809L7.37598 4.1543C7.57829 4.17439 7.76933 4.26256 7.91504 4.40723C8.0815 4.57267 8.17568 4.79809 8.17578 5.0332V5.83008H8.40039L9.18945 3.42188C9.32316 3.0066 9.58589 2.64418 9.94043 2.38867C10.295 2.13314 10.7227 1.9985 11.1602 2.00098V2H20.8398V2.00098ZM11.1064 3.76953C11.061 3.77605 11.0177 3.79353 10.9805 3.82031C10.931 3.85595 10.8946 3.906 10.877 3.96289L10.875 3.96973L9.89746 6.95898L9.89648 6.95801C9.84428 7.1387 9.73694 7.29819 9.58789 7.41309C9.45144 7.51816 9.28766 7.58175 9.11719 7.5957L9.04395 7.59863H2.41211L2.34961 7.60156C2.2031 7.61639 2.06532 7.68067 1.96094 7.78418C1.84182 7.90237 1.77508 8.06263 1.77441 8.22852V26.0029L1.77832 26.0645C1.79308 26.2078 1.85671 26.3438 1.96094 26.4473C2.08005 26.5654 2.24247 26.6321 2.41211 26.6328H29.5879C29.7573 26.632 29.9191 26.5652 30.0381 26.4473C30.1567 26.3295 30.2235 26.1701 30.2246 26.0049V8.22754L30.2217 8.16602C30.2072 8.02288 30.1431 7.88754 30.0391 7.78418C29.9349 7.6808 29.7976 7.61628 29.6514 7.60156L29.5879 7.59863H22.9561C22.7694 7.59887 22.5871 7.53994 22.4355 7.43066C22.2839 7.32124 22.1702 7.16646 22.1123 6.98828V6.9873L21.125 3.96973L21.123 3.96289C21.1054 3.906 21.069 3.85595 21.0195 3.82031C20.9699 3.78461 20.9096 3.76544 20.8477 3.7666H11.1523L11.1064 3.76953ZM15.999 7.89258C17.113 7.89111 18.2167 8.10804 19.2461 8.53125C20.2754 8.95445 21.211 9.57513 21.998 10.3584L22.252 10.6221C23.4913 11.9637 24.2629 13.6714 24.4434 15.4902C24.6358 17.4303 24.1435 19.3767 23.0527 20.9971C21.9619 22.6172 20.3393 23.8116 18.4619 24.377C16.5842 24.9423 14.5668 24.844 12.7539 24.0986C10.9409 23.3532 9.44324 22.0061 8.51758 20.2871C7.59218 18.5682 7.29556 16.5837 7.67871 14.6719C8.06197 12.7598 9.10174 11.0387 10.6191 9.80273C12.1362 8.56725 14.0375 7.89272 15.999 7.89258ZM16.6582 9.69141C15.1129 9.54036 13.5621 9.92637 12.2715 10.7822C10.9811 11.6381 10.0302 12.9119 9.58008 14.3848C9.1301 15.8575 9.20843 17.4394 9.80176 18.8613C10.3953 20.2835 11.4679 21.4592 12.8369 22.1855C14.2059 22.9116 15.7868 23.1434 17.3096 22.8428C18.8323 22.5421 20.2023 21.7273 21.1865 20.5371C22.1708 19.3467 22.709 17.8544 22.709 16.3154V16.3145L22.7012 15.9883C22.6642 15.2262 22.495 14.4751 22.2002 13.7686C21.8633 12.9613 21.3687 12.2278 20.7451 11.6104H20.7441C19.647 10.5215 18.2033 9.84255 16.6582 9.69141ZM16.1699 12.8926C16.5642 12.9118 16.9528 12.998 17.3184 13.1484C17.7361 13.3204 18.1158 13.5727 18.4355 13.8906L18.54 13.998C19.0442 14.5438 19.3581 15.239 19.4316 15.9795C19.51 16.7694 19.3091 17.5612 18.8652 18.2207C18.4213 18.8802 17.7614 19.3658 16.998 19.5957C16.2348 19.8255 15.4147 19.7863 14.6777 19.4834C13.9407 19.1803 13.3318 18.6321 12.9551 17.9326C12.5784 17.233 12.4574 16.4249 12.6133 15.6465C12.7694 14.8681 13.1924 14.1677 13.8096 13.665C14.4268 13.1623 15.2005 12.8887 15.998 12.8887H16L16.1699 12.8926ZM16.1621 14.6641C15.7758 14.6264 15.3876 14.7228 15.0654 14.9365C14.7434 15.1503 14.5066 15.4683 14.3945 15.835C14.2825 16.2017 14.3023 16.596 14.4502 16.9502C14.5981 17.3043 14.8652 17.5979 15.207 17.7793C15.5491 17.9607 15.9454 18.0186 16.3262 17.9434C16.7067 17.868 17.0486 17.664 17.2939 17.3672C17.5393 17.0703 17.6738 16.6985 17.6738 16.3154V16.3145L17.665 16.1523C17.6491 15.9908 17.6088 15.8323 17.5459 15.6816C17.4829 15.5308 17.3982 15.3895 17.2939 15.2637L17.1836 15.1426C16.9098 14.871 16.5483 14.7018 16.1621 14.6641ZM16.2988 10.3516C17.7834 10.4255 19.1923 11.0437 20.249 12.0928C21.374 13.2097 22.0077 14.7244 22.0107 16.3047L22.0088 16.3936C22.0022 16.4816 21.9827 16.5689 21.9502 16.6514C21.9068 16.7615 21.8416 16.8619 21.7588 16.9463C21.6759 17.0307 21.5768 17.0979 21.4678 17.1436C21.3588 17.1892 21.2412 17.2129 21.123 17.2129C21.0052 17.2128 20.888 17.189 20.7793 17.1436C20.6705 17.0979 20.571 17.0306 20.4883 16.9463C20.4056 16.8619 20.3403 16.7614 20.2969 16.6514C20.2535 16.5412 20.2331 16.4231 20.2363 16.3047C20.2349 15.7568 20.1253 15.2144 19.9141 14.708C19.7013 14.1982 19.3885 13.7343 18.9951 13.3438C18.6018 12.9534 18.1344 12.6431 17.6201 12.4316C17.106 12.2203 16.5547 12.1114 15.998 12.1113L15.9102 12.1064C15.7086 12.0862 15.5183 11.9977 15.373 11.8535C15.2067 11.6882 15.1125 11.4634 15.1123 11.2285C15.1123 10.9932 15.2064 10.7671 15.373 10.6016C15.5397 10.4362 15.7657 10.3438 16 10.3438L16.2988 10.3516ZM4.73242 8.69824C4.93814 8.69791 5.1428 8.73818 5.33301 8.81641C5.52277 8.89452 5.69544 9.00963 5.84082 9.1543L5.93262 9.25293C6.13567 9.49281 6.26177 9.78982 6.29297 10.1045C6.32853 10.4641 6.23804 10.8251 6.03613 11.125C5.83423 11.4247 5.53383 11.6447 5.1875 11.749C4.84115 11.8532 4.46926 11.8348 4.13477 11.6973C3.80021 11.5597 3.52294 11.3114 3.35156 10.9932C3.18016 10.6748 3.12523 10.3066 3.19629 9.95215C3.26737 9.598 3.46001 9.28011 3.74023 9.05176C4.02038 8.82364 4.37096 8.69845 4.73242 8.69824ZM4.75195 10.0674C4.70784 10.0632 4.6638 10.0742 4.62695 10.0986C4.58997 10.1232 4.5627 10.1599 4.5498 10.2021C4.53701 10.2443 4.53877 10.2894 4.55566 10.3301C4.57267 10.3708 4.60347 10.405 4.64258 10.4258C4.68183 10.4466 4.72784 10.453 4.77148 10.4443C4.81502 10.4357 4.85464 10.412 4.88281 10.3779C4.91081 10.3439 4.92577 10.3008 4.92578 10.2568C4.92575 10.2318 4.92078 10.2067 4.91113 10.1836C4.90144 10.1606 4.88695 10.1397 4.86914 10.1221C4.83766 10.091 4.79616 10.0717 4.75195 10.0674Z" fill="#136EFF"/>
</svg>
