<svg width="32" height="32" viewBox="0 0 32 32" fill="none" xmlns="http://www.w3.org/2000/svg">
<path fill-rule="evenodd" clip-rule="evenodd" d="M30 0.999313C30 0.447692 29.552 0 29 0H3C2.448 0 2 0.447692 2 0.999313V31.0007C2 31.5523 2.448 32 3 32H29C29.552 32 30 31.5523 30 31.0007V0.999313ZM28 1.99863V30.0014H4V1.99863H28ZM16 7.9945C10.48 7.9945 6 12.4734 6 17.9876C6 23.5038 10.48 27.9808 16 27.9808C21.52 27.9808 26 23.5038 26 17.9876C26 12.4734 21.52 7.9945 16 7.9945ZM16 9.99313C20.416 9.99313 24 13.5767 24 17.9876C24 22.4006 20.416 25.9821 16 25.9821C11.584 25.9821 8 22.4006 8 17.9876C8 13.5767 11.584 9.99313 16 9.99313ZM16 11.9918C12.688 11.9918 10 14.6799 10 17.9876C10 21.2974 12.688 23.9835 16 23.9835C19.312 23.9835 22 21.2974 22 17.9876C22 14.6799 19.312 11.9918 16 11.9918ZM16 13.9904C18.208 13.9904 20 15.7831 20 17.9876C20 20.1941 18.208 21.9849 16 21.9849C13.792 21.9849 12 20.1941 12 17.9876C12 15.7831 13.792 13.9904 16 13.9904ZM15 5.99588H17C17.552 5.99588 18 5.54819 18 4.99656C18 4.44494 17.552 3.99725 17 3.99725H15C14.448 3.99725 14 4.44494 14 4.99656C14 5.54819 14.448 5.99588 15 5.99588ZM8 5.99588H11C11.552 5.99588 12 5.54819 12 4.99656C12 4.44494 11.552 3.99725 11 3.99725H8C7.448 3.99725 7 4.44494 7 4.99656C7 5.54819 7.448 5.99588 8 5.99588ZM21 5.99588H24C24.552 5.99588 25 5.54819 25 4.99656C25 4.44494 24.552 3.99725 24 3.99725H21C20.448 3.99725 20 4.44494 20 4.99656C20 5.54819 20.448 5.99588 21 5.99588Z" fill="#136EFF"/>
</svg>
