<svg width="32" height="32" viewBox="0 0 32 32" fill="none" xmlns="http://www.w3.org/2000/svg">
<path d="M11.3784 22.1736C11.8258 22.2254 12.1881 22.5773 12.2395 23.0318L12.2451 23.1309L12.2413 23.2329C12.2111 23.5519 12.0223 23.8315 11.7561 23.9901C12.0281 24.1472 12.2186 24.4308 12.2432 24.7605L12.2451 24.8596C12.2312 25.3681 11.8136 25.796 11.3067 25.8179L11.2047 25.817C10.7917 25.7901 10.4476 25.5039 10.3286 25.1249C10.199 25.532 9.80868 25.8334 9.36272 25.8188C8.81584 25.8003 8.37865 25.3218 8.41294 24.7737L8.42426 24.6746C8.50385 24.1916 8.93236 23.8463 9.42031 23.8589L9.52228 23.8664C9.90266 23.9159 10.2153 24.1837 10.3286 24.5396C10.4027 24.3032 10.563 24.1103 10.7704 23.991C10.4657 23.8096 10.2648 23.4685 10.2842 23.0932L10.2936 22.994C10.3677 22.5106 10.7924 22.1587 11.2821 22.167L11.3784 22.1736Z" fill="#136EFF"/>
<path d="M23.0931 7.16681C23.1878 7.17691 23.291 7.20099 23.3942 7.2499C23.5382 7.31819 23.6512 7.42104 23.7351 7.54352C23.8126 7.65676 23.8648 7.7879 23.9031 7.924C24.038 7.96214 24.1676 8.01445 24.2808 8.09111C24.401 8.1726 24.5043 8.28207 24.5753 8.42249C24.6269 8.52473 24.6546 8.62846 24.6669 8.72556L24.6745 8.82091V8.91816C24.6699 9.01883 24.6499 9.12825 24.6027 9.23821C24.5374 9.39028 24.4334 9.50873 24.311 9.59698C24.1908 9.68355 24.0495 9.74124 23.9022 9.78391C23.8602 9.93199 23.804 10.0751 23.7171 10.1956C23.6267 10.3208 23.505 10.4224 23.3527 10.4854C23.2449 10.5299 23.1383 10.5484 23.0421 10.5534L22.9496 10.5543C22.8314 10.5515 22.6922 10.5326 22.554 10.4684C22.4091 10.401 22.2947 10.2979 22.2094 10.1738C22.1283 10.056 22.075 9.91929 22.0375 9.77825C21.8922 9.73382 21.7539 9.67675 21.6372 9.5932C21.5171 9.50716 21.4133 9.39192 21.3474 9.24199C21.2839 9.09758 21.2696 8.95458 21.2728 8.83413L21.2813 8.72933C21.3114 8.48581 21.4268 8.25455 21.6655 8.09111C21.7807 8.01241 21.9118 7.95957 22.0479 7.92211C22.0906 7.77816 22.148 7.64014 22.233 7.52275C22.3218 7.40001 22.4401 7.29727 22.5908 7.2329C22.7354 7.17125 22.8797 7.15773 23.0015 7.16115L23.0931 7.16681Z" fill="#136EFF"/>
<path fill-rule="evenodd" clip-rule="evenodd" d="M22.4331 0.0226589L22.6984 0.0991326C22.7995 0.128663 22.9078 0.162209 23.0062 0.199209L23.2375 0.293621C23.7658 0.52698 24.2126 0.851466 24.5564 1.27551C24.9314 1.738 25.1636 2.29562 25.2655 2.9296C27.2004 3.5187 28.8581 4.59447 29.8926 6.46156L30.0994 6.86092C31.0042 8.729 31.0417 10.6644 30.3165 12.588L30.1494 12.9996C29.7046 14.0246 28.8971 14.6567 27.9553 15.0313L27.7655 15.1031C27.3927 15.2357 26.9704 15.3762 26.5297 15.4477L26.3389 15.4741C25.7639 15.5388 25.4307 15.8024 25.2447 16.1218C25.0476 16.4603 24.9895 16.9107 25.0776 17.3558L25.1324 17.6022C25.1925 17.8492 25.2673 18.1001 25.3486 18.365C25.4543 18.7098 25.5707 19.0831 25.6545 19.4659L25.7829 20.1013C25.9013 20.7372 25.9951 21.3745 26.0906 21.9933L26.102 22.0962C26.1188 22.336 26.0642 22.5779 25.9188 22.7807C25.7719 22.9853 25.5584 23.1122 25.325 23.1593L25.2239 23.1744C25.0412 23.1927 24.8539 23.1626 24.6858 23.079C25.262 23.4023 25.8378 23.7276 26.3852 24.026L26.44 24.0496C26.5032 24.0718 26.5945 24.0904 26.7138 24.1005L26.828 24.1043C26.8698 24.1039 26.916 24.1016 26.9687 24.0987C27.0637 24.0934 27.2001 24.0833 27.3284 24.0826L27.4766 24.0864C28.9376 24.1661 29.8841 25.5373 29.4036 26.9339L29.3507 27.0736C29.171 27.5087 28.9821 27.943 28.7918 28.3736L28.2243 29.6539C28.1726 29.7719 28.1299 29.8589 28.0941 29.9362L28.0015 30.1618C27.7208 31.0046 27.18 31.6841 26.2379 31.9764L26.1614 32H25.3419L25.2693 31.9792L22.6484 31.2192C22.1319 31.0725 21.6152 30.9261 21.0991 30.7821L19.5498 30.3572C19.4081 30.3192 19.261 30.2939 19.1174 30.2836L18.9757 30.2779L2.25916 30.2713C2.08694 30.2712 1.82474 30.2761 1.56429 30.2194L1.45288 30.1911C1.07899 30.081 0.745525 29.8901 0.490825 29.6048C0.266853 29.3537 0.12094 29.0496 0.0499213 28.7097L0.0244301 28.5615C-0.0339994 28.1497 0.00977271 27.7473 0.183986 27.3842C0.358585 27.0205 0.646064 26.7332 1.01104 26.5232L1.52275 26.2352C2.00755 25.9669 2.49696 25.7057 2.97008 25.4478C2.88569 24.8969 2.89693 24.39 3.03806 23.9316C3.21611 23.3535 3.58257 22.9063 4.1002 22.5664L4.29563 22.4483C4.75472 22.1921 5.24311 22.0768 5.76657 22.1339C6.23094 22.1847 6.6877 22.3687 7.14687 22.6532C7.28922 22.5304 7.43231 22.4067 7.5755 22.2831C7.19492 21.7909 6.93538 21.283 6.82587 20.7536C6.68246 20.06 6.80562 19.3827 7.15537 18.7342L7.29226 18.501C7.62859 17.9752 8.0785 17.5862 8.6518 17.3576C9.16688 17.1524 9.75113 17.0903 10.3946 17.1414C10.422 17.027 10.4502 16.912 10.4777 16.7968C10.5109 16.6582 10.5433 16.5187 10.5769 16.3786C8.67549 15.3256 8.37714 12.6919 10.0217 11.2435L10.1784 11.1132C10.2447 11.0629 10.3238 11.0097 10.4116 10.9678L10.5542 10.9121C10.7021 10.8649 10.8657 10.8473 11.0357 10.881C11.2079 10.9152 11.3566 10.9955 11.4785 11.1038L11.5918 11.2209L11.6853 11.3521C11.763 11.4793 11.8141 11.6254 11.824 11.7864C12.1134 10.9724 12.4741 10.1788 12.8021 9.42043C11.6862 8.20246 11.5923 6.37612 12.5756 5.05293L12.7748 4.80935C13.8061 3.65163 15.479 3.31117 16.8892 4.02762C16.895 4.02444 16.9021 4.02129 16.9091 4.01723L17.3103 3.79253C17.4445 3.72013 17.5791 3.65049 17.7106 3.58199C17.9597 3.4523 18.1983 3.32781 18.4338 3.19868C18.5984 1.59619 19.6335 0.428264 21.2284 0.0698649C21.2299 0.0691525 21.2316 0.0678348 21.2331 0.0670325C21.2387 0.064294 21.2459 0.0604409 21.2539 0.0566472C21.2621 0.0527598 21.2722 0.0481871 21.2832 0.0434295L21.3842 0H22.3576L22.4331 0.0226589ZM26.5514 5.67416C23.9496 4.00533 20.2103 3.94377 17.5548 5.94796L17.3009 6.14811C16.7227 6.62665 16.2362 7.18155 15.8375 7.81731L15.6732 8.09488C14.2144 10.6663 13.2251 13.4082 12.5897 16.2983L12.467 16.878C12.3015 17.6959 12.0485 18.4961 11.7844 19.2685L11.5191 20.0314C10.993 21.5404 10.0435 22.7231 8.9237 23.7267L8.43276 24.1459C6.74133 25.5351 4.89161 26.6563 3.00785 27.6816L2.19874 28.1159L1.99198 28.2282C1.98118 28.2358 1.97391 28.2431 1.96837 28.2481C1.9732 28.2671 1.97801 28.2781 1.98065 28.283L1.98159 28.2849L2.01275 28.2934L2.12982 28.3028C2.17626 28.3038 2.23408 28.3038 2.31298 28.3038L10.1124 28.3075C12.7115 28.308 15.311 28.3058 17.9098 28.2934L18.3215 28.2981C19.2793 28.3244 20.2133 28.4609 21.1482 28.7466L22.2245 29.0657C23.3026 29.3755 24.3882 29.6645 25.4845 29.9711L25.6535 30.0098C25.791 30.0326 25.8399 30.0135 25.8518 30.0079C25.867 30.0007 25.9428 29.9584 26.0557 29.702L26.8374 27.9157L26.8034 27.9205C26.7492 27.9256 26.6236 27.9397 26.507 27.9375C26.4264 27.9359 26.2292 27.9283 26.0491 27.81L25.9736 27.7524L25.9726 27.7515C25.8561 27.6483 25.7549 27.512 25.6847 27.3738C25.6232 27.2527 25.5351 27.0327 25.5818 26.7885L25.6035 26.7035C25.6632 26.5141 25.7886 26.3695 25.8801 26.2834C25.9763 26.1927 26.1134 26.0965 26.2738 26.0407C25.8759 25.9658 25.504 25.8173 25.1522 25.6225L24.8737 25.4572C24.5104 25.227 24.1289 25.0188 23.7294 24.803C23.4335 24.6431 23.1265 24.4786 22.823 24.3016L22.5209 24.1204C22.042 23.8237 21.5062 23.8679 21.0755 24.1213C20.6316 24.3828 20.3709 24.8212 20.3863 25.2335L20.3853 25.3373C20.3731 25.5774 20.2865 25.809 20.1106 25.9878C19.9365 26.1646 19.7125 26.2522 19.4884 26.2692L19.3921 26.272C19.1238 26.2685 18.8564 26.1684 18.6661 25.9397C18.532 25.7784 18.4647 25.5882 18.4385 25.4006L18.4253 25.2146C18.4133 24.0861 19.0075 23.1353 19.8613 22.555C19.5806 22.5493 19.3023 22.4461 19.0796 22.2633L18.9918 22.184C18.5005 21.6992 18.0112 21.2124 17.5237 20.7244L16.065 19.2582C15.8841 19.0756 15.7471 18.8271 15.7516 18.5302C15.7562 18.238 15.8971 17.9967 16.0707 17.8184L16.6343 17.2425C16.8274 17.0486 17.0267 16.855 17.232 16.6694L17.4368 16.5004C18.4942 15.712 19.9597 15.786 20.9376 16.7128L21.3408 17.1046C21.7449 17.5044 22.1492 17.9228 22.5266 18.2914L22.6285 18.3943C22.8561 18.6361 23.1185 19.0042 23.0421 19.5206L23.0185 19.6424C22.9581 19.8913 22.8366 20.119 22.6106 20.2986C22.516 20.3736 22.4097 20.432 22.2981 20.4817C22.2967 20.5814 22.292 20.6767 22.2802 20.7659C22.2525 20.9752 22.184 21.2076 22.0045 21.3994C21.8263 21.5897 21.5997 21.6745 21.3955 21.7185C21.2785 21.7438 21.149 21.757 21.0122 21.7676C21.0013 21.7878 20.9908 21.8105 20.9773 21.8347C20.9334 21.9131 20.8751 22.007 20.8007 22.1009C21.6097 21.8495 22.5144 21.89 23.3263 22.3275L24.09 22.7457C24.2621 22.8413 24.4354 22.9386 24.6084 23.0356C24.5658 23.009 24.5238 22.9795 24.4847 22.9449C24.302 22.7835 24.1979 22.5667 24.1599 22.3379L24.1476 22.2387C24.0483 21.0561 23.7611 19.9096 23.4046 18.7464L23.2479 18.247C22.8714 17.0697 23.0473 15.907 23.7313 14.8746L23.8361 14.7254C24.3764 14.0072 25.1308 13.6798 25.9386 13.5368L26.3153 13.4603C26.6907 13.3736 27.0609 13.2572 27.4105 13.1119L27.5361 13.0543C27.9309 12.8561 28.1994 12.5416 28.3962 12.1168C27.3572 12.1825 26.415 11.8664 25.5884 11.1992L25.3929 11.032C25.2083 10.8669 25.0545 10.6479 25.0058 10.3825C24.9546 10.1027 25.0321 9.83007 25.2069 9.61397L25.2759 9.53656C25.445 9.36409 25.6728 9.2481 25.9405 9.24577C26.2324 9.24328 26.4868 9.37643 26.6835 9.54977L26.8639 9.69705C27.2866 10.017 27.738 10.1741 28.2602 10.1521L28.5727 10.1332C28.6567 10.1258 28.7231 10.1176 28.7757 10.1068C28.7906 10.1038 28.8023 10.0982 28.8125 10.0955C28.8133 10.0904 28.8156 10.0846 28.8163 10.0785C28.8217 10.031 28.8243 9.97053 28.8229 9.89154L28.8078 9.59131C28.6924 8.00779 28.0489 6.74528 26.8082 5.84882L26.5514 5.67416ZM9.79135 19.0637C9.43746 19.1006 9.11799 19.2965 8.92559 19.6046L8.87083 19.7009C8.68414 20.0732 8.70961 20.496 8.91426 20.8292C9.27527 20.29 9.544 19.6985 9.79135 19.0637ZM19.512 18.0865C19.3177 17.9074 19.0189 17.8706 18.7935 17.976L18.7029 18.0299C18.5056 18.1737 18.3374 18.3308 18.161 18.5029C18.6219 18.9646 19.0855 19.4295 19.5347 19.8794C19.7323 19.7407 19.9466 19.7107 20.1087 19.7104C20.1541 19.7103 20.2004 19.7122 20.2456 19.7161C20.2422 19.6777 20.2367 19.6393 20.2361 19.6018C20.2337 19.4361 20.2606 19.2076 20.4127 18.9976C20.2231 18.796 20.0389 18.6018 19.8509 18.4132L19.512 18.0865ZM11.5975 12.4595C11.5392 12.532 11.48 12.589 11.436 12.6267C11.4113 12.6478 11.3856 12.668 11.368 12.6824L11.3237 12.7201C10.8837 13.1068 10.8091 13.7323 11.0716 14.2005C11.2404 13.6211 11.4121 13.0365 11.5975 12.4595ZM14.9755 5.67699C14.6658 5.75413 14.3834 5.93199 14.1787 6.19248L14.1013 6.30011C13.91 6.59434 13.8441 6.94731 13.8775 7.26972C14.1881 6.71245 14.5449 6.17378 14.9755 5.67699ZM21.7005 1.97982C21.2874 2.02737 20.9185 2.25528 20.6837 2.58217C21.4643 2.47021 22.2395 2.45236 23.0128 2.5123C22.7412 2.18538 22.3098 1.96242 21.8364 1.97038L21.7005 1.97982Z" fill="#136EFF"/>
</svg>
