<svg width="24" height="24" viewBox="0 0 24 24" fill="none" xmlns="http://www.w3.org/2000/svg">
<path d="M16.0341 14.8222C16.3695 15.1576 16.3695 15.6987 16.0341 16.0341C15.867 16.2013 15.6473 16.2849 15.4277 16.2849C15.208 16.2849 14.9883 16.2013 14.8212 16.0341L11.3923 12.6052C11.2316 12.4445 11.1415 12.2259 11.1415 11.9988V7.71262C11.1415 7.239 11.5251 6.8554 11.9988 6.8554C12.4724 6.8554 12.856 7.239 12.856 7.71262V11.6441L16.0341 14.8222ZM20.4854 20.4854C20.4768 20.494 20.4651 20.4972 20.4554 20.5047C18.2845 22.6628 15.2959 24 12 24C8.70413 24 5.7144 22.6638 3.54458 20.5047C3.53494 20.4961 3.52315 20.494 3.51458 20.4854C3.50601 20.4768 3.50279 20.4651 3.49529 20.4554C1.33722 18.2845 0 15.2959 0 12C0 8.70413 1.3362 5.7144 3.49529 3.54458C3.50387 3.53494 3.50601 3.52315 3.51458 3.51458C3.52315 3.50601 3.53494 3.50279 3.54458 3.49529C5.71552 1.33722 8.70413 0 12 0C15.2959 0 18.2856 1.3362 20.4554 3.49529C20.4651 3.50386 20.4768 3.50601 20.4854 3.51458C20.494 3.52315 20.4972 3.53494 20.5047 3.54458C22.6628 5.71552 24 8.70413 24 12C24 15.2959 22.6638 18.2856 20.5047 20.4554C20.4961 20.4651 20.494 20.4768 20.4854 20.4854ZM19.8468 18.6349C21.1916 17.0469 22.0606 15.0496 22.2427 12.8562H20.5722C20.0986 12.8562 19.715 12.4726 19.715 11.999C19.715 11.5253 20.0986 11.1418 20.5722 11.1418H22.2427C22.0606 8.94939 21.1916 6.95217 19.8468 5.36308L18.667 6.54284C18.4999 6.71 18.2802 6.79358 18.0605 6.79358C17.8409 6.79358 17.6212 6.71 17.4541 6.54284C17.1187 6.20744 17.1187 5.66633 17.4541 5.33093L18.6338 4.15117C17.0458 2.8064 15.0486 1.93738 12.8552 1.75521V3.42572C12.8552 3.89935 12.4716 4.28295 11.9979 4.28295C11.5243 4.28295 11.1407 3.89935 11.1407 3.42572V1.75521C8.94835 1.93737 6.95113 2.80638 5.36204 4.15117L6.5418 5.33093C6.8772 5.66633 6.8772 6.20744 6.5418 6.54284C6.37464 6.71 6.15497 6.79358 5.93532 6.79358C5.71568 6.79358 5.49598 6.71 5.32885 6.54284L4.14908 5.36308C2.80432 6.9511 1.9353 8.94835 1.75312 11.1418H3.42363C3.89726 11.1418 4.28086 11.5253 4.28086 11.999C4.28086 12.4726 3.89726 12.8562 3.42363 12.8562H1.75312C1.93529 15.0486 2.80429 17.0458 4.14908 18.6349L5.32885 17.4551C5.66425 17.1197 6.20536 17.1197 6.54076 17.4551C6.87616 17.7905 6.87616 18.3316 6.54076 18.667L5.36099 19.8468C6.94902 21.1916 8.94626 22.0606 11.1397 22.2427V20.5722C11.1397 20.0986 11.5233 19.715 11.9969 19.715C12.4705 19.715 12.8541 20.0986 12.8541 20.5722V22.2427C15.0465 22.0606 17.0437 21.1916 18.6328 19.8468L17.453 18.667C17.1176 18.3316 17.1176 17.7905 17.453 17.4551C17.7884 17.1197 18.3295 17.1197 18.6649 17.4551L19.8447 18.6349H19.8468Z" fill="#136EFF"/>
</svg>
