<svg width="18" height="18" viewBox="0 0 18 18" fill="none" xmlns="http://www.w3.org/2000/svg">
<path d="M16.1191 8.63297C15.9281 4.86685 12.8136 1.87172 9 1.87172C5.06333 1.87172 1.87172 5.06333 1.87172 9C1.87172 12.9367 5.06333 16.1283 9 16.1283C12.9367 16.1283 16.1283 12.9367 16.1283 9L16.1191 8.63297ZM12.2822 6.16922C12.6499 5.8692 13.1924 5.89044 13.5352 6.2332L13.5991 6.30422C13.8789 6.64728 13.8791 7.1423 13.5991 7.48547L13.5352 7.55648L8.97188 12.1198C8.52376 12.5679 7.81437 12.5962 7.33359 12.2041L7.24078 12.1198L5.06109 9.94008C4.69555 9.57457 4.69553 8.98161 5.06109 8.61609L5.13211 8.55211C5.49966 8.25232 6.04174 8.27382 6.38438 8.61609L8.10633 10.338L12.2112 6.2332L12.2822 6.16922ZM18 9C18 13.9706 13.9706 18 9 18C4.02942 18 0 13.9706 0 9C1.17778e-07 4.02942 4.02942 1.17781e-07 9 0C13.9706 0 18 4.02942 18 9Z" fill="#136EFF"/>
</svg>
